<svg width="24" height="24" viewBox="0 0 24 24" fill="none" xmlns="http://www.w3.org/2000/svg">
<path fill-rule="evenodd" clip-rule="evenodd" d="M10.3243 20.106C10.8423 20.683 11.5073 21 12.1973 21H12.1983C12.8913 21 13.5593 20.683 14.0783 20.105C14.3563 19.798 14.8303 19.773 15.1373 20.05C15.4453 20.327 15.4703 20.802 15.1933 21.109C14.3853 22.006 13.3223 22.5 12.1983 22.5H12.1963C11.0753 22.499 10.0143 22.005 9.20935 21.108C8.93235 20.801 8.95735 20.326 9.26535 20.05C9.57335 19.772 10.0473 19.797 10.3243 20.106ZM12.2471 1C16.6921 1 19.6781 4.462 19.6781 7.695C19.6781 9.358 20.1011 10.063 20.5501 10.811C20.9941 11.549 21.4971 12.387 21.4971 13.971C21.1481 18.018 16.9231 18.348 12.2471 18.348C7.57115 18.348 3.34515 18.018 3.00014 14.035C2.99715 12.387 3.50015 11.549 3.94415 10.811L4.10089 10.5472C4.48682 9.88386 4.81615 9.16235 4.81615 7.695C4.81615 4.462 7.80215 1 12.2471 1ZM12.2471 2.5C8.75215 2.5 6.31615 5.238 6.31615 7.695C6.31615 9.774 5.73915 10.735 5.22915 11.583C4.82015 12.264 4.49715 12.802 4.49715 13.971C4.66415 15.857 5.90915 16.848 12.2471 16.848C18.5501 16.848 19.8341 15.813 20.0001 13.906C19.9971 12.802 19.6741 12.264 19.2651 11.583C18.7551 10.735 18.1781 9.774 18.1781 7.695C18.1781 5.238 15.7421 2.5 12.2471 2.5Z" fill="#333333"/>
<path d="M22 2L2 20" stroke="#333333" stroke-linecap="round"/>
<path d="M22 3L2 21" stroke="white" stroke-width="0.5" stroke-linecap="round"/>
<path d="M22 1L2 19" stroke="white" stroke-width="0.5" stroke-linecap="round"/>
</svg>
