<svg width="32" height="32" viewBox="0 0 32 32" fill="none" xmlns="http://www.w3.org/2000/svg">
<path fill-rule="evenodd" clip-rule="evenodd" d="M23.1839 18.2773C25.4719 18.2773 27.3332 20.1293 27.3332 22.4053C27.3332 24.6813 25.4719 26.5333 23.1839 26.5333C20.8945 26.5333 19.0319 24.6813 19.0319 22.4053C19.0319 20.1293 20.8945 18.2773 23.1839 18.2773ZM23.1839 20.2773C21.9972 20.2773 21.0319 21.232 21.0319 22.4053C21.0319 23.58 21.9972 24.5333 23.1839 24.5333C24.3692 24.5333 25.3332 23.58 25.3332 22.4053C25.3332 21.232 24.3692 20.2773 23.1839 20.2773ZM13.4404 21.4571C13.9924 21.4571 14.4404 21.9051 14.4404 22.4571C14.4404 23.0091 13.9924 23.4571 13.4404 23.4571H5.03907C4.48707 23.4571 4.03907 23.0091 4.03907 22.4571C4.03907 21.9051 4.48707 21.4571 5.03907 21.4571H13.4404ZM8.15067 5.33334C10.44 5.33334 12.3013 7.18667 12.3013 9.46267C12.3013 11.7387 10.44 13.5893 8.15067 13.5893C5.86267 13.5893 4 11.7387 4 9.46267C4 7.18667 5.86267 5.33334 8.15067 5.33334ZM8.15067 7.33334C6.96533 7.33334 6 8.288 6 9.46267C6 10.636 6.96533 11.5893 8.15067 11.5893C9.33733 11.5893 10.3013 10.636 10.3013 9.46267C10.3013 8.288 9.33733 7.33334 8.15067 7.33334ZM25.5881 8.53387C26.1401 8.53387 26.5881 8.98187 26.5881 9.53387C26.5881 10.0859 26.1401 10.5339 25.5881 10.5339H17.1881C16.6361 10.5339 16.1881 10.0859 16.1881 9.53387C16.1881 8.98187 16.6361 8.53387 17.1881 8.53387H25.5881Z" fill="#333333"/>
</svg>
