<svg width="32" height="32" viewBox="0 0 32 32" fill="none" xmlns="http://www.w3.org/2000/svg">
<path fill-rule="evenodd" clip-rule="evenodd" d="M15.6517 2.66666C22.8117 2.66666 28.6357 8.49066 28.6357 15.6507C28.6357 19.0287 27.3393 22.1097 25.2179 24.422L29.3923 28.5876C29.7829 28.9783 29.7843 29.6103 29.3936 30.0009C29.1989 30.1983 28.9416 30.2956 28.6856 30.2956C28.4309 30.2956 28.1749 30.1983 27.9789 30.0036L23.7542 25.7907C21.5318 27.5705 18.714 28.636 15.6517 28.636C8.49172 28.636 2.66638 22.8107 2.66638 15.6507C2.66638 8.49066 8.49172 2.66666 15.6517 2.66666ZM15.6517 4.66666C9.59438 4.66666 4.66638 9.59333 4.66638 15.6507C4.66638 21.708 9.59438 26.636 15.6517 26.636C21.7077 26.636 26.6357 21.708 26.6357 15.6507C26.6357 9.59333 21.7077 4.66666 15.6517 4.66666Z" fill="#333333"/>
</svg>
