<svg width="28" height="28" viewBox="0 0 28 28" fill="none" xmlns="http://www.w3.org/2000/svg">
<path d="M14.9072 0C15.9468 0 16.9573 0.397278 17.6818 1.08779C18.4049 1.78235 18.8041 2.735 18.7736 3.70117C18.7765 3.91873 18.8535 4.17007 18.9929 4.39033C19.2237 4.75518 19.5882 5.01192 20.0208 5.11732C20.4535 5.21732 20.9065 5.16326 21.2912 4.95111C23.1497 3.96332 25.5148 4.55518 26.5762 6.27132L27.4807 7.72936C27.504 7.76854 27.5243 7.80638 27.5417 7.84557C28.5029 9.53603 27.8611 11.6643 26.0753 12.6359C25.8154 12.7751 25.6049 12.9696 25.4597 13.2048C25.2346 13.5683 25.1722 14.0007 25.2854 14.398C25.4016 14.8033 25.6789 15.1398 26.0695 15.3479C26.9508 15.8195 27.6085 16.6141 27.8713 17.5316C28.1341 18.4478 27.9903 19.4423 27.4778 20.2625L26.5138 21.7571C25.4524 23.4543 23.0873 24.0421 21.2477 23.0529C21.0023 22.9219 20.7192 22.8502 20.4375 22.8435H20.4288C20.0092 22.8435 19.578 23.0097 19.2644 23.3002C18.9464 23.5962 18.7722 23.9907 18.7751 24.4096C18.7649 26.3947 17.0299 28 14.9072 28H13.088C10.9551 28 9.22008 26.3866 9.22008 24.4015C9.21718 24.1569 9.14168 23.9029 9.00084 23.6826C8.77289 23.3124 8.40411 23.0475 7.9787 22.9421C7.55619 22.8367 7.09303 22.8948 6.71263 23.1002C5.80084 23.5732 4.72788 23.688 3.74639 23.4313C2.76635 23.1732 1.91989 22.5462 1.42333 21.7152L0.515892 20.2598C-0.545453 18.5464 0.0861268 16.3506 1.92424 15.3614C2.44548 15.0817 2.76925 14.5601 2.76925 14.0007C2.76925 13.4412 2.44548 12.9183 1.92424 12.6386C0.084675 11.644 -0.545453 9.44279 0.51444 7.72936L1.49883 6.22538C2.54566 4.53086 4.91227 3.93359 6.75764 4.92003C7.00882 5.05922 7.28178 5.12948 7.5591 5.13218C8.46364 5.13218 9.22008 4.43762 9.2346 3.58361C9.22879 2.64176 9.62807 1.73775 10.3555 1.05535C11.0858 0.374306 12.0557 0 13.088 0H14.9072ZM14.9072 2.02693H13.088C12.6379 2.02693 12.2168 2.19043 11.8989 2.48501C11.5823 2.78095 11.4096 3.17417 11.4125 3.59307C11.382 5.56865 9.64694 7.15911 7.54603 7.15911C6.87234 7.15236 6.22334 6.98345 5.66 6.66995C4.86871 6.25105 3.83495 6.50914 3.37179 7.25911L2.38885 8.76309C1.93876 9.49008 2.21462 10.4508 3.01608 10.8846C4.20519 11.5251 4.94711 12.7197 4.94711 14.0007C4.94711 15.2817 4.20519 16.4749 3.01317 17.1167C2.21608 17.5464 1.94021 18.5018 2.40192 19.245L3.31807 20.7152C3.54457 21.0949 3.91481 21.3692 4.34312 21.4814C4.76998 21.5922 5.2404 21.5449 5.63242 21.3422C6.20882 21.0274 6.8796 20.8639 7.55329 20.8639C7.88578 20.8639 8.21826 20.903 8.54349 20.9841C9.52498 21.2301 10.3773 21.8408 10.8825 22.6611C11.2106 23.1759 11.3921 23.7772 11.3979 24.3907C11.3979 25.2691 12.1558 25.9731 13.088 25.9731H14.9072C15.835 25.9731 16.5929 25.2731 16.5972 24.4096C16.5914 23.4556 16.9921 22.5489 17.7254 21.8665C18.4484 21.1936 19.4589 20.7895 20.4695 20.8166C21.1315 20.8314 21.7689 20.9976 22.3308 21.2949C23.1395 21.726 24.1718 21.4692 24.6393 20.726L25.6034 19.2302C25.8183 18.8856 25.8807 18.4532 25.766 18.0545C25.6528 17.6559 25.3682 17.31 24.9849 17.1059C24.0876 16.6249 23.4473 15.8492 23.1816 14.9195C22.9188 14.0074 23.0626 13.0115 23.5751 12.1913C23.909 11.6508 24.3983 11.1954 24.9849 10.8819C25.7718 10.4535 26.0477 9.49549 25.5903 8.74958C25.5715 8.71985 25.554 8.68877 25.5395 8.65634L24.6887 7.28343C24.2255 6.53347 23.1947 6.27537 22.386 6.70373C21.5119 7.18479 20.4724 7.32262 19.4735 7.07804C18.476 6.83751 17.6397 6.2497 17.1185 5.42001C16.7845 4.90111 16.603 4.29709 16.5972 3.68225C16.6103 3.22011 16.4361 2.80527 16.1195 2.50123C15.8045 2.19854 15.3617 2.02693 14.9072 2.02693ZM14.004 9.424C16.7147 9.424 18.9201 11.478 18.9201 14.0008C18.9201 16.5237 16.7147 18.5749 14.004 18.5749C11.2933 18.5749 9.08781 16.5237 9.08781 14.0008C9.08781 11.478 11.2933 9.424 14.004 9.424ZM14.004 11.4509C12.494 11.4509 11.2657 12.5955 11.2657 14.0008C11.2657 15.4061 12.494 16.548 14.004 16.548C15.514 16.548 16.7423 15.4061 16.7423 14.0008C16.7423 12.5955 15.514 11.4509 14.004 11.4509Z" fill="#333333"/>
<path d="M14.9072 0C15.9468 0 16.9573 0.397278 17.6818 1.08779C18.4049 1.78235 18.8041 2.735 18.7736 3.70117C18.7765 3.91873 18.8535 4.17007 18.9929 4.39033C19.2237 4.75518 19.5882 5.01192 20.0208 5.11732C20.4535 5.21732 20.9065 5.16326 21.2912 4.95111C23.1497 3.96332 25.5148 4.55518 26.5762 6.27132L27.4807 7.72936C27.504 7.76854 27.5243 7.80638 27.5417 7.84557C28.5029 9.53603 27.8611 11.6643 26.0753 12.6359C25.8154 12.7751 25.6049 12.9696 25.4597 13.2048C25.2346 13.5683 25.1722 14.0007 25.2854 14.398C25.4016 14.8033 25.6789 15.1398 26.0695 15.3479C26.9508 15.8195 27.6085 16.6141 27.8713 17.5316C28.1341 18.4478 27.9903 19.4423 27.4778 20.2625L26.5138 21.7571C25.4524 23.4543 23.0873 24.0421 21.2477 23.0529C21.0023 22.9219 20.7192 22.8502 20.4375 22.8435H20.4288C20.0092 22.8435 19.578 23.0097 19.2644 23.3002C18.9464 23.5962 18.7722 23.9907 18.7751 24.4096C18.7649 26.3947 17.0299 28 14.9072 28H13.088C10.9551 28 9.22008 26.3866 9.22008 24.4015C9.21718 24.1569 9.14168 23.9029 9.00084 23.6826C8.77289 23.3124 8.40411 23.0475 7.9787 22.9421C7.55619 22.8367 7.09303 22.8948 6.71263 23.1002C5.80084 23.5732 4.72788 23.688 3.74639 23.4313C2.76635 23.1732 1.91989 22.5462 1.42333 21.7152L0.515892 20.2598C-0.545453 18.5464 0.0861268 16.3506 1.92424 15.3614C2.44548 15.0817 2.76925 14.5601 2.76925 14.0007C2.76925 13.4412 2.44548 12.9183 1.92424 12.6386C0.084675 11.644 -0.545453 9.44279 0.51444 7.72936L1.49883 6.22538C2.54566 4.53086 4.91227 3.93359 6.75764 4.92003C7.00882 5.05922 7.28178 5.12948 7.5591 5.13218C8.46364 5.13218 9.22008 4.43762 9.2346 3.58361C9.22879 2.64176 9.62807 1.73775 10.3555 1.05535C11.0858 0.374306 12.0557 0 13.088 0H14.9072ZM14.9072 2.02693H13.088C12.6379 2.02693 12.2168 2.19043 11.8989 2.48501C11.5823 2.78095 11.4096 3.17417 11.4125 3.59307C11.382 5.56865 9.64694 7.15911 7.54603 7.15911C6.87234 7.15236 6.22334 6.98345 5.66 6.66995C4.86871 6.25105 3.83495 6.50914 3.37179 7.25911L2.38885 8.76309C1.93876 9.49008 2.21462 10.4508 3.01608 10.8846C4.20519 11.5251 4.94711 12.7197 4.94711 14.0007C4.94711 15.2817 4.20519 16.4749 3.01317 17.1167C2.21608 17.5464 1.94021 18.5018 2.40192 19.245L3.31807 20.7152C3.54457 21.0949 3.91481 21.3692 4.34312 21.4814C4.76998 21.5922 5.2404 21.5449 5.63242 21.3422C6.20882 21.0274 6.8796 20.8639 7.55329 20.8639C7.88578 20.8639 8.21826 20.903 8.54349 20.9841C9.52498 21.2301 10.3773 21.8408 10.8825 22.6611C11.2106 23.1759 11.3921 23.7772 11.3979 24.3907C11.3979 25.2691 12.1558 25.9731 13.088 25.9731H14.9072C15.835 25.9731 16.5929 25.2731 16.5972 24.4096C16.5914 23.4556 16.9921 22.5489 17.7254 21.8665C18.4484 21.1936 19.4589 20.7895 20.4695 20.8166C21.1315 20.8314 21.7689 20.9976 22.3308 21.2949C23.1395 21.726 24.1718 21.4692 24.6393 20.726L25.6034 19.2302C25.8183 18.8856 25.8807 18.4532 25.766 18.0545C25.6528 17.6559 25.3682 17.31 24.9849 17.1059C24.0876 16.6249 23.4473 15.8492 23.1816 14.9195C22.9188 14.0074 23.0626 13.0115 23.5751 12.1913C23.909 11.6508 24.3983 11.1954 24.9849 10.8819C25.7718 10.4535 26.0477 9.49549 25.5903 8.74958C25.5715 8.71985 25.554 8.68877 25.5395 8.65634L24.6887 7.28343C24.2255 6.53347 23.1947 6.27537 22.386 6.70373C21.5119 7.18479 20.4724 7.32262 19.4735 7.07804C18.476 6.83751 17.6397 6.2497 17.1185 5.42001C16.7845 4.90111 16.603 4.29709 16.5972 3.68225C16.6103 3.22011 16.4361 2.80527 16.1195 2.50123C15.8045 2.19854 15.3617 2.02693 14.9072 2.02693ZM14.004 9.424C16.7147 9.424 18.9201 11.478 18.9201 14.0008C18.9201 16.5237 16.7147 18.5749 14.004 18.5749C11.2933 18.5749 9.08781 16.5237 9.08781 14.0008C9.08781 11.478 11.2933 9.424 14.004 9.424ZM14.004 11.4509C12.494 11.4509 11.2657 12.5955 11.2657 14.0008C11.2657 15.4061 12.494 16.548 14.004 16.548C15.514 16.548 16.7423 15.4061 16.7423 14.0008C16.7423 12.5955 15.514 11.4509 14.004 11.4509Z" stroke="white"/>
</svg>
