<svg width="32" height="32" viewBox="0 0 32 32" fill="none" xmlns="http://www.w3.org/2000/svg">
<path fill-rule="evenodd" clip-rule="evenodd" d="M15.6669 6C15.5455 6 15.2469 6.03333 15.0882 6.35067L12.6535 11.2187C12.2682 11.988 11.5255 12.5227 10.6669 12.6453L5.21621 13.4307C4.85621 13.4827 4.73355 13.7493 4.69621 13.8613C4.66288 13.9693 4.60955 14.244 4.85755 14.4813L8.79888 18.268C9.42688 18.872 9.71221 19.7427 9.56288 20.5947L8.63488 25.9413C8.57755 26.276 8.78688 26.4707 8.88021 26.5373C8.97888 26.612 9.24288 26.76 9.56955 26.5893L14.4429 24.0627C15.2109 23.6667 16.1255 23.6667 16.8909 24.0627L21.7629 26.588C22.0909 26.7573 22.3549 26.6093 22.4549 26.5373C22.5482 26.4707 22.7575 26.276 22.7002 25.9413L21.7695 20.5947C21.6202 19.7427 21.9055 18.872 22.5335 18.268L26.4749 14.4813C26.7242 14.244 26.6709 13.968 26.6362 13.8613C26.6002 13.7493 26.4775 13.4827 26.1175 13.4307L20.6669 12.6453C19.8095 12.5227 19.0669 11.988 18.6815 11.2173L16.2442 6.35067C16.0869 6.03333 15.7882 6 15.6669 6ZM9.26288 28.6667C8.71221 28.6667 8.16555 28.4933 7.69755 28.152C6.88955 27.56 6.49355 26.5827 6.66555 25.5987L7.59355 20.252C7.62821 20.0533 7.56021 19.852 7.41355 19.7107L3.47221 15.924C2.74688 15.2293 2.48688 14.2027 2.79355 13.2493C3.10288 12.2853 3.92155 11.596 4.93088 11.452L10.3815 10.6667C10.5922 10.6373 10.7735 10.508 10.8642 10.324L13.3002 5.45467C13.7495 4.55733 14.6562 4 15.6669 4C16.6775 4 17.5842 4.55733 18.0335 5.45467L20.4709 10.3227C20.5629 10.508 20.7429 10.6373 20.9522 10.6667L26.4029 11.452C27.4122 11.596 28.2309 12.2853 28.5402 13.2493C28.8469 14.2027 28.5855 15.2293 27.8602 15.924L23.9189 19.7107C23.7722 19.852 23.7055 20.0533 23.7402 20.2507L24.6695 25.5987C24.8402 26.584 24.4442 27.5613 23.6349 28.152C22.8149 28.7533 21.7469 28.8347 20.8415 28.3627L15.9709 25.8387C15.7802 25.74 15.5522 25.74 15.3615 25.8387L10.4909 28.364C10.1015 28.5667 9.68155 28.6667 9.26288 28.6667Z" fill="#2AA816"/>
</svg>
