<svg width="32" height="32" viewBox="0 0 32 32" fill="none" xmlns="http://www.w3.org/2000/svg">
<path d="M14.5625 19.8125C15.9579 19.0252 17.0532 17.798 17.6773 16.3224C18.3014 14.8468 18.4192 13.2061 18.0122 11.6565C17.6052 10.1069 16.6964 8.73577 15.4278 7.7573C14.1591 6.77884 12.6021 6.24815 11 6.24815C9.39786 6.24815 7.84085 6.77884 6.57221 7.7573C5.30358 8.73577 4.39478 10.1069 3.98781 11.6565C3.58083 13.2061 3.6986 14.8468 4.32271 16.3224C4.94682 17.798 6.04212 19.0252 7.43749 19.8125C4.99014 20.5841 2.86433 22.1389 1.38749 24.2375C1.32969 24.3178 1.28835 24.4088 1.26586 24.5051C1.24336 24.6015 1.24015 24.7013 1.25642 24.7989C1.27269 24.8965 1.30811 24.9899 1.36064 25.0738C1.41317 25.1576 1.48177 25.2303 1.56249 25.2875C1.6924 25.3738 1.8441 25.4214 1.99999 25.425C2.11943 25.4245 2.23708 25.396 2.34347 25.3417C2.44986 25.2874 2.54201 25.2089 2.61249 25.1125C3.55716 23.7655 4.81217 22.6658 6.27149 21.9061C7.73081 21.1464 9.35154 20.7492 10.9967 20.748C12.642 20.7467 14.2633 21.1416 15.7237 21.899C17.1842 22.6565 18.4408 23.7544 19.3875 25.1C19.4438 25.1817 19.5157 25.2514 19.5991 25.3051C19.6825 25.3589 19.7757 25.3955 19.8734 25.4129C19.971 25.4304 20.0712 25.4283 20.168 25.4067C20.2648 25.3852 20.3564 25.3447 20.4375 25.2875C20.5978 25.1699 20.7059 24.9942 20.7385 24.7981C20.7712 24.6019 20.726 24.4008 20.6125 24.2375C19.1303 22.1442 17.0065 20.5908 14.5625 19.8125ZM5.24999 13.5C5.24999 12.3628 5.58723 11.2511 6.21904 10.3055C6.85086 9.35989 7.74889 8.6229 8.79956 8.18769C9.85024 7.75249 11.0064 7.63862 12.1218 7.86049C13.2372 8.08235 14.2617 8.62999 15.0659 9.43414C15.87 10.2383 16.4176 11.2628 16.6395 12.3782C16.8614 13.4936 16.7475 14.6498 16.3123 15.7004C15.8771 16.7511 15.1401 17.6491 14.1945 18.281C13.2489 18.9128 12.1372 19.25 11 19.25C9.475 19.25 8.01246 18.6442 6.93413 17.5659C5.8558 16.4875 5.24999 15.025 5.24999 13.5ZM30.625 25.2875C30.4951 25.3738 30.3434 25.4214 30.1875 25.425C30.0666 25.4252 29.9475 25.3956 29.8407 25.339C29.7339 25.2823 29.6426 25.2002 29.575 25.1C28.6284 23.7553 27.3722 22.658 25.9124 21.9009C24.4525 21.1438 22.832 20.7491 21.1875 20.75C20.9886 20.75 20.7978 20.671 20.6572 20.5303C20.5165 20.3897 20.4375 20.1989 20.4375 20C20.4375 19.8011 20.5165 19.6103 20.6572 19.4697C20.7978 19.329 20.9886 19.25 21.1875 19.25C22.7125 19.25 24.175 18.6442 25.2534 17.5659C26.3317 16.4875 26.9375 15.025 26.9375 13.5C26.9375 11.975 26.3317 10.5125 25.2534 9.43414C24.175 8.3558 22.7125 7.75 21.1875 7.75C20.6596 7.75222 20.1343 7.82366 19.625 7.9625C19.5273 8.00085 19.4226 8.01826 19.3177 8.0136C19.2129 8.00895 19.1102 7.98233 19.0162 7.93547C18.9223 7.88862 18.8392 7.82257 18.7724 7.74159C18.7057 7.66062 18.6566 7.56652 18.6285 7.4654C18.6003 7.36427 18.5937 7.25836 18.6091 7.15453C18.6245 7.05069 18.6615 6.95123 18.7177 6.86259C18.7739 6.77395 18.8481 6.6981 18.9355 6.63995C19.0229 6.5818 19.1215 6.54264 19.225 6.525C19.8627 6.34007 20.5236 6.24746 21.1875 6.25C22.7901 6.24796 24.3482 6.77698 25.6183 7.75436C26.8883 8.73174 27.7988 10.1024 28.2073 11.6521C28.6157 13.2017 28.4993 14.8431 27.876 16.3195C27.2528 17.796 26.1579 19.0243 24.7625 19.8125C27.2044 20.5882 29.325 22.1425 30.8 24.2375C30.9135 24.4008 30.9587 24.6019 30.926 24.7981C30.8934 24.9942 30.7853 25.1699 30.625 25.2875Z" fill="#333333"/>
</svg>
