<svg width="10" height="13" viewBox="0 0 10 13" fill="none" xmlns="http://www.w3.org/2000/svg">
<path d="M7.54098 12.9999C7.85501 12.9981 8.16511 12.9299 8.45098 12.7999C8.76015 12.6637 9.02356 12.4413 9.20975 12.1593C9.39594 11.8774 9.49704 11.5478 9.50098 11.2099V2.78995C9.49704 2.45209 9.39594 2.12251 9.20975 1.84057C9.02356 1.55862 8.76015 1.33623 8.45098 1.19995C8.09523 1.03191 7.69944 0.967195 7.30871 1.01316C6.91797 1.05913 6.54801 1.21394 6.24098 1.45995L1.14098 5.66995C0.940982 5.82916 0.779469 6.03143 0.668459 6.2617C0.557448 6.49197 0.499796 6.74432 0.499796 6.99995C0.499796 7.25558 0.557448 7.50792 0.668459 7.73819C0.779469 7.96846 0.940982 8.17073 1.14098 8.32995L6.24098 12.5399C6.6086 12.8381 7.06767 13.0005 7.54098 12.9999Z" fill="white"/>
</svg>
