<svg width="40" height="40" viewBox="0 0 40 40" fill="none" xmlns="http://www.w3.org/2000/svg">
<circle cx="20" cy="20" r="20" fill="#E4E5FF"/>
<path d="M18.46 25.9999C18.146 25.9981 17.8359 25.9299 17.55 25.7999C17.2408 25.6637 16.9774 25.4413 16.7912 25.1593C16.605 24.8774 16.5039 24.5478 16.5 24.2099V15.7899C16.5039 15.4521 16.605 15.1225 16.7912 14.8406C16.9774 14.5586 17.2408 14.3362 17.55 14.1999C17.9057 14.0319 18.3015 13.9672 18.6923 14.0132C19.083 14.0591 19.453 14.2139 19.76 14.4599L24.86 18.6699C25.06 18.8292 25.2215 19.0314 25.3325 19.2617C25.4435 19.492 25.5012 19.7443 25.5012 19.9999C25.5012 20.2556 25.4435 20.5079 25.3325 20.7382C25.2215 20.9685 25.06 21.1707 24.86 21.3299L19.76 25.5399C19.3924 25.8381 18.9333 26.0005 18.46 25.9999Z" fill="#1A1ED6"/>
</svg>
