<svg width="40" height="40" viewBox="0 0 40 40" fill="none" xmlns="http://www.w3.org/2000/svg">
<circle r="20" transform="matrix(-1 0 0 1 20 20)" fill="#E4E5FF"/>
<path d="M21.54 25.9999C21.854 25.9981 22.1641 25.9299 22.45 25.7999C22.7592 25.6637 23.0226 25.4413 23.2088 25.1593C23.395 24.8774 23.4961 24.5478 23.5 24.2099V15.7899C23.4961 15.4521 23.395 15.1225 23.2088 14.8406C23.0226 14.5586 22.7592 14.3362 22.45 14.1999C22.0943 14.0319 21.6985 13.9672 21.3077 14.0132C20.917 14.0591 20.547 14.2139 20.24 14.4599L15.14 18.6699C14.94 18.8292 14.7785 19.0314 14.6675 19.2617C14.5565 19.492 14.4988 19.7443 14.4988 19.9999C14.4988 20.2556 14.5565 20.5079 14.6675 20.7382C14.7785 20.9685 14.94 21.1707 15.14 21.3299L20.24 25.5399C20.6076 25.8381 21.0667 26.0005 21.54 25.9999Z" fill="#1A1ED6"/>
</svg>
