<svg width="13" height="10" viewBox="0 0 13 10" fill="none" xmlns="http://www.w3.org/2000/svg">
  <path
    d="M12.9999 2.46C12.9981 2.14597 12.9299 1.83587 12.7999 1.55C12.6637 1.24083 12.4413 0.977413 12.1593 0.791223C11.8774 0.605032 11.5478 0.503933 11.2099 0.5L2.78995 0.5C2.45209 0.503933 2.12251 0.605032 1.84057 0.791223C1.55862 0.977413 1.33623 1.24083 1.19995 1.55C1.03191 1.90574 0.967195 2.30153 1.01316 2.69227C1.05913 3.083 1.21394 3.45297 1.45995 3.76L5.66995 8.86C5.82916 9.05999 6.03143 9.22151 6.2617 9.33252C6.49197 9.44353 6.74432 9.50118 6.99995 9.50118C7.25558 9.50118 7.50792 9.44353 7.73819 9.33252C7.96846 9.22151 8.17073 9.05999 8.32995 8.86L12.5399 3.76C12.8381 3.39238 13.0005 2.93331 12.9999 2.46Z" />
</svg>
