<svg width="22" height="32" viewBox="0 0 22 32" fill="none" xmlns="http://www.w3.org/2000/svg">
<g clip-path="url(#clip0_1144_5037)">
<path d="M14.8161 9.33017C15.0405 9.54165 15.1666 9.82843 15.1666 10.1275C15.1666 10.4265 15.0405 10.7133 14.8161 10.9247L8.88981 16.5068L14.8161 22.0889C15.0342 22.3016 15.1549 22.5864 15.1521 22.8821C15.1494 23.1778 15.0235 23.4606 14.8015 23.6697C14.5795 23.8788 14.2793 23.9974 13.9653 24C13.6514 24.0025 13.349 23.8889 13.1232 23.6834L6.35049 17.3041C6.12604 17.0926 5.99996 16.8058 5.99996 16.5068C5.99996 16.2078 6.12604 15.921 6.35049 15.7095L13.1232 9.33017C13.3477 9.11876 13.6522 9 13.9697 9C14.2871 9 14.5916 9.11876 14.8161 9.33017Z" fill="#333333"/>
</g>
<defs>
<clipPath id="clip0_1144_5037">
<rect width="32" height="22" fill="white" transform="translate(0 32) rotate(-90)"/>
</clipPath>
</defs>
</svg>
