<svg width="32" height="32" viewBox="0 0 32 32" fill="current" xmlns="http://www.w3.org/2000/svg">
  <path
    d="M28.725 24.575L27.6875 20.7125L24.575 9.125L23.5375 5.2625C23.4867 5.07202 23.3989 4.89342 23.279 4.73691C23.1592 4.5804 23.0096 4.44905 22.839 4.35038C22.6683 4.2517 22.4799 4.18762 22.2845 4.16182C22.089 4.13602 21.8904 4.14899 21.7 4.2L17.8375 5.2375C17.6773 5.27825 17.5251 5.34588 17.3875 5.4375C17.2756 5.16099 17.0839 4.92411 16.8367 4.75712C16.5896 4.59012 16.2983 4.50061 16 4.5H12C11.6301 4.50033 11.2736 4.63849 11 4.8875C10.7264 4.63849 10.3699 4.50033 10 4.5H6C5.60218 4.5 5.22064 4.65804 4.93934 4.93934C4.65804 5.22065 4.5 5.60218 4.5 6V26C4.5 26.3978 4.65804 26.7794 4.93934 27.0607C5.22064 27.342 5.60218 27.5 6 27.5H10C10.3699 27.4997 10.7264 27.3615 11 27.1125C11.2736 27.3615 11.6301 27.4997 12 27.5H16C16.3978 27.5 16.7794 27.342 17.0607 27.0607C17.342 26.7794 17.5 26.3978 17.5 26V9.75L17.8125 10.9375L20.925 22.525L21.9625 26.3875C22.0459 26.7078 22.2339 26.9912 22.4965 27.1927C22.7591 27.3942 23.0815 27.5023 23.4125 27.5C23.5433 27.501 23.6737 27.4842 23.8 27.45L27.6625 26.4125C27.8537 26.3629 28.033 26.2753 28.1898 26.1551C28.3465 26.0348 28.4775 25.8843 28.575 25.7125C28.7725 25.3677 28.8263 24.9592 28.725 24.575ZM18.9125 11.1625L23.7375 9.8625L26.5875 20.4875L21.7625 21.7875L18.9125 11.1625ZM12 5.5H16C16.1326 5.5 16.2598 5.55268 16.3536 5.64645C16.4473 5.74022 16.5 5.86739 16.5 6V21.5H11.5V6C11.5 5.86739 11.5527 5.74022 11.6464 5.64645C11.7402 5.55268 11.8674 5.5 12 5.5ZM6 5.5H10C10.1326 5.5 10.2598 5.55268 10.3536 5.64645C10.4473 5.74022 10.5 5.86739 10.5 6V9.5H5.5V6C5.5 5.86739 5.55268 5.74022 5.64645 5.64645C5.74021 5.55268 5.86739 5.5 6 5.5ZM10 26.5H6C5.86739 26.5 5.74021 26.4473 5.64645 26.3536C5.55268 26.2598 5.5 26.1326 5.5 26V10.5H10.5V26C10.5 26.1326 10.4473 26.2598 10.3536 26.3536C10.2598 26.4473 10.1326 26.5 10 26.5ZM16 26.5H12C11.8674 26.5 11.7402 26.4473 11.6464 26.3536C11.5527 26.2598 11.5 26.1326 11.5 26V22.5H16.5V26C16.5 26.1326 16.4473 26.2598 16.3536 26.3536C16.2598 26.4473 16.1326 26.5 16 26.5ZM17.8 6.4375C17.8308 6.37928 17.8734 6.32809 17.925 6.28721C17.9767 6.24632 18.0363 6.21662 18.1 6.2L21.9625 5.1625H22.0875C22.1973 5.16102 22.3045 5.19571 22.3926 5.26122C22.4807 5.32674 22.5448 5.41944 22.575 5.525L23.4875 8.9125L18.65 10.1875L17.75 6.8125C17.7297 6.75024 17.7237 6.68422 17.7324 6.61932C17.741 6.55442 17.7641 6.49228 17.8 6.4375ZM27.7 25.2125C27.6344 25.3274 27.5269 25.4125 27.4 25.45L23.5375 26.4875C23.4083 26.5182 23.2723 26.4975 23.1581 26.4299C23.0438 26.3623 22.9603 26.253 22.925 26.125L22.0125 22.75L26.85 21.45L27.75 24.8375C27.7703 24.8998 27.7763 24.9658 27.7676 25.0307C27.759 25.0956 27.7359 25.1577 27.7 25.2125Z"/>
</svg>
