<svg width="32" height="32" viewBox="0 0 32 32" fill="current" xmlns="http://www.w3.org/2000/svg">
  <path
    d="M26 3.5H9C8.07276 3.50329 7.18443 3.8731 6.52877 4.52877C5.8731 5.18443 5.50329 6.07276 5.5 7V28C5.5 28.1326 5.55268 28.2598 5.64645 28.3536C5.74021 28.4473 5.86739 28.5 6 28.5H24C24.1326 28.5 24.2598 28.4473 24.3536 28.3536C24.4473 28.2598 24.5 28.1326 24.5 28C24.5 27.8674 24.4473 27.7402 24.3536 27.6464C24.2598 27.5527 24.1326 27.5 24 27.5H6.5V27C6.50329 26.338 6.76773 25.704 7.23586 25.2359C7.70399 24.7677 8.33797 24.5033 9 24.5H26C26.1326 24.5 26.2598 24.4473 26.3536 24.3536C26.4473 24.2598 26.5 24.1326 26.5 24V4C26.5 3.86739 26.4473 3.74021 26.3536 3.64645C26.2598 3.55268 26.1326 3.5 26 3.5ZM14.5 4.5H21.5V15L18.3 12.6C18.2143 12.5331 18.1087 12.4968 18 12.4968C17.8913 12.4968 17.7857 12.5331 17.7 12.6L14.5 15V4.5ZM25.5 23.5H9C8.53429 23.4992 8.07315 23.5917 7.64377 23.7721C7.2144 23.9524 6.82549 24.2169 6.5 24.55V7C6.50329 6.33797 6.76773 5.70399 7.23586 5.23586C7.70399 4.76773 8.33797 4.50329 9 4.5H13.5V16C13.5021 16.0926 13.5286 16.183 13.5769 16.262C13.6252 16.3411 13.6935 16.4059 13.775 16.45C13.8585 16.4914 13.9519 16.5087 14.0446 16.4998C14.1374 16.491 14.2258 16.4564 14.3 16.4L18 13.625L21.7 16.4C21.7877 16.4627 21.8922 16.4975 22 16.5C22.0779 16.5016 22.1551 16.4844 22.225 16.45C22.3065 16.4059 22.3748 16.3411 22.4231 16.262C22.4714 16.183 22.4979 16.0926 22.5 16V4.5H25.5V23.5Z"
  />
</svg>
