<svg width="16" height="16" viewBox="0 0 16 16" fill="current" xmlns="http://www.w3.org/2000/svg">
  <path fill-rule="evenodd" clip-rule="evenodd"
        d="M10.529 0.666664C10.805 0.666664 11.029 0.890664 11.029 1.16666L11.0293 1.73187C12.0028 1.79861 12.8112 2.13203 13.3834 2.7054C14.008 3.33273 14.3367 4.23473 14.3334 5.31673V11.3987C14.3334 13.6201 12.9227 15.0001 10.6527 15.0001H5.01404C2.74404 15.0001 1.33337 13.6007 1.33337 11.3481V5.3154C1.33337 3.22019 2.59141 1.87529 4.64317 1.7321L4.64357 1.16666C4.64357 0.890664 4.86757 0.666664 5.14357 0.666664C5.41957 0.666664 5.64357 0.890664 5.64357 1.16666L5.64337 1.71933H10.0287L10.029 1.16666C10.029 0.890664 10.253 0.666664 10.529 0.666664ZM13.3334 6.60266H2.33337V11.3481C2.33337 13.0587 3.28537 14.0001 5.01404 14.0001H10.6527C12.3814 14.0001 13.3334 13.0761 13.3334 11.3987L13.3334 6.60266ZM10.8008 10.7975C11.0768 10.7975 11.3008 11.0215 11.3008 11.2975C11.3008 11.5735 11.0768 11.7975 10.8008 11.7975C10.5248 11.7975 10.2982 11.5735 10.2982 11.2975C10.2982 11.0215 10.5188 10.7975 10.7948 10.7975H10.8008ZM7.84251 10.7975C8.11851 10.7975 8.34251 11.0215 8.34251 11.2975C8.34251 11.5735 8.11851 11.7975 7.84251 11.7975C7.56651 11.7975 7.33984 11.5735 7.33984 11.2975C7.33984 11.0215 7.56051 10.7975 7.83651 10.7975H7.84251ZM4.87797 10.7975C5.15397 10.7975 5.37797 11.0215 5.37797 11.2975C5.37797 11.5735 5.15397 11.7975 4.87797 11.7975C4.60197 11.7975 4.37464 11.5735 4.37464 11.2975C4.37464 11.0215 4.59597 10.7975 4.87197 10.7975H4.87797ZM10.8008 8.2064C11.0768 8.2064 11.3008 8.4304 11.3008 8.7064C11.3008 8.9824 11.0768 9.2064 10.8008 9.2064C10.5248 9.2064 10.2982 8.9824 10.2982 8.7064C10.2982 8.4304 10.5188 8.2064 10.7948 8.2064H10.8008ZM7.84251 8.2064C8.11851 8.2064 8.34251 8.4304 8.34251 8.7064C8.34251 8.9824 8.11851 9.2064 7.84251 9.2064C7.56651 9.2064 7.33984 8.9824 7.33984 8.7064C7.33984 8.4304 7.56051 8.2064 7.83651 8.2064H7.84251ZM4.87797 8.2064C5.15397 8.2064 5.37797 8.4304 5.37797 8.7064C5.37797 8.9824 5.15397 9.2064 4.87797 9.2064C4.60197 9.2064 4.37464 8.9824 4.37464 8.7064C4.37464 8.4304 4.59597 8.2064 4.87197 8.2064H4.87797ZM10.0287 2.71933H5.64337L5.64357 3.36066C5.64357 3.63666 5.41957 3.86066 5.14357 3.86066C4.86757 3.86066 4.64357 3.63666 4.64357 3.36066L4.64322 2.73447C3.14973 2.85993 2.33337 3.76523 2.33337 5.3154V5.60266H13.3334L13.3334 5.3154C13.336 4.49206 13.1147 3.85206 12.6754 3.41206C12.2897 3.02527 11.7259 2.79426 11.0296 2.73479L11.029 3.36066C11.029 3.63666 10.805 3.86066 10.529 3.86066C10.253 3.86066 10.029 3.63666 10.029 3.36066L10.0287 2.71933Z"/>
</svg>
