<svg width="248" height="90" viewBox="0 0 248 90" fill="none" xmlns="http://www.w3.org/2000/svg">
<path d="M240.052 6.37441C239.684 6.06552 239.203 5.89704 238.723 5.86895L153.699 0C153.699 0 153.586 0 153.529 0C153.444 0 153.359 0 153.303 0L2.31927 14.6583C1.32931 14.7426 0.509052 15.4446 0.226205 16.3713C0.0847815 16.8206 -0.509197 19.1513 0.876752 20.9485C1.44245 21.7067 2.54555 22.6334 4.55376 22.6334C5.85485 22.6334 7.04281 22.5211 8.03277 22.3807C9.02274 27.6599 11.0309 41.532 7.89135 55.5164H7.69336C4.49719 55.5164 2.2627 56.3027 1.01818 57.9033C0.367628 58.7457 -0.339489 60.2059 0.19792 62.3401C0.395913 63.0983 0.933322 63.7441 1.69701 64.025C2.17785 64.2215 51.5629 82.7832 90.0583 89.9719C90.1997 89.9719 90.3412 90 90.5109 90C90.5674 90 90.6523 90 90.7089 90C90.7089 90 90.8503 90 90.9351 90C96.083 89.0452 217.481 66.5242 233.433 62.8175C244.04 60.3463 247.887 45.688 247.972 32.7707C248.028 23.5039 245.963 11.0359 240.024 6.4025L240.052 6.37441ZM153.529 2.3869L231.284 7.75039L175.817 15.1638H175.761L89.2663 26.7332L11.1158 16.2028L153.529 2.3869ZM223.364 54.8144L221.695 55.1232C222.035 54.3651 222.317 53.6069 222.657 52.8487C223.053 51.7816 223.392 50.6864 223.76 49.5913C225.061 45.1825 225.712 40.5772 225.768 35.9719C225.768 34.8206 225.683 33.6693 225.655 32.5179C225.598 31.3666 225.429 30.2153 225.316 29.092L225.202 28.2215L225.033 27.3791L224.693 25.6942C224.524 24.571 224.156 23.4477 223.817 22.3526C222.657 18.5897 220.96 14.9953 218.697 11.8222L220.338 11.5975C229.643 25.8627 227.72 44.2278 223.364 54.7863V54.8144ZM9.92785 57.5663C10.1541 56.6115 10.3804 55.6849 10.5784 54.7301L89.2946 72.3931L10.8612 53.1856C11.8795 47.4852 12.1341 41.9251 12.0209 37.0109L55.155 43.7785L11.9643 35.4384C11.9078 34.2028 11.8512 33.0234 11.7664 31.9002L33.5455 34.8487L11.6249 30.3557C11.5118 29.092 11.3704 27.8846 11.2289 26.7894L88.5309 37.376L10.9744 25.1607C10.8895 24.5429 10.7764 23.9532 10.6915 23.4197L91.3594 34.624C95.7152 43.9189 97.582 52.0062 98.0346 58.7738L15.1605 44.0874L98.1477 60.4025C98.2043 62.0031 98.176 63.5195 98.0912 64.9516L55.1833 57.4821L97.978 66.4961C97.7517 68.9672 97.3558 71.1857 96.8466 73.0952C96.1395 75.8752 95.2061 78.2902 94.2444 80.312L15.1605 59.8409L93.5373 81.8003C93.2262 82.39 92.9151 82.9236 92.6322 83.429C53.0337 74.5273 15.9525 61.7504 9.56015 59.532L9.92785 57.5663ZM171.773 18.1123C180.767 33.3042 178.985 52.6802 174.743 64.053L173.159 64.3619C173.47 63.6318 173.724 62.8736 174.036 62.1435C174.431 60.9922 174.771 59.8128 175.139 58.6334C176.44 53.9158 177.062 49.0016 177.119 44.1154C177.119 42.8799 177.034 41.6724 177.005 40.4368C176.949 39.2012 176.779 37.9938 176.666 36.7582L176.553 35.8315L176.383 34.9329L176.044 33.1357C175.902 32.546 175.846 31.9282 175.676 31.3385L175.167 29.5694C174.036 25.61 172.395 21.791 170.161 18.337L171.773 18.1123ZM218.301 11.9064C219.942 15.4727 221.186 19.1232 222.006 22.858C222.233 23.9532 222.487 25.0203 222.629 26.1154L222.883 27.7442L222.996 28.5585L223.053 29.3729C223.109 30.468 223.279 31.5632 223.307 32.6583C223.307 33.7535 223.364 34.8768 223.364 35.9719L223.279 39.2855L222.996 42.5991C222.883 43.6942 222.713 44.7894 222.572 45.8846L221.978 49.142C221.129 53.0733 219.942 56.9485 218.103 60.5991L218.782 55.6849L207.383 57.8471C211.173 45.4914 211.598 28.025 203.621 13.844L218.329 11.8783L218.301 11.9064ZM201.754 58.9423L200.171 59.2512C200.369 58.7457 200.567 58.2402 200.793 57.7348C201.189 56.6115 201.528 55.4602 201.896 54.337C203.197 49.7598 203.848 44.986 203.904 40.2122C203.904 39.0328 203.819 37.8253 203.791 36.6459C203.734 35.4665 203.565 34.259 203.452 33.0796L203.338 32.181L203.169 31.3105L202.829 29.5413C202.688 28.9516 202.631 28.3619 202.462 27.8003L201.952 26.0874C200.793 22.0998 199.039 18.2527 196.692 14.8549L198.502 14.6022L198.36 14.6864C207.468 29.2044 205.912 47.7941 201.783 58.9704L201.754 58.9423ZM196.296 14.8549C197.993 18.6459 199.265 22.5211 200.114 26.5086C200.34 27.6318 200.595 28.7551 200.736 29.9064L200.991 31.6193L201.104 32.4618L201.161 33.3323C201.217 34.4836 201.387 35.6069 201.415 36.7582C201.415 37.9095 201.472 39.0608 201.472 40.2122L201.387 43.6661L201.104 47.092C200.991 48.2434 200.821 49.3666 200.68 50.5179L200.086 53.9158C199.237 58.0437 198.049 62.0874 196.182 65.9345L196.72 59.9251L180.484 63.014C184.444 50.3775 185.038 32.209 177.147 17.4384L196.324 14.883L196.296 14.8549ZM169.736 18.3931C171.348 22.1841 172.565 26.0593 173.385 29.9906C173.611 31.142 173.866 32.2933 174.007 33.4727L174.262 35.2418L174.375 36.1123L174.431 37.0109C174.488 38.1903 174.658 39.3697 174.686 40.5491C174.686 41.7285 174.743 42.908 174.743 44.0874L174.658 47.6256L174.375 51.1638C174.262 52.3432 174.092 53.5226 173.951 54.702L173.357 58.2122C172.536 62.3401 171.405 66.4119 169.623 70.3151L170.358 64.9236L153.84 68.0686C157.772 54.9828 158.309 36.1966 150.276 21.0047L169.765 18.3931H169.736ZM144.846 21.7067C153.982 37.3198 152.285 57.2855 148.07 69.1357L146.515 69.4165C146.797 68.7145 147.052 67.9844 147.335 67.2824C147.731 66.103 148.07 64.8955 148.438 63.688C149.739 58.83 150.361 53.8034 150.418 48.7769C150.418 47.5133 150.333 46.2496 150.305 45.014C150.248 43.7504 150.078 42.5148 149.965 41.2512L149.852 40.3245L149.682 39.3978L149.343 37.5445C149.23 36.9267 149.145 36.3089 148.975 35.6911L148.466 33.8658C147.306 29.6537 145.581 25.5819 143.233 21.9314L144.846 21.7067ZM142.866 21.9594C144.535 25.975 145.807 30.0749 146.656 34.259C146.882 35.4665 147.137 36.6459 147.278 37.8534L147.533 39.6505L147.646 40.5491L147.702 41.4477C147.759 42.6552 147.929 43.8627 147.957 45.0702C147.957 46.2777 148.014 47.4852 148.014 48.7208L147.929 52.3713L147.646 56.0218C147.533 57.2293 147.363 58.4368 147.222 59.6443L146.628 63.2387C145.864 67.142 144.846 71.0172 143.29 74.752L143.856 69.922L124.65 73.5725C128.412 60.7395 129.685 41.5881 121.143 24.8799L142.894 21.9875L142.866 21.9594ZM115.628 25.5819C124.99 42.3744 122.925 62.7052 118.824 74.6396L117.353 74.9204C117.636 74.1903 117.89 73.4602 118.173 72.7301C118.569 71.4945 118.909 70.259 119.276 68.9953C120.577 63.9688 121.2 58.8019 121.256 53.6069L121.143 49.7036C121.087 48.4119 120.917 47.1201 120.804 45.8284L120.691 44.8736L120.521 43.9189L120.181 42.0094C120.04 41.3635 119.983 40.7176 119.814 40.0998L119.305 38.2184C118.145 33.8378 116.42 29.6256 114.044 25.8066L115.628 25.5819ZM113.676 25.8346C115.345 30.0187 116.618 34.2871 117.466 38.6396C117.692 39.8752 117.947 41.1108 118.088 42.3463L118.343 44.1997L118.456 45.1264L118.513 46.053C118.569 47.3167 118.739 48.5523 118.767 49.8159L118.824 53.5788L118.739 57.3417L118.456 61.1045C118.343 62.3682 118.173 63.6037 118.032 64.8393L117.438 68.5741C116.702 72.5897 115.656 76.5211 114.129 80.3682L114.779 75.3978L97.6103 78.6552C98.176 77.1669 98.7134 75.5663 99.166 73.8253C101.57 64.4743 102.079 49.142 91.1897 28.8393L113.676 25.8346ZM85.9853 29.4571L75.6614 28.1934L65.3375 26.8456L44.718 24.0374L24.1268 21.0328C17.2536 19.9938 10.4087 18.9548 3.5638 17.8315C10.4653 18.6459 17.3384 19.5445 24.2116 20.4431L44.8311 23.2512L65.4224 26.2559L75.718 27.8284L85.9853 29.4852V29.4571ZM7.38223 57.9314L6.95796 60.0936C6.84482 60.6833 7.18423 61.2449 7.72164 61.4415C8.11763 61.5819 48.0273 75.819 91.1897 85.5913C90.624 86.4056 90.1149 87.0234 89.7472 87.4727C51.1386 80.1435 2.54555 61.7785 2.54555 61.7785C1.78186 58.6053 4.97803 57.9875 7.38223 57.9314ZM239.373 56.1342L241.325 51.4446L228.936 53.8034C232.952 41.9532 233.575 24.8518 225.542 10.9797L239.43 9.12637C243.39 13.2543 245.624 22.8861 245.567 32.7707C245.511 41.7285 243.588 50.8549 239.345 56.1622L239.373 56.1342Z" fill="#6989CF"/>
</svg>
