<svg width="17" height="17" viewBox="0 0 17 17" fill="none" xmlns="http://www.w3.org/2000/svg">
<path d="M9.37988 0.879883V7.87988H16.3799V0.879883H9.37988ZM14.8799 6.37988H10.8799V2.37988H14.8799V6.37988ZM0.879883 7.87988H7.87988V0.879883H0.879883V7.87988ZM2.37988 2.37988H6.37988V6.37988H2.37988V2.37988ZM0.879883 16.3799H7.87988V9.37988H0.879883V16.3799ZM2.37988 10.8799H6.37988V14.8799H2.37988V10.8799ZM9.37988 9.37988H11.1299V11.1299H9.37988V9.37988ZM12.8799 9.37988H14.6299V11.1299H12.8799V9.37988ZM11.1299 11.1299H12.8799V12.8799H11.1299V11.1299ZM14.6299 11.1299H16.3799V12.8799H14.6299V11.1299ZM9.37988 12.8799H11.1299V14.6299H9.37988V12.8799ZM12.8799 12.8799H14.6299V14.6299H12.8799V12.8799ZM11.1299 14.6299H12.8799V16.3799H11.1299V14.6299ZM14.6299 14.6299H16.3799V16.3799H14.6299V14.6299Z" fill="white"/>
</svg>
