<svg width="50" height="50" viewBox="0 0 50 50" fill="current" xmlns="http://www.w3.org/2000/svg">
  <path
    d="M36.5972 11.9892C36.9877 11.5987 37.6208 11.5988 38.0112 11.9892C38.4017 12.3797 38.4017 13.0128 38.0112 13.4032L13.4027 38.0098C13.0125 38.4 12.3799 38.4001 11.9895 38.01C11.5989 37.6197 11.5988 36.9866 11.9893 36.5962L36.5972 11.9892Z"/>
  <path
    d="M11.989 11.9899C12.3796 11.5991 13.013 11.599 13.4037 11.9897L38.0112 36.5952C38.4017 36.9857 38.4018 37.6188 38.0114 38.0095C37.6209 38.4003 36.9874 38.4005 36.5967 38.0098L11.9893 13.4042C11.5988 13.0137 11.5986 12.3806 11.989 11.9899Z"/>
</svg>
