<svg width="319" height="440" viewBox="0 0 319 440" fill="none" xmlns="http://www.w3.org/2000/svg">
<g clip-path="url(#clip0_4226_9078)">
<path d="M317.647 168.758C316.97 167.05 316.294 165.683 315.955 164.317C313.587 158.851 312.234 154.068 312.234 148.261C311.896 142.112 311.219 135.963 309.528 129.13C308.513 126.056 307.16 122.64 304.792 119.565C303.439 117.516 301.409 115.807 299.38 114.441C299.718 113.075 299.718 112.05 299.718 110.683C299.718 108.292 299.718 105.559 299.041 103.168C298.026 98.3851 295.659 93.6025 292.276 90.1863C291.599 89.1615 290.584 88.4783 289.569 87.795L287.54 85.7453C287.201 85.4037 286.863 85.0621 286.525 84.7205L285.51 83.6957C284.833 83.0124 284.495 82.3292 283.819 81.646C282.804 80.2795 281.789 78.913 280.774 77.205C279.759 75.4969 279.083 73.7888 278.068 71.7391C277.053 69.6894 275.7 67.2981 274.008 65.5901C272.317 63.5404 270.287 61.8323 268.596 60.4658L265.89 58.7578C265.213 58.4162 264.537 57.7329 263.86 57.0497C262.507 56.0248 261.492 54.6584 260.477 53.2919C258.109 50.559 256.418 46.8012 253.373 43.0435C252.02 41.3354 250.329 39.2857 247.961 37.5776C246.269 36.2112 244.24 35.1863 242.21 34.5031C241.533 33.8199 240.857 33.1366 240.18 32.4534C239.165 31.4286 238.151 30.4037 237.136 29.7205C235.106 28.0124 233.076 26.3043 230.708 24.5963C226.311 21.1801 221.575 18.1056 215.486 16.3975L214.133 16.0559L213.118 15.7143C212.441 15.7143 211.765 15.3727 211.088 15.3727L209.058 15.0311L207.029 14.6894C204.322 14.3478 201.616 14.0062 198.91 14.0062C196.204 14.0062 193.497 14.0062 190.791 14.0062C189.438 14.0062 188.085 14.0062 186.732 14.0062C186.055 14.0062 185.04 14.0062 184.364 14.0062C184.364 14.3478 183.687 13.6646 182.672 12.9814C181.319 12.2981 179.966 11.2733 178.275 10.5901C175.23 8.88199 172.524 7.51553 169.479 6.49068C167.788 5.80745 166.435 5.12422 164.743 4.78261C163.052 4.09938 161.699 3.75776 160.007 3.07453C158.316 2.3913 156.963 2.04969 155.271 1.70807C153.58 1.36646 151.889 1.02484 150.536 0.683229L148.168 0.341614H147.491H147.153H146.814H145.8H143.432H140.725C139.034 0.341614 137.343 0.341614 135.651 0.683229C133.96 1.02484 132.268 1.02484 130.577 1.36646C129.9 1.36646 128.885 1.70807 128.209 2.04969C127.532 2.3913 126.517 2.3913 125.841 2.73292C124.15 3.07453 122.796 3.75776 121.105 4.44099C119.414 5.12422 118.06 5.80745 116.707 6.8323C115.692 7.51553 114.339 8.19876 113.324 8.88199C112.31 8.54037 110.957 8.54037 109.942 8.19876C108.25 7.85714 106.897 7.51553 105.206 7.51553C102.161 7.17391 99.1166 6.8323 95.7338 6.49068C94.0424 6.49068 92.6893 6.49068 90.9979 6.49068C89.3065 6.49068 87.9533 6.49068 86.2619 6.49068C84.5705 6.49068 83.2174 6.8323 81.526 6.8323C80.1728 6.8323 79.4963 6.8323 78.8197 6.8323L77.4666 7.17391C77.1283 7.17391 77.1283 7.17391 76.79 7.17391H76.1135C75.4369 7.17391 74.422 7.51553 73.7455 7.85714C73.0689 8.19876 72.0541 8.54037 71.3775 8.88199C70.0244 9.56522 68.333 10.5901 66.9798 11.6149C64.2736 13.6646 61.9056 15.7143 59.8759 18.1056C57.8462 20.4969 55.8165 23.2298 54.1251 25.6211C53.1103 26.9876 52.4337 28.354 51.7572 29.7205C51.0806 30.7453 50.404 31.7702 50.0657 33.1366C47.6978 33.1366 45.6681 33.8199 43.6384 34.5031C41.2704 35.1863 38.9024 36.2112 36.8727 37.9193C32.4751 40.6522 29.0923 44.7516 27.0626 49.5342C26.0477 51.9255 25.0329 54.3168 24.3563 56.7081C24.018 58.0745 23.6797 59.0994 23.6797 60.1242C23.3415 61.1491 23.0032 62.1739 22.6649 63.1988C21.9883 65.2484 21.3118 67.2981 20.2969 69.0062C19.6204 69.6894 19.2821 70.3727 18.2672 71.3975C17.5907 72.0807 16.5758 72.764 15.561 74.1304C13.5313 76.1801 12.5164 78.913 11.8399 81.3043C11.1633 83.6956 10.825 86.087 10.4867 88.4783C9.81018 93.2609 9.4719 98.0435 9.13362 102.826C9.13362 105.217 8.79533 107.609 8.79533 110V113.416C8.79533 114.441 8.79533 115.466 8.45705 116.491C7.78049 120.59 6.08908 125.373 4.73595 129.814C3.38282 134.255 2.02969 139.037 1.35313 143.82C1.01485 145.87 0.676564 147.919 0.338282 149.627C0.338282 150.311 0 151.335 0 152.019C0 155.093 0 157.484 0 159.876C0 160.217 0 160.559 0 160.559C0 165 1.01485 169.099 1.69141 173.199C2.70626 177.981 4.39767 182.422 5.75079 186.863C6.42736 189.255 6.76564 191.304 6.76564 193.012C6.76564 195.062 6.08908 197.112 5.41251 199.503C4.73595 201.894 4.05938 203.944 3.38282 206.335C2.70626 208.727 1.69141 210.776 1.35313 213.509C1.01485 214.876 1.01485 216.242 1.35313 217.609C1.69141 218.975 2.02969 220.342 2.70626 221.366C3.7211 223.758 5.07423 225.807 6.42736 227.857C8.79533 231.615 11.8399 235.031 15.2227 237.764C14.8844 238.447 14.8844 238.789 14.5461 239.472V239.814C14.2078 240.839 14.2078 241.863 13.8696 243.23C13.5313 245.621 13.5313 247.671 14.2078 250.062C14.8844 252.453 15.8993 254.845 17.5907 256.553L18.6055 257.578L19.6204 258.602C20.2969 259.286 20.6352 259.969 21.3118 260.652C22.3266 262.019 22.6649 263.727 22.6649 265.093C22.6649 266.46 22.3266 268.168 21.3118 269.876C20.9735 270.559 20.6352 271.584 19.9586 272.267L18.2672 275C17.2524 277.05 16.2375 278.758 15.2227 281.149C14.5461 283.54 13.8696 286.273 14.2078 288.665C14.5461 291.398 15.2227 293.447 15.8993 295.497C16.5758 297.547 17.2524 299.255 17.5907 301.304C17.9289 303.354 18.6055 305.062 18.9438 307.112C19.9586 311.211 20.9735 315.311 21.9883 319.41C23.3415 323.509 24.6946 327.609 28.0774 331.708C28.4157 332.05 29.0923 332.733 29.4305 333.075L30.4454 334.099V334.441L31.1219 334.783C32.1368 335.807 33.1516 336.149 34.5048 336.832C36.5345 337.857 38.9024 338.54 40.2556 339.224C41.947 339.907 42.2853 340.59 42.9618 341.273C43.6384 342.298 43.9767 344.006 44.3149 345.714C44.3149 346.398 44.6532 347.422 44.6532 348.447V349.814V351.18C44.6532 353.23 44.6532 354.938 44.3149 356.988C43.9767 361.087 43.3001 365.186 43.3001 369.969C43.3001 374.752 44.9915 379.876 47.6978 383.975C49.0509 386.025 50.404 387.733 52.0954 389.441C53.4486 390.807 55.14 392.516 56.4931 393.882C58.1845 395.248 59.8759 396.957 61.9056 398.323C63.9353 399.689 65.965 400.714 68.333 401.739C70.7009 402.422 72.7306 403.106 74.7603 403.447L77.8049 404.13L80.5111 404.814C80.8494 404.814 81.526 405.155 81.8643 405.155C82.2025 405.155 82.5408 405.497 82.5408 405.497C83.2174 405.839 83.5557 406.18 83.8939 406.522C84.5705 407.205 85.2471 408.23 85.9236 409.938C86.6002 411.646 86.9385 413.696 87.9533 416.087C88.9682 418.478 90.3213 420.87 92.351 422.919C93.3658 423.944 94.3807 424.627 95.7338 425.652L96.7487 425.994H97.0869L97.4252 426.335H97.7635L98.1018 427.019L99.1166 427.36C101.485 428.385 104.529 428.727 106.897 428.727C109.603 428.727 111.633 428.385 113.324 428.044C115.354 427.702 116.707 427.702 118.06 428.044C121.105 428.385 123.811 430.093 126.856 432.143L128.209 433.168C128.547 433.509 128.885 433.851 129.562 434.193C130.577 434.876 131.592 435.559 132.607 436.242C134.636 437.609 137.004 438.634 139.71 438.975C142.417 439.658 145.123 439.658 147.829 438.975C150.536 438.634 152.903 437.609 154.933 436.584C156.963 435.559 158.993 434.534 160.684 433.509C161.699 433.168 162.375 432.484 163.052 432.143C163.729 431.801 164.743 431.118 165.42 431.118C167.45 430.093 170.494 430.435 174.554 431.118C176.583 431.46 178.613 431.801 181.657 432.143C183.011 432.143 184.702 432.143 186.393 431.46C188.085 430.776 189.776 429.752 191.129 428.727C191.806 428.043 192.144 427.36 192.821 426.677L193.836 425.311L194.174 424.627L194.512 424.286C194.85 423.944 194.85 423.944 195.189 423.602C196.204 422.578 197.218 421.553 198.91 420.87C201.954 419.161 205.675 418.137 209.735 416.429C210.411 416.087 211.088 415.745 211.765 415.404C213.118 415.062 214.133 414.379 215.486 414.037C217.515 413.012 219.207 412.329 221.575 410.963C225.972 408.571 229.017 405.155 232.061 402.081C235.106 398.665 237.474 395.248 239.842 391.491C241.872 388.416 243.563 385.342 245.254 381.925C246.269 381.584 246.946 381.242 247.961 380.901C249.314 380.217 250.667 379.534 252.358 378.509C255.065 376.801 257.771 375.093 260.477 373.385C265.551 369.627 270.626 365.186 274.347 359.721C275.362 358.354 276.376 356.988 277.053 355.621C278.068 354.255 278.744 352.888 279.421 351.522C280.098 350.155 280.774 348.789 281.451 347.764L283.819 344.006C285.51 341.273 286.863 338.882 288.555 335.807C289.231 334.441 289.908 332.391 290.584 330.683C290.923 328.634 291.261 326.925 291.261 324.876C291.261 322.826 291.261 321.118 290.923 319.41C290.923 318.385 290.584 317.702 290.584 317.019L290.246 315.652V314.627L289.908 313.603C289.908 313.261 289.908 312.919 289.908 312.578L289.569 310.87C289.569 309.503 289.569 308.137 289.569 306.77C289.569 304.037 289.908 301.304 290.246 298.571C290.584 295.839 291.261 293.106 291.937 290.031C293.291 284.565 295.32 278.758 297.688 273.634C298.026 272.609 299.041 270.901 299.38 269.534C300.056 268.168 300.733 267.143 301.409 265.776L305.807 257.919C308.852 252.453 311.558 246.304 313.249 240.155C314.264 237.081 314.602 234.006 315.279 230.59C315.617 228.882 315.617 227.516 315.955 225.807C315.955 224.099 316.294 222.733 316.294 221.025C316.97 214.876 316.97 208.727 317.309 202.578C317.647 196.429 317.647 190.28 318.323 184.814C318.662 182.081 319.677 179.348 319.338 174.907C318.662 172.174 318.323 170.466 317.647 168.758ZM55.4783 379.193C53.4486 376.46 52.4337 373.385 52.4337 369.969C52.0954 366.553 52.772 362.453 53.1103 358.354C53.1103 356.988 53.4486 355.963 53.4486 354.596C53.7868 355.28 54.1251 355.963 54.8017 356.646C55.4783 357.671 56.1548 358.696 57.1697 359.379C57.8462 360.404 58.8611 361.087 59.5376 361.77C61.229 363.137 62.9205 364.162 64.6119 364.845C66.3033 365.528 67.6564 365.87 68.6713 366.211C69.6861 366.553 70.3627 366.553 70.3627 366.553C70.3627 366.553 69.0095 364.845 66.6416 362.453C65.6267 361.087 64.2736 359.721 62.9205 358.354C62.2439 357.671 61.5673 356.646 61.229 355.963C60.5525 355.28 59.8759 354.255 59.5376 353.571C58.8611 352.888 58.5228 351.863 57.8462 350.839C57.1697 349.814 56.8314 349.13 56.1548 348.106C55.8165 347.081 55.14 346.398 54.8017 345.714C54.4634 345.031 53.7868 344.006 53.4486 343.323C53.1103 342.64 52.772 342.298 52.772 341.957C52.4337 340.59 51.7572 338.882 50.7423 337.516C50.0657 336.149 49.0509 335.124 47.6978 334.099C46.3446 333.075 45.3298 332.391 43.9767 332.05C41.6087 331.025 39.9173 330.683 38.5642 330C37.8876 329.658 37.211 329.317 36.5345 328.975L35.8579 328.634H35.5196C35.1813 328.292 35.1813 328.292 34.8431 327.95C32.8134 325.559 31.4602 322.143 30.1071 318.385C28.754 314.627 27.7391 310.87 27.0626 306.77C26.7243 304.721 26.0477 302.671 25.3712 300.621C24.6946 297.547 23.6797 295.497 23.3415 293.789C22.6649 291.739 21.9883 290.031 21.9883 288.665C21.6501 287.298 21.9883 285.59 22.3266 284.224C23.0032 282.516 23.6797 280.807 24.6946 279.099L26.0477 276.366C26.7243 275.342 27.0626 274.317 27.4008 273.292C28.0774 271.242 28.754 268.509 28.754 265.776C28.754 263.043 27.4008 260.652 26.0477 258.602C25.3712 257.578 24.6946 256.894 24.018 255.87L23.0032 254.503L21.9883 253.478C21.6501 253.137 21.3118 253.137 21.3118 252.795V252.453C21.3118 251.77 20.9735 251.087 20.6352 250.404C20.2969 249.721 20.2969 249.037 20.2969 248.354C20.2969 247.671 20.2969 246.646 19.9586 245.963C19.9586 245.28 19.9586 244.255 19.9586 243.571C19.9586 242.888 19.9586 241.863 20.2969 241.18C20.2969 240.497 20.6352 239.472 20.6352 238.789C20.9735 237.422 21.3118 235.714 21.6501 234.689C21.9883 233.323 22.3266 232.298 22.6649 231.615C23.0032 230.932 23.0032 230.248 23.0032 230.248C23.0032 230.248 22.6649 230.248 21.6501 230.932C20.9735 231.273 19.9586 231.957 18.6055 232.981C17.9289 233.665 17.2524 234.348 16.9141 235.373C14.2078 232.64 11.8399 229.565 9.81018 226.491C8.79533 224.783 7.78049 222.733 6.76564 221.025C6.76564 220.342 6.76564 220 6.76564 219.317C6.76564 218.292 6.76564 217.609 7.10392 216.584C7.10392 215.559 7.4422 214.534 7.78049 213.509C8.11877 212.484 8.45705 211.118 8.79533 210.093C9.13361 209.068 9.4719 207.702 9.81018 206.677C10.1485 205.652 10.4867 204.286 10.825 203.261C11.1633 202.236 11.5016 200.87 11.8399 199.845C12.5164 197.795 13.193 195.404 13.5313 193.696C14.5461 189.938 15.2227 187.547 15.2227 187.547C15.2227 187.547 13.5313 188.571 11.5016 190.963C11.1633 189.255 10.825 187.547 10.4867 185.839C9.13361 181.056 7.78049 176.615 6.76564 172.174C5.75079 167.733 5.07423 163.292 5.07423 158.509C5.07423 156.118 5.41251 153.727 5.41251 150.994C5.75079 149.286 6.08908 147.919 6.76564 146.211C7.4422 144.161 8.45705 142.112 9.4719 140.062C10.4867 138.012 11.8399 136.304 13.193 134.596C15.8993 131.18 18.9438 128.447 21.6501 126.398C24.3563 124.348 27.0626 122.981 28.754 121.957C29.7688 121.615 30.4454 121.273 31.1219 120.932C31.7985 120.59 31.7985 120.59 31.7985 120.59C31.7985 120.59 31.4602 120.59 30.7837 120.59C30.1071 120.59 29.4305 120.59 28.4157 120.932C26.386 121.273 23.3415 121.957 19.9586 123.665C16.5758 125.373 13.193 127.764 9.81018 131.18C9.81018 131.18 9.81018 131.18 9.81018 130.839C11.1633 126.398 12.5164 121.957 13.5313 116.832C13.8696 115.466 13.8696 114.099 13.8696 112.733V108.975C13.8696 106.584 13.8696 104.534 14.2078 102.143C14.5461 97.7019 14.8844 92.9193 15.561 88.1366C15.8993 87.4534 16.2375 85.4037 16.9141 83.354C17.5907 82.3292 18.2672 81.3043 18.9438 80.2795C19.6204 79.2547 20.6352 78.2298 21.6501 77.205C22.6649 76.5217 23.6797 75.8385 24.6946 75.1553C25.7094 74.1304 27.0626 73.4472 28.0774 72.764C29.4305 72.0807 30.4454 71.3975 31.7985 70.7143C34.1665 69.6894 36.5345 68.6646 38.5642 67.6397C40.5938 66.6149 42.2853 65.9317 43.6384 65.2484C44.9915 64.5652 45.6681 64.2236 45.6681 64.2236C45.6681 64.2236 44.9915 64.2236 43.6384 64.2236C42.2853 64.2236 40.2556 64.2236 37.8876 64.5652C35.5196 64.9068 32.8134 65.2484 30.1071 66.2733C28.754 66.6149 27.4008 67.2981 26.386 67.6397C26.7243 66.6149 27.0626 65.5901 27.4008 64.2236C27.7391 63.1988 28.0774 61.8323 28.4157 60.4658L29.0923 57.0497C29.4305 55 30.1071 52.9503 31.1219 50.9006C32.8134 46.8012 35.5196 43.3851 39.2407 40.9938C39.2407 40.9938 39.579 40.9938 39.579 40.6522C40.2556 40.3106 41.2704 40.3106 41.947 39.9689C42.9618 39.6273 43.9767 39.6273 45.3298 39.2857C46.3446 38.9441 47.6978 38.9441 48.7126 38.9441C49.7275 38.9441 51.0806 38.6025 52.0954 38.6025C53.1103 38.6025 54.4634 38.6025 55.4783 38.6025C56.4931 38.6025 57.5079 38.6025 58.5228 38.9441C59.5376 38.9441 60.5525 38.9441 61.229 39.2857C62.2439 39.2857 62.9205 39.6273 63.597 39.6273C64.2736 39.6273 64.9501 39.9689 65.6267 39.9689C66.6416 40.3106 67.3181 40.3106 67.3181 40.3106C67.3181 40.3106 66.9798 39.9689 65.965 38.9441C65.6267 38.6025 64.9502 38.2609 64.2736 37.5776C63.597 37.236 62.9205 36.5528 61.9056 36.2112C60.8908 35.8696 60.2142 35.1863 58.8611 34.8447C57.8462 34.5031 56.4931 34.1615 55.4783 33.8199C54.8017 33.8199 54.1251 33.4783 53.1103 33.4783C53.4486 32.4534 54.1251 31.7702 54.4634 30.7453C55.8165 30.7453 56.4931 29.3789 57.5079 28.0124C59.1994 25.6211 61.2291 23.2298 63.2587 20.8385C65.2884 18.7888 67.6564 16.7391 70.0244 15.0311C71.3775 14.3478 72.3924 13.6646 73.7455 12.9814C74.422 12.6398 75.0986 12.2981 75.7752 12.2981C76.4517 11.9565 77.1283 11.9565 77.8049 11.6149H78.4814H78.8197H79.8346C80.5111 11.6149 81.1877 11.2733 81.8643 11.2733C83.2174 11.2733 84.9088 10.9317 86.2619 10.9317C87.2768 10.9317 87.9533 10.9317 88.9682 10.9317C89.3065 10.9317 89.3065 10.9317 89.6447 11.2733C90.9979 11.6149 93.0276 12.2981 95.3955 12.6398C96.7487 12.9814 97.7635 13.323 99.1166 13.6646C100.47 14.0062 101.823 14.3478 103.514 14.6894C104.867 15.0311 106.559 15.7143 107.912 16.0559C109.265 16.3975 110.957 17.0807 112.31 17.764C113.663 18.4472 115.016 19.1304 116.369 19.8137C117.722 20.4969 119.075 21.5217 120.09 22.205C122.458 23.913 124.15 25.9627 125.841 27.6708C127.194 29.3789 128.209 31.4286 128.885 32.795C129.224 33.4783 129.562 34.1615 129.562 34.5031C129.562 34.8447 129.9 35.1863 129.9 35.1863C129.9 35.1863 129.9 34.8447 129.9 34.5031C129.9 34.1615 129.9 33.4783 129.9 32.795C129.9 31.4286 129.562 29.0373 128.547 26.646C127.532 24.2547 125.841 21.5217 123.135 19.1304C121.782 18.1056 120.428 16.7391 119.075 15.7143C118.06 15.0311 116.707 14.3478 115.354 13.6646C116.369 12.9814 117.722 12.2981 118.737 11.6149C120.09 10.9317 121.443 10.2484 122.796 9.90683C124.15 9.56522 125.503 8.88199 126.856 8.54037C127.532 8.19876 128.209 8.19876 128.885 8.19876C129.562 8.19876 130.239 7.85714 130.915 7.85714C132.268 7.51553 133.621 7.51553 134.975 7.51553H135.313C136.666 7.85714 137.681 8.54037 139.034 9.2236C140.387 9.90683 141.402 10.9317 142.417 11.9565C143.432 12.9814 144.446 14.3478 145.461 15.7143C146.476 17.0807 147.491 18.7888 148.844 20.4969C150.197 22.205 151.55 23.5714 152.565 24.9379C153.918 26.3043 155.271 27.6708 156.625 28.6956C159.331 31.087 162.375 33.1366 164.743 34.5031C167.111 35.8696 169.479 36.8944 171.171 37.5776C172.862 38.2609 173.539 38.6025 173.539 38.6025C173.539 38.6025 173.877 37.5776 172.524 36.5528C171.509 35.5279 169.818 33.8199 167.788 31.7702C165.758 29.7205 163.39 27.3292 161.361 24.9379C160.007 23.5714 158.993 22.205 157.978 20.8385C156.963 19.472 155.61 18.1056 154.595 16.7391C153.58 15.3727 152.227 13.6646 151.212 12.2981C150.197 10.9317 148.844 9.56522 147.491 8.54037H148.844C150.197 8.88199 151.889 9.2236 153.242 9.56522C154.595 9.90683 155.948 10.5901 157.639 10.9317C158.993 11.2733 160.346 11.9565 161.699 12.6398C162.375 12.9814 163.052 13.323 163.729 13.6646C165.082 14.6894 166.435 15.7143 168.464 17.0807C169.479 18.1056 170.832 18.7888 172.186 19.8137C173.539 20.8385 174.892 21.8634 176.245 22.8882C177.598 23.913 178.951 25.2795 180.643 26.3043C181.996 27.3292 183.687 28.6956 185.04 29.7205C186.393 30.7453 188.085 32.1118 189.438 33.1366C190.791 34.1615 192.482 35.5279 193.836 36.5528C196.88 38.6025 199.586 40.6522 202.293 41.677C203.646 42.3602 204.999 42.7019 206.014 43.3851C207.029 43.7267 208.043 44.0683 209.058 44.0683C210.75 44.4099 211.765 44.4099 211.765 44.4099C211.765 44.4099 211.088 43.7267 209.397 43.0435C208.72 42.7019 207.705 42.0186 207.029 41.3354C206.014 40.6522 204.999 39.9689 203.984 38.9441C201.954 37.236 199.248 34.8447 196.542 32.795C195.189 31.7702 193.836 30.4037 192.482 29.0373C191.129 27.6708 189.438 26.646 188.085 25.2795C187.747 24.9379 187.408 24.5963 187.07 24.5963C187.408 24.5963 187.747 24.5963 188.423 24.5963C189.776 24.5963 190.791 24.5963 192.144 24.5963C194.512 24.5963 197.218 24.5963 199.586 24.9379C201.954 24.9379 204.322 25.2795 206.69 25.6211L208.382 25.9627L209.735 26.3043C210.073 26.3043 211.088 26.646 211.426 26.646L212.441 26.9876H213.118C217.177 28.354 221.236 30.7453 224.958 33.8199C225.296 34.1615 225.634 34.5031 225.972 34.5031C225.296 34.1615 224.958 34.1615 224.281 34.1615C223.266 33.8199 221.913 33.4783 220.898 33.4783C218.868 33.1366 217.177 33.1366 215.824 33.1366C214.471 33.1366 213.794 33.1366 213.794 33.1366C213.794 33.1366 214.471 33.4783 215.486 34.1615C216.501 34.8447 218.192 35.5279 219.883 36.5528C220.898 36.8944 221.575 37.5776 222.59 37.9193C223.604 38.6025 224.619 38.9441 225.634 39.6273C226.649 40.3106 227.664 40.9938 229.017 41.3354C230.032 42.0186 231.385 42.7019 232.4 43.3851C233.415 44.0683 234.768 44.7516 235.783 45.4348C236.797 46.118 238.151 46.8012 239.165 47.1429C240.519 47.8261 242.21 48.5093 243.563 49.1925C243.901 49.5342 244.578 50.2174 244.916 50.559C247.284 53.2919 249.314 57.0497 252.02 60.4658C253.035 61.4907 253.712 62.5155 254.726 63.5404C259.462 69.6894 260.815 74.472 261.154 79.5963C260.139 78.5714 258.786 77.205 257.771 76.1801C256.418 75.1553 255.065 74.1304 253.712 73.1056C252.358 72.0807 250.667 71.3975 249.652 70.3727C248.299 69.6894 246.946 68.6646 245.931 67.6397C244.578 66.6149 243.563 65.5901 242.21 64.5652C241.195 63.5404 239.842 62.5155 238.827 61.4907C237.812 60.4658 236.459 59.7826 235.444 59.0994C233.415 57.7329 231.385 56.7081 230.032 56.0248C228.679 55.3416 227.664 55.3416 227.664 55.3416C227.664 55.3416 228.34 56.0248 229.355 57.0497C230.37 58.0745 231.723 59.7826 233.415 61.4907C234.091 62.5155 235.106 63.5404 236.121 64.5652C237.136 65.5901 238.151 66.9565 239.165 67.9814C240.18 69.0062 241.533 70.3727 242.887 71.3975C244.24 72.4224 245.593 73.4472 247.284 74.472C248.976 75.4969 250.329 76.1801 251.682 76.8634C253.035 77.5466 254.388 78.2298 255.741 79.2547C258.447 80.9627 260.477 82.3292 262.169 84.0373C262.169 89.5031 262.169 95.9938 264.537 105.559C264.875 107.267 265.551 108.975 265.89 110.683C264.537 109.658 263.522 108.634 262.169 107.609C260.139 106.242 257.771 104.876 255.741 103.509C253.712 102.484 251.344 101.46 249.652 100.435C245.593 98.7267 242.21 97.0186 239.165 95.3106C236.121 93.6025 234.091 91.8944 232.4 90.5279C230.708 89.1615 230.032 88.1366 230.032 88.1366C230.032 88.1366 230.032 89.5031 231.047 91.5528C231.723 93.6025 233.415 96.3354 236.121 99.4099C238.827 102.143 242.21 104.876 245.931 107.609C247.961 108.975 249.652 110 251.682 111.366C253.712 112.733 255.403 113.758 257.094 115.124C258.786 116.491 260.477 117.857 262.169 119.224C263.86 120.59 265.551 121.957 266.905 123.665C269.949 126.739 272.317 129.814 274.685 132.547L275.023 132.888C276.038 137.329 276.038 142.795 272.994 152.702C265.551 177.298 273.332 176.273 273.332 199.503C273.332 203.261 272.994 206.677 272.655 210.093C271.979 210.776 271.64 211.801 270.964 212.826C269.949 214.876 269.273 217.267 268.258 220C267.919 221.366 267.581 222.733 267.243 224.099C266.905 225.466 266.566 226.832 266.228 228.199C265.89 229.565 265.551 230.932 265.213 231.957C264.875 233.323 264.537 234.348 263.86 235.373C263.183 236.398 262.845 237.422 262.169 238.447C261.492 239.472 261.154 240.155 260.477 241.18C259.124 242.888 258.109 243.913 257.094 244.596C256.08 245.28 255.403 245.621 255.403 245.621C255.403 245.621 256.079 245.621 257.433 245.28C258.786 244.938 260.477 244.255 262.507 242.888C263.522 242.205 264.537 241.522 265.213 240.497C265.551 240.155 265.89 239.814 265.89 239.472C265.551 241.18 265.551 242.888 265.213 244.255C264.875 257.236 249.99 264.752 244.916 273.292C244.916 272.95 244.916 272.267 244.578 271.925C244.578 270.901 244.24 269.876 243.901 268.851C243.225 266.801 242.548 265.435 241.872 264.41C241.195 263.385 240.857 263.043 240.857 263.043C240.857 263.043 240.857 263.727 241.195 264.752C241.195 265.776 241.533 267.484 241.195 269.193C241.195 270.217 241.195 270.901 241.195 271.925C241.195 272.95 240.857 273.975 240.857 275C240.857 276.025 240.519 277.05 240.18 278.416C239.842 279.441 239.842 280.807 239.504 281.832C239.165 282.857 239.165 284.224 238.827 285.248C238.827 285.932 238.489 286.615 238.489 287.298C236.797 289.348 235.106 290.373 233.415 291.056C232.4 291.739 231.047 292.081 229.694 292.764C228.34 293.106 226.987 293.789 225.972 294.13C224.619 294.472 223.266 294.814 221.913 295.155C220.56 295.155 219.207 295.497 217.854 295.497H216.839C216.5 295.497 216.162 295.497 215.824 295.497C215.147 295.497 214.471 295.497 214.133 295.497C213.118 295.155 211.765 295.155 210.75 294.814C210.073 294.814 209.735 294.472 209.397 294.472C209.058 294.472 208.382 294.13 208.043 294.13C207.029 293.789 206.352 293.789 205.675 293.447C204.322 293.106 203.646 292.764 203.646 292.764C203.646 292.764 203.984 293.447 204.999 294.472C205.337 295.155 206.014 295.497 206.69 296.18C207.029 296.522 207.367 296.863 208.043 297.205C208.382 297.547 209.058 297.888 209.397 298.23C210.411 298.913 211.765 299.255 212.779 299.938C213.456 300.28 214.133 300.28 214.809 300.621C215.147 300.621 215.486 300.963 215.824 300.963C216.162 300.963 216.5 300.963 216.839 300.963C218.192 301.304 219.883 301.304 221.575 300.963C223.266 300.621 224.958 300.621 226.311 300.28C228.002 299.938 229.355 299.255 230.708 298.571C232.061 297.888 233.415 297.205 234.768 296.18C235.444 295.839 235.783 295.497 236.459 294.814C236.459 295.497 236.459 296.522 236.459 297.205C236.459 297.888 236.459 298.571 236.459 299.255C232.4 310.528 225.972 324.876 216.839 335.466C215.486 337.174 214.471 338.54 213.456 339.907C213.794 338.882 213.794 338.199 214.133 337.174C214.471 335.807 214.471 334.099 214.809 333.075C215.486 327.95 215.147 324.193 215.147 324.193C215.147 324.193 213.794 327.609 211.765 332.391C211.426 333.758 210.75 334.783 210.411 336.149C210.073 337.516 209.397 338.882 208.72 340.59C208.043 341.957 207.705 343.665 207.029 345.373C206.352 347.081 205.675 348.447 205.337 350.155C204.661 351.863 203.984 353.23 203.646 354.938C202.969 356.646 202.293 358.012 201.954 359.721C200.601 362.795 199.586 365.528 198.91 367.919C198.572 368.602 198.233 369.627 197.895 370.311C194.512 373.727 189.776 376.801 182.334 379.534C177.598 381.242 173.539 383.292 170.494 385C169.818 385.342 169.141 385.342 168.803 385.683C166.773 386.366 165.082 387.05 163.052 387.733C161.022 388.416 159.331 389.099 157.301 390.124C155.271 390.807 153.58 391.832 151.55 392.516C149.521 393.199 147.829 394.224 146.138 394.907C144.446 395.59 142.755 396.615 141.064 397.298C139.372 397.981 138.019 399.006 136.666 399.689C131.253 402.764 127.532 404.814 127.532 404.814C127.532 404.814 131.592 404.13 137.681 402.422C139.034 402.081 140.725 401.398 142.417 401.056C144.108 400.373 145.8 400.031 147.829 399.348C149.521 398.665 151.55 397.981 153.58 397.298C155.271 396.615 156.625 396.273 158.316 395.59C154.257 399.689 150.536 403.106 140.725 405.839C122.12 410.963 103.176 410.963 94.0424 405.839C93.7041 404.814 93.0276 404.13 92.351 403.447C94.3807 403.447 96.0721 403.789 98.1018 403.789C100.131 403.789 102.499 403.447 104.529 403.447C108.589 402.764 112.31 402.081 115.692 400.714C117.384 400.031 118.737 399.689 119.752 399.006C121.105 398.323 122.12 397.981 122.796 397.298C124.488 396.273 125.503 395.59 125.503 395.59C125.503 395.59 124.488 395.932 122.458 396.273C121.443 396.615 120.428 396.615 119.075 396.957C117.722 397.298 116.369 397.64 114.678 397.64C111.633 398.323 107.912 398.323 103.853 398.665C101.823 398.665 99.7932 398.665 97.7635 398.665C95.7338 398.665 93.7041 398.323 91.6744 398.323C89.6447 397.981 87.615 397.981 85.5854 397.298C83.5557 396.957 81.526 396.615 79.8346 395.932C77.8049 395.248 76.1135 394.907 74.422 394.224C72.7306 393.54 71.0392 393.199 69.6861 392.516C69.0095 392.174 68.333 391.832 67.6564 391.832C66.9798 391.491 66.3033 391.149 65.6267 391.149C65.2884 391.149 64.9502 390.807 64.6119 390.807C64.2736 390.466 63.597 390.124 63.2587 389.441C61.9056 388.075 60.5525 386.708 59.1994 385.342C57.5079 381.925 56.4931 380.559 55.4783 379.193Z" fill="#333333"/>
<path d="M135.651 222.733C134.298 221.708 132.607 221.366 130.915 221.025C129.224 221.025 127.533 221.025 126.179 221.366C124.826 221.708 123.473 222.391 122.12 222.733C121.105 223.075 120.09 223.758 119.414 224.099C118.737 224.441 118.399 224.783 118.399 224.783C118.399 224.783 118.737 224.783 119.414 224.783C120.09 224.783 121.105 224.441 122.12 224.441C123.135 224.099 124.488 224.099 125.841 224.099C127.194 224.099 128.547 223.758 130.239 224.099C131.592 224.099 132.945 224.441 134.298 225.124C135.313 225.807 136.666 226.491 137.343 227.174C138.019 227.857 138.696 228.54 139.034 229.224C139.372 229.907 139.711 230.248 139.711 230.248C139.711 230.248 139.711 229.907 139.372 229.224C139.034 228.54 139.034 227.516 138.358 226.491C138.019 224.783 137.004 223.416 135.651 222.733Z" fill="#333333"/>
<path d="M54.8018 231.273C56.155 228.882 57.5081 226.149 58.5229 223.416C59.8761 220.683 60.8909 217.95 61.9058 215.217C62.2441 214.192 62.9206 212.826 63.2589 211.801C63.2589 215.559 63.9355 219.317 64.612 222.733C66.6417 230.932 70.7011 236.739 73.7456 240.155C75.0988 241.863 76.4519 243.23 77.4668 244.255C78.4816 245.279 78.8199 245.621 78.8199 245.621C78.8199 245.621 78.4816 244.938 77.805 244.255C77.1285 243.23 76.1136 241.863 74.7605 239.814C72.3925 236.056 69.0097 229.907 67.9949 222.05C67.3183 218.292 67.3183 213.851 67.3183 209.41C67.6566 204.969 68.6714 200.186 69.348 195.062C69.6863 193.012 70.0245 190.963 70.0245 188.913C70.3628 188.913 70.3628 189.255 70.7011 189.255C72.0542 189.938 73.4074 190.279 75.0988 190.621C75.7753 190.963 76.7902 190.963 77.4668 190.963C78.4816 190.963 79.1582 191.304 80.173 191.304C81.1879 191.304 81.8644 191.304 82.8793 191.304C83.8941 191.304 84.5707 191.304 85.5855 190.963C87.2769 190.621 88.6301 190.279 89.9832 189.938C89.9832 189.938 90.3215 189.938 90.3215 189.596C90.3215 190.279 90.3215 190.963 90.3215 191.646C90.6598 200.869 90.3215 210.776 89.3066 220.683C88.9683 225.466 88.2918 230.59 87.6152 235.373C87.2769 237.764 86.6004 240.155 86.6004 242.888C86.6004 244.255 86.9386 245.621 87.6152 246.988C88.2918 248.354 89.6449 249.379 90.6597 250.062C91.3363 250.404 92.0129 250.404 92.6894 250.745C99.7934 254.845 103.853 254.845 103.853 254.845C103.853 254.845 88.6301 258.261 85.5855 264.41C82.541 270.217 82.2027 278.758 85.9238 287.298C87.2769 290.373 88.6301 290.373 90.998 287.298C93.7043 284.224 94.3809 277.733 96.0723 276.366C97.4254 275 102.838 272.267 108.25 273.975C113.325 275.342 116.369 275 120.429 274.658C124.15 274.317 127.871 274.317 134.298 278.074C133.96 278.074 133.622 278.416 133.283 278.416C130.239 279.783 126.179 280.807 122.12 281.832C118.061 282.515 113.663 282.857 110.28 282.857C106.897 282.857 104.868 282.515 104.868 282.515C104.868 282.515 106.897 283.199 110.28 283.54C113.663 284.224 118.061 284.565 122.458 284.223C126.856 284.223 131.254 283.54 134.636 282.515C136.666 281.832 138.358 281.491 139.372 281.149C143.093 283.54 145.8 283.882 147.153 283.882C148.506 283.882 149.183 283.54 149.183 283.54C147.491 282.515 146.476 281.149 145.461 280.124C141.74 272.267 137.343 261.335 133.283 258.944C131.592 257.919 129.562 257.236 127.194 256.894C129.9 253.82 133.96 248.012 137.343 239.472C137.681 239.13 137.681 238.789 138.019 238.447C138.696 237.081 138.696 236.397 138.696 236.397C138.696 236.397 138.696 236.397 138.358 236.739C138.019 236.739 137.681 237.081 137.004 237.422C135.99 237.764 134.298 238.447 132.607 238.789C130.577 239.13 128.547 239.13 125.503 239.13C122.797 239.13 119.414 238.789 115.354 239.472C113.325 239.814 111.295 240.497 109.265 241.18C107.236 242.205 105.544 243.23 103.514 244.255C101.823 245.279 99.7934 246.304 98.102 246.988C96.4105 247.671 94.0426 248.012 92.6894 247.329C90.998 246.646 90.3215 244.938 90.3215 242.888C90.3215 240.838 90.998 238.447 91.3363 236.056C92.0129 231.273 92.6894 226.149 93.366 221.366C94.3809 211.46 95.3957 201.211 95.3957 191.988C95.3957 187.205 95.734 182.764 94.7191 177.981C94.0426 175.59 93.366 173.199 92.0129 171.149C91.6746 170.466 91.3363 170.466 90.998 169.783C90.6598 169.099 89.9832 168.758 89.6449 168.416C88.6301 167.733 87.9535 167.05 86.9386 166.366C83.2175 163.975 79.1582 163.633 75.7753 163.633C72.3925 163.633 69.6863 163.975 67.6566 164.658C66.3034 165 65.2886 165 64.2737 165.342C65.6269 160.901 67.9949 156.118 69.348 150.994C70.0245 148.261 70.7011 145.528 70.3628 142.453C70.3628 141.087 70.0245 140.062 70.0245 138.696C74.4222 115.466 72.7308 97.7018 85.9238 86.0869C87.2769 85.0621 88.6301 84.0372 89.9832 83.0124C91.3363 82.6708 93.0277 82.3292 94.3809 81.9875C95.0574 81.9875 96.0723 82.3292 96.7488 82.3292C99.4551 82.6708 101.823 82.3292 104.529 81.9875C109.942 81.3043 115.354 79.9379 121.105 79.9379C123.811 79.9379 126.856 79.9379 129.562 80.6211C130.915 80.9627 132.268 81.3043 133.96 81.6459C134.636 81.9875 135.313 81.9875 135.99 82.3292C136.666 82.6708 137.343 83.0124 138.019 83.0124C139.372 83.354 140.726 84.3788 142.079 85.0621C142.755 85.4037 143.432 85.7453 144.108 86.0869C144.785 86.4285 145.461 86.7702 145.8 87.4534C148.168 89.1615 150.197 91.5528 152.227 93.9441C156.286 99.0683 159.669 105.217 164.744 111.025C169.818 116.832 175.907 121.273 182.672 124.689L183.687 125.031V126.056C183.687 127.422 183.349 129.13 183.687 130.497C183.687 133.571 184.026 136.304 184.702 139.037C185.379 142.453 186.732 145.87 188.423 148.944C189.1 150.652 190.115 152.019 190.791 153.385C191.806 154.752 192.821 156.118 193.498 157.484C197.219 162.267 200.94 166.708 204.661 170.466C210.412 176.956 215.824 182.081 219.884 186.18C220.222 187.888 220.56 189.596 221.237 191.304C221.575 193.012 222.251 194.72 222.928 196.429V196.77C221.913 199.161 221.237 201.894 220.222 204.627C218.192 210.093 215.486 216.584 211.765 222.733C210.75 224.441 209.735 225.807 208.72 227.515C207.705 228.882 206.691 230.59 205.676 231.956L203.984 234.006L202.969 235.031L201.955 236.056L199.925 238.106C199.248 238.789 198.572 239.472 197.895 240.155C195.189 242.888 192.483 244.938 189.438 246.646C188.762 246.987 187.747 247.329 187.07 247.671C186.732 248.012 186.394 248.012 186.055 248.354L185.04 248.696C184.364 249.037 183.687 249.037 183.011 249.379C182.672 249.379 182.334 249.379 181.996 249.379C179.628 249.72 176.922 249.72 174.215 249.379C171.171 249.379 168.465 248.696 165.42 247.671C162.376 246.987 159.669 245.621 157.301 244.255C154.595 242.888 152.565 241.18 150.874 239.814C149.183 238.447 147.491 237.081 146.815 236.056C145.8 235.031 145.461 234.348 145.461 234.348C145.461 234.348 145.8 235.031 146.476 236.397C147.153 237.764 148.168 239.472 149.859 241.18C151.551 242.888 153.58 244.938 156.286 246.988C157.64 248.012 159.331 248.696 160.684 249.379C155.61 248.354 151.551 246.646 148.506 245.279C145.123 243.913 143.432 242.888 143.432 242.888C143.432 242.888 144.785 244.596 147.491 246.988C150.197 249.379 154.595 252.795 160.346 255.186C163.39 256.553 166.773 257.578 170.494 258.261C172.186 258.602 174.215 258.602 176.245 258.944C177.26 258.944 178.275 258.944 179.29 258.944H180.981C181.658 258.944 181.996 258.944 182.672 258.602C183.687 258.602 184.702 258.261 185.717 258.261C186.732 257.919 187.747 257.919 189.1 257.578L190.791 257.236C191.468 257.236 191.806 256.894 192.483 256.553C193.498 256.211 194.512 255.528 195.527 255.186C199.587 253.137 203.308 250.404 206.691 247.329C207.367 246.646 208.382 245.963 209.058 244.938L211.088 242.547L212.103 241.18L213.118 239.814C213.794 238.789 214.471 238.106 215.148 237.081C216.501 235.373 217.516 233.323 218.53 231.615C219.545 229.907 220.222 227.857 221.237 226.149C224.619 218.975 226.311 211.46 227.326 205.31C227.326 204.627 227.664 204.286 227.664 203.602C228.002 204.286 228.341 204.969 228.679 205.652C230.709 209.751 233.077 213.168 234.768 215.217C235.444 216.242 236.121 217.267 236.798 217.609C237.136 218.292 237.474 218.292 237.474 218.292C237.474 218.292 237.474 217.95 237.136 217.267C236.798 216.584 236.459 215.559 236.121 214.192C235.445 211.46 234.43 208.043 233.077 203.602C232.4 200.869 231.723 197.453 231.047 194.037C230.709 192.329 230.37 190.279 230.032 188.571C229.694 185.838 229.355 183.106 229.017 180.031C228.679 176.956 228.679 174.224 228.341 171.149C228.002 168.074 228.002 165 227.326 161.584C226.649 158.168 225.634 155.093 224.281 152.019C222.59 148.944 220.222 146.553 218.192 144.845C216.162 143.137 213.794 141.77 212.103 140.404C208.382 138.012 205.676 135.621 203.984 133.571C203.308 132.547 202.631 131.522 202.293 130.838C201.955 130.155 201.955 129.814 201.955 129.814C201.955 129.814 201.955 130.155 201.955 130.838C201.955 131.522 201.955 132.547 202.631 134.255C203.308 136.988 205.676 140.745 208.72 144.161C211.765 147.578 215.824 151.335 217.516 155.435C218.53 157.484 218.869 160.217 219.207 162.95C219.545 165.683 219.545 168.758 219.884 171.832C219.884 174.565 220.222 177.64 220.56 180.373C217.516 176.273 214.133 171.491 210.073 166.366C207.029 162.267 203.646 157.484 200.263 152.702C199.587 151.335 198.91 150.311 197.895 148.944C197.219 147.578 196.542 146.553 195.865 145.186C194.851 142.453 193.836 139.72 193.159 136.646C192.821 134.255 192.483 132.205 192.483 129.814C192.483 128.789 192.483 127.422 192.821 126.397V125.373C192.821 124.689 193.159 124.006 193.159 123.323C193.498 121.956 193.836 120.59 194.174 119.224C191.806 118.199 189.438 116.832 187.07 115.807C181.319 112.733 176.245 108.975 171.847 104.193C167.45 99.4099 164.067 93.2608 159.331 87.795C156.963 85.0621 154.257 82.3292 151.212 79.9379C150.874 79.5962 150.197 79.2546 149.859 78.913C151.212 78.5714 152.904 77.8882 153.919 77.5466C156.625 76.1801 158.993 74.8136 160.008 73.4472C160.684 72.7639 161.022 72.4223 161.361 72.0807C161.699 71.7391 161.699 71.3975 161.699 71.3975C161.699 71.3975 160.684 71.7391 159.331 72.0807C157.64 72.4223 155.61 72.7639 152.904 73.1056C150.197 73.4472 147.153 73.4472 143.77 73.1056C142.079 73.1056 140.387 72.7639 138.696 72.7639C137.004 72.4223 134.975 72.4223 133.283 72.0807C131.592 72.0807 129.562 71.7391 127.533 71.7391C125.503 71.7391 123.811 71.7391 122.12 71.7391C121.105 71.7391 120.429 71.7391 119.414 71.7391C122.12 70.031 124.488 68.323 126.179 67.2981C128.547 65.2484 129.9 64.2236 129.9 64.2236C129.9 64.2236 128.209 64.9068 125.503 65.9316C122.797 66.9565 118.737 68.323 113.663 69.6894C108.927 71.0559 103.176 72.4223 97.0871 73.1056C94.0426 73.4472 90.6597 73.7888 87.2769 74.472C83.8941 75.1552 79.8347 76.1801 76.4519 77.8882C74.7605 78.913 73.0691 79.9379 71.3777 81.6459C69.6863 83.0124 68.3331 85.0621 67.6566 87.1118C65.9652 90.8695 65.2886 94.6273 64.612 97.3602C63.2589 102.826 59.5378 107.609 57.1698 112.391C54.4636 117.174 53.4487 121.956 53.4487 125.031C53.4487 126.739 53.787 127.764 54.1253 128.789C54.4636 129.472 54.4636 130.155 54.4636 130.155C54.4636 130.155 54.4636 129.814 54.4636 128.789C54.4636 128.106 54.8018 126.739 55.1401 125.373C55.8167 122.64 57.8464 118.882 61.2292 115.124C61.9058 114.441 62.5823 113.758 62.9206 113.074C62.5823 114.099 62.2441 114.783 61.9058 115.807C60.8909 118.54 59.8761 121.615 59.1995 124.689C58.523 127.764 57.8464 130.838 56.8315 133.23C56.155 135.963 55.1401 138.012 53.4487 140.062C52.0956 142.112 50.0659 143.82 48.0362 145.528C46.0065 147.236 43.6385 148.944 41.6088 150.652C39.5792 152.36 37.5495 153.727 35.5198 154.752C31.7987 157.143 28.4158 158.168 25.7096 158.851C24.3565 159.192 23.3416 159.192 22.665 159.192C21.9885 159.192 21.6502 159.192 21.6502 159.192C21.6502 159.192 21.9885 159.534 22.665 159.534C23.3416 159.876 24.3565 160.217 25.7096 160.559C28.4158 161.242 32.8135 161.242 37.5495 159.534C39.9174 158.851 42.2854 157.826 44.9917 156.46C47.3596 155.093 50.0659 153.727 52.4339 152.019C55.1401 150.311 57.8464 148.261 59.8761 145.528L60.2144 145.186C60.2144 145.528 60.2144 145.528 60.2144 145.87C60.2144 146.894 60.2144 147.919 60.2144 148.944C59.5378 152.019 58.1847 155.093 56.4933 157.826C55.8167 158.851 55.1401 159.876 54.4636 160.559C53.787 161.584 52.7722 162.267 51.7573 163.292C50.7425 164.317 49.7276 165.342 48.7128 166.708C47.6979 168.074 46.6831 169.783 46.0065 171.149C44.6534 174.224 43.6385 176.956 42.962 179.348C41.9471 181.739 40.9323 184.13 39.5792 186.18C36.1963 191.304 33.1518 195.062 30.4455 198.137C27.7393 201.211 24.6947 203.261 22.665 204.969C21.6502 205.652 20.9736 206.335 20.2971 206.677C19.6205 207.019 19.2822 207.36 19.2822 207.36C19.2822 207.36 19.6205 207.36 20.2971 207.36C20.9736 207.36 21.9885 207.019 23.3416 206.677C25.7096 205.994 29.4307 204.627 33.4901 202.236C37.2112 199.845 41.6088 196.429 44.9917 191.646C46.6831 189.255 48.3745 186.522 49.7276 183.789C51.0807 181.056 51.7573 178.323 53.1104 175.932C53.4487 175.59 53.4487 175.248 53.787 174.907C53.1104 177.298 53.4487 180.714 54.4636 184.13C55.8167 188.913 58.5229 193.354 58.5229 197.453C58.5229 199.503 58.1847 201.894 57.1698 204.286C56.155 206.677 55.1401 209.41 54.1253 212.143C53.1104 214.876 52.0956 217.609 51.0807 220.342C50.0659 223.074 49.0511 225.807 48.0362 228.199C46.0065 233.323 44.3151 238.106 42.962 242.547C41.6088 246.646 40.2557 250.404 39.5792 252.795C38.9026 255.186 38.5643 256.894 38.5643 256.894C38.5643 256.894 39.5792 255.869 41.2706 253.82C42.962 251.77 45.33 248.696 47.6979 244.938C49.3893 240.838 52.0956 236.397 54.8018 231.273ZM133.283 269.192C125.841 264.751 117.046 269.192 108.25 266.801C103.514 265.435 101.146 266.118 99.4551 266.801C103.176 263.043 106.221 264.41 111.633 264.751C117.722 264.751 122.458 261.335 130.239 266.801C130.915 267.484 132.268 268.168 133.283 269.192ZM85.2472 174.907C86.2621 175.248 86.9386 175.59 87.6152 175.932C88.2918 176.615 88.6301 177.64 88.9683 178.665C88.6301 178.665 88.6301 178.665 88.2918 178.665C86.9387 178.665 85.5855 178.323 84.2324 178.323C83.5558 178.323 82.8793 178.323 81.8644 178.323C81.1879 178.323 80.5113 178.665 79.4964 178.665C78.8199 178.665 77.805 179.006 77.1285 179.348C76.4519 179.689 75.7753 179.689 75.0988 180.031C73.7456 180.714 72.3925 181.397 71.3777 182.081C70.7011 182.764 70.0245 183.447 69.348 183.789C69.0097 182.081 68.6714 180.373 67.9949 179.006L66.98 176.956L66.3034 175.932C66.6417 175.932 66.98 175.59 67.3183 175.59C69.6863 174.907 73.0691 174.224 76.4519 173.882C79.8347 173.54 82.8793 174.224 85.2472 174.907ZM67.3183 169.099C69.348 169.441 72.0542 169.441 74.7605 169.783C75.0988 169.783 75.4371 169.783 75.7753 170.124C72.3925 171.491 69.0097 173.199 66.98 174.565C66.6417 174.907 66.3034 174.907 65.9652 175.248L64.612 173.54L63.9355 172.174C63.2589 171.149 63.2589 169.783 63.2589 168.758C64.2737 168.758 65.6269 168.758 67.3183 169.099Z" fill="#333333"/>
<path d="M203.984 104.193C203.984 104.193 204.999 105.217 207.028 106.925C208.72 108.634 211.426 111.025 214.132 114.441C214.809 115.124 215.485 116.149 216.162 116.832C216.839 117.857 217.515 118.54 218.192 119.565C218.868 120.59 219.545 121.615 220.221 122.64C220.898 123.665 221.575 124.689 222.251 126.056C222.928 127.081 223.604 128.447 223.943 129.472C224.281 130.155 224.619 130.839 224.957 131.18L225.634 132.888C226.649 135.28 227.664 138.012 228.34 140.745C229.017 143.478 229.693 145.87 230.032 148.603C230.37 151.335 230.708 154.068 230.708 156.46C231.046 161.925 231.385 167.05 232.738 171.491C234.091 175.932 235.782 179.348 237.474 181.056C238.15 182.081 239.165 182.764 239.504 183.106C240.18 183.447 240.18 183.789 240.18 183.789C240.18 183.789 239.842 183.447 239.504 182.764C239.165 182.081 238.489 181.398 238.15 180.373C237.136 177.981 236.121 174.907 235.782 170.807C235.444 166.708 235.444 161.925 235.782 156.46C235.782 153.727 235.782 150.994 235.444 147.919C235.106 144.845 234.429 142.112 233.753 139.037C232.738 136.304 231.723 133.23 230.708 130.497C230.37 129.814 230.032 129.13 229.693 128.447C229.355 127.764 229.017 127.081 228.678 126.398C228.002 125.031 227.325 124.006 226.311 122.64C225.634 121.615 224.619 120.248 223.943 119.224C223.266 118.199 222.251 117.174 221.575 116.149C220.56 115.124 219.883 114.441 218.868 113.416C217.853 112.733 217.177 111.708 216.162 111.025C212.779 108.292 209.735 106.242 207.367 105.217C205.337 104.876 203.984 104.193 203.984 104.193Z" fill="#333333"/>
<path d="M228.002 106.584C228.341 107.609 229.017 108.975 229.355 110C230.032 111.366 230.37 112.391 231.385 113.758C232.062 115.124 232.738 116.491 233.753 117.857C234.43 119.224 235.445 120.59 236.121 121.615C237.136 122.981 237.813 124.006 238.827 125.373C239.504 126.739 240.519 127.764 241.195 129.13C242.887 131.522 244.24 133.571 245.255 135.621C245.931 136.646 246.27 137.671 246.946 138.354C247.623 139.037 247.961 139.72 248.299 140.404C248.976 141.429 249.314 142.112 249.314 142.112C249.314 142.112 249.314 141.429 248.976 140.062C248.976 139.379 248.638 138.354 248.638 137.671C248.299 136.646 248.299 135.621 247.961 134.596C247.284 132.205 246.27 129.814 244.916 127.081C244.24 125.714 243.563 124.348 242.887 122.981C242.21 121.615 241.195 120.248 240.519 118.882C239.504 117.516 238.827 116.491 237.813 115.124C236.798 113.758 236.121 112.733 235.106 111.366C234.43 110.342 233.415 108.975 232.738 107.95C232.062 106.925 231.385 105.901 230.709 104.876C229.355 103.168 228.341 101.46 227.326 100.435C226.649 99.4099 225.973 98.7267 225.973 98.7267C225.973 98.7267 225.973 99.4099 226.311 100.776C226.649 102.484 226.987 104.193 228.002 106.584Z" fill="#333333"/>
<path d="M254.388 187.205C254.726 189.255 255.065 191.304 255.741 193.354C256.756 197.112 258.109 200.528 259.462 203.602C260.815 206.335 262.168 208.727 263.183 210.093C264.198 211.46 264.875 212.484 264.875 212.484C264.875 212.484 264.536 211.46 264.198 209.752C263.86 208.043 263.183 205.652 262.507 202.578C261.83 199.503 261.154 196.087 260.477 192.329C260.139 190.621 260.139 188.571 259.801 186.522C259.462 184.472 259.462 182.422 259.462 180.714C259.462 178.665 259.124 176.615 259.124 174.907C259.124 172.857 259.124 171.149 259.124 169.099C259.124 167.05 259.124 165.342 259.124 163.634C259.124 161.925 259.124 160.217 259.124 158.509C259.462 152.36 259.124 148.261 259.124 148.261C259.124 148.261 257.433 152.019 256.079 158.168C255.741 159.534 255.403 161.242 255.065 162.95C254.726 164.658 254.388 166.708 254.05 168.416C253.711 170.466 253.711 172.516 253.711 174.565C253.711 176.615 253.711 178.665 253.711 180.714C253.711 183.106 254.05 185.155 254.388 187.205Z" fill="#333333"/>
<path d="M65.2887 377.826C66.3035 378.851 67.6567 380.559 70.0246 381.925C71.0395 382.609 72.3926 383.292 73.7457 383.975C75.0989 384.658 76.452 385 78.1434 385.683C79.8348 386.025 81.5262 386.366 83.2176 386.366C84.909 386.366 86.6004 386.366 88.2919 386.366C89.9833 386.025 91.6747 385.683 93.3661 385.342C95.0575 385 96.4106 384.317 98.102 383.292C100.132 382.267 101.823 380.901 103.515 379.876C103.853 379.534 104.191 379.534 104.529 379.193C105.544 378.509 106.559 377.484 107.574 376.46C107.912 375.776 108.589 375.435 108.927 374.752L109.265 374.41L109.604 374.068V374.41L109.942 374.752C110.957 376.118 111.972 377.143 112.648 378.168C114.678 380.217 116.708 381.925 118.737 382.95C120.767 383.975 122.458 385 123.473 385.342C124.826 385.683 125.503 386.025 125.503 386.025C125.503 386.025 125.165 385.342 124.15 384.658C123.135 383.634 122.12 382.267 120.767 380.901C119.414 379.193 118.061 377.484 116.369 375.435C115.693 374.41 115.016 373.385 114.34 372.36L113.663 371.335L112.648 369.627C111.972 368.261 111.295 366.894 110.618 365.528L109.604 363.478L108.25 366.553C107.912 367.578 107.236 368.602 106.897 369.627C106.559 370.311 106.221 370.994 105.883 371.677L105.544 372.019V372.36L105.206 372.702C104.868 373.385 104.529 373.727 104.191 374.41C103.515 375.435 102.838 376.46 101.823 377.143C101.485 377.484 101.485 377.484 101.147 377.826C99.7934 378.509 98.102 379.193 96.4106 379.876C95.0575 380.559 93.7044 380.559 92.3512 381.242C90.9981 381.584 89.645 381.925 87.9536 381.925C86.6004 382.267 84.909 382.267 83.5559 382.267C82.2028 382.267 80.5114 382.267 79.1582 381.925C77.8051 381.584 76.452 381.584 75.0989 381.242C73.7457 380.901 72.7309 380.559 71.3778 380.217C69.0098 379.534 67.3184 378.851 65.9652 378.168C65.2887 377.826 64.9504 377.484 64.6121 377.484C64.2738 377.484 63.9355 377.143 63.9355 377.143C63.9355 377.143 63.9355 377.484 64.2738 377.484C64.2738 376.801 64.6121 377.143 65.2887 377.826Z" fill="#333333"/>
<path d="M86.6003 341.615C85.9238 340.932 85.2472 340.248 84.2324 339.565C83.5558 338.882 82.8792 338.199 82.2027 337.515C81.5261 336.832 80.8495 336.149 80.173 335.124C79.4964 334.441 78.8198 333.758 78.4816 332.733C78.1433 332.391 77.805 332.05 77.4667 331.708C77.1284 331.366 76.7902 331.025 76.7902 330.683C76.1136 330 75.7753 329.317 75.437 328.633C74.4222 327.267 73.7456 326.242 73.069 325.217C72.3925 324.534 72.0542 323.851 72.0542 323.851C72.0542 323.851 72.0542 324.534 72.0542 325.559C72.0542 326.584 72.0542 327.95 72.3925 329.658C72.3925 330.683 72.7308 331.366 73.069 332.391C73.069 332.733 73.4073 333.416 73.4073 333.758C73.7456 334.099 73.7456 334.783 74.0839 335.124C74.4222 336.149 75.0987 337.174 75.7753 338.199C76.4519 339.224 77.1284 340.248 78.1433 340.932C78.8198 341.956 79.8347 342.64 80.8495 343.323C81.8644 344.006 82.541 344.689 83.5558 345.373C85.2472 346.397 86.9386 347.422 88.2918 348.447C89.6449 349.472 90.6597 350.155 91.6746 350.838C92.3511 351.522 93.0277 351.863 93.0277 351.863C93.0277 351.863 93.0277 351.18 92.6894 350.155C92.3511 349.13 91.6746 347.764 90.6597 346.397C89.3066 344.348 87.9535 342.981 86.6003 341.615Z" fill="#333333"/>
<path d="M61.2288 301.304L60.214 300.279C57.5077 297.547 55.478 294.472 54.4632 291.397C53.4483 288.323 52.7718 285.59 52.7718 283.54C52.7718 282.515 52.7718 281.832 52.7718 281.149C52.7718 280.466 52.7718 280.466 52.7718 280.466C52.7718 280.466 52.7718 280.807 52.4335 281.149C52.0952 281.491 52.0952 282.515 51.7569 283.54C51.4187 285.59 51.0804 288.665 51.7569 292.081C52.4335 295.497 54.1249 299.596 57.1694 303.354L57.5077 304.037L57.846 304.379L57.5077 304.72C56.4929 305.404 55.478 306.087 54.4632 306.77C52.4335 308.478 51.0804 310.528 49.7272 312.578C48.3741 314.627 47.6976 317.36 47.3593 319.752C47.021 322.143 47.3593 324.534 48.0358 326.584C48.7124 328.634 49.7272 330.342 50.7421 332.05C52.7718 335.124 55.478 336.832 57.5077 337.516C58.5226 337.857 59.1991 338.199 59.8757 338.199C60.5523 338.199 60.5523 338.199 60.5523 338.199C60.5523 338.199 60.214 338.199 59.8757 337.857C59.5374 337.516 58.8609 337.174 58.1843 336.491C56.8312 335.124 54.8015 333.074 53.4483 330.342C52.7718 328.975 52.4335 327.267 52.0952 325.559C51.7569 323.851 51.7569 322.143 52.0952 320.435C52.4335 318.727 53.1101 317.019 54.1249 315.311C55.1398 313.602 56.4929 312.236 57.846 310.87C58.5226 310.186 59.1991 309.503 60.214 309.161C60.214 309.161 60.214 309.161 60.5523 308.82L61.2288 308.478L62.9202 307.795C63.9351 307.453 65.2882 307.112 66.3031 306.77C66.9796 306.429 67.9945 306.087 68.671 306.087C66.9796 305.062 65.6265 304.037 63.9351 303.012C62.582 302.329 61.9054 301.646 61.2288 301.304Z" fill="#333333"/>
<path d="M63.7359 286.919C64.4125 287.602 64.7508 288.627 65.4274 289.31C66.1039 289.993 66.4422 290.676 67.1188 291.018C68.1336 292.043 69.1485 292.726 70.1633 293.409C70.8399 293.751 71.5164 294.092 71.5164 294.092C71.5164 294.092 70.8399 292.043 69.825 289.31C69.4867 288.627 69.1485 287.943 68.8102 287.26C68.4719 286.577 68.1336 285.552 67.7953 284.869C67.457 284.186 67.1188 283.161 66.7805 282.478C66.4422 281.794 66.1039 280.769 65.7656 279.745C65.4274 278.72 65.0891 278.037 64.7508 277.012C64.4125 275.987 64.0742 275.304 63.7359 274.62C63.0594 272.912 62.3828 271.546 61.7063 270.179C60.6914 267.446 59.6766 265.397 59.6766 265.397C59.6766 265.397 59 267.447 59 270.521C59 272.229 59 273.937 59.3383 275.987C59.6766 277.012 59.6766 278.037 60.0148 279.061C60.3531 280.086 60.6914 281.111 61.0297 282.136C61.368 283.161 62.0445 284.186 62.3828 284.869C62.7211 285.21 63.3977 286.235 63.7359 286.919Z" fill="#333333"/>
<path d="M144.447 365.186L147.153 367.236L148.168 363.82L149.183 360.745V360.062V359.721L149.521 359.037C149.521 358.696 149.859 358.354 149.859 358.012C150.197 357.329 150.536 356.304 150.874 355.621C151.551 354.255 152.227 352.547 152.904 351.18C154.257 348.447 155.948 345.714 157.301 343.665C158.654 341.615 160.008 339.565 160.684 338.54C161.699 337.174 162.037 336.491 162.037 336.491C162.037 336.491 161.361 336.832 160.008 337.857C158.654 338.882 156.963 339.907 154.933 341.957C152.904 344.006 150.874 346.397 148.844 349.13C147.829 350.497 146.815 352.205 146.138 353.913C145.8 354.596 145.461 355.621 145.123 356.304C144.785 356.646 144.785 357.329 144.785 357.671L144.447 358.696V359.037L143.77 358.696C143.094 358.354 142.079 357.671 141.402 357.329C139.711 356.646 138.358 355.963 136.666 355.28C135.313 354.596 133.622 354.255 132.268 354.255C129.562 353.571 127.194 353.571 125.841 353.571C124.15 353.571 123.473 353.571 123.473 353.571C123.473 353.571 124.15 353.913 125.841 354.596C127.194 355.28 129.224 355.963 131.592 356.988C132.607 357.671 133.96 358.012 135.313 359.037C136.666 359.721 138.019 360.404 139.372 361.429C140.049 361.77 140.726 362.453 141.402 362.795L141.74 363.137C142.079 363.478 142.417 363.478 142.755 363.82C143.094 364.162 143.77 364.503 144.447 365.186Z" fill="#333333"/>
<path d="M178.275 362.795C177.598 363.137 176.583 363.82 175.907 364.503C174.215 365.528 172.186 366.894 169.818 368.261C168.803 368.944 167.45 369.627 166.435 369.969C165.42 370.652 164.067 371.335 162.714 371.677C161.361 372.36 160.346 372.702 158.993 373.385C157.639 373.727 156.625 374.41 155.272 374.752C153.918 375.093 152.904 375.776 151.889 376.118C150.874 376.46 149.521 376.801 148.506 377.143C147.491 377.484 146.476 377.826 145.8 377.826C145.123 378.168 144.108 378.168 143.77 378.509C142.417 378.851 141.74 379.193 141.74 379.193C141.74 379.193 142.417 379.534 143.77 379.534C144.446 379.534 145.123 379.876 146.138 379.876C147.153 379.876 148.168 380.217 149.182 380.217C150.197 380.217 151.55 380.217 152.904 380.217C154.257 380.217 155.61 379.876 156.963 379.534C158.316 379.192 159.669 378.851 161.022 378.509C162.375 378.168 163.729 377.484 165.082 376.801C166.435 376.118 167.788 375.435 169.141 374.752C170.494 374.068 171.509 373.043 172.862 372.36C175.23 370.652 176.922 368.944 178.275 367.236C178.951 366.553 179.628 365.528 179.966 364.845C180.643 364.161 180.981 363.478 181.319 362.795C181.996 361.77 182.334 361.087 182.334 361.087C182.334 361.087 181.658 361.429 180.643 362.112C179.628 362.112 178.951 362.453 178.275 362.795Z" fill="#333333"/>
<path d="M196.88 307.112C196.542 306.087 196.204 305.062 196.204 304.037C195.865 303.012 195.527 302.329 195.527 301.646C194.85 300.28 194.512 299.596 194.512 299.596C194.512 299.596 194.512 300.28 194.512 301.646C194.512 302.329 194.512 303.012 194.512 304.037C194.512 305.062 194.512 306.087 194.174 307.112C194.174 309.161 193.836 311.894 193.497 314.286C193.159 315.652 193.159 317.019 192.821 318.385C192.821 319.752 192.483 321.118 192.144 322.484C191.806 323.851 191.806 325.217 191.468 326.584C191.129 327.95 190.791 329.317 190.453 330.683C190.115 332.05 189.776 333.075 189.438 334.441C189.1 335.466 188.761 336.832 188.423 337.857C188.085 338.882 187.747 339.907 187.408 340.59C187.07 341.615 187.07 342.298 186.732 342.981C186.393 344.348 186.055 345.031 186.055 345.031C186.055 345.031 186.732 344.689 187.408 343.665C187.747 343.323 188.423 342.64 189.1 341.957C189.776 341.273 190.453 340.248 190.791 339.565C191.468 338.54 192.144 337.516 192.483 336.491C193.159 335.466 193.497 334.099 194.174 332.733C194.512 331.366 195.189 330 195.527 328.634C195.865 327.267 196.204 325.559 196.542 324.193C196.88 322.826 196.88 321.118 197.218 319.752C197.557 318.385 197.218 316.677 197.218 315.311C197.557 311.894 197.218 309.161 196.88 307.112Z" fill="#333333"/>
<path d="M228.679 263.727C227.664 265.093 226.649 266.46 225.634 267.826C224.957 268.509 224.619 269.193 223.943 270.217C223.266 270.901 222.589 271.584 222.251 272.267C221.575 272.95 220.898 273.634 220.221 274.317C219.545 275 218.868 275.683 218.192 276.025C217.515 276.708 216.839 277.05 216.162 277.391C215.486 277.733 214.809 278.075 214.132 278.758C212.779 279.441 211.764 279.783 210.75 280.124C210.411 280.124 210.073 280.466 209.735 280.466C209.396 280.466 209.396 280.466 209.396 280.466C209.396 280.466 209.396 280.466 209.735 280.807C210.073 280.807 210.411 281.149 210.75 281.149C211.764 281.491 213.118 281.832 214.809 281.491C215.824 281.491 216.5 281.149 217.515 280.807C218.53 280.466 219.545 280.124 220.56 279.441C221.575 278.758 222.589 278.416 223.266 277.733C224.281 277.05 224.957 276.366 225.634 275.342C226.311 274.317 226.987 273.634 227.664 272.609C228.34 271.584 228.679 270.559 229.355 269.876C230.37 267.826 230.708 266.118 231.047 264.41C231.723 260.994 231.385 258.944 231.385 258.944C231.385 258.944 230.37 261.335 228.679 263.727Z" fill="#333333"/>
<path d="M145.721 327.69C145.045 328.715 144.706 330.081 144.03 331.106C143.691 332.473 143.015 333.497 143.015 334.864C143.015 335.547 142.677 335.889 142.677 336.572C142.677 337.255 142.677 337.597 142.338 338.28C142 339.305 142 340.33 142 341.355C142 343.404 142 344.771 142.338 346.137C142.677 347.162 142.677 347.845 142.677 347.845C142.677 347.845 143.015 347.162 143.353 346.137C143.691 345.112 144.368 343.746 145.045 341.696C145.383 340.671 145.721 339.988 146.059 338.963C146.398 338.622 146.398 337.938 146.736 337.597C147.074 337.255 147.074 336.572 147.413 336.23C147.751 335.206 148.427 334.181 148.766 333.156C149.104 332.131 149.78 331.106 150.457 330.081C151.134 329.056 151.472 328.032 152.148 327.007C152.825 325.982 153.163 324.957 153.84 323.932C154.855 321.883 156.208 319.833 156.546 317.783C157.223 315.734 157.223 314.025 156.884 313.001C156.884 311.976 156.546 311.293 156.546 311.293C156.546 311.293 156.208 311.976 155.87 313.001C155.531 314.025 154.855 315.392 153.84 316.758C152.825 318.125 151.472 319.833 150.119 321.541C149.442 322.566 148.427 323.249 147.751 324.615C147.413 325.299 146.398 326.324 145.721 327.69Z" fill="#333333"/>
<path d="M155.677 266.845C155.677 267.528 155.677 268.211 156.015 268.894C156.015 269.578 156.015 270.261 156.353 270.944C156.353 271.627 156.353 272.31 156.691 273.335C156.691 274.019 156.691 275.043 157.03 275.727C157.03 276.41 157.03 277.435 157.03 278.118C157.03 278.801 157.03 279.826 157.03 280.509C157.03 282.217 157.03 283.584 157.03 284.609C157.03 285.975 157.03 287 157.03 287.683C157.03 288.366 157.03 289.05 157.03 289.05C157.03 289.05 157.368 288.708 158.045 288.025C158.721 287.341 159.398 286.317 159.736 285.292C160.413 283.925 161.089 282.559 161.427 280.851C161.427 279.826 161.766 279.143 161.766 278.118C161.766 277.093 161.766 276.41 161.766 275.385C161.766 274.36 161.427 273.335 161.427 272.652C161.427 271.627 161.089 270.944 160.751 269.919C160.413 269.236 160.074 268.211 159.736 267.528C159.398 266.845 159.059 266.161 158.383 265.478C157.706 264.453 156.691 263.428 156.015 263.087C155.338 262.404 155 262.404 155 262.404C155 262.404 155 262.745 155 263.77C155.338 264.453 155.338 265.478 155.677 266.845Z" fill="#333333"/>
<path d="M178.951 280.807C178.951 279.783 179.289 278.416 179.289 277.391C179.289 276.025 179.289 275 179.289 273.634C179.289 272.267 178.951 271.242 178.951 270.217C178.613 269.193 178.274 268.168 177.936 267.143C176.921 265.435 175.568 264.068 174.892 263.385C174.215 263.043 173.877 263.043 173.538 263.043C173.2 263.043 173.2 263.043 173.2 263.043C173.2 263.043 173.538 263.727 174.215 264.41C174.553 265.435 175.23 266.801 175.23 268.168C175.23 268.851 175.23 269.876 175.23 270.901C175.23 271.925 175.23 272.609 174.892 273.634C174.892 274.658 174.553 275.683 174.215 276.708C173.877 277.733 173.877 279.099 173.538 280.124C173.538 281.491 173.2 282.516 173.2 283.882C173.2 285.248 173.538 286.273 173.538 287.64C173.877 290.031 174.892 292.081 175.906 293.789C176.921 295.497 177.936 296.522 178.613 297.547C179.289 298.23 179.966 298.571 179.966 298.571C179.966 298.571 179.966 297.888 179.628 296.863C179.289 295.838 178.951 294.472 178.613 292.764C178.274 291.056 178.274 289.006 177.936 286.957C177.936 285.932 177.936 284.907 177.936 283.882C178.951 283.199 178.951 282.174 178.951 280.807Z" fill="#333333"/>
<path d="M124.826 324.876C125.165 323.851 125.503 322.484 125.841 321.46C126.179 320.435 126.518 319.068 127.194 318.043C127.533 317.019 127.871 315.652 128.547 314.627C129.562 312.236 130.239 310.186 130.577 308.137C131.254 306.087 131.254 304.379 131.254 303.012C131.254 301.646 130.915 300.963 130.915 300.963C130.915 300.963 130.577 301.646 130.239 302.671C129.562 303.696 128.886 305.062 127.871 306.77C126.856 308.478 125.503 310.186 124.488 312.578C123.811 313.602 123.135 314.969 122.797 315.994C122.12 317.36 121.782 318.385 121.443 319.752C121.105 321.118 120.767 322.485 120.429 323.851C120.09 325.217 120.09 326.584 120.09 327.95C120.09 329.317 120.09 330.683 120.09 331.708C120.09 332.733 120.429 334.099 120.767 335.124C121.105 336.149 121.105 337.174 121.443 337.857C121.782 338.54 122.12 339.224 122.458 339.907C122.797 340.932 123.135 341.615 123.135 341.615C123.135 341.615 123.135 340.932 123.473 339.565C123.473 338.882 123.473 338.199 123.473 337.516C123.473 336.832 123.811 335.807 123.811 334.783C123.811 333.758 124.15 332.733 124.15 331.708C124.15 330.683 124.488 329.658 124.826 328.292C124.15 327.267 124.826 326.242 124.826 324.876Z" fill="#333333"/>
<path d="M106.134 307.302C106.134 307.302 105.795 307.985 105.795 308.668C105.457 309.693 105.119 311.059 104.442 312.426C103.766 313.792 103.089 315.5 102.413 317.208C102.074 318.233 101.398 318.916 101.059 319.941C100.721 320.966 100.045 321.991 99.7063 322.674C99.368 323.699 98.6914 324.724 98.3531 325.749C98.0148 326.774 97.6766 327.798 97.3383 329.165C97 330.19 97 331.215 97 332.581C97 333.606 97 334.631 97.3383 335.656C97.6766 337.364 98.0148 338.73 98.6914 339.755C99.0297 340.78 99.368 341.121 99.368 341.121C99.368 341.121 99.368 340.438 99.7063 339.413C99.7063 338.389 100.045 337.022 100.383 335.656C100.721 334.972 100.721 333.948 101.059 333.264C101.398 332.581 101.736 331.556 102.074 330.873C102.413 329.848 102.751 329.165 103.427 328.14C103.766 327.115 104.442 326.432 104.78 325.407C105.119 324.382 105.795 323.357 106.134 322.333C106.472 321.308 106.81 320.283 107.148 319.258C107.825 317.208 107.825 315.159 107.825 313.109C107.825 311.401 107.487 310.034 107.148 309.01C106.472 307.643 106.134 307.302 106.134 307.302Z" fill="#333333"/>
<path d="M214.809 248.012C215.486 247.671 216.162 246.988 216.839 246.304C217.515 245.621 218.192 244.938 218.868 244.255C219.545 243.571 220.222 242.547 220.898 241.863C221.575 240.839 222.251 240.155 222.59 239.13C222.928 238.106 223.604 237.081 223.943 236.056C224.281 235.031 224.619 234.006 224.958 232.981C225.634 230.932 225.634 228.882 225.972 227.516C225.972 225.807 225.972 224.441 225.634 223.416C225.634 222.391 225.296 222.05 225.296 222.05C225.296 222.05 224.958 222.391 224.619 223.416C224.281 224.099 223.604 225.466 222.928 226.832C222.251 228.199 221.575 229.907 220.56 231.615C220.222 232.298 219.545 233.323 219.207 234.006C218.868 235.031 218.192 235.714 217.854 236.739C217.515 237.764 216.839 238.447 216.501 239.13C216.162 239.814 215.486 240.839 215.147 241.522C214.471 242.205 214.133 243.23 213.794 243.913C213.456 244.596 212.779 245.28 212.441 245.963C211.765 247.329 210.75 248.354 210.411 249.379C210.073 250.062 209.735 250.745 209.735 250.745C209.735 250.745 210.411 250.745 211.088 250.062C212.441 249.721 213.456 249.037 214.809 248.012Z" fill="#333333"/>
<path d="M184.026 76.8634C183.011 75.8385 181.658 75.1553 180.643 74.472C178.275 73.1056 176.245 72.764 174.892 72.4224C174.215 72.4224 173.539 72.4224 173.2 72.4224C172.862 72.4224 172.524 72.4224 172.524 72.4224C172.524 72.4224 172.862 72.4224 173.2 72.764C173.539 73.1056 173.877 73.1056 174.554 73.4472C175.907 74.1304 177.26 75.4969 178.951 76.8634C179.628 77.5466 180.643 78.5714 181.658 79.5963C182.672 80.6211 183.349 81.646 184.364 82.6708C185.379 83.6957 186.394 85.0621 187.408 86.087C188.423 87.1118 189.776 88.4783 191.129 89.5031C192.483 90.528 193.836 91.5528 195.189 92.5776C196.542 93.6025 198.233 94.2857 199.587 94.9689C202.631 96.3354 205.337 97.0186 207.705 97.7019C210.073 98.0435 212.441 98.3851 213.794 98.0435C215.147 98.0435 216.162 97.7019 216.162 97.7019C216.162 97.7019 215.486 97.3602 214.133 97.0186C212.78 96.3354 211.088 95.6522 208.72 94.6273C206.69 93.6025 204.322 92.236 201.616 90.8696C200.263 90.1863 199.248 89.1615 197.895 88.4783C196.542 87.4534 195.527 86.7702 194.512 85.7453C193.497 84.7205 192.144 83.6957 191.129 82.6708C190.115 81.646 188.761 80.6211 187.747 79.5963C186.393 78.5714 185.04 77.5466 184.026 76.8634Z" fill="#333333"/>
<path d="M91.3363 47.8261C91.6746 49.1926 92.3512 50.2174 93.366 51.5839L93.7043 51.9255C93.7043 52.2671 94.0426 52.2671 94.3809 52.6087C94.7191 52.9503 95.0574 53.6336 95.734 53.9752L97.0871 55.3416C97.4254 55.6832 97.4254 55.3416 97.7637 55.3416L98.102 54.6584C99.4551 53.6336 101.147 52.2671 102.5 50.9006C103.514 49.8758 104.529 49.1926 105.544 48.1677C106.559 47.1429 107.574 46.118 108.589 45.4348C110.618 43.7267 112.31 41.677 113.663 40.3106C116.369 37.236 118.061 34.5031 118.061 34.5031C118.061 34.5031 115.354 35.528 111.633 37.9193C109.942 38.9441 107.574 40.3106 105.544 42.0186C104.529 42.7019 103.514 43.7267 102.161 44.4099C101.147 45.4348 100.132 46.118 98.7785 47.1429L97.0871 48.5093L96.7488 48.8509L96.4106 48.5093C95.734 47.4845 95.0574 46.8012 94.3809 45.7764C93.7043 44.7516 93.366 44.0683 92.6895 43.0435C91.6746 41.3354 91.3363 39.6273 90.6598 38.6025C90.3215 37.9193 90.3215 37.5776 90.3215 37.236C90.3215 36.8944 90.3215 36.8944 90.3215 36.8944V37.236C90.3215 37.5776 89.9832 37.9193 89.9832 38.6025C89.6449 39.969 89.6449 41.677 89.9832 44.0683C90.3215 45.0932 90.6598 46.4596 91.3363 47.8261Z" fill="#333333"/>
<path d="M43.9766 78.2298C44.9914 77.5466 45.668 76.8634 46.6828 76.1801C47.6977 75.4969 48.7125 75.1553 50.0657 74.472C51.4188 73.7888 52.4336 73.4472 53.7868 73.1056C55.1399 72.764 56.493 72.0807 57.8461 71.7391C59.1993 71.3975 60.5524 70.7143 62.2438 70.3727C63.5969 70.0311 64.9501 69.3478 66.3032 68.6646C69.0094 67.6398 71.3774 66.6149 73.4071 65.5901C75.4368 64.5652 77.1282 63.882 78.4813 63.5404C79.8345 63.1988 80.511 62.8571 80.511 62.8571C80.511 62.8571 79.8345 62.5155 78.4813 62.1739C77.1282 61.8323 75.0985 61.8323 72.7305 62.5155C70.3626 62.8571 67.9946 63.5404 64.9501 64.2236C63.5969 64.5652 62.2438 64.9068 60.8907 65.2484C59.5375 65.5901 57.8461 66.2733 56.493 66.6149C55.1399 67.2981 53.4485 67.6398 52.0953 68.323C50.7422 69.0062 49.3891 69.6894 48.036 70.3727C46.6828 71.0559 45.668 72.0807 44.6531 73.1056C43.6383 74.1304 42.6234 75.1553 41.9469 76.1801C40.5938 78.2298 39.5789 80.2795 39.2406 81.646C38.9023 83.0124 38.9023 83.6957 38.9023 83.6957C38.9023 83.6957 39.2406 83.0124 40.2555 81.9876C40.932 80.9627 42.2852 79.5963 43.9766 78.2298Z" fill="#333333"/>
<path d="M151.55 44.7515C152.227 45.7764 153.242 47.1429 153.918 48.1677C154.595 49.5342 155.61 50.9006 156.286 52.2671C156.963 53.6335 157.639 55.3416 158.316 56.7081C158.993 58.0745 159.669 60.1242 161.022 62.1739C161.699 63.1988 163.052 64.2236 164.405 64.5652C165.758 64.9068 167.111 64.9068 168.465 64.9068C170.832 64.5652 172.186 63.5404 173.877 62.8571C176.922 61.4907 179.966 60.1242 182.334 58.7578C187.408 56.3665 190.453 54.3168 190.453 54.3168C190.453 54.3168 186.732 54.6584 181.319 56.0248C178.613 56.7081 175.568 57.3913 172.186 58.4161C170.494 59.0994 168.803 59.441 167.45 59.7826C166.773 59.7826 166.435 59.7826 166.097 59.7826C165.758 59.7826 165.42 59.441 165.082 59.0994C164.405 58.0745 163.729 56.7081 162.714 54.6584C162.037 52.9503 161.022 51.2422 160.007 49.8758C158.993 48.5093 157.978 47.1428 156.625 45.7764C155.61 44.4099 154.257 43.3851 153.242 42.7019C150.874 40.9938 148.844 39.6273 147.491 38.9441C146.814 38.6025 146.138 38.2609 145.8 38.2609C145.461 38.2609 145.123 37.9193 145.123 37.9193C145.123 37.9193 145.8 38.6025 146.814 39.9689C148.168 40.9938 149.859 42.7019 151.55 44.7515Z" fill="#333333"/>
<path d="M146.476 192.329C147.829 191.988 149.183 191.646 150.536 191.304C153.242 190.621 155.272 189.596 157.301 188.23C158.993 187.205 160.346 186.18 161.361 185.155C162.376 184.472 163.729 183.789 164.744 183.106C166.097 182.764 167.45 182.764 168.465 182.422C169.818 182.081 170.494 181.739 170.494 181.739C170.494 181.739 169.818 181.739 168.126 181.397C167.45 181.397 166.435 181.397 165.42 181.397C164.405 181.397 163.052 181.397 161.699 181.056C160.346 181.397 158.993 181.056 157.64 181.056C154.933 180.373 152.227 179.689 149.521 179.348C148.168 179.006 146.815 179.006 145.461 179.006C144.108 179.006 142.755 179.006 141.402 179.006C138.696 179.006 136.328 179.348 134.298 180.031C132.268 180.373 130.577 181.056 129.224 181.397C127.871 181.739 127.194 182.081 127.194 182.081C127.194 182.081 127.194 182.081 127.532 181.739C127.871 181.398 128.209 181.056 128.886 180.714C129.9 180.031 131.592 179.006 133.622 178.323C135.651 177.298 138.358 176.615 141.064 176.273C142.417 176.273 144.108 175.932 145.461 175.932C146.815 175.932 148.506 176.273 149.859 176.273C152.904 176.957 155.61 177.64 158.316 178.323C161.022 179.006 163.39 179.689 165.42 180.373C166.435 180.714 167.45 180.714 168.465 181.056C173.877 176.615 177.26 171.832 178.613 169.441C183.349 169.783 187.408 170.466 190.453 170.807C194.512 171.491 197.219 171.832 197.219 171.832C197.219 171.832 194.851 171.149 190.791 169.783C186.732 168.758 180.643 167.05 173.539 166.025C169.818 165.683 165.758 165.342 161.699 165.342C157.301 165.342 152.904 165.683 148.506 165.683C144.108 165.683 139.711 165.342 134.636 165C132.268 164.658 129.562 164.658 126.856 165C124.15 165.342 121.443 166.366 119.075 167.733C116.707 169.099 114.339 170.466 112.648 172.516C110.618 174.565 109.265 176.957 108.25 179.689C106.559 184.814 106.897 190.279 107.236 194.72C107.574 199.161 107.912 203.602 107.912 207.702C107.912 211.801 107.912 215.901 107.574 219.317C107.236 226.491 106.221 232.64 105.544 236.739C104.868 240.838 104.529 243.23 104.529 243.23C104.529 243.23 105.544 240.838 106.559 236.739C106.897 235.714 107.236 234.689 107.574 233.665C112.648 220.683 122.797 201.211 130.915 191.646C131.93 191.988 132.945 192.329 133.96 192.329C135.313 192.671 136.666 193.012 138.019 193.012C139.372 193.012 140.725 193.012 142.417 193.012C143.77 192.671 145.123 192.671 146.476 192.329Z" fill="#333333"/>
<path d="M105.206 168.758C105.882 167.733 106.897 166.366 107.912 165.342C108.927 163.975 109.942 162.609 110.956 161.584C111.971 160.217 112.986 158.851 114.001 157.484C115.016 156.118 115.692 155.093 116.707 154.068C117.384 153.043 118.06 152.019 118.737 151.335C119.075 150.652 119.413 150.311 119.413 150.311C119.413 150.311 119.075 150.652 118.399 150.994C117.722 151.335 116.707 152.019 115.692 152.702C114.677 153.385 113.324 154.41 111.971 155.435C110.956 156.46 109.603 157.826 108.25 159.193C107.235 160.559 106.22 162.267 105.206 163.634C104.529 165 103.852 166.708 103.176 167.733C102.838 169.099 102.499 170.124 102.161 170.807C102.161 171.491 101.823 172.174 101.823 172.174C101.823 172.174 102.161 171.832 102.499 171.149C103.514 170.807 104.191 169.783 105.206 168.758Z" fill="#333333"/>
<path d="M94.0422 156.801C93.3656 156.118 92.6891 155.435 92.0125 154.752C91.3359 154.41 90.6594 154.068 90.3211 153.727C89.9828 153.385 89.6445 153.385 89.6445 153.385C89.6445 153.385 89.6445 153.727 89.9828 154.068C89.9828 154.41 90.3211 155.093 90.6594 155.776C90.9977 156.46 91.3359 157.143 91.6742 158.168C92.0125 158.851 92.3508 159.876 92.6891 160.901C93.0274 161.584 93.7039 162.609 94.0422 163.292C94.3805 163.975 95.0571 165 95.3953 165.342C95.7336 166.025 96.0719 166.708 96.4102 167.05C96.7485 167.391 96.7485 167.733 96.7485 167.733C96.7485 167.733 96.7485 167.391 97.0867 167.05C97.0867 166.708 97.0867 166.025 97.425 165C97.425 164.317 97.425 163.292 97.0867 162.267C96.7485 161.242 96.4102 160.217 96.0719 159.193C95.3953 158.509 94.7188 157.484 94.0422 156.801Z" fill="#333333"/>
<path d="M113.325 135.279C118.061 135.279 122.458 135.279 126.856 135.279C131.254 135.279 135.313 134.938 138.696 134.938C142.079 134.596 145.123 134.596 147.153 134.596C149.183 134.255 150.197 134.255 150.197 134.255C150.197 134.255 149.183 134.255 147.153 133.913C145.123 133.571 142.079 133.23 138.696 132.888C135.313 132.547 131.254 132.547 126.856 132.205C122.458 132.205 118.061 131.863 113.325 131.863C108.589 131.863 104.191 131.863 99.7934 131.863C95.3957 132.205 91.3364 132.888 87.9535 133.571C84.5707 134.596 81.8645 135.963 80.1731 136.988C79.1582 137.671 78.8199 138.012 78.1434 138.354C77.8051 138.696 77.4668 139.037 77.4668 139.037C77.4668 139.037 77.8051 139.037 78.1434 138.696C78.4816 138.354 79.4965 138.012 80.1731 137.671C81.8645 136.988 84.909 135.963 87.9535 135.621C91.3364 134.938 95.3957 134.938 99.4551 134.938C103.853 134.596 108.589 134.938 113.325 135.279Z" fill="#333333"/>
<path d="M94.7191 126.739C97.087 126.739 99.455 126.739 102.161 126.739C104.868 126.739 107.912 126.398 110.618 126.398C113.663 126.056 116.369 126.056 119.075 126.056C121.782 125.714 124.488 125.714 126.518 125.714C128.886 125.373 130.577 125.373 131.93 125.373C133.283 125.373 133.96 125.031 133.96 125.031C133.96 125.031 133.283 125.031 131.93 124.689C130.577 124.348 128.886 124.348 126.518 124.006C124.15 123.665 121.782 123.665 119.075 123.323C116.369 123.323 113.325 123.323 110.28 123.323C107.235 123.665 104.529 123.665 101.485 124.006C98.7784 124.348 96.0722 124.689 94.0425 125.031C92.0128 125.373 89.9831 126.056 88.63 126.056C88.2917 126.398 87.2769 126.398 87.2769 126.398C87.2769 126.398 87.9534 126.398 89.3065 126.398C90.6597 126.739 92.6894 126.739 94.7191 126.739Z" fill="#333333"/>
<path d="M157.806 218.432C157.806 222.391 154.94 225.6 151.403 225.6C147.867 225.6 145 222.391 145 218.432C145 214.473 147.867 200 151.403 200C154.94 200 157.806 214.473 157.806 218.432Z" fill="#1A1ED6"/>
<path d="M85.004 207.52C85.004 209.994 83.2122 212 81.002 212C78.7918 212 77 209.994 77 207.52C77 205.046 78.7918 196 81.002 196C83.2122 196 85.004 205.046 85.004 207.52Z" fill="#1A1ED6"/>
</g>
<defs>
<clipPath id="clip0_4226_9078">
<rect width="319" height="440" fill="white"/>
</clipPath>
</defs>
</svg>
