<svg width="16" height="16" viewBox="0 0 16 16" fill="current" xmlns="http://www.w3.org/2000/svg">
  <path fill-rule="evenodd" clip-rule="evenodd"
        d="M8.00914 2C8.68914 2 9.2978 2.35267 9.63514 2.94333L14.4258 11.3193C14.7611 11.9053 14.7591 12.6047 14.4198 13.1893C14.0805 13.7747 13.4745 14.124 12.7991 14.124H3.21047C2.53447 14.124 1.92847 13.7747 1.58914 13.1893C1.24981 12.6047 1.24781 11.9053 1.58314 11.3193L6.38314 2.942C6.72047 2.352 7.32781 2 8.00847 2H8.00914ZM8.00847 3C7.69114 3 7.40847 3.164 7.2498 3.43933L2.45114 11.816C2.29514 12.0893 2.29647 12.4153 2.45447 12.688C2.61247 12.9607 2.89514 13.124 3.21047 13.124H12.7991C13.1138 13.124 13.3965 12.9607 13.5545 12.688C13.7131 12.4153 13.7145 12.0893 13.5571 11.816L8.76714 3.43933C8.60914 3.164 8.32647 3 8.00847 3ZM8.00394 10.3327C8.37261 10.3327 8.67061 10.6307 8.67061 10.9993C8.67061 11.368 8.37261 11.666 8.00394 11.666C7.63527 11.666 7.33394 11.368 7.33394 10.9993C7.33394 10.6307 7.62927 10.3327 7.99727 10.3327H8.00394ZM8.0026 6.376C8.2786 6.376 8.5026 6.6 8.5026 6.876V8.94267C8.5026 9.21867 8.2786 9.44267 8.0026 9.44267C7.7266 9.44267 7.5026 9.21867 7.5026 8.94267V6.876C7.5026 6.6 7.7266 6.376 8.0026 6.376Z"/>
</svg>
