<svg width="32" height="32" viewBox="0 0 32 32" fill="current" xmlns="http://www.w3.org/2000/svg">
  <mask id="path-1-inside-1_115_3794">
    <path
      d="M5.33329 28H18.16C18.9294 28.0004 19.6898 27.8341 20.3888 27.5126C21.0878 27.191 21.7089 26.7219 22.2093 26.1373L29.012 18.2013C29.1544 18.0354 29.2539 17.8371 29.3016 17.6237C29.3493 17.4103 29.3438 17.1884 29.2856 16.9777C29.2274 16.7669 29.1182 16.5737 28.9677 16.4151C28.8172 16.2564 28.63 16.1372 28.4226 16.068L25.7986 15.1933C25.1644 14.9872 24.4892 14.9405 23.8327 15.0575C23.1762 15.1745 22.5586 15.4515 22.0346 15.864L17.788 19.26L16.9653 17.6133C16.5246 16.7257 15.8441 15.9792 15.0009 15.4584C14.1578 14.9377 13.1856 14.6634 12.1946 14.6667H5.33329C3.86263 14.6667 2.66663 15.8627 2.66663 17.3333V25.3333C2.66663 26.804 3.86263 28 5.33329 28ZM5.33329 17.3333H12.1946C13.212 17.3333 14.1253 17.8973 14.58 18.8067L15.176 20H9.33329V22.6667H17.352C17.5571 22.664 17.7588 22.6138 17.9413 22.52L17.9453 22.5187L17.9506 22.516H17.9546L17.9573 22.5147H17.9626L17.964 22.5133C17.976 22.5173 17.968 22.512 17.968 22.512C17.9813 22.512 17.9706 22.5107 17.9706 22.5107H17.972L17.9746 22.5093L17.9786 22.508L17.9813 22.5067L17.984 22.5053L17.988 22.504L17.9906 22.5027C17.9946 22.5027 17.9933 22.5013 17.9933 22.5013L17.9973 22.4987L18 22.4973L18.0026 22.496L18.0066 22.4947L18.0093 22.4933H18.0106L18.0133 22.492L18.0173 22.4907L18.02 22.4893C18.032 22.488 18.024 22.488 18.024 22.488L18.0266 22.4867C18.078 22.4557 18.127 22.4209 18.1733 22.3827L23.7013 17.96C24.0506 17.6827 24.532 17.596 24.9546 17.7373L25.6973 17.9853L20.1866 24.416C19.9331 24.7038 19.6214 24.9345 19.2719 25.0926C18.9225 25.2508 18.5435 25.3328 18.16 25.3333H5.33329V17.3333ZM21.3333 2.66667H21.3106C21.0933 2.66934 19.9693 2.71867 18.6666 3.60667C17.3986 2.74267 16.3013 2.67334 16.0426 2.668L16.0026 2.66667H15.9973C14.9293 2.66667 13.924 3.084 13.172 3.83734C12.4173 4.59334 12 5.59734 12 6.66667C12 7.736 12.4173 8.74 13.148 9.472L17.7 14.2533C17.8252 14.3833 17.9754 14.4867 18.1415 14.5573C18.3077 14.6279 18.4864 14.6642 18.6669 14.6641C18.8474 14.664 19.0261 14.6274 19.1921 14.5566C19.3582 14.4858 19.5082 14.3822 19.6333 14.252L24.1613 9.49467C24.9173 8.74 25.3333 7.736 25.3333 6.66667C25.3333 5.59734 24.916 4.59334 24.1626 3.83867C23.7924 3.46606 23.3519 3.17061 22.8667 2.96944C22.3815 2.76826 21.8612 2.66535 21.336 2.66667H21.3333ZM22.6666 6.66667C22.6666 7.02267 22.528 7.35734 22.252 7.63334L18.6666 11.4L15.0573 7.60933C14.8053 7.35734 14.6666 7.02267 14.6666 6.66667C14.6666 6.31067 14.8053 5.976 15.0586 5.72267C15.2997 5.47741 15.6281 5.33746 15.972 5.33334C16.0053 5.33467 16.6413 5.376 17.3946 5.98C17.5026 6.06667 17.612 6.16533 17.724 6.276L18.6666 7.21867L19.6093 6.276C19.7213 6.16533 19.8306 6.06667 19.9386 5.98C20.644 5.41334 21.24 5.34267 21.3413 5.33467C21.5151 5.33464 21.6871 5.36902 21.8476 5.43585C22.008 5.50267 22.1536 5.60061 22.276 5.724C22.528 5.976 22.6666 6.31067 22.6666 6.66667Z"/>
  </mask>
  <path
    d="M5.33329 28H18.16C18.9294 28.0004 19.6898 27.8341 20.3888 27.5126C21.0878 27.191 21.7089 26.7219 22.2093 26.1373L29.012 18.2013C29.1544 18.0354 29.2539 17.8371 29.3016 17.6237C29.3493 17.4103 29.3438 17.1884 29.2856 16.9777C29.2274 16.7669 29.1182 16.5737 28.9677 16.4151C28.8172 16.2564 28.63 16.1372 28.4226 16.068L25.7986 15.1933C25.1644 14.9872 24.4892 14.9405 23.8327 15.0575C23.1762 15.1745 22.5586 15.4515 22.0346 15.864L17.788 19.26L16.9653 17.6133C16.5246 16.7257 15.8441 15.9792 15.0009 15.4584C14.1578 14.9377 13.1856 14.6634 12.1946 14.6667H5.33329C3.86263 14.6667 2.66663 15.8627 2.66663 17.3333V25.3333C2.66663 26.804 3.86263 28 5.33329 28ZM5.33329 17.3333H12.1946C13.212 17.3333 14.1253 17.8973 14.58 18.8067L15.176 20H9.33329V22.6667H17.352C17.5571 22.664 17.7588 22.6138 17.9413 22.52L17.9453 22.5187L17.9506 22.516H17.9546L17.9573 22.5147H17.9626L17.964 22.5133C17.976 22.5173 17.968 22.512 17.968 22.512C17.9813 22.512 17.9706 22.5107 17.9706 22.5107H17.972L17.9746 22.5093L17.9786 22.508L17.9813 22.5067L17.984 22.5053L17.988 22.504L17.9906 22.5027C17.9946 22.5027 17.9933 22.5013 17.9933 22.5013L17.9973 22.4987L18 22.4973L18.0026 22.496L18.0066 22.4947L18.0093 22.4933H18.0106L18.0133 22.492L18.0173 22.4907L18.02 22.4893C18.032 22.488 18.024 22.488 18.024 22.488L18.0266 22.4867C18.078 22.4557 18.127 22.4209 18.1733 22.3827L23.7013 17.96C24.0506 17.6827 24.532 17.596 24.9546 17.7373L25.6973 17.9853L20.1866 24.416C19.9331 24.7038 19.6214 24.9345 19.2719 25.0926C18.9225 25.2508 18.5435 25.3328 18.16 25.3333H5.33329V17.3333ZM21.3333 2.66667H21.3106C21.0933 2.66934 19.9693 2.71867 18.6666 3.60667C17.3986 2.74267 16.3013 2.67334 16.0426 2.668L16.0026 2.66667H15.9973C14.9293 2.66667 13.924 3.084 13.172 3.83734C12.4173 4.59334 12 5.59734 12 6.66667C12 7.736 12.4173 8.74 13.148 9.472L17.7 14.2533C17.8252 14.3833 17.9754 14.4867 18.1415 14.5573C18.3077 14.6279 18.4864 14.6642 18.6669 14.6641C18.8474 14.664 19.0261 14.6274 19.1921 14.5566C19.3582 14.4858 19.5082 14.3822 19.6333 14.252L24.1613 9.49467C24.9173 8.74 25.3333 7.736 25.3333 6.66667C25.3333 5.59734 24.916 4.59334 24.1626 3.83867C23.7924 3.46606 23.3519 3.17061 22.8667 2.96944C22.3815 2.76826 21.8612 2.66535 21.336 2.66667H21.3333ZM22.6666 6.66667C22.6666 7.02267 22.528 7.35734 22.252 7.63334L18.6666 11.4L15.0573 7.60933C14.8053 7.35734 14.6666 7.02267 14.6666 6.66667C14.6666 6.31067 14.8053 5.976 15.0586 5.72267C15.2997 5.47741 15.6281 5.33746 15.972 5.33334C16.0053 5.33467 16.6413 5.376 17.3946 5.98C17.5026 6.06667 17.612 6.16533 17.724 6.276L18.6666 7.21867L19.6093 6.276C19.7213 6.16533 19.8306 6.06667 19.9386 5.98C20.644 5.41334 21.24 5.34267 21.3413 5.33467C21.5151 5.33464 21.6871 5.36902 21.8476 5.43585C22.008 5.50267 22.1536 5.60061 22.276 5.724C22.528 5.976 22.6666 6.31067 22.6666 6.66667Z"
  />
  <path
    d="M18.16 28L18.1601 27.7H18.16V28ZM22.2093 26.1373L21.9815 25.9421L21.9814 25.9422L22.2093 26.1373ZM29.012 18.2013L28.7844 18.0059L28.7842 18.0061L29.012 18.2013ZM28.4226 16.068L28.5176 15.7834L28.5175 15.7834L28.4226 16.068ZM25.7986 15.1933L25.8935 14.9087L25.8914 14.908L25.7986 15.1933ZM22.0346 15.864L21.849 15.6283L21.8473 15.6297L22.0346 15.864ZM17.788 19.26L17.5196 19.3941L17.6855 19.7261L17.9753 19.4943L17.788 19.26ZM16.9653 17.6133L16.6966 17.7468L16.6969 17.7474L16.9653 17.6133ZM12.1946 14.6667V14.9667L12.1956 14.9667L12.1946 14.6667ZM5.33329 17.3333V17.0333H5.03329V17.3333H5.33329ZM14.58 18.8067L14.8483 18.6726L14.8483 18.6725L14.58 18.8067ZM15.176 20V20.3H15.6611L15.4443 19.866L15.176 20ZM9.33329 20V19.7H9.03329V20H9.33329ZM9.33329 22.6667H9.03329V22.9667H9.33329V22.6667ZM17.352 22.6667V22.9667L17.3559 22.9666L17.352 22.6667ZM17.9413 22.52L17.8464 22.2354L17.8246 22.2427L17.8042 22.2532L17.9413 22.52ZM17.9453 22.5187L18.0402 22.8033L18.0604 22.7965L18.0794 22.787L17.9453 22.5187ZM17.9506 22.516V22.216H17.8798L17.8165 22.2477L17.9506 22.516ZM17.9546 22.516V22.816H18.0254L18.0888 22.7843L17.9546 22.516ZM17.9573 22.5147V22.2147H17.8865L17.8232 22.2463L17.9573 22.5147ZM17.9626 22.5147V22.8147H18.087L18.1748 22.7267L17.9626 22.5147ZM17.964 22.5133L18.0588 22.2287L17.8829 22.1701L17.7518 22.3013L17.964 22.5133ZM17.968 22.512V22.212H16.9769L17.8016 22.7616L17.968 22.512ZM17.9706 22.5107V22.2107L17.9334 22.8083L17.9706 22.5107ZM17.972 22.5107V22.8107H18.0428L18.1061 22.779L17.972 22.5107ZM17.9746 22.5093L17.8798 22.2247L17.8595 22.2315L17.8405 22.241L17.9746 22.5093ZM17.9786 22.508L18.0735 22.7926L18.0938 22.7858L18.1129 22.7763L17.9786 22.508ZM17.9813 22.5067L17.8473 22.2383L17.847 22.2384L17.9813 22.5067ZM17.984 22.5053L17.8891 22.2207L17.869 22.2274L17.8499 22.2369L17.984 22.5053ZM17.988 22.504L18.0828 22.7886L18.103 22.7819L18.1221 22.7723L17.988 22.504ZM17.9906 22.5027V22.2027H17.9198L17.8565 22.2343L17.9906 22.5027ZM17.9933 22.5013L17.827 22.2516L17.5225 22.4545L17.781 22.7133L17.9933 22.5013ZM17.9973 22.4987L17.863 22.2304L17.8464 22.2387L17.831 22.249L17.9973 22.4987ZM18 22.4973L17.8658 22.229L17.8656 22.2291L18 22.4973ZM18.0026 22.496L17.9079 22.2114L17.8876 22.2181L17.8685 22.2277L18.0026 22.496ZM18.0066 22.4947L18.1014 22.7793L18.1217 22.7726L18.1408 22.763L18.0066 22.4947ZM18.0093 22.4933V22.1933H17.9385L17.8751 22.225L18.0093 22.4933ZM18.0106 22.4933V22.7933H18.0815L18.1449 22.7616L18.0106 22.4933ZM18.0133 22.492L17.9184 22.2074L17.8981 22.2142L17.879 22.2237L18.0133 22.492ZM18.0173 22.4907L18.1122 22.7753L18.1323 22.7686L18.1512 22.7591L18.0173 22.4907ZM18.02 22.4893L17.9868 22.1912L17.9338 22.1971L17.886 22.2209L18.02 22.4893ZM18.024 22.488L17.8898 22.2197L18.0239 22.788L18.024 22.488ZM18.0266 22.4867L18.1608 22.755L18.1714 22.7497L18.1817 22.7435L18.0266 22.4867ZM18.1733 22.3827L17.9859 22.1484L17.9822 22.1514L18.1733 22.3827ZM23.7013 17.96L23.5148 17.725L23.5139 17.7257L23.7013 17.96ZM24.9546 17.7373L24.8595 18.0219L24.8596 18.0219L24.9546 17.7373ZM25.6973 17.9853L25.9251 18.1805L26.2152 17.842L25.7923 17.7008L25.6973 17.9853ZM20.1866 24.416L20.4118 24.6143L20.4144 24.6112L20.1866 24.416ZM18.16 25.3333V25.6333L18.1604 25.6333L18.16 25.3333ZM5.33329 25.3333H5.03329V25.6333H5.33329V25.3333ZM21.3106 2.66667V2.36665L21.3069 2.36669L21.3106 2.66667ZM18.6666 3.60667L18.4977 3.85459L18.6667 3.96972L18.8356 3.85455L18.6666 3.60667ZM16.0426 2.668L16.0326 2.96786L16.0364 2.96794L16.0426 2.668ZM16.0026 2.66667L16.0126 2.36667H16.0026V2.66667ZM13.172 3.83734L13.3843 4.04928V4.04928L13.172 3.83734ZM13.148 9.472L13.3653 9.26509L13.3603 9.26006L13.148 9.472ZM17.7 14.2533L17.4827 14.4602L17.4839 14.4615L17.7 14.2533ZM19.6333 14.252L19.8496 14.4598L19.8506 14.4588L19.6333 14.252ZM24.1613 9.49467L23.9493 9.28228L23.944 9.28784L24.1613 9.49467ZM24.1626 3.83867L23.9498 4.05012L23.9503 4.05061L24.1626 3.83867ZM21.336 2.66667V2.96667L21.3367 2.96667L21.336 2.66667ZM22.252 7.63334L22.0398 7.42114L22.0347 7.4265L22.252 7.63334ZM18.6666 11.4L18.4494 11.6069L18.6667 11.8351L18.8839 11.6068L18.6666 11.4ZM15.0573 7.60933L15.2746 7.4024L15.2694 7.3972L15.0573 7.60933ZM15.0586 5.72267L15.2708 5.93481L15.2726 5.93298L15.0586 5.72267ZM15.972 5.33334L15.984 5.03358L15.9762 5.03326L15.9684 5.03336L15.972 5.33334ZM17.3946 5.98L17.5824 5.74602L17.5823 5.74594L17.3946 5.98ZM17.724 6.276L17.9361 6.06387L17.9348 6.0626L17.724 6.276ZM18.6666 7.21867L18.4545 7.4308L18.6666 7.64293L18.8788 7.4308L18.6666 7.21867ZM19.6093 6.276L19.3984 6.0626L19.3972 6.06387L19.6093 6.276ZM19.9386 5.98L20.1264 6.21398L20.1265 6.21387L19.9386 5.98ZM21.3413 5.33467L21.3412 5.03467L21.3294 5.03467L21.3177 5.0356L21.3413 5.33467ZM22.276 5.724L22.0629 5.93525L22.0638 5.93613L22.276 5.724ZM5.33329 28.3H18.16V27.7H5.33329V28.3ZM18.1598 28.3C18.9726 28.3004 19.7758 28.1248 20.5142 27.7851L20.2635 27.24C19.6038 27.5435 18.8862 27.7004 18.1601 27.7L18.1598 28.3ZM20.5142 27.7851C21.2526 27.4455 21.9086 26.9499 22.4372 26.3324L21.9814 25.9422C21.5092 26.4938 20.9231 26.9366 20.2635 27.24L20.5142 27.7851ZM22.4371 26.3326L29.2397 18.3966L28.7842 18.0061L21.9815 25.9421L22.4371 26.3326ZM29.2396 18.3968C29.4141 18.1936 29.5359 17.9505 29.5944 17.6891L29.0088 17.5582C28.9718 17.7236 28.8948 17.8773 28.7844 18.0059L29.2396 18.3968ZM29.5944 17.6891C29.6528 17.4277 29.6461 17.156 29.5748 16.8978L28.9964 17.0576C29.0415 17.2209 29.0458 17.3928 29.0088 17.5582L29.5944 17.6891ZM29.5748 16.8978C29.5034 16.6396 29.3697 16.4029 29.1854 16.2086L28.7501 16.6215C28.8667 16.7445 28.9513 16.8942 28.9964 17.0576L29.5748 16.8978ZM29.1854 16.2086C29.001 16.0143 28.7717 15.8683 28.5176 15.7834L28.3276 16.3526C28.4884 16.4062 28.6334 16.4986 28.7501 16.6215L29.1854 16.2086ZM28.5175 15.7834L25.8935 14.9087L25.7038 15.4779L28.3278 16.3526L28.5175 15.7834ZM25.8914 14.908C25.2103 14.6866 24.4851 14.6365 23.7801 14.7622L23.8853 15.3529C24.4933 15.2445 25.1186 15.2877 25.7059 15.4786L25.8914 14.908ZM23.7801 14.7622C23.075 14.8878 22.4118 15.1853 21.8491 15.6283L22.2202 16.0997C22.7054 15.7177 23.2773 15.4612 23.8853 15.3529L23.7801 14.7622ZM21.8473 15.6297L17.6006 19.0257L17.9753 19.4943L22.222 16.0983L21.8473 15.6297ZM18.0563 19.1259L17.2337 17.4793L16.6969 17.7474L17.5196 19.3941L18.0563 19.1259ZM17.234 17.4799C16.7684 16.5421 16.0494 15.7534 15.1586 15.2032L14.8433 15.7137C15.6388 16.205 16.2808 16.9093 16.6966 17.7467L17.234 17.4799ZM15.1586 15.2032C14.2678 14.653 13.2407 14.3632 12.1936 14.3667L12.1956 14.9667C13.1306 14.9636 14.0478 15.2223 14.8433 15.7137L15.1586 15.2032ZM12.1946 14.3667H5.33329V14.9667H12.1946V14.3667ZM5.33329 14.3667C3.69694 14.3667 2.36663 15.697 2.36663 17.3333H2.96663C2.96663 16.0284 4.02831 14.9667 5.33329 14.9667V14.3667ZM2.36663 17.3333V25.3333H2.96663V17.3333H2.36663ZM2.36663 25.3333C2.36663 26.9697 3.69694 28.3 5.33329 28.3V27.7C4.02831 27.7 2.96663 26.6383 2.96663 25.3333H2.36663ZM5.33329 17.6333H12.1946V17.0333H5.33329V17.6333ZM12.1946 17.6333C13.0985 17.6333 13.9078 18.1333 14.3116 18.9408L14.8483 18.6725C14.3427 17.6614 13.3255 17.0333 12.1946 17.0333V17.6333ZM14.3116 18.9407L14.9076 20.134L15.4443 19.866L14.8483 18.6726L14.3116 18.9407ZM15.176 19.7H9.33329V20.3H15.176V19.7ZM9.03329 20V22.6667H9.63329V20H9.03329ZM9.33329 22.9667H17.352V22.3667H9.33329V22.9667ZM17.3559 22.9666C17.6074 22.9633 17.8547 22.9018 18.0784 22.7868L17.8042 22.2532C17.6629 22.3257 17.5068 22.3646 17.348 22.3667L17.3559 22.9666ZM18.0362 22.8046L18.0402 22.8033L17.8504 22.2341L17.8464 22.2354L18.0362 22.8046ZM18.0794 22.787L18.0848 22.7843L17.8165 22.2477L17.8111 22.2503L18.0794 22.787ZM17.9506 22.816H17.9546V22.216H17.9506V22.816ZM18.0888 22.7843L18.0914 22.783L17.8232 22.2463L17.8205 22.2477L18.0888 22.7843ZM17.9573 22.8147H17.9626V22.2147H17.9573V22.8147ZM18.1748 22.7267L18.1762 22.7254L17.7518 22.3013L17.7504 22.3026L18.1748 22.7267ZM17.8691 22.7979C17.8706 22.7984 17.9058 22.8112 17.9496 22.8141C17.9631 22.815 17.9899 22.816 18.0231 22.8101C18.0523 22.8049 18.1211 22.7883 18.1825 22.7269C18.2562 22.6533 18.2768 22.559 18.269 22.4836C18.2625 22.4214 18.2383 22.3775 18.2277 22.3598C18.2056 22.3229 18.1805 22.2997 18.1752 22.2948C18.1657 22.2858 18.1575 22.2793 18.1532 22.2759C18.1483 22.2721 18.1441 22.2692 18.1414 22.2672C18.1399 22.2662 18.1386 22.2652 18.1374 22.2644C18.1368 22.264 18.1363 22.2637 18.1358 22.2633C18.1355 22.2632 18.1353 22.263 18.135 22.2628C18.1349 22.2628 18.1348 22.2627 18.1347 22.2626C18.1346 22.2626 18.1346 22.2625 18.1345 22.2625C18.1345 22.2625 18.1344 22.2624 18.1344 22.2624C18.1344 22.2624 18.1343 22.2624 17.968 22.512C17.8016 22.7616 17.8015 22.7616 17.8015 22.7616C17.8015 22.7616 17.8014 22.7615 17.8014 22.7615C17.8014 22.7615 17.8013 22.7615 17.8012 22.7614C17.8011 22.7613 17.801 22.7613 17.8009 22.7612C17.8007 22.761 17.8004 22.7609 17.8002 22.7607C17.7997 22.7604 17.7992 22.76 17.7987 22.7597C17.7976 22.759 17.7965 22.7582 17.7952 22.7572C17.7928 22.7556 17.7892 22.753 17.7849 22.7496C17.7811 22.7467 17.7735 22.7406 17.7645 22.7322C17.7598 22.7277 17.7351 22.705 17.7132 22.6685C17.7027 22.6511 17.6786 22.6074 17.6722 22.5453C17.6687 22.5115 17.6701 22.4691 17.6848 22.4232C17.6999 22.3761 17.7258 22.3351 17.7585 22.3024C17.8198 22.2412 17.8884 22.2247 17.9173 22.2195C17.9502 22.2136 17.9767 22.2146 17.9897 22.2155C18.0161 22.2173 18.036 22.2223 18.0417 22.2237C18.0501 22.2259 18.0562 22.2278 18.0588 22.2287L17.8691 22.7979ZM17.968 22.812C17.9686 22.812 17.9913 22.8124 18.0165 22.8088C18.023 22.8078 18.0439 22.8048 18.0695 22.7963C18.0817 22.7922 18.1081 22.7826 18.1378 22.7634C18.163 22.7471 18.2283 22.6996 18.2593 22.6063C18.2965 22.4946 18.2602 22.397 18.2214 22.3409C18.1886 22.2934 18.1505 22.2678 18.1358 22.2585C18.1038 22.2381 18.0752 22.2288 18.0693 22.2268C18.0506 22.2205 18.0352 22.2175 18.0322 22.2169C18.0264 22.2158 18.0216 22.215 18.0189 22.2146C18.016 22.2141 18.0136 22.2137 18.0119 22.2135C18.011 22.2134 18.0103 22.2133 18.0096 22.2132C18.0093 22.2132 18.009 22.2131 18.0087 22.2131C18.0085 22.2131 18.0084 22.2131 18.0083 22.213C18.0082 22.213 18.0081 22.213 18.0081 22.213C18.008 22.213 18.008 22.213 18.008 22.213C18.008 22.213 18.0079 22.213 18.0079 22.213C18.0079 22.213 18.0079 22.213 17.9706 22.5107C17.9334 22.8083 17.9333 22.8083 17.9333 22.8083C17.9333 22.8083 17.9333 22.8083 17.9333 22.8083C17.9332 22.8083 17.9332 22.8083 17.9332 22.8083C17.9331 22.8083 17.9331 22.8083 17.933 22.8083C17.9329 22.8083 17.9328 22.8083 17.9326 22.8083C17.9324 22.8082 17.9321 22.8082 17.9319 22.8082C17.9314 22.8081 17.9308 22.808 17.9302 22.8079C17.9291 22.8078 17.9274 22.8075 17.9252 22.8072C17.9234 22.8069 17.9195 22.8063 17.9144 22.8053C17.9122 22.8048 17.8975 22.802 17.8793 22.7959C17.8736 22.794 17.8452 22.7848 17.8134 22.7645C17.7988 22.7552 17.7607 22.7296 17.7279 22.6822C17.7101 22.6563 17.6902 22.6189 17.6805 22.5704C17.6704 22.5197 17.6734 22.4667 17.69 22.4169C17.721 22.3236 17.7863 22.2762 17.8115 22.2599C17.8411 22.2407 17.8674 22.2312 17.8795 22.2271C17.9048 22.2187 17.9255 22.2157 17.9315 22.2148C17.947 22.2126 17.9589 22.2122 17.9608 22.2122C17.9648 22.212 17.9675 22.212 17.968 22.212V22.812ZM17.9706 22.8107H17.972V22.2107H17.9706V22.8107ZM18.1061 22.779L18.1088 22.7777L17.8405 22.241L17.8378 22.2423L18.1061 22.779ZM18.0695 22.7939L18.0735 22.7926L17.8838 22.2234L17.8798 22.2247L18.0695 22.7939ZM18.1129 22.7763L18.1156 22.7749L17.847 22.2384L17.8443 22.2397L18.1129 22.7763ZM18.1153 22.7751L18.118 22.7737L17.8499 22.2369L17.8473 22.2383L18.1153 22.7751ZM18.0788 22.7899L18.0828 22.7886L17.8931 22.2194L17.8891 22.2207L18.0788 22.7899ZM18.1221 22.7723L18.1248 22.771L17.8565 22.2343L17.8538 22.2357L18.1221 22.7723ZM17.9906 22.8027C18.004 22.8027 18.0363 22.802 18.0753 22.7909C18.1075 22.7817 18.2063 22.7474 18.2619 22.636C18.3219 22.5156 18.2822 22.4083 18.2618 22.3675C18.2504 22.3446 18.2381 22.3273 18.2293 22.3162C18.2247 22.3103 18.2203 22.3051 18.2164 22.3008C18.2144 22.2986 18.2125 22.2966 18.2107 22.2947C18.2098 22.2937 18.209 22.2928 18.2081 22.2919C18.2077 22.2915 18.2072 22.291 18.2068 22.2906C18.2066 22.2904 18.2064 22.2902 18.2062 22.29C18.2061 22.2899 18.2059 22.2897 18.2059 22.2896C18.2057 22.2895 18.2056 22.2893 17.9933 22.5013C17.781 22.7133 17.7809 22.7132 17.7807 22.713C17.7807 22.713 17.7805 22.7128 17.7804 22.7127C17.7802 22.7125 17.78 22.7123 17.7798 22.7121C17.7794 22.7116 17.7789 22.7112 17.7785 22.7108C17.7776 22.7099 17.7767 22.709 17.7758 22.708C17.774 22.7061 17.7722 22.7041 17.7702 22.7019C17.7663 22.6976 17.762 22.6925 17.7573 22.6866C17.7487 22.6755 17.7364 22.6584 17.7251 22.6356C17.7048 22.5951 17.6651 22.488 17.725 22.368C17.7805 22.257 17.8788 22.223 17.9102 22.214C17.9483 22.2031 17.9793 22.2027 17.9906 22.2027V22.8027ZM18.1596 22.751L18.1636 22.7484L17.831 22.249L17.827 22.2516L18.1596 22.751ZM18.1316 22.7669L18.1343 22.7656L17.8656 22.2291L17.863 22.2304L18.1316 22.7669ZM18.1341 22.7657L18.1368 22.7643L17.8685 22.2277L17.8658 22.229L18.1341 22.7657ZM18.0974 22.7806L18.1014 22.7793L17.9119 22.21L17.9079 22.2114L18.0974 22.7806ZM18.1408 22.763L18.1435 22.7617L17.8751 22.225L17.8725 22.2263L18.1408 22.763ZM18.0093 22.7933H18.0106V22.1933H18.0093V22.7933ZM18.1449 22.7616L18.1476 22.7603L17.879 22.2237L17.8763 22.2251L18.1449 22.7616ZM18.1082 22.7766L18.1122 22.7753L17.9224 22.2061L17.9184 22.2074L18.1082 22.7766ZM18.1512 22.7591L18.1539 22.7578L17.886 22.2209L17.8834 22.2222L18.1512 22.7591ZM18.0531 22.7875C18.0563 22.7871 18.0696 22.7857 18.0845 22.7827C18.089 22.7818 18.0974 22.7801 18.1078 22.7771C18.1131 22.7756 18.1408 22.7681 18.1724 22.7504C18.1863 22.7427 18.2263 22.7195 18.2623 22.6738C18.3055 22.6189 18.3519 22.5152 18.3111 22.3932C18.2786 22.2957 18.2086 22.2484 18.1865 22.2344C18.1579 22.2164 18.1327 22.2074 18.1215 22.2036C18.0977 22.1957 18.0783 22.1926 18.0725 22.1917C18.0639 22.1904 18.057 22.1897 18.0531 22.1893C18.0453 22.1886 18.039 22.1883 18.0362 22.1882C18.0329 22.1881 18.0301 22.1881 18.0284 22.188C18.0274 22.188 18.0266 22.188 18.0259 22.188C18.0255 22.188 18.0252 22.188 18.0249 22.188C18.0247 22.188 18.0246 22.188 18.0244 22.188C18.0244 22.188 18.0243 22.188 18.0242 22.188C18.0242 22.188 18.0242 22.188 18.0241 22.188C18.0241 22.188 18.0241 22.188 18.0241 22.188C18.0241 22.188 18.024 22.188 18.024 22.488C18.0239 22.788 18.0239 22.788 18.0238 22.788C18.0238 22.788 18.0238 22.788 18.0238 22.788C18.0238 22.788 18.0237 22.788 18.0237 22.788C18.0236 22.788 18.0236 22.788 18.0235 22.788C18.0234 22.788 18.0232 22.788 18.0231 22.788C18.0228 22.788 18.0225 22.788 18.0222 22.788C18.0216 22.788 18.021 22.788 18.0202 22.788C18.0189 22.788 18.0166 22.7879 18.0138 22.7878C18.0116 22.7877 18.0059 22.7875 17.9986 22.7868C17.9949 22.7865 17.9883 22.7858 17.98 22.7845C17.9744 22.7837 17.9551 22.7806 17.9314 22.7727C17.9202 22.769 17.8951 22.76 17.8665 22.742C17.8445 22.7281 17.7746 22.6807 17.742 22.5833C17.7241 22.5298 17.7218 22.4724 17.7349 22.4179C17.7474 22.3662 17.7711 22.3278 17.7908 22.3028C17.8268 22.2571 17.8668 22.2339 17.8806 22.2262C17.9121 22.2087 17.9395 22.2012 17.9447 22.1997C17.9547 22.1969 17.9628 22.1952 17.9668 22.1944C17.9749 22.1928 17.9811 22.1919 17.9828 22.1917C17.9852 22.1914 17.9867 22.1912 17.9868 22.1912L18.0531 22.7875ZM18.1581 22.7563L18.1608 22.755L17.8925 22.2183L17.8898 22.2197L18.1581 22.7563ZM18.1817 22.7435C18.2457 22.7049 18.3067 22.6616 18.3644 22.6139L17.9822 22.1514C17.9473 22.1802 17.9104 22.2064 17.8716 22.2298L18.1817 22.7435ZM18.3607 22.6169L23.8887 18.1943L23.5139 17.7257L17.9859 22.1484L18.3607 22.6169ZM23.8878 18.195C24.1585 17.9801 24.534 17.913 24.8595 18.0219L25.0498 17.4528C24.5299 17.279 23.9427 17.3853 23.5148 17.725L23.8878 18.195ZM24.8596 18.0219L25.6023 18.2699L25.7923 17.7008L25.0496 17.4528L24.8596 18.0219ZM25.4695 17.7901L19.9588 24.2208L20.4144 24.6112L25.9251 18.1805L25.4695 17.7901ZM19.9615 24.2177C19.7361 24.4736 19.4589 24.6787 19.1482 24.8193L19.3957 25.3659C19.7838 25.1902 20.1302 24.934 20.4118 24.6143L19.9615 24.2177ZM19.1482 24.8193C18.8376 24.9599 18.5006 25.0329 18.1596 25.0333L18.1604 25.6333C18.5864 25.6328 19.0075 25.5416 19.3957 25.3659L19.1482 24.8193ZM18.16 25.0333H5.33329V25.6333H18.16V25.0333ZM5.63329 25.3333V17.3333H5.03329V25.3333H5.63329ZM21.3333 2.36667H21.3106V2.96667H21.3333V2.36667ZM21.3069 2.36669C21.0525 2.36981 19.8645 2.42704 18.4976 3.35878L18.8356 3.85455C20.0741 3.0103 21.1341 2.96886 21.3143 2.96665L21.3069 2.36669ZM18.8356 3.35875C17.5052 2.45227 16.3455 2.37418 16.0488 2.36807L16.0364 2.96794C16.2571 2.97249 17.292 3.03307 18.4977 3.85459L18.8356 3.35875ZM16.0526 2.36817L16.0126 2.36684L15.9926 2.9665L16.0326 2.96784L16.0526 2.36817ZM16.0026 2.36667H15.9973V2.96667H16.0026V2.36667ZM15.9973 2.36667C14.8497 2.36667 13.768 2.81563 12.9596 3.62539L13.3843 4.04928C14.08 3.35237 15.0089 2.96667 15.9973 2.96667V2.36667ZM12.9596 3.62539C12.1491 4.4374 11.7 5.51753 11.7 6.66667H12.3C12.3 5.67715 12.6855 4.74927 13.3843 4.04928L12.9596 3.62539ZM11.7 6.66667C11.7 7.81445 12.1481 8.89498 12.9356 9.68394L13.3603 9.26006C12.6865 8.58503 12.3 7.65756 12.3 6.66667H11.7ZM12.9307 9.67886L17.4827 14.4602L17.9172 14.0465L13.3652 9.26514L12.9307 9.67886ZM17.4839 14.4615C17.6372 14.6206 17.8209 14.7471 18.0243 14.8334L18.2588 14.2812C18.1299 14.2264 18.0132 14.1461 17.916 14.0452L17.4839 14.4615ZM18.0243 14.8334C18.2276 14.9198 18.4462 14.9642 18.6671 14.9641L18.6667 14.3641C18.5266 14.3642 18.3878 14.336 18.2588 14.2812L18.0243 14.8334ZM18.6671 14.9641C18.888 14.9639 19.1066 14.9192 19.3098 14.8326L19.0744 14.2806C18.9455 14.3356 18.8069 14.364 18.6667 14.3641L18.6671 14.9641ZM19.3098 14.8326C19.513 14.7459 19.6966 14.6191 19.8496 14.4598L19.4169 14.0442C19.3199 14.1452 19.2034 14.2257 19.0744 14.2806L19.3098 14.8326ZM19.8506 14.4588L24.3786 9.7015L23.944 9.28784L19.416 14.0452L19.8506 14.4588ZM24.3732 9.70699C25.1857 8.89596 25.6333 7.81554 25.6333 6.66667H25.0333C25.0333 7.65647 24.6489 8.58404 23.9493 9.28235L24.3732 9.70699ZM25.6333 6.66667C25.6333 5.5176 25.1842 4.43745 24.3749 3.62672L23.9503 4.05061C24.6477 4.74922 25.0333 5.67707 25.0333 6.66667H25.6333ZM24.3754 3.62722C23.9772 3.22646 23.5035 2.90869 22.9816 2.69231L22.7518 3.24656C23.2004 3.43254 23.6076 3.70566 23.9498 4.05012L24.3754 3.62722ZM22.9816 2.69231C22.4598 2.47593 21.9002 2.36525 21.3352 2.36667L21.3367 2.96667C21.8223 2.96545 22.3033 3.06058 22.7518 3.24656L22.9816 2.69231ZM21.336 2.36667H21.3333V2.96667H21.336V2.36667ZM22.3666 6.66667C22.3666 6.9391 22.2625 7.19857 22.0398 7.4212L22.4641 7.84547C22.7935 7.5161 22.9666 7.10623 22.9666 6.66667H22.3666ZM22.0347 7.4265L18.4493 11.1932L18.8839 11.6068L22.4693 7.84017L22.0347 7.4265ZM18.8839 11.1931L15.2746 7.40246L14.84 7.81621L18.4494 11.6069L18.8839 11.1931ZM15.2694 7.3972C15.0736 7.20141 14.9666 6.94303 14.9666 6.66667H14.3666C14.3666 7.1023 14.537 7.51326 14.8452 7.82147L15.2694 7.3972ZM14.9666 6.66667C14.9666 6.39053 15.0735 6.13208 15.2708 5.9348L14.8465 5.51054C14.5371 5.81992 14.3666 6.23081 14.3666 6.66667H14.9666ZM15.2726 5.93298C15.4581 5.74421 15.7109 5.63649 15.9756 5.63331L15.9684 5.03336C15.5453 5.03843 15.1413 5.21061 14.8447 5.51235L15.2726 5.93298ZM15.96 5.6331C15.9449 5.63249 16.5147 5.65899 17.207 6.21406L17.5823 5.74594C16.7679 5.09302 16.0657 5.03684 15.984 5.03358L15.96 5.6331ZM17.2069 6.21398C17.3054 6.29304 17.407 6.38457 17.5131 6.4894L17.9348 6.0626C17.8169 5.9461 17.6999 5.8403 17.5824 5.74602L17.2069 6.21398ZM17.5118 6.48813L18.4545 7.4308L18.8788 7.00654L17.9361 6.06387L17.5118 6.48813ZM18.8788 7.4308L19.8214 6.48813L19.3972 6.06387L18.4545 7.00654L18.8788 7.4308ZM19.8202 6.4894C19.9262 6.38457 20.0279 6.29304 20.1264 6.21398L19.7509 5.74602C19.6334 5.8403 19.5163 5.9461 19.3984 6.0626L19.8202 6.4894ZM20.1265 6.21387C20.7745 5.69332 21.3088 5.63817 21.3649 5.63374L21.3177 5.0356C21.1712 5.04717 20.5135 5.13335 19.7507 5.74613L20.1265 6.21387ZM21.3413 5.63467C21.4755 5.63464 21.6084 5.66119 21.7322 5.71278L21.9629 5.15891C21.7659 5.07686 21.5546 5.03463 21.3412 5.03467L21.3413 5.63467ZM21.7322 5.71278C21.8561 5.76437 21.9685 5.83998 22.0629 5.93525L22.489 5.51276C22.3387 5.36123 22.1599 5.24097 21.9629 5.15891L21.7322 5.71278ZM22.0638 5.93613C22.2596 6.13192 22.3666 6.3903 22.3666 6.66667H22.9666C22.9666 6.23103 22.7963 5.82008 22.4881 5.51187L22.0638 5.93613Z"
    mask="url(#path-1-inside-1_115_3794)"/>
</svg>
