<svg width="18" height="18" viewBox="0 0 18 18" fill="current" xmlns="http://www.w3.org/2000/svg">
<path d="M11.7606 4.86451L2.97688 13.6454L2.4025 15.604L4.32194 15.0493L13.1349 6.23926L11.7606 4.86451ZM13.2593 3.36639L14.6335 4.74016L15.9144 3.45965C16.0055 3.36856 16.0567 3.24502 16.0567 3.11621C16.0567 2.9874 16.0055 2.86387 15.9144 2.77277L15.2263 2.08588C15.1352 1.99481 15.0116 1.94366 14.8828 1.94366C14.7539 1.94366 14.6303 1.99481 14.5392 2.08588L13.2593 3.36639ZM16.6015 0.712113L17.2886 1.399C17.7441 1.85448 18 2.47216 18 3.11621C18 3.76026 17.7441 4.37794 17.2886 4.83343L5.34241 16.7767L1.24112 17.962C1.07394 18.0102 0.896898 18.0126 0.728461 17.969C0.560023 17.9255 0.406371 17.8375 0.283546 17.7143C0.16072 17.5911 0.0732247 17.4373 0.0301941 17.2687C-0.0128366 17.1002 -0.00982479 16.9232 0.0389151 16.7563L1.25181 12.6223L13.1669 0.711141C13.6226 0.255798 14.2404 0 14.8847 0C15.529 0 16.1469 0.255798 16.6025 0.711141L16.6015 0.712113Z" fill="#current"/>
</svg>
