<svg width="539" height="170" viewBox="0 0 539 170" fill="none" xmlns="http://www.w3.org/2000/svg">
<g clip-path="url(#clip0_419_916)">
<path d="M524.986 151.809V36.7874C524.986 33.6678 522.133 31.1559 518.65 31.1559H488.272C484.789 31.1559 481.978 33.6273 481.936 36.7064V36.7874C481.936 33.6678 479.083 31.1559 475.601 31.1559H445.223C441.698 31.1559 438.887 33.6678 438.887 36.7874V5.71258C438.887 2.55243 435.992 0 432.467 0H409.851C406.285 0 403.432 2.55243 403.432 5.71258V24.1468C403.432 21.3918 400.914 19.123 397.809 19.123H378.089C374.984 19.123 372.466 21.3513 372.466 24.1468V10.9795C372.466 8.10296 369.823 5.7531 366.55 5.7531H347.333C344.06 5.7531 341.417 8.10296 341.417 10.9795V27.388C341.417 23.8227 338.144 20.9056 334.116 20.9056H296.102C292.074 20.9056 288.801 23.8227 288.801 27.388V4.57817C288.801 2.06625 286.493 0 283.64 0H271.136C268.283 0 265.975 2.06625 265.975 4.57817C265.975 2.06625 263.668 0 260.815 0H248.311C245.458 0 243.15 2.06625 243.15 4.57817C243.15 2.06625 240.842 0 237.989 0H225.485C222.632 0 220.325 2.06625 220.325 4.57817C220.325 2.06625 218.017 0 215.164 0H202.66C199.807 0 197.499 2.06625 197.499 4.57817V36.7874C197.499 33.6678 194.646 31.1559 191.163 31.1559H160.785C157.261 31.1559 154.45 33.6678 154.45 36.7874C154.45 33.6678 151.596 31.1559 148.114 31.1559H117.736C114.211 31.1559 111.4 33.6678 111.4 36.7874V5.71258C111.4 2.55243 108.505 0 104.98 0H82.3647C78.7982 0 75.945 2.55243 75.945 5.71258V24.1468C75.945 21.3918 73.4275 19.123 70.3226 19.123H50.6021C47.4971 19.123 44.9796 21.3513 44.9796 24.1468C44.9796 21.3918 42.4621 19.123 39.3572 19.123H19.6366C16.5317 19.123 14.0142 21.3513 14.0142 24.1468V152.457C14.0142 155.212 16.5317 157.481 19.6366 157.481H0V170.041H539V157.481H518.65C522.175 157.481 524.986 154.969 524.986 151.849V151.809ZM518.65 154.766H488.272C486.468 154.766 484.999 153.47 484.957 151.89H522.007C521.965 153.47 520.496 154.766 518.692 154.766H518.65ZM492.216 149.216V39.3804H514.664V149.216H492.216ZM521.965 149.216H517.685V39.3804H521.965V149.216ZM488.23 33.8298H518.608C520.412 33.8298 521.881 35.1263 521.923 36.7064H484.873C484.915 35.1263 486.384 33.8298 488.188 33.8298H488.23ZM484.873 39.3804H489.153V149.216H484.873V39.3804ZM478.831 151.89C478.789 153.47 477.321 154.766 475.517 154.766H445.139C443.334 154.766 441.866 153.47 441.824 151.89H478.873H478.831ZM449.083 149.216V39.3804H471.531V149.216H449.083ZM474.552 149.216V39.3804H478.831V149.216H474.552ZM445.139 33.8298H475.517C477.321 33.8298 478.789 35.1263 478.831 36.7064H441.782C441.824 35.1263 443.292 33.8298 445.097 33.8298H445.139ZM441.782 39.3804H446.062V149.216H441.782V39.3804ZM406.369 5.71258C406.369 4.05148 407.921 2.67398 409.809 2.67398H432.425C434.313 2.67398 435.866 4.05148 435.866 5.71258V151.728C435.866 153.389 434.313 154.766 432.425 154.766H409.809C407.921 154.766 406.369 153.389 406.369 151.728V5.71258ZM375.361 24.1468C375.361 22.8503 376.536 21.797 378.005 21.797H379.851V41.5276H382.872V21.797H386.397V41.5276H389.418V21.797H392.942V41.5276H395.963V21.797H397.809C399.278 21.797 400.453 22.8503 400.453 24.1468V152.457C400.453 153.754 399.278 154.807 397.809 154.807H395.963V137.507H392.942V154.807H389.418V137.507H386.397V154.807H382.872V137.507H379.851V154.807H378.005C376.536 154.807 375.361 153.754 375.361 152.457V24.1468ZM344.354 10.9795C344.354 9.56149 345.655 8.42707 347.249 8.42707H366.466C368.061 8.42707 369.361 9.56149 369.361 10.9795V152.214C369.361 153.389 368.48 154.361 367.263 154.685L365.795 12.0329L364.284 154.807H349.473L347.963 12.0329L346.494 154.685C345.277 154.361 344.396 153.389 344.396 152.214V10.9795H344.354ZM291.738 27.388C291.738 25.2812 293.668 23.5796 296.018 23.5796H334.032C336.382 23.5796 338.312 25.2812 338.312 27.388V47.8074H291.738V27.388ZM291.738 50.4409H338.312V74.4662H291.738V50.4409ZM291.738 77.1401H338.312V101.165H291.738V77.1401ZM291.738 103.839H338.312V127.865H291.738V103.839ZM291.738 130.539H338.312V150.958C338.312 153.065 336.382 154.766 334.032 154.766H296.018C293.668 154.766 291.738 153.065 291.738 150.958V130.539ZM268.996 4.57817C268.996 3.52479 269.962 2.67398 271.136 2.67398H283.64C284.815 2.67398 285.78 3.52479 285.78 4.57817V152.862C285.78 153.916 284.815 154.766 283.64 154.766H271.136C269.962 154.766 268.996 153.916 268.996 152.862V4.57817ZM246.213 4.57817C246.213 3.52479 247.178 2.67398 248.353 2.67398H260.857C262.031 2.67398 262.996 3.52479 262.996 4.57817V152.862C262.996 153.916 262.031 154.766 260.857 154.766H248.353C247.178 154.766 246.213 153.916 246.213 152.862V4.57817ZM223.429 4.57817C223.429 3.52479 224.395 2.67398 225.569 2.67398H238.073C239.248 2.67398 240.213 3.52479 240.213 4.57817V152.862C240.213 153.916 239.248 154.766 238.073 154.766H225.569C224.395 154.766 223.429 153.916 223.429 152.862V4.57817ZM200.646 4.57817C200.646 3.52479 201.611 2.67398 202.786 2.67398H215.29C216.464 2.67398 217.429 3.52479 217.429 4.57817V152.862C217.429 153.916 216.464 154.766 215.29 154.766H202.786C201.611 154.766 200.646 153.916 200.646 152.862V4.57817ZM157.554 36.7874C157.554 35.1668 159.065 33.8298 160.911 33.8298H191.289C193.135 33.8298 194.646 35.1668 194.646 36.7874V151.809C194.646 153.429 193.135 154.766 191.289 154.766H160.911C159.065 154.766 157.554 153.429 157.554 151.809V36.7874ZM114.463 36.7874C114.463 35.1668 115.974 33.8298 117.82 33.8298H148.198C150.044 33.8298 151.554 35.1668 151.554 36.7874V151.809C151.554 153.429 150.044 154.766 148.198 154.766H117.82C115.974 154.766 114.463 153.429 114.463 151.809V36.7874ZM79.008 5.71258C79.008 4.05148 80.5605 2.67398 82.4486 2.67398H105.064C106.952 2.67398 108.505 4.05148 108.505 5.71258V151.728C108.505 153.389 106.952 154.766 105.064 154.766H82.4486C80.5605 154.766 79.008 153.389 79.008 151.728V5.71258ZM48.0006 24.1468C48.0006 22.8503 49.1755 21.797 50.644 21.797H70.3645C71.8331 21.797 73.0079 22.8503 73.0079 24.1468V26.051H48.0426V24.1468H48.0006ZM48.0006 27.8337H72.966V30.3456H48.0006V27.8337ZM48.0006 32.1282H72.966V34.6401H48.0006V32.1282ZM48.0006 36.4228H72.966V38.9347H48.0006V36.4228ZM48.0006 40.7174H72.966V135.887H48.0006V40.7174ZM48.0006 137.629H72.966V140.141H48.0006V137.629ZM48.0006 141.923H72.966V144.435H48.0006V141.923ZM48.0006 146.218H72.966V148.73H48.0006V146.218ZM48.0006 150.512H72.966V152.417C72.966 153.713 71.7911 154.766 70.3226 154.766H50.6021C49.1335 154.766 47.9587 153.713 47.9587 152.417V150.512H48.0006ZM16.9932 24.1468C16.9932 22.8503 18.1681 21.797 19.6366 21.797H39.3572C40.8257 21.797 42.0005 22.8503 42.0005 24.1468V26.051H16.9932V24.1468ZM16.9932 27.8337H41.9586V30.3456H16.9932V27.8337ZM16.9932 32.1282H41.9586V34.6401H16.9932V32.1282ZM16.9932 36.4228H41.9586V38.9347H16.9932V36.4228ZM16.9932 40.7174H41.9586V135.887H16.9932V40.7174ZM16.9932 137.629H41.9586V140.141H16.9932V137.629ZM16.9932 141.923H41.9586V144.435H16.9932V141.923ZM16.9932 146.218H41.9586V148.73H16.9932V146.218ZM16.9932 152.417V150.512H41.9586V152.417C41.9586 153.713 40.7837 154.766 39.3152 154.766H19.6366C18.1681 154.766 16.9932 153.713 16.9932 152.417ZM535.308 160.479C535.308 160.479 502.118 160.682 452.272 160.965C427.348 161.046 398.313 161.127 367.18 161.249C336.046 161.249 302.857 161.33 269.626 161.37C236.437 161.37 203.205 161.289 172.072 161.249C140.939 161.168 111.904 161.046 86.9801 160.965C37.1753 160.682 3.94411 160.479 3.94411 160.479C3.94411 160.479 37.1333 160.276 86.9801 159.993C111.904 159.912 140.939 159.831 172.072 159.709C203.205 159.709 236.395 159.628 269.626 159.588C302.815 159.588 336.046 159.669 367.18 159.709C398.313 159.79 427.348 159.912 452.272 159.993C502.076 160.276 535.308 160.479 535.308 160.479Z" fill="#6989CF"/>
<path d="M22.28 72.4404C22.1961 67.3761 22.0283 62.6764 21.8185 58.6249C21.4408 50.5219 20.9373 45.1335 20.9373 45.1335C20.9373 45.1335 20.4338 50.5219 20.0562 58.6249C19.8464 62.6764 19.7205 67.3761 19.5947 72.4404C19.5947 74.9523 19.4688 77.5858 19.4688 80.2192C19.4688 82.8932 19.4688 85.5672 19.4268 88.2817C19.4268 90.9962 19.4268 93.6702 19.4688 96.3441C19.4688 99.0181 19.5527 101.611 19.5947 104.163C19.5947 106.675 19.7205 109.147 19.8044 111.456C19.8884 113.765 19.9723 115.953 20.0562 117.979C20.3919 126.082 20.8954 131.47 20.8954 131.47C20.8954 131.47 21.3989 126.082 21.7345 117.979C21.8185 115.953 21.9443 113.765 21.9863 111.456C22.0702 109.147 22.1541 106.675 22.1961 104.163C22.1961 101.652 22.322 99.0181 22.322 96.3441C22.322 93.6702 22.322 90.9962 22.3639 88.2817C22.3639 85.5672 22.3639 82.8932 22.322 80.2192C22.322 77.5453 22.238 74.9523 22.1961 72.4404H22.28Z" fill="#6989CF"/>
<path d="M39.483 72.4404C39.3991 67.3761 39.2313 62.6764 39.0215 58.6249C38.6438 50.5219 38.1403 45.1335 38.1403 45.1335C38.1403 45.1335 37.6368 50.5219 37.2592 58.6249C37.0494 62.6764 36.9235 67.3761 36.7977 72.4404C36.7977 74.9523 36.6718 77.5858 36.6718 80.2192C36.6718 82.8932 36.6718 85.5672 36.6298 88.2817C36.6298 90.9962 36.6298 93.6702 36.6718 96.3441C36.6718 99.0181 36.7557 101.611 36.7977 104.163C36.7977 106.675 36.9235 109.147 37.0074 111.456C37.0914 113.765 37.1753 115.953 37.2592 117.979C37.5949 126.082 38.0984 131.47 38.0984 131.47C38.0984 131.47 38.6019 126.082 38.9375 117.979C39.0215 115.953 39.1473 113.765 39.1893 111.456C39.2732 109.147 39.3571 106.675 39.3991 104.163C39.3991 101.652 39.525 99.0181 39.525 96.3441C39.525 93.6702 39.525 90.9962 39.5669 88.2817C39.5669 85.5672 39.5669 82.8932 39.525 80.2192C39.525 77.5453 39.441 74.9523 39.3991 72.4404H39.483Z" fill="#6989CF"/>
<path d="M52.7419 72.4404C52.658 67.3761 52.4902 62.6764 52.2804 58.6249C51.9027 50.5219 51.3992 45.1335 51.3992 45.1335C51.3992 45.1335 50.8957 50.5219 50.5181 58.6249C50.3083 62.6764 50.1824 67.3761 50.0566 72.4404C50.0566 74.9523 49.9307 77.5858 49.9307 80.2192C49.9307 82.8932 49.9307 85.5672 49.8887 88.2817C49.8887 90.9962 49.8887 93.6702 49.9307 96.3441C49.9307 99.0181 50.0146 101.611 50.0566 104.163C50.0566 106.675 50.1824 109.147 50.2664 111.456C50.3503 113.765 50.4342 115.953 50.5181 117.979C50.8538 126.082 51.3573 131.47 51.3573 131.47C51.3573 131.47 51.8608 126.082 52.1965 117.979C52.2804 115.953 52.4062 113.765 52.4482 111.456C52.5321 109.147 52.616 106.675 52.658 104.163C52.658 101.652 52.7839 99.0181 52.7839 96.3441C52.7839 93.6702 52.7839 90.9962 52.8258 88.2817C52.8258 85.5672 52.8258 82.8932 52.7839 80.2192C52.7839 77.5453 52.7 74.9523 52.658 72.4404H52.7419Z" fill="#6989CF"/>
<path d="M69.945 72.4404C69.8611 67.3761 69.6932 62.6764 69.4834 58.6249C69.1058 50.5219 68.6023 45.1335 68.6023 45.1335C68.6023 45.1335 68.0988 50.5219 67.7212 58.6249C67.5114 62.6764 67.3855 67.3761 67.2596 72.4404C67.2596 74.9523 67.1338 77.5858 67.1338 80.2192C67.1338 82.8932 67.1338 85.5672 67.0918 88.2817C67.0918 90.9962 67.0918 93.6702 67.1338 96.3441C67.1338 99.0181 67.2177 101.611 67.2596 104.163C67.2596 106.675 67.3855 109.147 67.4694 111.456C67.5533 113.765 67.6373 115.953 67.7212 117.979C68.0568 126.082 68.5604 131.47 68.5604 131.47C68.5604 131.47 69.0639 126.082 69.3995 117.979C69.4834 115.953 69.6093 113.765 69.6513 111.456C69.7352 109.147 69.8191 106.675 69.8611 104.163C69.8611 101.652 69.9869 99.0181 69.9869 96.3441C69.9869 93.6702 69.9869 90.9962 70.0289 88.2817C70.0289 85.5672 70.0289 82.8932 69.9869 80.2192C69.9869 77.5453 69.903 74.9523 69.8611 72.4404H69.945Z" fill="#6989CF"/>
<path d="M95.7075 22.4857L93.7354 18.0291L91.7214 22.4857L93.7354 26.9423L95.7075 22.4857Z" fill="#6989CF"/>
<path d="M86.3927 10.4528L84.3787 5.99619L82.3647 10.4528L84.3787 14.9094L86.3927 10.4528Z" fill="#6989CF"/>
<path d="M105.064 10.4528L103.05 5.99619L101.078 10.4528L103.05 14.9094L105.064 10.4528Z" fill="#6989CF"/>
<path d="M95.7075 47.6454L93.7354 43.1888L91.7214 47.6454L93.7354 52.0615L95.7075 47.6454Z" fill="#6989CF"/>
<path d="M86.3927 35.6125L84.3787 31.1559L82.3647 35.6125L84.3787 40.0691L86.3927 35.6125Z" fill="#6989CF"/>
<path d="M105.064 35.6125L103.05 31.1559L101.078 35.6125L103.05 40.0691L105.064 35.6125Z" fill="#6989CF"/>
<path d="M95.7075 72.7645L93.7354 68.3079L91.7214 72.7645L93.7354 77.2212L95.7075 72.7645Z" fill="#6989CF"/>
<path d="M86.3927 60.7317L84.3787 56.275L82.3647 60.7317L84.3787 65.1883L86.3927 60.7317Z" fill="#6989CF"/>
<path d="M105.064 60.7317L103.05 56.275L101.078 60.7317L103.05 65.1883L105.064 60.7317Z" fill="#6989CF"/>
<path d="M95.7075 97.9242L93.7354 93.4676L91.7214 97.9242L93.7354 102.381L95.7075 97.9242Z" fill="#6989CF"/>
<path d="M86.3927 85.8913L84.3787 81.4347L82.3647 85.8913L84.3787 90.3479L86.3927 85.8913Z" fill="#6989CF"/>
<path d="M105.064 85.8913L103.05 81.4347L101.078 85.8913L103.05 90.3479L105.064 85.8913Z" fill="#6989CF"/>
<path d="M95.7075 123.043L93.7354 118.627L91.7214 123.043L93.7354 127.5L95.7075 123.043Z" fill="#6989CF"/>
<path d="M86.3927 111.051L84.3787 106.594L82.3647 111.051L84.3787 115.467L86.3927 111.051Z" fill="#6989CF"/>
<path d="M105.064 111.051L103.05 106.594L101.078 111.051L103.05 115.467L105.064 111.051Z" fill="#6989CF"/>
<path d="M95.7075 148.203L93.7354 143.746L91.7214 148.203L93.7354 152.66L95.7075 148.203Z" fill="#6989CF"/>
<path d="M86.3927 136.17L84.3787 131.714L82.3647 136.17L84.3787 140.627L86.3927 136.17Z" fill="#6989CF"/>
<path d="M105.064 136.17L103.05 131.714L101.078 136.17L103.05 140.627L105.064 136.17Z" fill="#6989CF"/>
<path d="M423.11 22.4857L421.096 18.0291L419.082 22.4857L421.096 26.9423L423.11 22.4857ZM421.096 20.4195L422.019 22.4857L421.096 24.552L420.173 22.4857L421.096 20.4195Z" fill="#6989CF"/>
<path d="M413.754 10.4528L411.74 5.99619L409.726 10.4528L411.74 14.9094L413.754 10.4528ZM411.74 8.38656L412.663 10.4528L411.74 12.5191L410.817 10.4528L411.74 8.38656Z" fill="#6989CF"/>
<path d="M432.467 10.4528L430.453 5.99619L428.439 10.4528L430.453 14.9094L432.467 10.4528ZM430.453 8.38656L431.376 10.4528L430.453 12.5191L429.53 10.4528L430.453 8.38656Z" fill="#6989CF"/>
<path d="M423.11 47.6454L421.096 43.1888L419.082 47.6454L421.096 52.102L423.11 47.6454ZM421.096 45.5791L422.019 47.6454L421.096 49.7116L420.173 47.6454L421.096 45.5791Z" fill="#6989CF"/>
<path d="M413.754 35.6125L411.74 31.1559L409.726 35.6125L411.74 40.0691L413.754 35.6125ZM411.74 33.5462L412.663 35.6125L411.74 37.6787L410.817 35.6125L411.74 33.5462Z" fill="#6989CF"/>
<path d="M432.467 35.6125L430.453 31.1559L428.439 35.6125L430.453 40.0691L432.467 35.6125ZM430.453 33.5462L431.376 35.6125L430.453 37.6787L429.53 35.6125L430.453 33.5462Z" fill="#6989CF"/>
<path d="M423.11 72.7645L421.096 68.3079L419.082 72.7645L421.096 77.2212L423.11 72.7645ZM421.096 70.6983L422.019 72.7645L421.096 74.8308L420.173 72.7645L421.096 70.6983Z" fill="#6989CF"/>
<path d="M413.754 60.7317L411.74 56.275L409.726 60.7317L411.74 65.1883L413.754 60.7317ZM411.74 58.6654L412.663 60.7317L411.74 62.7979L410.817 60.7317L411.74 58.6654Z" fill="#6989CF"/>
<path d="M432.467 60.7317L430.453 56.275L428.439 60.7317L430.453 65.1883L432.467 60.7317ZM430.453 58.6654L431.376 60.7317L430.453 62.7979L429.53 60.7317L430.453 58.6654Z" fill="#6989CF"/>
<path d="M423.11 97.9242L421.096 93.4676L419.082 97.9242L421.096 102.381L423.11 97.9242ZM421.096 95.858L422.019 97.9242L421.096 99.9905L420.173 97.9242L421.096 95.858Z" fill="#6989CF"/>
<path d="M413.754 85.8913L411.74 81.4347L409.726 85.8913L411.74 90.3479L413.754 85.8913ZM411.74 83.8251L412.663 85.8913L411.74 87.9576L410.817 85.8913L411.74 83.8251Z" fill="#6989CF"/>
<path d="M432.467 85.8913L430.453 81.4347L428.439 85.8913L430.453 90.3479L432.467 85.8913ZM430.453 83.8251L431.376 85.8913L430.453 87.9576L429.53 85.8913L430.453 83.8251Z" fill="#6989CF"/>
<path d="M423.11 123.043L421.096 118.587L419.082 123.043L421.096 127.5L423.11 123.043ZM421.096 120.977L422.019 123.043L421.096 125.11L420.173 123.043L421.096 120.977Z" fill="#6989CF"/>
<path d="M413.754 111.051L411.74 106.594L409.726 111.051L411.74 115.508L413.754 111.051ZM411.74 108.985L412.663 111.051L411.74 113.117L410.817 111.051L411.74 108.985Z" fill="#6989CF"/>
<path d="M432.467 111.051L430.453 106.594L428.439 111.051L430.453 115.508L432.467 111.051ZM430.453 108.985L431.376 111.051L430.453 113.117L429.53 111.051L430.453 108.985Z" fill="#6989CF"/>
<path d="M423.11 148.203L421.096 143.746L419.082 148.203L421.096 152.66L423.11 148.203ZM421.096 146.137L422.019 148.203L421.096 150.269L420.173 148.203L421.096 146.137Z" fill="#6989CF"/>
<path d="M413.754 136.17L411.74 131.714L409.726 136.17L411.74 140.627L413.754 136.17ZM411.74 134.104L412.663 136.17L411.74 138.236L410.817 136.17L411.74 134.104Z" fill="#6989CF"/>
<path d="M432.467 136.17L430.453 131.714L428.439 136.17L430.453 140.627L432.467 136.17ZM430.453 134.104L431.376 136.17L430.453 138.236L429.53 136.17L430.453 134.104Z" fill="#6989CF"/>
<path d="M117.358 114.859C117.442 121.504 117.526 127.703 117.652 133.051C117.778 138.358 117.946 142.815 118.029 145.894C118.155 149.013 118.239 150.755 118.239 150.755C118.239 150.755 118.323 148.973 118.449 145.894C118.533 142.774 118.701 138.358 118.827 133.051C118.953 127.743 119.078 121.504 119.12 114.859C119.12 111.537 119.162 108.093 119.204 104.609C119.204 101.125 119.204 97.5596 119.204 94.0348C119.204 90.4695 119.204 86.9447 119.204 83.4604C119.204 79.9762 119.162 76.5324 119.12 73.2102C119.036 66.5658 118.953 60.367 118.827 55.0191C118.701 49.7116 118.533 45.255 118.449 42.1759C118.323 39.0563 118.239 37.3141 118.239 37.3141L118.029 42.1759C117.946 45.2955 117.778 49.7116 117.652 55.0191C117.526 60.3265 117.4 66.5658 117.358 73.2102C117.358 76.5324 117.316 79.9762 117.274 83.4604C117.274 86.9447 117.274 90.51 117.274 94.0348C117.274 97.6001 117.274 101.125 117.274 104.609C117.274 108.093 117.316 111.537 117.358 114.859Z" fill="#6989CF"/>
<path d="M147.149 114.859C147.233 121.504 147.317 127.703 147.442 133.051C147.568 138.358 147.736 142.815 147.82 145.894L148.03 150.755C148.03 150.755 148.114 148.973 148.24 145.894C148.324 142.774 148.491 138.358 148.617 133.051C148.743 127.743 148.869 121.504 148.911 114.859C148.911 111.537 148.953 108.093 148.995 104.609C148.995 101.125 148.995 97.5596 148.995 94.0348C148.995 90.4695 148.995 86.9447 148.995 83.4604C148.995 79.9762 148.953 76.5324 148.911 73.2102C148.827 66.5658 148.743 60.367 148.617 55.0191C148.491 49.7116 148.324 45.255 148.24 42.1759C148.114 39.0563 148.03 37.3141 148.03 37.3141C148.03 37.3141 147.946 39.0968 147.82 42.1759C147.736 45.2955 147.568 49.7116 147.442 55.0191C147.317 60.3265 147.191 66.5658 147.149 73.2102C147.149 76.5324 147.107 79.9762 147.065 83.4604C147.065 86.9447 147.065 90.51 147.065 94.0348C147.065 97.6001 147.065 101.125 147.065 104.609C147.065 108.093 147.107 111.537 147.149 114.859Z" fill="#6989CF"/>
<path d="M128.729 149.621C130.072 149.702 131.54 149.743 133.009 149.743C134.477 149.743 135.904 149.743 137.288 149.621C138.631 149.54 139.932 149.459 141.023 149.337C143.205 149.135 144.631 148.811 144.631 148.811C144.631 148.811 143.163 148.527 141.023 148.284C139.932 148.163 138.673 148.082 137.288 148C135.946 147.919 134.477 147.879 133.009 147.879C131.54 147.879 130.114 147.919 128.729 148C127.386 148.082 126.086 148.163 124.995 148.284C122.813 148.487 121.386 148.811 121.386 148.811C121.386 148.811 122.855 149.094 124.995 149.337C126.086 149.459 127.344 149.54 128.729 149.621Z" fill="#6989CF"/>
<path d="M128.729 145.326C130.072 145.408 131.54 145.448 133.009 145.448C134.477 145.448 135.904 145.448 137.288 145.326C138.631 145.245 139.932 145.164 141.023 145.043C143.205 144.84 144.631 144.516 144.631 144.516C144.631 144.516 143.163 144.233 141.023 143.99C139.932 143.868 138.673 143.787 137.288 143.706C135.946 143.625 134.477 143.584 133.009 143.584C131.54 143.584 130.114 143.625 128.729 143.706C127.386 143.787 126.086 143.868 124.995 143.99C122.813 144.192 121.386 144.516 121.386 144.516C121.386 144.516 122.855 144.8 124.995 145.043C126.086 145.164 127.344 145.245 128.729 145.326Z" fill="#6989CF"/>
<path d="M128.729 141.032C130.072 141.113 131.54 141.153 133.009 141.153C134.477 141.153 135.904 141.153 137.288 141.032C138.631 140.951 139.932 140.87 141.023 140.748C143.205 140.546 144.631 140.222 144.631 140.222C144.631 140.222 143.163 139.938 141.023 139.695C139.932 139.573 138.673 139.492 137.288 139.411C135.946 139.33 134.477 139.29 133.009 139.29C131.54 139.29 130.114 139.33 128.729 139.411C127.386 139.492 126.086 139.573 124.995 139.695C122.813 139.898 121.386 140.222 121.386 140.222C121.386 140.222 122.855 140.505 124.995 140.748C126.086 140.87 127.344 140.951 128.729 141.032Z" fill="#6989CF"/>
<path d="M128.729 47.4428C130.072 47.5238 131.54 47.5644 133.009 47.5644C134.477 47.5644 135.904 47.5644 137.288 47.4428C138.631 47.3618 139.932 47.2808 141.023 47.1592C143.205 46.9566 144.631 46.6325 144.631 46.6325C144.631 46.6325 143.163 46.3489 141.023 46.1058C139.932 45.9843 138.673 45.9033 137.288 45.8222C135.946 45.7412 134.477 45.7007 133.009 45.7007C131.54 45.7007 130.114 45.7412 128.729 45.8222C127.386 45.9033 126.086 45.9843 124.995 46.1058C122.813 46.3084 121.386 46.6325 121.386 46.6325C121.386 46.6325 122.855 46.9161 124.995 47.1592C126.086 47.2808 127.344 47.3618 128.729 47.4428Z" fill="#6989CF"/>
<path d="M128.729 43.1482C130.072 43.2293 131.54 43.2698 133.009 43.2698C134.477 43.2698 135.904 43.2698 137.288 43.1482C138.631 43.0672 139.932 42.9862 141.023 42.8646C143.205 42.6621 144.631 42.3379 144.631 42.3379C144.631 42.3379 143.163 42.0543 141.023 41.8112C139.932 41.6897 138.673 41.6087 137.288 41.5276C135.946 41.4466 134.477 41.4061 133.009 41.4061C131.54 41.4061 130.114 41.4466 128.729 41.5276C127.386 41.6087 126.086 41.6897 124.995 41.8112C122.813 42.0138 121.386 42.3379 121.386 42.3379C121.386 42.3379 122.855 42.6215 124.995 42.8646C126.086 42.9862 127.344 43.0672 128.729 43.1482Z" fill="#6989CF"/>
<path d="M128.729 38.8537C130.072 38.9347 131.54 38.9752 133.009 38.9752C134.477 38.9752 135.904 38.9752 137.288 38.8537C138.631 38.7727 139.932 38.6916 141.023 38.5701C143.205 38.3675 144.631 38.0434 144.631 38.0434C144.631 38.0434 143.163 37.7598 141.023 37.5167C139.932 37.3951 138.673 37.3141 137.288 37.2331C135.946 37.1521 134.477 37.1115 133.009 37.1115C131.54 37.1115 130.114 37.1521 128.729 37.2331C127.386 37.3141 126.086 37.3951 124.995 37.5167C122.813 37.7193 121.386 38.0434 121.386 38.0434C121.386 38.0434 122.855 38.327 124.995 38.5701C126.086 38.6916 127.344 38.7727 128.729 38.8537Z" fill="#6989CF"/>
<path d="M160.575 114.859C160.659 121.504 160.743 127.703 160.869 133.051C160.995 138.358 161.163 142.815 161.247 145.894L161.457 150.755C161.457 150.755 161.541 148.973 161.666 145.894C161.75 142.774 161.918 138.358 162.044 133.051C162.17 127.743 162.296 121.504 162.338 114.859C162.338 111.537 162.38 108.093 162.422 104.609C162.422 101.125 162.422 97.5596 162.422 94.0348C162.422 90.4695 162.422 86.9447 162.422 83.4604C162.422 79.9762 162.38 76.5324 162.338 73.2102C162.254 66.5658 162.17 60.367 162.044 55.0191C161.918 49.7116 161.75 45.255 161.666 42.1759C161.541 39.0563 161.457 37.3141 161.457 37.3141C161.457 37.3141 161.373 39.0968 161.247 42.1759C161.163 45.2955 160.995 49.7116 160.869 55.0191C160.743 60.3265 160.617 66.5658 160.575 73.2102C160.575 76.5324 160.534 79.9762 160.492 83.4604C160.492 86.9447 160.492 90.51 160.492 94.0348C160.492 97.6001 160.492 101.125 160.492 104.609C160.492 108.093 160.534 111.537 160.575 114.859Z" fill="#6989CF"/>
<path d="M190.408 114.859C190.492 121.504 190.576 127.703 190.702 133.051C190.828 138.358 190.995 142.815 191.079 145.894C191.205 149.013 191.289 150.755 191.289 150.755C191.289 150.755 191.373 148.973 191.499 145.894C191.583 142.774 191.751 138.358 191.877 133.051C192.002 127.743 192.128 121.504 192.17 114.859C192.17 111.537 192.212 108.093 192.254 104.609C192.254 101.125 192.254 97.5596 192.254 94.0348C192.254 90.4695 192.254 86.9447 192.254 83.4604C192.254 79.9762 192.212 76.5324 192.17 73.2102C192.086 66.5658 192.002 60.367 191.877 55.0191C191.751 49.7116 191.583 45.255 191.499 42.1759C191.373 39.0563 191.289 37.3141 191.289 37.3141C191.289 37.3141 191.205 39.0968 191.079 42.1759C190.995 45.2955 190.828 49.7116 190.702 55.0191C190.576 60.3265 190.45 66.5658 190.408 73.2102C190.408 76.5324 190.366 79.9762 190.324 83.4604C190.324 86.9447 190.324 90.51 190.324 94.0348C190.324 97.6001 190.324 101.125 190.324 104.609C190.324 108.093 190.366 111.537 190.408 114.859Z" fill="#6989CF"/>
<path d="M171.988 149.621C173.331 149.702 174.799 149.743 176.268 149.743C177.737 149.743 179.163 149.743 180.548 149.621C181.89 149.54 183.191 149.459 184.282 149.337C186.464 149.135 187.891 148.811 187.891 148.811C187.891 148.811 186.422 148.527 184.282 148.284C183.191 148.163 181.932 148.082 180.548 148C179.205 147.919 177.737 147.879 176.268 147.879C174.799 147.879 173.373 147.919 171.988 148C170.646 148.082 169.345 148.163 168.254 148.284C166.072 148.487 164.646 148.811 164.646 148.811C164.646 148.811 166.114 149.094 168.254 149.337C169.345 149.459 170.604 149.54 171.988 149.621Z" fill="#6989CF"/>
<path d="M171.988 145.326C173.331 145.408 174.799 145.448 176.268 145.448C177.737 145.448 179.163 145.448 180.548 145.326C181.89 145.245 183.191 145.164 184.282 145.043C186.464 144.84 187.891 144.516 187.891 144.516C187.891 144.516 186.422 144.233 184.282 143.99C183.191 143.868 181.932 143.787 180.548 143.706C179.205 143.625 177.737 143.584 176.268 143.584C174.799 143.584 173.373 143.625 171.988 143.706C170.646 143.787 169.345 143.868 168.254 143.99C166.072 144.192 164.646 144.516 164.646 144.516C164.646 144.516 166.114 144.8 168.254 145.043C169.345 145.164 170.604 145.245 171.988 145.326Z" fill="#6989CF"/>
<path d="M171.988 141.032C173.331 141.113 174.799 141.153 176.268 141.153C177.737 141.153 179.163 141.153 180.548 141.032C181.89 140.951 183.191 140.87 184.282 140.748C186.464 140.546 187.891 140.222 187.891 140.222C187.891 140.222 186.422 139.938 184.282 139.695C183.191 139.573 181.932 139.492 180.548 139.411C179.205 139.33 177.737 139.29 176.268 139.29C174.799 139.29 173.373 139.33 171.988 139.411C170.646 139.492 169.345 139.573 168.254 139.695C166.072 139.898 164.646 140.222 164.646 140.222C164.646 140.222 166.114 140.505 168.254 140.748C169.345 140.87 170.604 140.951 171.988 141.032Z" fill="#6989CF"/>
<path d="M171.988 47.4428C173.331 47.5238 174.799 47.5644 176.268 47.5644C177.737 47.5644 179.163 47.5644 180.548 47.4428C181.89 47.3618 183.191 47.2808 184.282 47.1592C186.464 46.9566 187.891 46.6325 187.891 46.6325C187.891 46.6325 186.422 46.3489 184.282 46.1058C183.191 45.9843 181.932 45.9033 180.548 45.8222C179.205 45.7412 177.737 45.7007 176.268 45.7007C174.799 45.7007 173.373 45.7412 171.988 45.8222C170.646 45.9033 169.345 45.9843 168.254 46.1058C166.072 46.3084 164.646 46.6325 164.646 46.6325C164.646 46.6325 166.114 46.9161 168.254 47.1592C169.345 47.2808 170.604 47.3618 171.988 47.4428Z" fill="#6989CF"/>
<path d="M171.988 43.1482C173.331 43.2293 174.799 43.2698 176.268 43.2698C177.737 43.2698 179.163 43.2698 180.548 43.1482C181.89 43.0672 183.191 42.9862 184.282 42.8646C186.464 42.6621 187.891 42.3379 187.891 42.3379C187.891 42.3379 186.422 42.0543 184.282 41.8112C183.191 41.6897 181.932 41.6087 180.548 41.5276C179.205 41.4466 177.737 41.4061 176.268 41.4061C174.799 41.4061 173.373 41.4466 171.988 41.5276C170.646 41.6087 169.345 41.6897 168.254 41.8112C166.072 42.0138 164.646 42.3379 164.646 42.3379C164.646 42.3379 166.114 42.6215 168.254 42.8646C169.345 42.9862 170.604 43.0672 171.988 43.1482Z" fill="#6989CF"/>
<path d="M171.988 38.8537C173.331 38.9347 174.799 38.9752 176.268 38.9752C177.737 38.9752 179.163 38.9752 180.548 38.8537C181.89 38.7727 183.191 38.6916 184.282 38.5701C186.464 38.3675 187.891 38.0434 187.891 38.0434C187.891 38.0434 186.422 37.7598 184.282 37.5167C183.191 37.3951 181.932 37.3141 180.548 37.2331C179.205 37.1521 177.737 37.1115 176.268 37.1115C174.799 37.1115 173.373 37.1521 171.988 37.2331C170.646 37.3141 169.345 37.3951 168.254 37.5167C166.072 37.7193 164.646 38.0434 164.646 38.0434C164.646 38.0434 166.114 38.327 168.254 38.5701C169.345 38.6916 170.604 38.7727 171.988 38.8537Z" fill="#6989CF"/>
<path d="M313.095 62.2307L315.067 66.6873L317.081 62.2307L315.067 57.8146L313.095 62.2307Z" fill="#6989CF"/>
<path d="M313.095 89.173L315.067 93.6297L317.081 89.173L315.067 84.7164L313.095 89.173Z" fill="#6989CF"/>
<path d="M313.095 116.115L315.067 120.572L317.081 116.115L315.067 111.659L313.095 116.115Z" fill="#6989CF"/>
<path d="M315.067 147.798L316.326 145.002L333.613 143.341L316.326 141.68L315.067 138.885L313.808 141.68L296.563 143.341L313.808 145.002L315.067 147.798Z" fill="#6989CF"/>
<path d="M315.067 31.1559L313.808 33.9514L296.563 35.6125L313.808 37.2736L315.067 40.0691L316.326 37.2736L333.613 35.6125L316.326 33.9514L315.067 31.1559Z" fill="#6989CF"/>
<path d="M203.247 145.448C203.751 141.478 204.506 135.806 205.303 128.959C205.681 125.555 206.101 121.828 206.562 117.939C206.982 114.009 207.443 109.917 207.863 105.622C208.282 101.368 208.786 96.9519 209.205 92.4547L210.506 78.8418C210.884 74.2636 211.303 69.7259 211.681 65.2288C212.101 60.7317 212.394 56.3156 212.73 52.021C213.401 43.4724 213.947 35.491 214.366 28.6034C214.828 21.7564 215.08 16.0439 215.289 12.0329C215.415 10.0477 215.457 8.46759 215.499 7.37369C215.541 6.32031 215.583 5.71259 215.583 5.71259C215.583 5.71259 215.499 6.27979 215.373 7.33318C215.248 8.38656 214.996 9.96664 214.744 11.9519C214.241 15.9223 213.485 21.5944 212.688 28.4414C211.891 35.2479 211.01 43.2293 210.129 51.7779C209.709 56.0319 209.205 60.4481 208.828 64.9452C208.408 69.4423 207.989 73.98 207.527 78.5582C207.15 83.1363 206.73 87.674 206.352 92.1711C205.933 96.6683 205.639 101.084 205.303 105.379C204.968 109.674 204.674 113.806 204.38 117.736C204.128 121.666 203.877 125.353 203.625 128.797C203.163 135.644 202.912 141.356 202.702 145.367C202.576 147.352 202.534 148.932 202.492 150.026C202.45 151.08 202.408 151.687 202.408 151.687C202.408 151.687 202.492 151.12 202.618 150.067C202.744 149.013 202.996 147.433 203.247 145.448Z" fill="#6989CF"/>
<path d="M226.073 145.448C226.576 141.478 227.332 135.806 228.129 128.959C228.506 125.555 228.926 121.828 229.388 117.939C229.807 114.009 230.269 109.917 230.688 105.622C231.108 101.368 231.611 96.9519 232.031 92.4547C232.451 87.9576 232.87 83.4199 233.332 78.8418C233.709 74.2636 234.129 69.7259 234.507 65.2288C234.926 60.7317 235.22 56.3156 235.555 52.021C236.227 43.4724 236.772 35.491 237.234 28.6034C237.695 21.7564 237.947 16.0439 238.157 12.0329C238.283 10.0477 238.325 8.46759 238.367 7.37369C238.409 6.32031 238.451 5.71259 238.451 5.71259L238.241 7.33318C238.115 8.38656 237.863 9.96664 237.611 11.9519C237.108 15.9223 236.353 21.5944 235.555 28.4414C234.758 35.2479 233.877 43.2293 232.996 51.7779C232.576 56.0319 232.073 60.4481 231.695 64.9452C231.276 69.4423 230.856 73.98 230.395 78.5582C230.017 83.1363 229.597 87.674 229.22 92.1711C228.8 96.6683 228.506 101.084 228.171 105.379C227.835 109.674 227.541 113.806 227.248 117.736C226.996 121.666 226.744 125.353 226.492 128.797C226.031 135.644 225.779 141.356 225.569 145.367C225.443 147.352 225.402 148.932 225.36 150.026C225.318 151.08 225.276 151.687 225.276 151.687C225.276 151.687 225.36 151.12 225.485 150.067C225.611 149.013 225.863 147.433 226.115 145.448H226.073Z" fill="#6989CF"/>
<path d="M248.856 145.448C249.36 141.478 250.115 135.806 250.912 128.959C251.29 125.555 251.71 121.828 252.171 117.939C252.591 114.009 253.052 109.917 253.472 105.622C253.891 101.368 254.395 96.9519 254.814 92.4547C255.234 87.9576 255.654 83.4199 256.115 78.8418C256.493 74.2636 256.912 69.7259 257.29 65.2288C257.71 60.7317 258.003 56.3156 258.339 52.021C259.01 43.4724 259.556 35.491 260.017 28.6034C260.479 21.7564 260.731 16.0439 260.94 12.0329C261.066 10.0477 261.108 8.46759 261.15 7.37369L261.234 5.71259C261.234 5.71259 261.15 6.27979 261.024 7.33318C260.898 8.38656 260.647 9.96664 260.395 11.9519C259.891 15.9223 259.136 21.5944 258.339 28.4414C257.542 35.2479 256.661 43.2293 255.78 51.7779C255.36 56.0319 254.856 60.4481 254.479 64.9452C254.059 69.4423 253.64 73.98 253.178 78.5582C252.8 83.1363 252.381 87.674 252.003 92.1711C251.584 96.6683 251.29 101.084 250.954 105.379C250.619 109.674 250.325 113.806 250.031 117.736C249.779 121.666 249.528 125.353 249.276 128.797C248.814 135.644 248.563 141.356 248.353 145.367C248.227 147.352 248.185 148.932 248.143 150.026L248.059 151.687C248.059 151.687 248.143 151.12 248.269 150.067C248.395 149.013 248.647 147.433 248.898 145.448H248.856Z" fill="#6989CF"/>
<path d="M271.64 145.448C272.143 141.478 272.899 135.806 273.696 128.959C274.073 125.555 274.493 121.828 274.955 117.939C275.374 114.009 275.836 109.917 276.255 105.622C276.675 101.368 277.178 96.9519 277.598 92.4547C278.018 87.9576 278.437 83.4199 278.899 78.8418C279.276 74.2636 279.696 69.7259 280.074 65.2288C280.493 60.7317 280.787 56.3156 281.122 52.021C281.794 43.4724 282.339 35.491 282.801 28.6034C283.262 21.7564 283.514 16.0439 283.724 12.0329C283.85 10.0477 283.892 8.46759 283.934 7.37369L284.018 5.71259C284.018 5.71259 283.934 6.27979 283.808 7.33318C283.682 8.38656 283.43 9.96664 283.178 11.9519C282.675 15.9223 281.92 21.5944 281.122 28.4414C280.325 35.2479 279.444 43.2293 278.563 51.7779C278.143 56.0319 277.64 60.4481 277.262 64.9452C276.843 69.4423 276.423 73.98 275.962 78.5582C275.584 83.1363 275.164 87.674 274.787 92.1711C274.367 96.6683 274.073 101.084 273.738 105.379C273.402 109.674 273.108 113.806 272.815 117.736C272.563 121.666 272.311 125.353 272.059 128.797C271.598 135.644 271.346 141.356 271.136 145.367C271.01 147.352 270.969 148.932 270.927 150.026L270.843 151.687L271.052 150.067C271.178 149.013 271.43 147.433 271.682 145.448H271.64Z" fill="#6989CF"/>
<path d="M384.215 133.496C385.39 133.577 386.606 133.618 387.865 133.618C389.124 133.618 390.341 133.618 391.516 133.496C392.69 133.415 393.781 133.334 394.704 133.213C396.551 133.01 397.809 132.686 397.809 132.686C397.809 132.686 396.551 132.402 394.704 132.159C393.781 132.038 392.69 131.957 391.516 131.876C390.341 131.795 389.124 131.754 387.865 131.754C386.606 131.754 385.39 131.795 384.215 131.876C383.04 131.957 381.949 132.038 381.026 132.159C379.18 132.362 377.921 132.686 377.921 132.686C377.921 132.686 379.18 132.97 381.026 133.213C381.949 133.334 383.04 133.415 384.215 133.496Z" fill="#6989CF"/>
<path d="M384.215 47.4428C385.39 47.5238 386.606 47.5644 387.865 47.5644C389.124 47.5644 390.341 47.5644 391.516 47.4428C392.69 47.3618 393.781 47.2808 394.704 47.1592C396.551 46.9566 397.809 46.6325 397.809 46.6325C397.809 46.6325 396.551 46.3489 394.704 46.1058C393.781 45.9843 392.69 45.9033 391.516 45.8222C390.341 45.7412 389.124 45.7007 387.865 45.7007C386.606 45.7007 385.39 45.7412 384.215 45.8222C383.04 45.9033 381.949 45.9843 381.026 46.1058C379.18 46.3084 377.921 46.6325 377.921 46.6325C377.921 46.6325 379.18 46.9161 381.026 47.1592C381.949 47.2808 383.04 47.3618 384.215 47.4428Z" fill="#6989CF"/>
<path d="M461.251 74.9523C461.167 69.0372 461.083 63.5272 460.957 58.787C460.831 54.0467 460.663 50.1168 460.579 47.3618C460.453 44.6068 460.37 43.0267 460.37 43.0267C460.37 43.0267 460.286 44.6068 460.16 47.3618C460.076 50.1168 459.908 54.0467 459.782 58.787C459.656 63.5272 459.53 69.0372 459.488 74.9523C459.488 77.9099 459.446 80.9485 459.405 84.0682C459.405 87.1878 459.405 90.3074 459.405 93.4676C459.405 96.6277 459.405 99.7879 459.405 102.867C459.405 105.987 459.447 109.025 459.488 111.983C459.572 117.898 459.656 123.408 459.782 128.148C459.908 132.888 460.076 136.818 460.16 139.573C460.286 142.328 460.37 143.909 460.37 143.909L460.579 139.573C460.663 136.818 460.831 132.888 460.957 128.148C461.083 123.408 461.209 117.898 461.251 111.983C461.251 109.025 461.293 105.987 461.335 102.867C461.335 99.7474 461.335 96.6277 461.335 93.4676C461.335 90.3074 461.335 87.1473 461.335 84.0682C461.335 80.9485 461.293 77.9099 461.251 74.9523Z" fill="#6989CF"/>
<path d="M504.342 74.9523C504.258 69.0372 504.174 63.5272 504.048 58.787C503.923 54.0467 503.755 50.1168 503.671 47.3618C503.545 44.6068 503.461 43.0267 503.461 43.0267L503.251 47.3618C503.167 50.1168 502.999 54.0467 502.874 58.787C502.748 63.5272 502.622 69.0372 502.58 74.9523C502.58 77.9099 502.538 80.9485 502.496 84.0682C502.496 87.1878 502.496 90.3074 502.496 93.4676C502.496 96.6277 502.496 99.7879 502.496 102.867C502.496 105.987 502.538 109.025 502.58 111.983C502.664 117.898 502.748 123.408 502.874 128.148C502.999 132.888 503.167 136.818 503.251 139.573L503.461 143.909L503.671 139.573C503.755 136.818 503.923 132.888 504.048 128.148C504.174 123.408 504.3 117.898 504.342 111.983C504.342 109.025 504.384 105.987 504.426 102.867C504.426 99.7474 504.426 96.6277 504.426 93.4676C504.426 90.3074 504.426 87.1473 504.426 84.0682C504.426 80.9485 504.384 77.9099 504.342 74.9523Z" fill="#6989CF"/>
</g>
<defs>
<clipPath id="clip0_419_916">
<rect width="539" height="170" fill="white"/>
</clipPath>
</defs>
</svg>
