<svg width="31" height="31" viewBox="0 0 31 31" fill="none" xmlns="http://www.w3.org/2000/svg">
<path d="M22.08 2.81055H8.92001C8.54605 2.81055 8.18742 2.9591 7.92299 3.22353C7.65856 3.48795 7.51001 3.84659 7.51001 4.22055V9.5433C7.51167 9.84811 7.61046 10.1445 7.79201 10.3893L10.236 13.6558C10.2963 13.7375 10.3292 13.8362 10.33 13.9378V26.7805C10.33 27.1545 10.4786 27.5131 10.743 27.7776C11.0074 28.042 11.3661 28.1905 11.74 28.1905H19.26C19.634 28.1905 19.9926 28.042 20.257 27.7776C20.5215 27.5131 20.67 27.1545 20.67 26.7805V13.9378C20.6708 13.8362 20.7037 13.7375 20.764 13.6558L23.208 10.3893C23.3896 10.1445 23.4883 9.84811 23.49 9.5433V4.22055C23.49 3.84659 23.3415 3.48795 23.077 3.22353C22.8126 2.9591 22.454 2.81055 22.08 2.81055ZM8.92001 3.75055H22.08C22.2047 3.75055 22.3242 3.80006 22.4124 3.88821C22.5005 3.97635 22.55 4.0959 22.55 4.22055V7.51055H8.45001V4.22055C8.45001 4.0959 8.49953 3.97635 8.58767 3.88821C8.67581 3.80006 8.79536 3.75055 8.92001 3.75055ZM22.456 9.8253L20.012 13.0918C19.8305 13.3366 19.7317 13.633 19.73 13.9378V26.7805C19.73 26.9052 19.6805 27.0247 19.5924 27.1129C19.5042 27.201 19.3847 27.2505 19.26 27.2505H11.74C11.6154 27.2505 11.4958 27.201 11.4077 27.1129C11.3195 27.0247 11.27 26.9052 11.27 26.7805V13.9378C11.2683 13.633 11.1696 13.3366 10.988 13.0918L8.54401 9.8253C8.48373 9.74356 8.45083 9.64486 8.45001 9.5433V8.45055H22.55V9.5433C22.5492 9.64486 22.5163 9.74356 22.456 9.8253ZM15.97 14.5605V18.3205C15.97 18.4452 15.9205 18.5647 15.8324 18.6529C15.7442 18.741 15.6247 18.7905 15.5 18.7905C15.3754 18.7905 15.2558 18.741 15.1677 18.6529C15.0795 18.5647 15.03 18.4452 15.03 18.3205V14.5605C15.03 14.4359 15.0795 14.3163 15.1677 14.2282C15.2558 14.1401 15.3754 14.0905 15.5 14.0905C15.6247 14.0905 15.7442 14.1401 15.8324 14.2282C15.9205 14.3163 15.97 14.4359 15.97 14.5605Z" fill="white" stroke="white" stroke-width="0.4"/>
</svg>
