<svg width="200" height="276" viewBox="0 0 200 276" fill="none" xmlns="http://www.w3.org/2000/svg">
<path d="M199.152 105.857C198.727 104.786 198.303 103.929 198.091 103.071C196.607 99.6429 195.758 96.6429 195.758 93.0001C195.546 89.1429 195.122 85.2858 194.062 81.0001C193.425 79.0715 192.577 76.9286 191.092 75.0001C190.244 73.7144 188.971 72.6429 187.699 71.7858C187.911 70.9286 187.911 70.2858 187.911 69.4286C187.911 67.9286 187.911 66.2144 187.487 64.7144C186.85 61.7144 185.366 58.7144 183.245 56.5715C182.821 55.9286 182.185 55.5001 181.548 55.0715L180.276 53.7858C180.064 53.5715 179.852 53.3572 179.639 53.1429L179.003 52.5001C178.579 52.0715 178.367 51.6429 177.943 51.2144C177.306 50.3572 176.67 49.5001 176.034 48.4286C175.398 47.3572 174.973 46.2858 174.337 45.0001C173.701 43.7144 172.853 42.2144 171.792 41.1429C170.732 39.8572 169.459 38.7858 168.399 37.9286L166.702 36.8572C166.278 36.6429 165.854 36.2144 165.429 35.7858C164.581 35.1429 163.945 34.2858 163.309 33.4286C161.824 31.7144 160.764 29.3572 158.855 27.0001C158.006 25.9286 156.946 24.6429 155.461 23.5715C154.401 22.7144 153.128 22.0715 151.856 21.6429C151.432 21.2144 151.007 20.7858 150.583 20.3572C149.947 19.7144 149.311 19.0715 148.674 18.6429C147.402 17.5715 146.129 16.5001 144.645 15.4286C141.888 13.2858 138.918 11.3572 135.101 10.2858L134.252 10.0715L133.616 9.85721C133.192 9.85721 132.768 9.64293 132.344 9.64293L131.071 9.42864L129.799 9.21436C128.102 9.00007 126.405 8.78578 124.708 8.78578C123.012 8.78578 121.315 8.78578 119.618 8.78578C118.77 8.78578 117.922 8.78578 117.073 8.78578C116.649 8.78578 116.013 8.78578 115.589 8.78578C115.589 9.00007 115.164 8.5715 114.528 8.14293C113.68 7.71436 112.831 7.0715 111.771 6.64293C109.862 5.5715 108.165 4.71436 106.257 4.0715C105.196 3.64293 104.348 3.21436 103.287 3.00007C102.227 2.5715 101.379 2.35721 100.318 1.92864C99.2577 1.50007 98.4093 1.28578 97.3489 1.0715C96.2884 0.857213 95.228 0.642927 94.3796 0.428641L92.895 0.214355H92.4708H92.2588H92.0467H91.4104H89.9258H88.2291C87.1686 0.214355 86.1082 0.214355 85.0477 0.428641C83.9873 0.642927 82.9268 0.642927 81.8664 0.857213C81.4422 0.857213 80.8059 1.0715 80.3818 1.28578C79.9576 1.50007 79.3213 1.50007 78.8971 1.71436C77.8367 1.92864 76.9883 2.35721 75.9279 2.78578C74.8674 3.21436 74.0191 3.64293 73.1707 4.28578C72.5345 4.71436 71.6861 5.14293 71.0498 5.5715C70.4136 5.35721 69.5652 5.35721 68.929 5.14293C67.8685 4.92864 67.0202 4.71436 65.9597 4.71436C64.0509 4.50007 62.1421 4.28578 60.0212 4.0715C58.9608 4.0715 58.1124 4.0715 57.052 4.0715C55.9915 4.0715 55.1432 4.0715 54.0827 4.0715C53.0223 4.0715 52.1739 4.28578 51.1135 4.28578C50.2651 4.28578 49.8409 4.28578 49.4168 4.28578L48.5684 4.50007C48.3563 4.50007 48.3563 4.50007 48.1442 4.50007H47.72C47.2959 4.50007 46.6596 4.71436 46.2354 4.92864C45.8112 5.14293 45.175 5.35721 44.7508 5.5715C43.9024 6.00007 42.842 6.64293 41.9936 7.28578C40.2969 8.5715 38.8123 9.85721 37.5398 11.3572C36.2672 12.8572 34.9947 14.5715 33.9343 16.0715C33.298 16.9286 32.8738 17.7858 32.4496 18.6429C32.0255 19.2858 31.6013 19.9286 31.3892 20.7858C29.9046 20.7858 28.632 21.2144 27.3595 21.6429C25.8749 22.0715 24.3902 22.7144 23.1177 23.7858C20.3606 25.5001 18.2397 28.0715 16.9671 31.0715C16.3309 32.5715 15.6946 34.0715 15.2704 35.5715C15.0583 36.4286 14.8462 37.0715 14.8462 37.7144C14.6341 38.3572 14.4221 39.0001 14.21 39.6429C13.7858 40.9286 13.3616 42.2144 12.7253 43.2858C12.3012 43.7144 12.0891 44.1429 11.4528 44.7858C11.0286 45.2144 10.3924 45.6429 9.7561 46.5001C8.48356 47.7858 7.8473 49.5001 7.42312 51.0001C6.99894 52.5001 6.78685 54.0001 6.57476 55.5001C6.15058 58.5001 5.93849 61.5001 5.72641 64.5001C5.72641 66.0001 5.51432 67.5001 5.51432 69.0001V71.1429C5.51432 71.7858 5.51432 72.4286 5.30223 73.0715C4.87805 75.6429 3.8176 78.6429 2.96925 81.4286C2.12089 84.2144 1.27253 87.2144 0.848356 90.2144C0.636267 91.5001 0.424178 92.7858 0.212089 93.8572C0.212089 94.2858 0 94.9286 0 95.3572C0 97.2858 0 98.7858 0 100.286C0 100.5 0 100.714 0 100.714C0 103.5 0.636267 106.071 1.06045 108.643C1.69671 111.643 2.75716 114.429 3.60551 117.214C4.02969 118.714 4.24178 120 4.24178 121.071C4.24178 122.357 3.8176 123.643 3.39343 125.143C2.96925 126.643 2.54507 127.929 2.12089 129.429C1.69671 130.929 1.06045 132.214 0.848356 133.929C0.636267 134.786 0.636267 135.643 0.848356 136.5C1.06045 137.357 1.27253 138.214 1.69671 138.857C2.33298 140.357 3.18134 141.643 4.02969 142.929C5.51432 145.286 7.42312 147.429 9.54401 149.143C9.33192 149.571 9.33192 149.786 9.11983 150.214V150.429C8.90774 151.071 8.90774 151.714 8.69565 152.571C8.48356 154.071 8.48356 155.357 8.90774 156.857C9.33192 158.357 9.96819 159.857 11.0286 160.929L11.6649 161.571L12.3012 162.214C12.7253 162.643 12.9374 163.072 13.3616 163.5C13.9979 164.357 14.21 165.429 14.21 166.286C14.21 167.143 13.9979 168.214 13.3616 169.286C13.1495 169.714 12.9374 170.357 12.5133 170.786L11.4528 172.5C10.8165 173.786 10.1803 174.857 9.54401 176.357C9.11983 177.857 8.69565 179.571 8.90774 181.071C9.11983 182.786 9.54401 184.071 9.96819 185.357C10.3924 186.643 10.8165 187.714 11.0286 189C11.2407 190.286 11.6649 191.357 11.877 192.643C12.5133 195.214 13.1495 197.786 13.7858 200.357C14.6341 202.929 15.4825 205.5 17.6034 208.071C17.8155 208.286 18.2397 208.714 18.4518 208.929L19.088 209.572V209.786L19.5122 210C20.1485 210.643 20.7847 210.857 21.6331 211.286C22.9056 211.929 24.3902 212.357 25.2386 212.786C26.299 213.214 26.5111 213.643 26.9353 214.071C27.3595 214.714 27.5716 215.786 27.7837 216.857C27.7837 217.286 27.9958 217.929 27.9958 218.571V219.429V220.286C27.9958 221.572 27.9958 222.643 27.7837 223.929C27.5716 226.5 27.1474 229.072 27.1474 232.072C27.1474 235.072 28.2078 238.286 29.9046 240.857C30.7529 242.143 31.6013 243.214 32.6617 244.286C33.5101 245.143 34.5705 246.214 35.4189 247.072C36.4793 247.929 37.5398 249 38.8123 249.857C40.0848 250.714 41.3574 251.357 42.842 252C44.3266 252.429 45.5992 252.857 46.8717 253.071L48.7805 253.5L50.4772 253.929C50.6893 253.929 51.1135 254.143 51.3256 254.143C51.5376 254.143 51.7497 254.357 51.7497 254.357C52.1739 254.571 52.386 254.786 52.5981 255C53.0223 255.429 53.4464 256.071 53.8706 257.143C54.2948 258.214 54.5069 259.5 55.1432 261C55.7794 262.5 56.6278 264 57.9003 265.286C58.5366 265.929 59.1729 266.357 60.0212 267L60.6575 267.214H60.8696L61.0817 267.429H61.2937L61.5058 267.857L62.1421 268.071C63.6267 268.714 65.5355 268.929 67.0202 268.929C68.7169 268.929 69.9894 268.714 71.0498 268.5C72.3224 268.286 73.1707 268.286 74.0191 268.5C75.9279 268.714 77.6246 269.786 79.5334 271.071L80.3818 271.714C80.5939 271.929 80.8059 272.143 81.2301 272.357C81.8664 272.786 82.5027 273.214 83.1389 273.643C84.4115 274.5 85.8961 275.143 87.5928 275.357C89.2895 275.786 90.9862 275.786 92.6829 275.357C94.3796 275.143 95.8643 274.5 97.1368 273.857C98.4093 273.214 99.6819 272.571 100.742 271.929C101.379 271.714 101.803 271.286 102.227 271.071C102.651 270.857 103.287 270.429 103.712 270.429C104.984 269.786 106.893 270 109.438 270.429C110.71 270.643 111.983 270.857 113.892 271.071C114.74 271.071 115.801 271.071 116.861 270.643C117.922 270.214 118.982 269.571 119.83 268.929C120.255 268.5 120.467 268.071 120.891 267.643L121.527 266.786L121.739 266.357L121.951 266.143C122.163 265.929 122.163 265.929 122.375 265.714C123.012 265.071 123.648 264.429 124.708 264C126.617 262.929 128.95 262.286 131.495 261.214C131.919 261 132.344 260.786 132.768 260.571C133.616 260.357 134.252 259.929 135.101 259.714C136.373 259.071 137.434 258.643 138.918 257.786C141.676 256.286 143.584 254.143 145.493 252.214C147.402 250.071 148.887 247.929 150.371 245.571C151.644 243.643 152.704 241.714 153.765 239.572C154.401 239.357 154.825 239.143 155.461 238.929C156.31 238.5 157.158 238.072 158.218 237.429C159.915 236.357 161.612 235.286 163.309 234.214C166.49 231.857 169.671 229.072 172.004 225.643C172.641 224.786 173.277 223.929 173.701 223.071C174.337 222.214 174.761 221.357 175.186 220.5C175.61 219.643 176.034 218.786 176.458 218.143L177.943 215.786C179.003 214.071 179.852 212.572 180.912 210.643C181.336 209.786 181.76 208.5 182.185 207.429C182.397 206.143 182.609 205.071 182.609 203.786C182.609 202.5 182.609 201.429 182.397 200.357C182.397 199.714 182.185 199.286 182.185 198.857L181.972 198V197.357L181.76 196.714C181.76 196.5 181.76 196.286 181.76 196.071L181.548 195C181.548 194.143 181.548 193.286 181.548 192.429C181.548 190.714 181.76 189 181.972 187.286C182.185 185.571 182.609 183.857 183.033 181.929C183.881 178.5 185.154 174.857 186.638 171.643C186.85 171 187.487 169.929 187.699 169.071C188.123 168.214 188.547 167.572 188.971 166.714L191.729 161.786C193.637 158.357 195.334 154.5 196.394 150.643C197.031 148.714 197.243 146.786 197.667 144.643C197.879 143.571 197.879 142.714 198.091 141.643C198.091 140.571 198.303 139.714 198.303 138.643C198.727 134.786 198.727 130.929 198.94 127.071C199.152 123.214 199.152 119.357 199.576 115.929C199.788 114.214 200.424 112.5 200.212 109.714C199.788 108 199.576 106.929 199.152 105.857ZM34.7826 237.857C33.5101 236.143 32.8738 234.214 32.8738 232.072C32.6617 229.929 33.0859 227.357 33.298 224.786C33.298 223.929 33.5101 223.286 33.5101 222.429C33.7222 222.857 33.9343 223.286 34.3584 223.714C34.7826 224.357 35.2068 225 35.8431 225.429C36.2672 226.071 36.9035 226.5 37.3277 226.929C38.3881 227.786 39.4486 228.429 40.509 228.857C41.5695 229.286 42.4178 229.5 43.0541 229.714C43.6904 229.929 44.1145 229.929 44.1145 229.929C44.1145 229.929 43.2662 228.857 41.7816 227.357C41.1453 226.5 40.2969 225.643 39.4486 224.786C39.0244 224.357 38.6002 223.714 38.3881 223.286C37.9639 222.857 37.5398 222.214 37.3277 221.786C36.9035 221.357 36.6914 220.714 36.2672 220.071C35.8431 219.429 35.631 219 35.2068 218.357C34.9947 217.714 34.5705 217.286 34.3584 216.857C34.1463 216.429 33.7222 215.786 33.5101 215.357C33.298 214.929 33.0859 214.714 33.0859 214.5C32.8738 213.643 32.4496 212.572 31.8134 211.714C31.3892 210.857 30.7529 210.214 29.9046 209.572C29.0562 208.929 28.4199 208.5 27.5716 208.286C26.087 207.643 25.0265 207.429 24.1782 207C23.754 206.786 23.3298 206.572 22.9056 206.357L22.4814 206.143H22.2694C22.0573 205.929 22.0573 205.929 21.8452 205.714C20.5726 204.214 19.7243 202.071 18.8759 199.714C18.0276 197.357 17.3913 195 16.9671 192.429C16.755 191.143 16.3309 189.857 15.9067 188.571C15.4825 186.643 14.8462 185.357 14.6341 184.286C14.21 183 13.7858 181.929 13.7858 181.071C13.5737 180.214 13.7858 179.143 13.9979 178.286C14.4221 177.214 14.8462 176.143 15.4825 175.071L16.3309 173.357C16.755 172.714 16.9671 172.071 17.1792 171.429C17.6034 170.143 18.0276 168.429 18.0276 166.714C18.0276 165 17.1792 163.5 16.3309 162.214C15.9067 161.571 15.4825 161.143 15.0583 160.5L14.4221 159.643L13.7858 159C13.5737 158.786 13.3616 158.786 13.3616 158.571V158.357C13.3616 157.929 13.1495 157.5 12.9374 157.072C12.7253 156.643 12.7253 156.214 12.7253 155.786C12.7253 155.357 12.7253 154.714 12.5133 154.286C12.5133 153.857 12.5133 153.214 12.5133 152.786C12.5133 152.357 12.5133 151.714 12.7253 151.286C12.7253 150.857 12.9374 150.214 12.9374 149.786C13.1495 148.929 13.3616 147.857 13.5737 147.214C13.7858 146.357 13.9979 145.714 14.21 145.286C14.4221 144.857 14.4221 144.429 14.4221 144.429C14.4221 144.429 14.21 144.429 13.5737 144.857C13.1495 145.071 12.5133 145.5 11.6649 146.143C11.2407 146.571 10.8165 147 10.6045 147.643C8.90774 145.929 7.42312 144 6.15058 142.072C5.51432 141 4.87805 139.714 4.24178 138.643C4.24178 138.214 4.24178 138 4.24178 137.571C4.24178 136.929 4.24178 136.5 4.45387 135.857C4.45387 135.214 4.66596 134.571 4.87805 133.929C5.09014 133.286 5.30223 132.429 5.51432 131.786C5.72641 131.143 5.93849 130.286 6.15058 129.643C6.36267 129 6.57476 128.143 6.78685 127.5C6.99894 126.857 7.21103 126 7.42312 125.357C7.8473 124.071 8.27147 122.571 8.48356 121.5C9.11983 119.143 9.54401 117.643 9.54401 117.643C9.54401 117.643 8.48356 118.286 7.21103 119.786C6.99894 118.714 6.78685 117.643 6.57476 116.572C5.72641 113.572 4.87805 110.786 4.24178 108C3.60551 105.214 3.18134 102.429 3.18134 99.4286C3.18134 97.9286 3.39343 96.4286 3.39343 94.7144C3.60551 93.6429 3.8176 92.7858 4.24178 91.7144C4.66596 90.4286 5.30223 89.1429 5.93849 87.8572C6.57476 86.5715 7.42312 85.5001 8.27147 84.4286C9.96819 82.2858 11.877 80.5715 13.5737 79.2858C15.2704 78.0001 16.9671 77.1429 18.0276 76.5001C18.6638 76.2858 19.088 76.0715 19.5122 75.8572C19.9364 75.6429 19.9364 75.6429 19.9364 75.6429C19.9364 75.6429 19.7243 75.6429 19.3001 75.6429C18.8759 75.6429 18.4517 75.6429 17.8155 75.8572C16.5429 76.0715 14.6341 76.5001 12.5133 77.5715C10.3924 78.6429 8.27147 80.1429 6.15058 82.2858C6.15058 82.2858 6.15058 82.2858 6.15058 82.0715C6.99894 79.2858 7.8473 76.5001 8.48356 73.2858C8.69565 72.4286 8.69565 71.5715 8.69565 70.7144V68.3572C8.69565 66.8572 8.69565 65.5715 8.90774 64.0715C9.11983 61.2858 9.33192 58.2858 9.7561 55.2858C9.96819 54.8572 10.1803 53.5715 10.6045 52.2858C11.0286 51.6429 11.4528 51.0001 11.877 50.3572C12.3012 49.7144 12.9374 49.0715 13.5737 48.4286C14.21 48.0001 14.8462 47.5715 15.4825 47.1429C16.1188 46.5001 16.9671 46.0715 17.6034 45.6429C18.4518 45.2144 19.088 44.7858 19.9364 44.3572C21.421 43.7144 22.9056 43.0715 24.1782 42.4286C25.4507 41.7858 26.5111 41.3572 27.3595 40.9286C28.2078 40.5001 28.632 40.2858 28.632 40.2858C28.632 40.2858 28.2078 40.2858 27.3595 40.2858C26.5111 40.2858 25.2386 40.2858 23.754 40.5001C22.2694 40.7144 20.5726 40.9286 18.8759 41.5715C18.0276 41.7858 17.1792 42.2144 16.5429 42.4286C16.755 41.7858 16.9671 41.1429 17.1792 40.2858C17.3913 39.6429 17.6034 38.7858 17.8155 37.9286L18.2397 35.7858C18.4518 34.5001 18.8759 33.2144 19.5122 31.9286C20.5726 29.3572 22.2694 27.2144 24.6023 25.7144C24.6023 25.7144 24.8144 25.7144 24.8144 25.5001C25.2386 25.2858 25.8749 25.2858 26.299 25.0715C26.9353 24.8572 27.5716 24.8572 28.4199 24.6429C29.0562 24.4286 29.9046 24.4286 30.5408 24.4286C31.1771 24.4286 32.0255 24.2144 32.6617 24.2144C33.298 24.2144 34.1463 24.2144 34.7826 24.2144C35.4189 24.2144 36.0551 24.2144 36.6914 24.4286C37.3277 24.4286 37.9639 24.4286 38.3881 24.6429C39.0244 24.6429 39.4486 24.8572 39.8727 24.8572C40.2969 24.8572 40.7211 25.0715 41.1453 25.0715C41.7815 25.2858 42.2057 25.2858 42.2057 25.2858C42.2057 25.2858 41.9936 25.0715 41.3574 24.4286C41.1453 24.2144 40.7211 24.0001 40.2969 23.5715C39.8727 23.3572 39.4486 22.9286 38.8123 22.7144C38.176 22.5001 37.7519 22.0715 36.9035 21.8572C36.2672 21.6429 35.4189 21.4286 34.7826 21.2144C34.3584 21.2144 33.9343 21.0001 33.298 21.0001C33.5101 20.3572 33.9343 19.9286 34.1463 19.2858C34.9947 19.2858 35.4189 18.4286 36.0551 17.5715C37.1156 16.0715 38.3881 14.5715 39.6607 13.0715C40.9332 11.7858 42.4178 10.5001 43.9024 9.42864C44.7508 9.00007 45.3871 8.5715 46.2354 8.14293C46.6596 7.92864 47.0838 7.71436 47.508 7.71436C47.9321 7.50007 48.3563 7.50007 48.7805 7.28578H49.2047H49.4168H50.053C50.4772 7.28578 50.9014 7.0715 51.3256 7.0715C52.1739 7.0715 53.2344 6.85721 54.0827 6.85721C54.719 6.85721 55.1432 6.85721 55.7794 6.85721C55.9915 6.85721 55.9915 6.85721 56.2036 7.0715C57.052 7.28578 58.3245 7.71436 59.8091 7.92864C60.6575 8.14293 61.2937 8.35721 62.1421 8.5715C62.9905 8.78578 63.8388 9.00007 64.8993 9.21436C65.7476 9.42864 66.8081 9.85721 67.6564 10.0715C68.5048 10.2858 69.5652 10.7144 70.4136 11.1429C71.2619 11.5715 72.1103 12.0001 72.9586 12.4286C73.807 12.8572 74.6554 13.5001 75.2916 13.9286C76.7762 15.0001 77.8367 16.2858 78.8971 17.3572C79.7455 18.4286 80.3818 19.7144 80.8059 20.5715C81.018 21.0001 81.2301 21.4286 81.2301 21.6429C81.2301 21.8572 81.4422 22.0715 81.4422 22.0715C81.4422 22.0715 81.4422 21.8572 81.4422 21.6429C81.4422 21.4286 81.4422 21.0001 81.4422 20.5715C81.4422 19.7144 81.2301 18.2144 80.5939 16.7144C79.9576 15.2144 78.8971 13.5001 77.2004 12.0001C76.3521 11.3572 75.5037 10.5001 74.6554 9.85721C74.0191 9.42864 73.1707 9.00007 72.3224 8.5715C72.9586 8.14293 73.807 7.71436 74.4433 7.28578C75.2916 6.85721 76.14 6.42864 76.9883 6.21436C77.8367 6.00007 78.6851 5.5715 79.5334 5.35721C79.9576 5.14293 80.3818 5.14293 80.8059 5.14293C81.2301 5.14293 81.6543 4.92864 82.0785 4.92864C82.9268 4.71436 83.7752 4.71436 84.6235 4.71436H84.8356C85.684 4.92864 86.3203 5.35721 87.1686 5.78578C88.017 6.21436 88.6532 6.85721 89.2895 7.50007C89.9258 8.14293 90.562 9.00007 91.1983 9.85721C91.8346 10.7144 92.4708 11.7858 93.3192 12.8572C94.1676 13.9286 95.0159 14.7858 95.6522 15.6429C96.5005 16.5001 97.3489 17.3572 98.1972 18.0001C99.894 19.5001 101.803 20.7858 103.287 21.6429C104.772 22.5001 106.257 23.1429 107.317 23.5715C108.378 24.0001 108.802 24.2144 108.802 24.2144C108.802 24.2144 109.014 23.5715 108.165 22.9286C107.529 22.2858 106.469 21.2144 105.196 19.9286C103.924 18.6429 102.439 17.1429 101.166 15.6429C100.318 14.7858 99.6819 13.9286 99.0456 13.0715C98.4093 12.2144 97.561 11.3572 96.9247 10.5001C96.2884 9.64293 95.4401 8.5715 94.8038 7.71436C94.1676 6.85721 93.3192 6.00007 92.4708 5.35721H93.3192C94.1676 5.5715 95.228 5.78578 96.0764 6.00007C96.9247 6.21436 97.7731 6.64293 98.8335 6.85721C99.6819 7.0715 100.53 7.50007 101.379 7.92864C101.803 8.14293 102.227 8.35721 102.651 8.5715C103.499 9.21436 104.348 9.85721 105.62 10.7144C106.257 11.3572 107.105 11.7858 107.953 12.4286C108.802 13.0715 109.65 13.7144 110.498 14.3572C111.347 15.0001 112.195 15.8572 113.256 16.5001C114.104 17.1429 115.164 18.0001 116.013 18.6429C116.861 19.2858 117.922 20.1429 118.77 20.7858C119.618 21.4286 120.679 22.2858 121.527 22.9286C123.436 24.2144 125.133 25.5001 126.829 26.1429C127.678 26.5715 128.526 26.7858 129.162 27.2144C129.799 27.4286 130.435 27.6429 131.071 27.6429C132.131 27.8572 132.768 27.8572 132.768 27.8572C132.768 27.8572 132.344 27.4286 131.283 27.0001C130.859 26.7858 130.223 26.3572 129.799 25.9286C129.162 25.5001 128.526 25.0715 127.89 24.4286C126.617 23.3572 124.92 21.8572 123.224 20.5715C122.375 19.9286 121.527 19.0715 120.679 18.2144C119.83 17.3572 118.77 16.7144 117.922 15.8572C117.709 15.6429 117.497 15.4286 117.285 15.4286C117.497 15.4286 117.709 15.4286 118.134 15.4286C118.982 15.4286 119.618 15.4286 120.467 15.4286C121.951 15.4286 123.648 15.4286 125.133 15.6429C126.617 15.6429 128.102 15.8572 129.586 16.0715L130.647 16.2858L131.495 16.5001C131.707 16.5001 132.344 16.7144 132.556 16.7144L133.192 16.9286H133.616C136.161 17.7858 138.706 19.2858 141.039 21.2144C141.251 21.4286 141.463 21.6429 141.676 21.6429C141.251 21.4286 141.039 21.4286 140.615 21.4286C139.979 21.2144 139.13 21.0001 138.494 21.0001C137.222 20.7858 136.161 20.7858 135.313 20.7858C134.464 20.7858 134.04 20.7858 134.04 20.7858C134.04 20.7858 134.464 21.0001 135.101 21.4286C135.737 21.8572 136.797 22.2858 137.858 22.9286C138.494 23.1429 138.918 23.5715 139.555 23.7858C140.191 24.2144 140.827 24.4286 141.463 24.8572C142.1 25.2858 142.736 25.7144 143.584 25.9286C144.221 26.3572 145.069 26.7858 145.705 27.2144C146.341 27.6429 147.19 28.0715 147.826 28.5001C148.462 28.9286 149.311 29.3572 149.947 29.5715C150.795 30.0001 151.856 30.4286 152.704 30.8572C152.916 31.0715 153.34 31.5001 153.553 31.7144C155.037 33.4286 156.31 35.7858 158.006 37.9286C158.643 38.5715 159.067 39.2144 159.703 39.8572C162.672 43.7144 163.521 46.7144 163.733 49.9286C163.097 49.2858 162.248 48.4286 161.612 47.7858C160.764 47.1429 159.915 46.5001 159.067 45.8572C158.218 45.2144 157.158 44.7858 156.522 44.1429C155.673 43.7144 154.825 43.0715 154.189 42.4286C153.34 41.7858 152.704 41.1429 151.856 40.5001C151.22 39.8572 150.371 39.2144 149.735 38.5715C149.099 37.9286 148.25 37.5001 147.614 37.0715C146.341 36.2144 145.069 35.5715 144.221 35.1429C143.372 34.7144 142.736 34.7144 142.736 34.7144C142.736 34.7144 143.16 35.1429 143.796 35.7858C144.433 36.4286 145.281 37.5001 146.341 38.5715C146.766 39.2144 147.402 39.8572 148.038 40.5001C148.674 41.1429 149.311 42.0001 149.947 42.6429C150.583 43.2858 151.432 44.1429 152.28 44.7858C153.128 45.4286 153.977 46.0715 155.037 46.7144C156.098 47.3572 156.946 47.7858 157.794 48.2144C158.643 48.6429 159.491 49.0715 160.339 49.7144C162.036 50.7858 163.309 51.6429 164.369 52.7144C164.369 56.1429 164.369 60.2144 165.854 66.2144C166.066 67.2858 166.49 68.3572 166.702 69.4286C165.854 68.7858 165.217 68.1429 164.369 67.5001C163.097 66.6429 161.612 65.7858 160.339 64.9286C159.067 64.2858 157.582 63.6429 156.522 63.0001C153.977 61.9286 151.856 60.8572 149.947 59.7858C148.038 58.7144 146.766 57.6429 145.705 56.7858C144.645 55.9286 144.221 55.2858 144.221 55.2858C144.221 55.2858 144.221 56.1429 144.857 57.4286C145.281 58.7144 146.341 60.4286 148.038 62.3572C149.735 64.0715 151.856 65.7858 154.189 67.5001C155.461 68.3572 156.522 69.0001 157.794 69.8572C159.067 70.7144 160.127 71.3572 161.188 72.2144C162.248 73.0715 163.309 73.9286 164.369 74.7858C165.429 75.6429 166.49 76.5001 167.338 77.5715C169.247 79.5001 170.732 81.4286 172.216 83.1429L172.428 83.3572C173.065 86.1429 173.065 89.5715 171.156 95.7858C166.49 111.214 171.368 110.572 171.368 125.143C171.368 127.5 171.156 129.643 170.944 131.786C170.52 132.214 170.308 132.857 169.883 133.5C169.247 134.786 168.823 136.286 168.187 138C167.975 138.857 167.762 139.714 167.55 140.571C167.338 141.429 167.126 142.286 166.914 143.143C166.702 144 166.49 144.857 166.278 145.5C166.066 146.357 165.854 147 165.429 147.643C165.005 148.286 164.793 148.929 164.369 149.572C163.945 150.214 163.733 150.643 163.309 151.286C162.46 152.357 161.824 153 161.188 153.429C160.551 153.857 160.127 154.071 160.127 154.071C160.127 154.071 160.551 154.072 161.4 153.857C162.248 153.643 163.309 153.214 164.581 152.357C165.217 151.929 165.854 151.5 166.278 150.857C166.49 150.643 166.702 150.429 166.702 150.214C166.49 151.286 166.49 152.357 166.278 153.214C166.066 161.357 156.734 166.071 153.553 171.429C153.553 171.214 153.553 170.786 153.34 170.571C153.34 169.929 153.128 169.286 152.916 168.643C152.492 167.357 152.068 166.5 151.644 165.857C151.22 165.214 151.007 165 151.007 165C151.007 165 151.007 165.429 151.22 166.071C151.22 166.714 151.432 167.786 151.22 168.857C151.22 169.5 151.22 169.929 151.22 170.571C151.22 171.214 151.007 171.857 151.007 172.5C151.007 173.143 150.795 173.786 150.583 174.643C150.371 175.286 150.371 176.143 150.159 176.786C149.947 177.429 149.947 178.286 149.735 178.929C149.735 179.357 149.523 179.786 149.523 180.214C148.462 181.5 147.402 182.143 146.341 182.571C145.705 183 144.857 183.214 144.008 183.643C143.16 183.857 142.312 184.286 141.676 184.5C140.827 184.714 139.979 184.929 139.13 185.143C138.282 185.143 137.434 185.357 136.585 185.357H135.949C135.737 185.357 135.525 185.357 135.313 185.357C134.889 185.357 134.464 185.357 134.252 185.357C133.616 185.143 132.768 185.143 132.131 184.929C131.707 184.929 131.495 184.714 131.283 184.714C131.071 184.714 130.647 184.5 130.435 184.5C129.799 184.286 129.374 184.286 128.95 184.071C128.102 183.857 127.678 183.643 127.678 183.643C127.678 183.643 127.89 184.071 128.526 184.714C128.738 185.143 129.162 185.357 129.586 185.786C129.799 186 130.011 186.214 130.435 186.429C130.647 186.643 131.071 186.857 131.283 187.072C131.919 187.5 132.768 187.714 133.404 188.143C133.828 188.357 134.252 188.357 134.677 188.571C134.889 188.571 135.101 188.786 135.313 188.786C135.525 188.786 135.737 188.786 135.949 188.786C136.797 189 137.858 189 138.918 188.786C139.979 188.571 141.039 188.571 141.888 188.357C142.948 188.143 143.796 187.714 144.645 187.286C145.493 186.857 146.341 186.429 147.19 185.786C147.614 185.571 147.826 185.357 148.25 184.929C148.25 185.357 148.25 186 148.25 186.429C148.25 186.857 148.25 187.286 148.25 187.714C145.705 194.786 141.676 203.786 135.949 210.429C135.101 211.5 134.464 212.357 133.828 213.214C134.04 212.571 134.04 212.143 134.252 211.5C134.464 210.643 134.464 209.571 134.677 208.929C135.101 205.714 134.889 203.357 134.889 203.357C134.889 203.357 134.04 205.5 132.768 208.5C132.556 209.357 132.132 210 131.919 210.857C131.707 211.714 131.283 212.571 130.859 213.643C130.435 214.5 130.223 215.571 129.799 216.643C129.374 217.714 128.95 218.571 128.738 219.643C128.314 220.714 127.89 221.571 127.678 222.643C127.253 223.714 126.829 224.572 126.617 225.643C125.769 227.572 125.133 229.286 124.708 230.786C124.496 231.214 124.284 231.857 124.072 232.286C121.951 234.429 118.982 236.357 114.316 238.071C111.347 239.143 108.802 240.429 106.893 241.5C106.469 241.714 106.045 241.714 105.832 241.929C104.56 242.357 103.499 242.786 102.227 243.214C100.954 243.643 99.894 244.071 98.6214 244.714C97.3489 245.143 96.2884 245.786 95.0159 246.214C93.7434 246.643 92.6829 247.286 91.6225 247.714C90.562 248.143 89.5016 248.786 88.4412 249.214C87.3807 249.643 86.5324 250.286 85.684 250.714C82.2906 252.643 79.9576 253.929 79.9576 253.929C79.9576 253.929 82.5027 253.5 86.3203 252.429C87.1686 252.214 88.2291 251.786 89.2895 251.571C90.3499 251.143 91.4104 250.929 92.6829 250.5C93.7434 250.071 95.0159 249.643 96.2884 249.214C97.3489 248.786 98.1972 248.572 99.2577 248.143C96.7126 250.714 94.3796 252.857 88.2291 254.572C76.5642 257.786 64.6872 257.786 58.9608 254.572C58.7487 253.929 58.3245 253.5 57.9003 253.071C59.1729 253.071 60.2333 253.286 61.5058 253.286C62.7784 253.286 64.263 253.071 65.5355 253.071C68.0806 252.643 70.4136 252.214 72.5345 251.357C73.5949 250.929 74.4433 250.714 75.0795 250.286C75.9279 249.857 76.5642 249.643 76.9883 249.214C78.0488 248.572 78.685 248.143 78.685 248.143C78.685 248.143 78.0488 248.357 76.7763 248.571C76.14 248.786 75.5037 248.786 74.6554 249C73.807 249.214 72.9586 249.429 71.8982 249.429C69.9894 249.857 67.6564 249.857 65.1114 250.071C63.8388 250.071 62.5663 250.071 61.2937 250.071C60.0212 250.071 58.7487 249.857 57.4761 249.857C56.2036 249.643 54.9311 249.643 53.6585 249.214C52.386 249 51.1135 248.786 50.053 248.357C48.7805 247.929 47.72 247.714 46.6596 247.286C45.5992 246.857 44.5387 246.643 43.6904 246.214C43.2662 246 42.842 245.786 42.4178 245.786C41.9936 245.571 41.5695 245.357 41.1453 245.357C40.9332 245.357 40.7211 245.143 40.509 245.143C40.2969 244.929 39.8727 244.714 39.6607 244.286C38.8123 243.429 37.9639 242.572 37.1156 241.714C36.0551 239.572 35.4189 238.714 34.7826 237.857Z" fill="#333333"/>
<path d="M85.0478 139.714C84.1994 139.071 83.139 138.857 82.0785 138.643C81.0181 138.643 79.9576 138.643 79.1093 138.857C78.2609 139.071 77.4125 139.5 76.5642 139.714C75.9279 139.929 75.2916 140.357 74.8675 140.571C74.4433 140.786 74.2312 141 74.2312 141C74.2312 141 74.4433 141 74.8675 141C75.2916 141 75.9279 140.786 76.5642 140.786C77.2004 140.571 78.0488 140.571 78.8972 140.571C79.7455 140.571 80.5939 140.357 81.6543 140.571C82.5027 140.571 83.351 140.786 84.1994 141.214C84.8357 141.643 85.684 142.071 86.1082 142.5C86.5324 142.929 86.9566 143.357 87.1686 143.786C87.3807 144.214 87.5928 144.429 87.5928 144.429C87.5928 144.429 87.5928 144.214 87.3807 143.786C87.1687 143.357 87.1687 142.714 86.7445 142.071C86.5324 141 85.8961 140.143 85.0478 139.714Z" fill="#333333"/>
<path d="M34.3585 145.072C35.2068 143.572 36.0552 141.857 36.6914 140.143C37.5398 138.429 38.1761 136.714 38.8123 135C39.0244 134.357 39.4486 133.5 39.6607 132.857C39.6607 135.214 40.0849 137.572 40.5091 139.714C41.7816 144.857 44.3266 148.5 46.2355 150.643C47.0838 151.714 47.9322 152.572 48.5684 153.214C49.2047 153.857 49.4168 154.072 49.4168 154.072C49.4168 154.072 49.2047 153.643 48.7805 153.214C48.3563 152.572 47.7201 151.714 46.8717 150.429C45.3871 148.072 43.2662 144.214 42.6299 139.286C42.2058 136.929 42.2058 134.143 42.2058 131.357C42.4179 128.572 43.0541 125.572 43.4783 122.357C43.6904 121.072 43.9025 119.786 43.9025 118.5C44.1146 118.5 44.1146 118.714 44.3267 118.714C45.175 119.143 46.0234 119.357 47.0838 119.572C47.508 119.786 48.1443 119.786 48.5684 119.786C49.2047 119.786 49.6289 120 50.2651 120C50.9014 120 51.3256 120 51.9619 120C52.5981 120 53.0223 120 53.6586 119.786C54.719 119.572 55.5674 119.357 56.4157 119.143C56.4157 119.143 56.6278 119.143 56.6278 118.929C56.6278 119.357 56.6278 119.786 56.6278 120.214C56.8399 126 56.6278 132.214 55.9916 138.429C55.7795 141.429 55.3553 144.643 54.9311 147.643C54.719 149.143 54.2948 150.643 54.2948 152.357C54.2948 153.214 54.5069 154.072 54.9311 154.929C55.3553 155.786 56.2036 156.429 56.8399 156.857C57.2641 157.072 57.6883 157.072 58.1124 157.286C62.5663 159.857 65.1114 159.857 65.1114 159.857C65.1114 159.857 55.5674 162 53.6586 165.857C51.7498 169.5 51.5377 174.857 53.8707 180.214C54.719 182.143 55.5674 182.143 57.052 180.214C58.7487 178.286 59.1729 174.214 60.2333 173.357C61.0817 172.5 64.4751 170.786 67.8685 171.857C71.0499 172.714 72.9587 172.5 75.5037 172.286C77.8367 172.072 80.1697 172.072 84.1994 174.429C83.9873 174.429 83.7752 174.643 83.5631 174.643C81.6543 175.5 79.1093 176.143 76.5642 176.786C74.0191 177.214 71.262 177.429 69.1411 177.429C67.0202 177.429 65.7476 177.214 65.7476 177.214C65.7476 177.214 67.0202 177.643 69.1411 177.857C71.262 178.286 74.0191 178.5 76.7763 178.286C79.5334 178.286 82.2906 177.857 84.4115 177.214C85.684 176.786 86.7445 176.572 87.3807 176.357C89.7137 177.857 91.4104 178.072 92.2588 178.072C93.1071 178.072 93.5313 177.857 93.5313 177.857C92.4709 177.214 91.8346 176.357 91.1983 175.714C88.8654 170.786 86.1082 163.929 83.5631 162.429C82.5027 161.786 81.2301 161.357 79.7455 161.143C81.4422 159.214 83.9873 155.572 86.1082 150.214C86.3203 150 86.3203 149.786 86.5324 149.572C86.9566 148.714 86.9566 148.286 86.9566 148.286C86.9566 148.286 86.9566 148.286 86.7445 148.5C86.5324 148.5 86.3203 148.714 85.8961 148.929C85.2598 149.143 84.1994 149.572 83.139 149.786C81.8664 150 80.5939 150 78.6851 150C76.9884 150 74.8675 149.786 72.3224 150.214C71.0499 150.429 69.7773 150.857 68.5048 151.286C67.2323 151.929 66.1718 152.572 64.8993 153.214C63.8389 153.857 62.5663 154.5 61.5059 154.929C60.4454 155.357 58.9608 155.572 58.1124 155.143C57.052 154.714 56.6278 153.643 56.6278 152.357C56.6278 151.072 57.052 149.572 57.2641 148.072C57.6883 145.072 58.1124 141.857 58.5366 138.857C59.1729 132.643 59.8092 126.214 59.8092 120.429C59.8092 117.429 60.0212 114.643 59.385 111.643C58.9608 110.143 58.5366 108.643 57.6883 107.357C57.4762 106.929 57.2641 106.929 57.052 106.5C56.8399 106.072 56.4157 105.857 56.2036 105.643C55.5674 105.214 55.1432 104.786 54.5069 104.357C52.1739 102.857 49.6289 102.643 47.508 102.643C45.3871 102.643 43.6904 102.857 42.4179 103.286C41.5695 103.5 40.9332 103.5 40.297 103.714C41.1453 100.929 42.6299 97.9287 43.4783 94.7145C43.9025 93.0002 44.3267 91.2859 44.1146 89.3573C44.1146 88.5002 43.9025 87.8573 43.9025 87.0002C46.6596 72.4287 45.5992 61.2859 53.8707 54.0002C54.719 53.3573 55.5674 52.7145 56.4157 52.0716C57.2641 51.8573 58.3245 51.643 59.1729 51.4287C59.5971 51.4287 60.2333 51.643 60.6575 51.643C62.3542 51.8573 63.8388 51.643 65.5356 51.4287C68.929 51.0002 72.3224 50.143 75.9279 50.143C77.6246 50.143 79.5334 50.143 81.2301 50.5716C82.0785 50.7859 82.9269 51.0002 83.9873 51.2145C84.4115 51.4287 84.8357 51.4287 85.2598 51.643C85.684 51.8573 86.1082 52.0716 86.5324 52.0716C87.3807 52.2859 88.2291 52.9287 89.0774 53.3573C89.5016 53.5716 89.9258 53.7859 90.35 54.0002C90.7742 54.2145 91.1983 54.4287 91.4104 54.8573C92.895 55.9287 94.1676 57.4287 95.4401 58.9287C97.9852 62.143 100.106 66.0002 103.287 69.643C106.469 73.2859 110.286 76.0716 114.528 78.2145L115.164 78.4287V79.0716C115.164 79.9287 114.952 81.0002 115.164 81.8573C115.164 83.7859 115.376 85.5002 115.801 87.2145C116.225 89.3573 117.073 91.5002 118.134 93.4287C118.558 94.5002 119.194 95.3573 119.618 96.2145C120.255 97.0716 120.891 97.9287 121.315 98.7859C123.648 101.786 125.981 104.572 128.314 106.929C131.919 111 135.313 114.214 137.858 116.786C138.07 117.857 138.282 118.929 138.706 120C138.918 121.072 139.343 122.143 139.767 123.214V123.429C139.13 124.929 138.706 126.643 138.07 128.357C136.797 131.786 135.101 135.857 132.768 139.714C132.132 140.786 131.495 141.643 130.859 142.714C130.223 143.572 129.586 144.643 128.95 145.5L127.89 146.786L127.253 147.429L126.617 148.072L125.345 149.357C124.92 149.786 124.496 150.214 124.072 150.643C122.375 152.357 120.679 153.643 118.77 154.714C118.346 154.929 117.709 155.143 117.285 155.357C117.073 155.572 116.861 155.572 116.649 155.786L116.013 156C115.589 156.214 115.164 156.214 114.74 156.429C114.528 156.429 114.316 156.429 114.104 156.429C112.619 156.643 110.923 156.643 109.226 156.429C107.317 156.429 105.62 156 103.712 155.357C101.803 154.929 100.106 154.072 98.6215 153.214C96.9247 152.357 95.6522 151.286 94.5918 150.429C93.5313 149.572 92.4709 148.714 92.0467 148.072C91.4104 147.429 91.1983 147 91.1983 147C91.1983 147 91.4104 147.429 91.8346 148.286C92.2588 149.143 92.895 150.214 93.9555 151.286C95.0159 152.357 96.2885 153.643 97.9852 154.929C98.8335 155.572 99.894 156 100.742 156.429C97.561 155.786 95.0159 154.714 93.1071 153.857C90.9863 153 89.9258 152.357 89.9258 152.357C89.9258 152.357 90.7742 153.429 92.4709 154.929C94.1676 156.429 96.9247 158.572 100.53 160.072C102.439 160.929 104.56 161.572 106.893 162C107.953 162.214 109.226 162.214 110.498 162.429C111.135 162.429 111.771 162.429 112.407 162.429H113.468C113.892 162.429 114.104 162.429 114.528 162.214C115.164 162.214 115.801 162 116.437 162C117.073 161.786 117.709 161.786 118.558 161.572L119.618 161.357C120.042 161.357 120.255 161.143 120.679 160.929C121.315 160.714 121.951 160.286 122.588 160.072C125.133 158.786 127.466 157.072 129.586 155.143C130.011 154.714 130.647 154.286 131.071 153.643L132.344 152.143L132.98 151.286L133.616 150.429C134.04 149.786 134.465 149.357 134.889 148.714C135.737 147.643 136.373 146.357 137.01 145.286C137.646 144.214 138.07 142.929 138.706 141.857C140.827 137.357 141.888 132.643 142.524 128.786C142.524 128.357 142.736 128.143 142.736 127.714C142.948 128.143 143.16 128.572 143.372 129C144.645 131.572 146.129 133.714 147.19 135C147.614 135.643 148.038 136.286 148.462 136.5C148.674 136.929 148.887 136.929 148.887 136.929C148.887 136.929 148.887 136.714 148.674 136.286C148.462 135.857 148.25 135.214 148.038 134.357C147.614 132.643 146.978 130.5 146.129 127.714C145.705 126 145.281 123.857 144.857 121.714C144.645 120.643 144.433 119.357 144.221 118.286C144.009 116.572 143.796 114.857 143.584 112.929C143.372 111 143.372 109.286 143.16 107.357C142.948 105.429 142.948 103.5 142.524 101.357C142.1 99.2145 141.463 97.2859 140.615 95.3573C139.555 93.4287 138.07 91.9287 136.797 90.8573C135.525 89.7859 134.04 88.9287 132.98 88.0716C130.647 86.5716 128.95 85.0716 127.89 83.7859C127.466 83.143 127.041 82.5002 126.829 82.0716C126.617 81.643 126.617 81.4287 126.617 81.4287C126.617 81.4287 126.617 81.643 126.617 82.0716C126.617 82.5002 126.617 83.143 127.041 84.2145C127.466 85.9287 128.95 88.2859 130.859 90.4287C132.768 92.5716 135.313 94.9287 136.373 97.5002C137.01 98.7859 137.222 100.5 137.434 102.214C137.646 103.929 137.646 105.857 137.858 107.786C137.858 109.5 138.07 111.429 138.282 113.143C136.373 110.572 134.252 107.572 131.707 104.357C129.799 101.786 127.678 98.7859 125.557 95.7859C125.133 94.9287 124.708 94.2859 124.072 93.4287C123.648 92.5716 123.224 91.9287 122.8 91.0716C122.163 89.3573 121.527 87.643 121.103 85.7145C120.891 84.2145 120.679 82.9287 120.679 81.4287C120.679 80.7859 120.679 79.9287 120.891 79.2859V78.643C120.891 78.2145 121.103 77.7859 121.103 77.3573C121.315 76.5002 121.527 75.643 121.739 74.7859C120.255 74.143 118.77 73.2859 117.285 72.643C113.68 70.7145 110.498 68.3573 107.741 65.3573C104.984 62.3573 102.863 58.5002 99.894 55.0716C98.4094 53.3573 96.7127 51.643 94.8039 50.143C94.5918 49.9287 94.1676 49.7145 93.9555 49.5002C94.8039 49.2859 95.8643 48.8573 96.5006 48.643C98.1973 47.7859 99.6819 46.9287 100.318 46.0716C100.742 45.643 100.954 45.4287 101.167 45.2145C101.379 45.0002 101.379 44.7859 101.379 44.7859C101.379 44.7859 100.742 45.0002 99.894 45.2145C98.8335 45.4287 97.561 45.643 95.8643 45.8573C94.1676 46.0716 92.2588 46.0716 90.1379 45.8573C89.0774 45.8573 88.017 45.643 86.9566 45.643C85.8961 45.4287 84.6236 45.4287 83.5631 45.2145C82.5027 45.2145 81.2302 45.0002 79.9576 45.0002C78.6851 45.0002 77.6246 45.0002 76.5642 45.0002C75.9279 45.0002 75.5037 45.0002 74.8675 45.0002C76.5642 43.9287 78.0488 42.8573 79.1093 42.2145C80.5939 40.9287 81.4422 40.2859 81.4422 40.2859C81.4422 40.2859 80.3818 40.7145 78.6851 41.3573C76.9884 42.0002 74.4433 42.8573 71.262 43.7145C68.2927 44.5716 64.6872 45.4287 60.8696 45.8573C58.9608 46.0716 56.8399 46.2859 54.719 46.7145C52.5981 47.143 50.0531 47.7859 47.9322 48.8573C46.8717 49.5002 45.8113 50.143 44.7508 51.2145C43.6904 52.0716 42.842 53.3573 42.4179 54.643C41.3574 57.0002 40.9332 59.3573 40.5091 61.0716C39.6607 64.5002 37.3277 67.5002 35.8431 70.5002C34.1464 73.5002 33.5101 76.5002 33.5101 78.4287C33.5101 79.5002 33.7222 80.143 33.9343 80.7859C34.1464 81.2145 34.1464 81.643 34.1464 81.643C34.1464 81.643 34.1464 81.4287 34.1464 80.7859C34.1464 80.3573 34.3585 79.5002 34.5706 78.643C34.9947 76.9287 36.2673 74.5716 38.3882 72.2145C38.8123 71.7859 39.2365 71.3573 39.4486 70.9287C39.2365 71.5716 39.0244 72.0002 38.8123 72.643C38.1761 74.3573 37.5398 76.2859 37.1156 78.2145C36.6914 80.143 36.2673 82.0716 35.631 83.5716C35.2068 85.2859 34.5706 86.5716 33.5101 87.8573C32.6618 89.143 31.3892 90.2145 30.1167 91.2859C28.8441 92.3573 27.3595 93.4287 26.087 94.5002C24.8145 95.5716 23.5419 96.4287 22.2694 97.0716C19.9364 98.5716 17.8155 99.2145 16.1188 99.643C15.2704 99.8573 14.6342 99.8573 14.21 99.8573C13.7858 99.8573 13.5737 99.8573 13.5737 99.8573C13.5737 99.8573 13.7858 100.072 14.21 100.072C14.6342 100.286 15.2704 100.5 16.1188 100.714C17.8155 101.143 20.5727 101.143 23.5419 100.072C25.0265 99.643 26.5112 99.0002 28.2079 98.143C29.6925 97.2859 31.3892 96.4287 32.8738 95.3573C34.5706 94.2859 36.2673 93.0002 37.5398 91.2859L37.7519 91.0716C37.7519 91.2859 37.7519 91.2859 37.7519 91.5002C37.7519 92.143 37.7519 92.7859 37.7519 93.4287C37.3277 95.3573 36.4794 97.2859 35.4189 99.0002C34.9947 99.643 34.5706 100.286 34.1464 100.714C33.7222 101.357 33.0859 101.786 32.4497 102.429C31.8134 103.072 31.1771 103.714 30.5409 104.572C29.9046 105.429 29.2683 106.5 28.8442 107.357C27.9958 109.286 27.3595 111 26.9353 112.5C26.2991 114 25.6628 115.5 24.8145 116.786C22.6936 120 20.7848 122.357 19.0881 124.286C17.3913 126.214 15.4825 127.5 14.21 128.572C13.5737 129 13.1496 129.429 12.7254 129.643C12.3012 129.857 12.0891 130.072 12.0891 130.072C12.0891 130.072 12.3012 130.072 12.7254 130.072C13.1496 130.072 13.7858 129.857 14.6342 129.643C16.1188 129.214 18.4518 128.357 20.9969 126.857C23.3298 125.357 26.087 123.214 28.2079 120.214C29.2683 118.714 30.3288 117 31.1771 115.286C32.0255 113.572 32.4497 111.857 33.298 110.357C33.5101 110.143 33.5101 109.929 33.7222 109.714C33.298 111.214 33.5101 113.357 34.1464 115.5C34.9947 118.5 36.6914 121.286 36.6914 123.857C36.6914 125.143 36.4794 126.643 35.8431 128.143C35.2068 129.643 34.5706 131.357 33.9343 133.072C33.298 134.786 32.6618 136.5 32.0255 138.214C31.3892 139.929 30.753 141.643 30.1167 143.143C28.8441 146.357 27.7837 149.357 26.9353 152.143C26.087 154.714 25.2386 157.072 24.8145 158.572C24.3903 160.072 24.1782 161.143 24.1782 161.143C24.1782 161.143 24.8145 160.5 25.8749 159.214C26.9353 157.929 28.42 156 29.9046 153.643C30.965 151.072 32.6618 148.286 34.3585 145.072ZM83.5631 168.857C78.8972 166.072 73.3829 168.857 67.8685 167.357C64.8993 166.5 63.4147 166.929 62.3542 167.357C64.6872 165 66.596 165.857 69.9894 166.072C73.807 166.072 76.7763 163.929 81.6543 167.357C82.0785 167.786 82.9269 168.214 83.5631 168.857ZM53.4465 109.714C54.0828 109.929 54.5069 110.143 54.9311 110.357C55.3553 110.786 55.5674 111.429 55.7795 112.072C55.5674 112.072 55.5674 112.072 55.3553 112.072C54.5069 112.072 53.6586 111.857 52.8102 111.857C52.386 111.857 51.9619 111.857 51.3256 111.857C50.9014 111.857 50.4772 112.072 49.841 112.072C49.4168 112.072 48.7805 112.286 48.3563 112.5C47.9322 112.714 47.508 112.714 47.0838 112.929C46.2355 113.357 45.3871 113.786 44.7508 114.214C44.3267 114.643 43.9025 115.072 43.4783 115.286C43.2662 114.214 43.0541 113.143 42.6299 112.286L41.9937 111L41.5695 110.357C41.7816 110.357 41.9937 110.143 42.2058 110.143C43.6904 109.714 45.8113 109.286 47.9322 109.072C50.0531 108.857 51.9619 109.286 53.4465 109.714ZM42.2058 106.072C43.4783 106.286 45.175 106.286 46.8717 106.5C47.0838 106.5 47.2959 106.5 47.508 106.714C45.3871 107.572 43.2662 108.643 41.9937 109.5C41.7816 109.714 41.5695 109.714 41.3574 109.929L40.5091 108.857L40.0849 108C39.6607 107.357 39.6607 106.5 39.6607 105.857C40.297 105.857 41.1453 105.857 42.2058 106.072Z" fill="#333333"/>
<path d="M127.89 65.3572C127.89 65.3572 128.526 66 129.798 67.0715C130.859 68.1429 132.556 69.6429 134.252 71.7857C134.677 72.2143 135.101 72.8572 135.525 73.2858C135.949 73.9286 136.373 74.3572 136.797 75C137.222 75.6429 137.646 76.2858 138.07 76.9286C138.494 77.5715 138.918 78.2143 139.342 79.0715C139.767 79.7143 140.191 80.5715 140.403 81.2143C140.615 81.6429 140.827 82.0715 141.039 82.2858L141.463 83.3572C142.1 84.8572 142.736 86.5715 143.16 88.2858C143.584 90 144.008 91.5 144.221 93.2143C144.433 94.9286 144.645 96.6429 144.645 98.1429C144.857 101.571 145.069 104.786 145.917 107.571C146.766 110.357 147.826 112.5 148.886 113.571C149.311 114.214 149.947 114.643 150.159 114.857C150.583 115.071 150.583 115.286 150.583 115.286C150.583 115.286 150.371 115.071 150.159 114.643C149.947 114.214 149.523 113.786 149.311 113.143C148.674 111.643 148.038 109.714 147.826 107.143C147.614 104.571 147.614 101.571 147.826 98.1429C147.826 96.4286 147.826 94.7143 147.614 92.7857C147.402 90.8572 146.978 89.1429 146.553 87.2143C145.917 85.5 145.281 83.5715 144.645 81.8572C144.433 81.4286 144.221 81 144.008 80.5715C143.796 80.1429 143.584 79.7143 143.372 79.2857C142.948 78.4286 142.524 77.7858 141.888 76.9286C141.463 76.2858 140.827 75.4286 140.403 74.7858C139.979 74.1429 139.342 73.5 138.918 72.8572C138.282 72.2143 137.858 71.7858 137.222 71.1429C136.585 70.7143 136.161 70.0715 135.525 69.6429C133.404 67.9286 131.495 66.6429 130.011 66C128.738 65.7857 127.89 65.3572 127.89 65.3572Z" fill="#333333"/>
<path d="M142.948 66.8573C143.16 67.5001 143.584 68.3573 143.796 69.0001C144.221 69.8573 144.433 70.5001 145.069 71.3573C145.493 72.2144 145.917 73.0716 146.554 73.9287C146.978 74.7859 147.614 75.643 148.038 76.2859C148.674 77.143 149.099 77.7859 149.735 78.643C150.159 79.5001 150.795 80.143 151.22 81.0001C152.28 82.5001 153.128 83.7859 153.765 85.0716C154.189 85.7144 154.401 86.3573 154.825 86.7859C155.249 87.2144 155.461 87.643 155.673 88.0716C156.098 88.7144 156.31 89.143 156.31 89.143C156.31 89.143 156.31 88.7144 156.098 87.8573C156.098 87.4287 155.885 86.7859 155.885 86.3573C155.673 85.7144 155.673 85.0716 155.461 84.4287C155.037 82.9287 154.401 81.4287 153.553 79.7144C153.128 78.8573 152.704 78.0001 152.28 77.143C151.856 76.2859 151.22 75.4287 150.795 74.5716C150.159 73.7144 149.735 73.0716 149.099 72.2144C148.462 71.3573 148.038 70.7144 147.402 69.8573C146.978 69.2144 146.341 68.3573 145.917 67.7144C145.493 67.0716 145.069 66.4287 144.645 65.7859C143.796 64.7144 143.16 63.643 142.524 63.0001C142.1 62.3573 141.676 61.9287 141.676 61.9287C141.676 61.9287 141.676 62.3573 141.888 63.2144C142.1 64.2859 142.312 65.3573 142.948 66.8573Z" fill="#333333"/>
<path d="M159.491 117.429C159.703 118.714 159.915 120 160.339 121.286C160.976 123.643 161.824 125.786 162.672 127.714C163.521 129.429 164.369 130.929 165.005 131.786C165.642 132.643 166.066 133.286 166.066 133.286C166.066 133.286 165.854 132.643 165.642 131.571C165.43 130.5 165.005 129 164.581 127.071C164.157 125.143 163.733 123 163.309 120.643C163.097 119.571 163.097 118.286 162.885 117C162.672 115.714 162.672 114.429 162.672 113.357C162.672 112.071 162.46 110.786 162.46 109.714C162.46 108.429 162.46 107.357 162.46 106.071C162.46 104.786 162.46 103.714 162.46 102.643C162.46 101.571 162.46 100.5 162.46 99.4286C162.672 95.5714 162.46 93 162.46 93C162.46 93 161.4 95.3571 160.552 99.2143C160.339 100.071 160.127 101.143 159.915 102.214C159.703 103.286 159.491 104.571 159.279 105.643C159.067 106.929 159.067 108.214 159.067 109.5C159.067 110.786 159.067 112.071 159.067 113.357C159.067 114.857 159.279 116.143 159.491 117.429Z" fill="#333333"/>
<path d="M40.9331 237C41.5693 237.643 42.4177 238.714 43.9023 239.571C44.5386 240 45.3869 240.429 46.2353 240.857C47.0837 241.286 47.932 241.5 48.9925 241.929C50.0529 242.143 51.1133 242.357 52.1738 242.357C53.2342 242.357 54.2947 242.357 55.3551 242.357C56.4156 242.143 57.476 241.929 58.5365 241.714C59.5969 241.5 60.4453 241.071 61.5057 240.429C62.7782 239.786 63.8387 238.929 64.8991 238.286C65.1112 238.071 65.3233 238.071 65.5354 237.857C66.1717 237.429 66.8079 236.786 67.4442 236.143C67.6563 235.714 68.0805 235.5 68.2926 235.071L68.5047 234.857L68.7167 234.643V234.857L68.9288 235.071C69.5651 235.929 70.2014 236.571 70.6255 237.214C71.8981 238.5 73.1706 239.571 74.4431 240.214C75.7157 240.857 76.7761 241.5 77.4124 241.714C78.2607 241.929 78.6849 242.143 78.6849 242.143C78.6849 242.143 78.4728 241.714 77.8366 241.286C77.2003 240.643 76.564 239.786 75.7157 238.929C74.8673 237.857 74.019 236.786 72.9585 235.5C72.5343 234.857 72.1102 234.214 71.686 233.571L71.2618 232.929L70.6255 231.857C70.2014 231 69.7772 230.143 69.353 229.286L68.7167 228L67.8684 229.929C67.6563 230.571 67.2321 231.214 67.02 231.857C66.8079 232.286 66.5958 232.714 66.3838 233.143L66.1717 233.357V233.571L65.9596 233.786C65.7475 234.214 65.5354 234.429 65.3233 234.857C64.8991 235.5 64.475 236.143 63.8387 236.571C63.6266 236.786 63.6266 236.786 63.4145 237C62.5662 237.429 61.5057 237.857 60.4453 238.286C59.5969 238.714 58.7486 238.714 57.9002 239.143C57.0518 239.357 56.2035 239.571 55.143 239.571C54.2947 239.786 53.2342 239.786 52.3859 239.786C51.5375 239.786 50.4771 239.786 49.6287 239.571C48.7804 239.357 47.932 239.357 47.0837 239.143C46.2353 238.929 45.599 238.714 44.7507 238.5C43.2661 238.071 42.2056 237.643 41.3573 237.214C40.9331 237 40.721 236.786 40.5089 236.786C40.2968 236.786 40.0847 236.571 40.0847 236.571C40.0847 236.571 40.0847 236.786 40.2968 236.786C40.2968 236.357 40.5089 236.571 40.9331 237Z" fill="#333333"/>
<path d="M54.2949 214.286C53.8707 213.857 53.4465 213.429 52.8103 213C52.3861 212.571 51.9619 212.143 51.5377 211.714C51.1135 211.286 50.6894 210.857 50.2652 210.214C49.841 209.786 49.4168 209.357 49.2047 208.714C48.9927 208.5 48.7806 208.286 48.5685 208.071C48.3564 207.857 48.1443 207.643 48.1443 207.429C47.7201 207 47.508 206.571 47.2959 206.143C46.6597 205.286 46.2355 204.643 45.8113 204C45.3871 203.571 45.175 203.143 45.175 203.143C45.175 203.143 45.175 203.571 45.175 204.214C45.175 204.857 45.175 205.714 45.3871 206.786C45.3871 207.429 45.5992 207.857 45.8113 208.5C45.8113 208.714 46.0234 209.143 46.0234 209.357C46.2355 209.571 46.2355 210 46.4476 210.214C46.6597 210.857 47.0839 211.5 47.508 212.143C47.9322 212.786 48.3564 213.429 48.9927 213.857C49.4168 214.5 50.0531 214.929 50.6894 215.357C51.3256 215.786 51.7498 216.214 52.3861 216.643C53.4465 217.286 54.507 217.929 55.3553 218.571C56.2037 219.214 56.84 219.643 57.4762 220.071C57.9004 220.5 58.3246 220.714 58.3246 220.714C58.3246 220.714 58.3246 220.286 58.1125 219.643C57.9004 219 57.4762 218.143 56.8399 217.286C55.9916 216 55.1432 215.143 54.2949 214.286Z" fill="#333333"/>
<path d="M38.3882 189L37.752 188.357C36.0552 186.643 34.7827 184.714 34.1464 182.786C33.5102 180.857 33.086 179.143 33.086 177.857C33.086 177.214 33.086 176.786 33.086 176.357C33.086 175.929 33.086 175.929 33.086 175.929C33.086 175.929 33.086 176.143 32.8739 176.357C32.6618 176.572 32.6618 177.214 32.4497 177.857C32.2376 179.143 32.0256 181.072 32.4497 183.214C32.8739 185.357 33.9344 187.929 35.8432 190.286L36.0552 190.714L36.2673 190.929L36.0552 191.143C35.419 191.572 34.7827 192 34.1464 192.429C32.8739 193.5 32.0256 194.786 31.1772 196.072C30.3288 197.357 29.9047 199.072 29.6926 200.572C29.4805 202.072 29.6926 203.572 30.1168 204.857C30.5409 206.143 31.1772 207.214 31.8135 208.286C33.086 210.214 34.7827 211.286 36.0552 211.714C36.6915 211.929 37.1157 212.143 37.5399 212.143C37.9641 212.143 37.9641 212.143 37.9641 212.143C37.9641 212.143 37.752 212.143 37.5399 211.929C37.3278 211.714 36.9036 211.5 36.4794 211.072C35.6311 210.214 34.3585 208.929 33.5102 207.214C33.086 206.357 32.8739 205.286 32.6618 204.214C32.4497 203.143 32.4497 202.072 32.6618 201C32.8739 199.929 33.2981 198.857 33.9344 197.786C34.5706 196.714 35.419 195.857 36.2673 195C36.6915 194.572 37.1157 194.143 37.752 193.929C37.752 193.929 37.752 193.929 37.9641 193.714L38.3882 193.5L39.4487 193.072C40.0849 192.857 40.9333 192.643 41.5696 192.429C41.9937 192.214 42.63 192 43.0542 192C41.9937 191.357 41.1454 190.714 40.0849 190.072C39.2366 189.643 38.8124 189.214 38.3882 189Z" fill="#333333"/>
<path d="M44.7507 181.286C45.1749 181.714 45.387 182.357 45.8112 182.786C46.2354 183.214 46.4475 183.643 46.8716 183.857C47.5079 184.5 48.1442 184.929 48.7804 185.357C49.2046 185.572 49.6288 185.786 49.6288 185.786C49.6288 185.786 49.2046 184.5 48.5683 182.786C48.3563 182.357 48.1442 181.929 47.9321 181.5C47.72 181.072 47.5079 180.429 47.2958 180C47.0837 179.572 46.8716 178.929 46.6595 178.5C46.4475 178.072 46.2354 177.429 46.0233 176.786C45.8112 176.143 45.5991 175.714 45.387 175.072C45.1749 174.429 44.9628 174 44.7507 173.572C44.3266 172.5 43.9024 171.643 43.4782 170.786C42.8419 169.072 42.2057 167.786 42.2057 167.786C42.2057 167.786 41.7815 169.072 41.7815 171C41.7815 172.072 41.7815 173.143 41.9936 174.429C42.2057 175.072 42.2057 175.714 42.4178 176.357C42.6298 177 42.8419 177.643 43.054 178.286C43.2661 178.929 43.6903 179.572 43.9024 180C44.1145 180.214 44.5387 180.857 44.7507 181.286Z" fill="#333333"/>
<path d="M90.5621 229.072L92.2588 230.357L92.8951 228.214L93.5314 226.286V225.857V225.643L93.7435 225.214C93.7435 225 93.9555 224.786 93.9555 224.572C94.1676 224.143 94.3797 223.5 94.5918 223.072C95.016 222.214 95.4402 221.143 95.8644 220.286C96.7127 218.572 97.7732 216.857 98.6215 215.572C99.4699 214.286 100.318 213 100.742 212.357C101.379 211.5 101.591 211.072 101.591 211.072C101.591 211.072 101.167 211.286 100.318 211.929C99.4699 212.572 98.4094 213.214 97.1369 214.5C95.8643 215.786 94.5918 217.286 93.3193 219C92.683 219.857 92.0467 220.929 91.6226 222C91.4105 222.429 91.1984 223.072 90.9863 223.5C90.7742 223.714 90.7742 224.143 90.7742 224.357L90.5621 225V225.214L90.1379 225C89.7138 224.786 89.0775 224.357 88.6533 224.143C87.5929 223.714 86.7445 223.286 85.6841 222.857C84.8357 222.429 83.7753 222.214 82.9269 222.214C81.2302 221.786 79.7456 221.786 78.8972 221.786C77.8368 221.786 77.4126 221.786 77.4126 221.786C77.4126 221.786 77.8368 222 78.8972 222.429C79.7456 222.857 81.0181 223.286 82.5027 223.929C83.139 224.357 83.9874 224.572 84.8357 225.214C85.6841 225.643 86.5324 226.072 87.3808 226.714C87.805 226.929 88.2291 227.357 88.6533 227.572L88.8654 227.786C89.0775 228 89.2896 228 89.5017 228.214C89.7138 228.429 90.1379 228.643 90.5621 229.072Z" fill="#333333"/>
<path d="M111.771 227.571C111.347 227.786 110.71 228.214 110.286 228.643C109.226 229.286 107.953 230.143 106.469 231C105.832 231.429 104.984 231.857 104.348 232.071C103.711 232.5 102.863 232.929 102.015 233.143C101.166 233.571 100.53 233.786 99.6818 234.214C98.8334 234.429 98.1972 234.857 97.3488 235.071C96.5004 235.286 95.8642 235.714 95.2279 235.929C94.5916 236.143 93.7433 236.357 93.107 236.571C92.4707 236.786 91.8345 237 91.4103 237C90.9861 237.214 90.3499 237.214 90.1378 237.429C89.2894 237.643 88.8652 237.857 88.8652 237.857C88.8652 237.857 89.2894 238.071 90.1378 238.071C90.5619 238.071 90.9861 238.286 91.6224 238.286C92.2587 238.286 92.8949 238.5 93.5312 238.5C94.1675 238.5 95.0158 238.5 95.8642 238.5C96.7125 238.5 97.5609 238.286 98.4092 238.071C99.2576 237.857 100.106 237.643 100.954 237.429C101.803 237.214 102.651 236.786 103.499 236.357C104.348 235.929 105.196 235.5 106.044 235.071C106.893 234.643 107.529 234 108.377 233.571C109.862 232.5 110.922 231.429 111.771 230.357C112.195 229.929 112.619 229.286 112.831 228.857C113.255 228.429 113.468 228 113.68 227.571C114.104 226.929 114.316 226.5 114.316 226.5C114.316 226.5 113.892 226.714 113.255 227.143C112.619 227.143 112.195 227.357 111.771 227.571Z" fill="#333333"/>
<path d="M123.436 192.643C123.224 192 123.012 191.357 123.012 190.714C122.8 190.072 122.587 189.643 122.587 189.214C122.163 188.357 121.951 187.929 121.951 187.929C121.951 187.929 121.951 188.357 121.951 189.214C121.951 189.643 121.951 190.072 121.951 190.714C121.951 191.357 121.951 192 121.739 192.643C121.739 193.929 121.527 195.643 121.315 197.143C121.103 198 121.103 198.857 120.891 199.714C120.891 200.572 120.679 201.429 120.467 202.286C120.254 203.143 120.254 204 120.042 204.857C119.83 205.714 119.618 206.572 119.406 207.429C119.194 208.286 118.982 208.929 118.77 209.786C118.558 210.429 118.346 211.286 118.134 211.929C117.921 212.572 117.709 213.214 117.497 213.643C117.285 214.286 117.285 214.714 117.073 215.143C116.861 216 116.649 216.429 116.649 216.429C116.649 216.429 117.073 216.214 117.497 215.572C117.709 215.357 118.134 214.929 118.558 214.5C118.982 214.072 119.406 213.429 119.618 213C120.042 212.357 120.467 211.714 120.679 211.072C121.103 210.429 121.315 209.572 121.739 208.714C121.951 207.857 122.375 207 122.587 206.143C122.8 205.286 123.012 204.214 123.224 203.357C123.436 202.5 123.436 201.429 123.648 200.572C123.86 199.714 123.648 198.643 123.648 197.786C123.86 195.643 123.648 193.929 123.436 192.643Z" fill="#333333"/>
<path d="M143.372 165.429C142.736 166.286 142.1 167.143 141.463 168C141.039 168.429 140.827 168.857 140.403 169.5C139.979 169.929 139.555 170.357 139.343 170.786C138.918 171.214 138.494 171.643 138.07 172.072C137.646 172.5 137.222 172.929 136.798 173.143C136.373 173.572 135.949 173.786 135.525 174C135.101 174.214 134.677 174.429 134.252 174.857C133.404 175.286 132.768 175.5 132.132 175.714C131.919 175.714 131.707 175.929 131.495 175.929C131.283 175.929 131.283 175.929 131.283 175.929C131.283 175.929 131.283 175.929 131.495 176.143C131.707 176.143 131.919 176.357 132.132 176.357C132.768 176.572 133.616 176.786 134.677 176.572C135.313 176.572 135.737 176.357 136.373 176.143C137.01 175.929 137.646 175.714 138.282 175.286C138.918 174.857 139.555 174.643 139.979 174.214C140.615 173.786 141.039 173.357 141.463 172.714C141.888 172.072 142.312 171.643 142.736 171C143.16 170.357 143.372 169.714 143.796 169.286C144.433 168 144.645 166.929 144.857 165.857C145.281 163.714 145.069 162.429 145.069 162.429C145.069 162.429 144.433 163.929 143.372 165.429Z" fill="#333333"/>
<path d="M94.1675 189.429C93.7433 190.072 93.5312 190.929 93.107 191.572C92.8949 192.429 92.4707 193.072 92.4707 193.929C92.4707 194.357 92.2587 194.572 92.2587 195C92.2587 195.429 92.2587 195.643 92.0466 196.072C91.8345 196.714 91.8345 197.357 91.8345 198C91.8345 199.286 91.8345 200.143 92.0466 201C92.2587 201.643 92.2587 202.072 92.2587 202.072C92.2587 202.072 92.4707 201.643 92.6828 201C92.8949 200.357 93.3191 199.5 93.7433 198.214C93.9554 197.572 94.1675 197.143 94.3795 196.5C94.5916 196.286 94.5916 195.857 94.8037 195.643C95.0158 195.429 95.0158 195 95.2279 194.786C95.44 194.143 95.8642 193.5 96.0763 192.857C96.2883 192.214 96.7125 191.572 97.1367 190.929C97.5609 190.286 97.773 189.643 98.1972 189C98.6213 188.357 98.8334 187.714 99.2576 187.072C99.8939 185.786 100.742 184.5 100.954 183.214C101.378 181.929 101.378 180.857 101.166 180.214C101.166 179.572 100.954 179.143 100.954 179.143C100.954 179.143 100.742 179.572 100.53 180.214C100.318 180.857 99.8939 181.714 99.2576 182.572C98.6213 183.429 97.773 184.5 96.9246 185.572C96.5004 186.214 95.8642 186.643 95.44 187.5C95.2279 187.929 94.5916 188.572 94.1675 189.429Z" fill="#333333"/>
<path d="M97.349 163.929C97.349 164.357 97.349 164.786 97.5611 165.214C97.5611 165.643 97.5611 166.071 97.7732 166.5C97.7732 166.929 97.7732 167.357 97.9853 168C97.9853 168.429 97.9852 169.071 98.1973 169.5C98.1973 169.929 98.1973 170.571 98.1973 171C98.1973 171.429 98.1973 172.071 98.1973 172.5C98.1973 173.571 98.1973 174.429 98.1973 175.071C98.1973 175.929 98.1973 176.571 98.1973 177C98.1973 177.429 98.1973 177.857 98.1973 177.857C98.1973 177.857 98.4094 177.643 98.8336 177.214C99.2578 176.786 99.682 176.143 99.894 175.5C100.318 174.643 100.742 173.786 100.954 172.714C100.954 172.071 101.167 171.643 101.167 171C101.167 170.357 101.167 169.929 101.167 169.286C101.167 168.643 100.954 168 100.954 167.571C100.954 166.929 100.742 166.5 100.53 165.857C100.318 165.429 100.106 164.786 99.894 164.357C99.682 163.929 99.4699 163.5 99.0457 163.071C98.6215 162.429 97.9852 161.786 97.5611 161.571C97.1369 161.143 96.9248 161.143 96.9248 161.143C96.9248 161.143 96.9248 161.357 96.9248 162C97.1369 162.429 97.1369 163.071 97.349 163.929Z" fill="#333333"/>
<path d="M112.195 176.143C112.195 175.5 112.407 174.643 112.407 174C112.407 173.143 112.407 172.5 112.407 171.643C112.407 170.786 112.195 170.143 112.195 169.5C111.983 168.857 111.771 168.214 111.559 167.571C110.923 166.5 110.074 165.643 109.65 165.214C109.226 165 109.014 165 108.802 165C108.59 165 108.59 165 108.59 165C108.59 165 108.802 165.429 109.226 165.857C109.438 166.5 109.862 167.357 109.862 168.214C109.862 168.643 109.862 169.286 109.862 169.929C109.862 170.571 109.862 171 109.65 171.643C109.65 172.286 109.438 172.929 109.226 173.571C109.014 174.214 109.014 175.071 108.802 175.714C108.802 176.571 108.59 177.214 108.59 178.071C108.59 178.929 108.802 179.571 108.802 180.429C109.014 181.929 109.65 183.214 110.286 184.286C110.923 185.357 111.559 186 111.983 186.643C112.407 187.071 112.831 187.286 112.831 187.286C112.831 187.286 112.831 186.857 112.619 186.214C112.407 185.571 112.195 184.714 111.983 183.643C111.771 182.571 111.771 181.286 111.559 180C111.559 179.357 111.559 178.714 111.559 178.071C112.195 177.643 112.195 177 112.195 176.143Z" fill="#333333"/>
<path d="M78.2608 203.786C78.4728 203.143 78.6849 202.286 78.897 201.643C79.1091 201 79.3212 200.143 79.7454 199.5C79.9575 198.857 80.1696 198 80.5937 197.357C81.23 195.857 81.6542 194.572 81.8663 193.286C82.2904 192 82.2904 190.929 82.2904 190.072C82.2904 189.214 82.0784 188.786 82.0784 188.786C82.0784 188.786 81.8663 189.214 81.6542 189.857C81.23 190.5 80.8058 191.357 80.1696 192.429C79.5333 193.5 78.6849 194.572 78.0487 196.072C77.6245 196.714 77.2003 197.572 76.9882 198.214C76.564 199.072 76.352 199.714 76.1399 200.572C75.9278 201.429 75.7157 202.286 75.5036 203.143C75.2915 204 75.2915 204.857 75.2915 205.714C75.2915 206.572 75.2915 207.429 75.2915 208.072C75.2915 208.714 75.5036 209.572 75.7157 210.214C75.9278 210.857 75.9278 211.5 76.1399 211.929C76.352 212.357 76.564 212.786 76.7761 213.214C76.9882 213.857 77.2003 214.286 77.2003 214.286C77.2003 214.286 77.2003 213.857 77.4124 213C77.4124 212.572 77.4124 212.143 77.4124 211.714C77.4124 211.286 77.6245 210.643 77.6245 210C77.6245 209.357 77.8366 208.714 77.8366 208.072C77.8366 207.429 78.0487 206.786 78.2608 205.929C77.8366 205.286 78.2608 204.643 78.2608 203.786Z" fill="#333333"/>
<path d="M64.263 184.5C64.263 184.5 64.0509 184.929 64.0509 185.357C63.8389 186 63.6268 186.857 63.2026 187.714C62.7784 188.571 62.3542 189.643 61.93 190.714C61.718 191.357 61.2938 191.786 61.0817 192.429C60.8696 193.071 60.4454 193.714 60.2333 194.143C60.0212 194.786 59.5971 195.429 59.385 196.071C59.1729 196.714 58.9608 197.357 58.7487 198.214C58.5366 198.857 58.5366 199.5 58.5366 200.357C58.5366 201 58.5366 201.643 58.7487 202.286C58.9608 203.357 59.1729 204.214 59.5971 204.857C59.8092 205.5 60.0212 205.714 60.0212 205.714C60.0212 205.714 60.0212 205.286 60.2333 204.643C60.2333 204 60.4454 203.143 60.6575 202.286C60.8696 201.857 60.8696 201.214 61.0817 200.786C61.2938 200.357 61.5059 199.714 61.718 199.286C61.93 198.643 62.1421 198.214 62.5663 197.571C62.7784 196.929 63.2026 196.5 63.4147 195.857C63.6268 195.214 64.0509 194.571 64.263 193.929C64.4751 193.286 64.6872 192.643 64.8993 192C65.3235 190.714 65.3235 189.429 65.3235 188.143C65.3235 187.071 65.1114 186.214 64.8993 185.571C64.4751 184.714 64.263 184.5 64.263 184.5Z" fill="#333333"/>
<path d="M134.676 155.572C135.101 155.357 135.525 154.929 135.949 154.5C136.373 154.072 136.797 153.643 137.222 153.214C137.646 152.786 138.07 152.143 138.494 151.714C138.918 151.072 139.342 150.643 139.555 150C139.767 149.357 140.191 148.714 140.403 148.072C140.615 147.429 140.827 146.786 141.039 146.143C141.463 144.857 141.463 143.572 141.675 142.714C141.675 141.643 141.675 140.786 141.463 140.143C141.463 139.5 141.251 139.286 141.251 139.286C141.251 139.286 141.039 139.5 140.827 140.143C140.615 140.572 140.191 141.429 139.767 142.286C139.342 143.143 138.918 144.214 138.282 145.286C138.07 145.714 137.646 146.357 137.434 146.786C137.222 147.429 136.797 147.857 136.585 148.5C136.373 149.143 135.949 149.572 135.737 150C135.525 150.429 135.101 151.072 134.889 151.5C134.464 151.929 134.252 152.572 134.04 153C133.828 153.429 133.404 153.857 133.192 154.286C132.768 155.143 132.131 155.786 131.919 156.429C131.707 156.857 131.495 157.286 131.495 157.286C131.495 157.286 131.919 157.286 132.343 156.857C133.192 156.643 133.828 156.214 134.676 155.572Z" fill="#333333"/>
<path d="M115.377 48.2144C114.74 47.5716 113.892 47.143 113.256 46.7144C111.771 45.8573 110.499 45.643 109.65 45.4287C109.226 45.4287 108.802 45.4287 108.59 45.4287C108.378 45.4287 108.166 45.4287 108.166 45.4287C108.166 45.4287 108.378 45.4287 108.59 45.643C108.802 45.8573 109.014 45.8573 109.438 46.0716C110.286 46.5001 111.135 47.3573 112.195 48.2144C112.619 48.643 113.256 49.2859 113.892 49.9287C114.528 50.5716 114.952 51.2144 115.589 51.8573C116.225 52.5001 116.861 53.3573 117.497 54.0001C118.134 54.643 118.982 55.5001 119.83 56.143C120.679 56.7859 121.527 57.4287 122.376 58.0716C123.224 58.7144 124.284 59.143 125.133 59.5716C127.041 60.4287 128.738 60.8573 130.223 61.2859C131.707 61.5001 133.192 61.7144 134.04 61.5001C134.889 61.5001 135.525 61.2859 135.525 61.2859C135.525 61.2859 135.101 61.0716 134.253 60.8573C133.404 60.4287 132.344 60.0001 130.859 59.3573C129.587 58.7144 128.102 57.8573 126.405 57.0001C125.557 56.5716 124.921 55.9287 124.072 55.5001C123.224 54.8573 122.588 54.4287 121.951 53.7859C121.315 53.143 120.467 52.5001 119.83 51.8573C119.194 51.2144 118.346 50.5716 117.71 49.9287C116.861 49.2859 116.013 48.643 115.377 48.2144Z" fill="#333333"/>
<path d="M57.264 30C57.4761 30.8571 57.9003 31.5 58.5365 32.3571L58.7486 32.5714C58.7486 32.7857 58.9607 32.7857 59.1728 33C59.3849 33.2143 59.597 33.6428 60.0212 33.8571L60.8695 34.7143C61.0816 34.9285 61.0816 34.7143 61.2937 34.7143L61.5058 34.2857C62.3542 33.6428 63.4146 32.7857 64.263 31.9285C64.8992 31.2857 65.5355 30.8571 66.1718 30.2143C66.808 29.5714 67.4443 28.9285 68.0806 28.5C69.3531 27.4285 70.4135 26.1428 71.2619 25.2857C72.9586 23.3571 74.0191 21.6428 74.0191 21.6428C74.0191 21.6428 72.3223 22.2857 69.9894 23.7857C68.9289 24.4285 67.4443 25.2857 66.1718 26.3571C65.5355 26.7857 64.8992 27.4285 64.0509 27.8571C63.4146 28.5 62.7783 28.9285 61.93 29.5714L60.8695 30.4285L60.6574 30.6428L60.4453 30.4285C60.0212 29.7857 59.597 29.3571 59.1728 28.7143C58.7486 28.0714 58.5365 27.6428 58.1124 27C57.4761 25.9285 57.264 24.8571 56.8398 24.2143C56.6277 23.7857 56.6277 23.5714 56.6277 23.3571C56.6277 23.1428 56.6277 23.1428 56.6277 23.1428V23.3571C56.6277 23.5714 56.4157 23.7857 56.4157 24.2143C56.2036 25.0714 56.2036 26.1428 56.4157 27.6428C56.6277 28.2857 56.8398 29.1428 57.264 30Z" fill="#333333"/>
<path d="M27.5715 49.0716C28.2077 48.643 28.6319 48.2144 29.2682 47.7858C29.9045 47.3573 30.5407 47.143 31.3891 46.7144C32.2374 46.2858 32.8737 46.0716 33.7221 45.8573C34.5704 45.643 35.4188 45.2144 36.2671 45.0001C37.1155 44.7858 37.9638 44.3573 39.0243 44.143C39.8726 43.9287 40.721 43.5001 41.5694 43.0716C43.2661 42.4287 44.7507 41.7858 46.0232 41.143C47.2958 40.5001 48.3562 40.0716 49.2046 39.8573C50.0529 39.643 50.4771 39.4287 50.4771 39.4287C50.4771 39.4287 50.0529 39.2144 49.2046 39.0001C48.3562 38.7858 47.0837 38.7858 45.599 39.2144C44.1144 39.4287 42.6298 39.8573 40.721 40.2858C39.8726 40.5001 39.0243 40.7144 38.1759 40.9287C37.3276 41.143 36.2671 41.5716 35.4188 41.7858C34.5704 42.2144 33.51 42.4287 32.6616 42.8573C31.8133 43.2858 30.9649 43.7144 30.1165 44.143C29.2682 44.5716 28.6319 45.2144 27.9957 45.8573C27.3594 46.5001 26.7231 47.143 26.2989 47.7858C25.4506 49.0716 24.8143 50.3573 24.6022 51.2144C24.3901 52.0716 24.3901 52.5001 24.3901 52.5001C24.3901 52.5001 24.6022 52.0716 25.2385 51.4287C25.6627 50.7858 26.511 49.9287 27.5715 49.0716Z" fill="#333333"/>
<path d="M95.016 28.0716C95.4402 28.7145 96.0765 29.5716 96.5006 30.2145C96.9248 31.0716 97.5611 31.9287 97.9853 32.7859C98.4094 33.643 98.8336 34.7145 99.2578 35.5716C99.682 36.4287 100.106 37.7145 100.955 39.0002C101.379 39.643 102.227 40.2859 103.075 40.5002C103.924 40.7145 104.772 40.7145 105.62 40.7145C107.105 40.5002 107.953 39.8573 109.014 39.4287C110.923 38.5716 112.832 37.7145 114.316 36.8573C117.497 35.3573 119.406 34.0716 119.406 34.0716C119.406 34.0716 117.073 34.2859 113.68 35.143C111.983 35.5716 110.074 36.0002 107.953 36.643C106.893 37.0716 105.833 37.2859 104.984 37.5002C104.56 37.5002 104.348 37.5002 104.136 37.5002C103.924 37.5002 103.712 37.2859 103.5 37.0716C103.075 36.4287 102.651 35.5716 102.015 34.2859C101.591 33.2145 100.955 32.143 100.318 31.2859C99.682 30.4287 99.0457 29.5716 98.1974 28.7145C97.5611 27.8573 96.7127 27.2145 96.0765 26.7859C94.5918 25.7145 93.3193 24.8573 92.4709 24.4287C92.0468 24.2145 91.6226 24.0002 91.4105 24.0002C91.1984 24.0002 90.9863 23.7859 90.9863 23.7859C90.9863 23.7859 91.4105 24.2145 92.0468 25.0716C92.8951 25.7145 93.9556 26.7859 95.016 28.0716Z" fill="#333333"/>
<path d="M91.8347 120.643C92.683 120.429 93.5314 120.214 94.3798 120C96.0765 119.571 97.349 118.929 98.6215 118.071C99.682 117.429 100.53 116.786 101.167 116.143C101.803 115.714 102.651 115.286 103.287 114.857C104.136 114.643 104.984 114.643 105.62 114.429C106.469 114.214 106.893 114 106.893 114C106.893 114 106.469 114 105.408 113.786C104.984 113.786 104.348 113.786 103.712 113.786C103.075 113.786 102.227 113.786 101.379 113.571C100.53 113.786 99.682 113.571 98.8336 113.571C97.1369 113.143 95.4402 112.714 93.7435 112.5C92.8951 112.286 92.0468 112.286 91.1984 112.286C90.3501 112.286 89.5017 112.286 88.6533 112.286C86.9566 112.286 85.472 112.5 84.1995 112.929C82.9269 113.143 81.8665 113.571 81.0181 113.786C80.1698 114 79.7456 114.214 79.7456 114.214C79.7456 114.214 79.7456 114.214 79.9577 114C80.1698 113.786 80.3819 113.572 80.8061 113.357C81.4423 112.929 82.5028 112.286 83.7753 111.857C85.0478 111.214 86.7446 110.786 88.4413 110.571C89.2896 110.571 90.3501 110.357 91.1984 110.357C92.0468 110.357 93.1072 110.571 93.9556 110.571C95.8644 111 97.5611 111.429 99.2578 111.857C100.955 112.286 102.439 112.714 103.712 113.143C104.348 113.357 104.984 113.357 105.62 113.571C109.014 110.786 111.135 107.786 111.983 106.286C114.952 106.5 117.497 106.929 119.406 107.143C121.951 107.571 123.648 107.786 123.648 107.786C123.648 107.786 122.163 107.357 119.618 106.5C117.073 105.857 113.256 104.786 108.802 104.143C106.469 103.929 103.924 103.714 101.379 103.714C98.6215 103.714 95.8644 103.929 93.1072 103.929C90.3501 103.929 87.5929 103.714 84.4116 103.5C82.9269 103.286 81.2302 103.286 79.5335 103.5C77.8368 103.714 76.1401 104.357 74.6555 105.214C73.1709 106.071 71.6862 106.929 70.6258 108.214C69.3532 109.5 68.5049 111 67.8686 112.714C66.8082 115.929 67.0203 119.357 67.2324 122.143C67.4444 124.929 67.6565 127.714 67.6565 130.286C67.6565 132.857 67.6565 135.429 67.4444 137.571C67.2324 142.071 66.5961 145.929 66.1719 148.5C65.7477 151.071 65.5356 152.571 65.5356 152.571C65.5356 152.571 66.1719 151.071 66.8082 148.5C67.0203 147.857 67.2324 147.214 67.4444 146.571C70.6258 138.429 76.9885 126.214 82.0786 120.214C82.7149 120.429 83.3511 120.643 83.9874 120.643C84.8357 120.857 85.6841 121.071 86.5325 121.071C87.3808 121.071 88.2292 121.071 89.2896 121.071C90.138 120.857 90.9863 120.857 91.8347 120.643Z" fill="#333333"/>
<path d="M65.9598 105.857C66.3839 105.214 67.0202 104.357 67.6565 103.714C68.2927 102.857 68.929 102 69.5653 101.357C70.2015 100.5 70.8378 99.643 71.4741 98.7859C72.1103 97.9287 72.5345 97.2859 73.1708 96.643C73.595 96.0002 74.0191 95.3573 74.4433 94.9287C74.6554 94.5002 74.8675 94.2859 74.8675 94.2859C74.8675 94.2859 74.6554 94.5002 74.2312 94.7145C73.8071 94.9287 73.1708 95.3573 72.5345 95.7859C71.8983 96.2145 71.0499 96.8573 70.2015 97.5002C69.5653 98.143 68.7169 99.0002 67.8686 99.8573C67.2323 100.714 66.596 101.786 65.9598 102.643C65.5356 103.5 65.1114 104.572 64.6872 105.214C64.4751 106.072 64.263 106.714 64.051 107.143C64.051 107.572 63.8389 108 63.8389 108C63.8389 108 64.051 107.786 64.263 107.357C64.8993 107.143 65.3235 106.5 65.9598 105.857Z" fill="#333333"/>
<path d="M58.9608 98.3572C58.5366 97.9286 58.1124 97.5001 57.6882 97.0715C57.2641 96.8572 56.8399 96.6429 56.6278 96.4286C56.4157 96.2144 56.2036 96.2144 56.2036 96.2144C56.2036 96.2144 56.2036 96.4286 56.4157 96.6429C56.4157 96.8572 56.6278 97.2858 56.8399 97.7144C57.052 98.1429 57.2641 98.5715 57.4761 99.2144C57.6882 99.6429 57.9003 100.286 58.1124 100.929C58.3245 101.357 58.7487 102 58.9608 102.429C59.1729 102.857 59.597 103.5 59.8091 103.714C60.0212 104.143 60.2333 104.572 60.4454 104.786C60.6575 105 60.6575 105.214 60.6575 105.214C60.6575 105.214 60.6575 105 60.8696 104.786C60.8696 104.572 60.8696 104.143 61.0817 103.5C61.0817 103.072 61.0817 102.429 60.8696 101.786C60.6575 101.143 60.4454 100.5 60.2333 99.8572C59.8091 99.4286 59.3849 98.7858 58.9608 98.3572Z" fill="#333333"/>
<path d="M71.0498 84.8572C74.019 84.8572 76.7762 84.8572 79.5334 84.8572C82.2905 84.8572 84.8356 84.6429 86.9565 84.6429C89.0774 84.4286 90.9862 84.4286 92.2587 84.4286C93.5312 84.2144 94.1675 84.2144 94.1675 84.2144C94.1675 84.2144 93.5312 84.2144 92.2587 84.0001C90.9862 83.7858 89.0774 83.5715 86.9565 83.3572C84.8356 83.1429 82.2905 83.1429 79.5334 82.9286C76.7762 82.9286 74.019 82.7144 71.0498 82.7144C68.0805 82.7144 65.3234 82.7144 62.5662 82.7144C59.8091 82.9286 57.264 83.3572 55.1431 83.7858C53.0222 84.4286 51.3255 85.2858 50.2651 85.9286C49.6288 86.3572 49.4167 86.5715 48.9925 86.7858C48.7804 87.0001 48.5684 87.2144 48.5684 87.2144C48.5684 87.2144 48.7804 87.2144 48.9925 87.0001C49.2046 86.7858 49.8409 86.5715 50.2651 86.3572C51.3255 85.9286 53.2343 85.2858 55.1431 85.0715C57.264 84.6429 59.8091 84.6429 62.3541 84.6429C65.1113 84.4286 68.0805 84.6429 71.0498 84.8572Z" fill="#333333"/>
<path d="M59.385 79.5C60.8696 79.5 62.3542 79.5 64.0509 79.5C65.7476 79.5 67.6564 79.2858 69.3531 79.2858C71.2619 79.0715 72.9587 79.0715 74.6554 79.0715C76.3521 78.8572 78.0488 78.8572 79.3213 78.8572C80.806 78.6429 81.8664 78.6429 82.7148 78.6429C83.5631 78.6429 83.9873 78.4286 83.9873 78.4286C83.9873 78.4286 83.5631 78.4286 82.7148 78.2143C81.8664 78 80.806 78 79.3213 77.7858C77.8367 77.5715 76.3521 77.5715 74.6554 77.3572C72.9587 77.3572 71.0499 77.3572 69.141 77.3572C67.2322 77.5715 65.5355 77.5715 63.6267 77.7858C61.93 78 60.2333 78.2143 58.9608 78.4286C57.6882 78.6429 56.4157 79.0715 55.5674 79.0715C55.3553 79.2858 54.719 79.2858 54.719 79.2858C54.719 79.2858 55.1432 79.2858 55.9915 79.2858C56.8399 79.5 58.1124 79.5 59.385 79.5Z" fill="#333333"/>
</svg>
