<svg width="32" height="32" viewBox="0 0 32 32" fill="none" xmlns="http://www.w3.org/2000/svg">
<g clip-path="url(#clip0_331_1392)">
<path fill-rule="evenodd" clip-rule="evenodd" d="M13.7658 26.808C14.4564 27.5773 15.3431 28 16.2631 28H16.2644C17.1884 28 18.0791 27.5773 18.7711 26.8067C19.1418 26.3973 19.7738 26.364 20.1831 26.7333C20.5938 27.1027 20.6271 27.736 20.2578 28.1453C19.1804 29.3413 17.7631 30 16.2644 30H16.2618C14.7671 29.9987 13.3524 29.34 12.2791 28.144C11.9098 27.7347 11.9431 27.1013 12.3538 26.7333C12.7644 26.3627 13.3964 26.396 13.7658 26.808ZM16.3295 1.33334C22.2562 1.33334 26.2375 5.94934 26.2375 10.26C26.2375 12.4773 26.8015 13.4173 27.4002 14.4147C27.9922 15.3987 28.6628 16.516 28.6628 18.628C28.1975 24.024 22.5642 24.464 16.3295 24.464C10.0948 24.464 4.46016 24.024 4.00014 18.7133C3.99616 16.516 4.66682 15.3987 5.25882 14.4147L5.46782 14.0629C5.98239 13.1785 6.42149 12.2165 6.42149 10.26C6.42149 5.94934 10.4028 1.33334 16.3295 1.33334ZM16.3295 3.33334C11.6695 3.33334 8.42149 6.984 8.42149 10.26C8.42149 13.032 7.65216 14.3133 6.97216 15.444C6.42682 16.352 5.99616 17.0693 5.99616 18.628C6.21882 21.1427 7.87882 22.464 16.3295 22.464C24.7335 22.464 26.4455 21.084 26.6668 18.5413C26.6628 17.0693 26.2322 16.352 25.6868 15.444C25.0068 14.3133 24.2375 13.032 24.2375 10.26C24.2375 6.984 20.9895 3.33334 16.3295 3.33334Z" fill="#333333"/>
</g>
</svg>