<svg width="25" height="29" viewBox="0 0 25 29" fill="current" xmlns="http://www.w3.org/2000/svg">
  <path fill-rule="evenodd" clip-rule="evenodd"
        d="M9.76575 25.808C10.4564 26.5773 11.3431 27 12.2631 27H12.2644C13.1884 27 14.0791 26.5773 14.7711 25.8067C15.1418 25.3973 15.7738 25.364 16.1831 25.7333C16.5938 26.1027 16.6271 26.736 16.2578 27.1453C15.1804 28.3413 13.7631 29 12.2644 29H12.2618C10.7671 28.9987 9.35242 28.34 8.27909 27.144C7.90975 26.7347 7.94309 26.1013 8.35375 25.7333C8.76442 25.3627 9.39642 25.396 9.76575 25.808ZM12.3295 0.333336C18.2562 0.333336 22.2375 4.94934 22.2375 9.26C22.2375 11.4773 22.8015 12.4173 23.4002 13.4147C23.9922 14.3987 24.6628 15.516 24.6628 17.628C24.1975 23.024 18.5642 23.464 12.3295 23.464C6.09482 23.464 0.460157 23.024 0.000139719 17.7133C-0.00384247 15.516 0.666824 14.3987 1.25882 13.4147L1.46782 13.0629C1.98239 12.1785 2.42149 11.2165 2.42149 9.26C2.42149 4.94934 6.40282 0.333336 12.3295 0.333336ZM12.3295 2.33334C7.66949 2.33334 4.42149 5.984 4.42149 9.26C4.42149 12.032 3.65216 13.3133 2.97216 14.444C2.42682 15.352 1.99616 16.0693 1.99616 17.628C2.21882 20.1427 3.87882 21.464 12.3295 21.464C20.7335 21.464 22.4455 20.084 22.6668 17.5413C22.6628 16.0693 22.2322 15.352 21.6868 14.444C21.0068 13.3133 20.2375 12.032 20.2375 9.26C20.2375 5.984 16.9895 2.33334 12.3295 2.33334Z"/>
</svg>
