<svg width="58" height="57" viewBox="0 0 58 57" fill="none" xmlns="http://www.w3.org/2000/svg">
<path d="M0.915039 12.4401C0.915039 9.24773 2.18321 6.18609 4.44057 3.92873C6.69793 1.67137 9.75957 0.403198 12.952 0.403198H18.9704C19.5025 0.403198 20.0128 0.614561 20.389 0.990788C20.7652 1.36701 20.9766 1.87729 20.9766 2.40935C20.9766 2.94142 20.7652 3.45169 20.389 3.82792C20.0128 4.20414 19.5025 4.41551 18.9704 4.41551H12.952C10.8237 4.41551 8.78261 5.26095 7.2777 6.76586C5.77279 8.27077 4.92735 10.3119 4.92735 12.4401V18.4586C4.92735 18.9907 4.71598 19.5009 4.33976 19.8772C3.96353 20.2534 3.45326 20.4647 2.92119 20.4647C2.38913 20.4647 1.87885 20.2534 1.50263 19.8772C1.1264 19.5009 0.915039 18.9907 0.915039 18.4586V12.4401ZM37.0258 2.40935C37.0258 1.87729 37.2372 1.36701 37.6134 0.990788C37.9896 0.614561 38.4999 0.403198 39.032 0.403198H45.0504C48.2428 0.403198 51.3044 1.67137 53.5618 3.92873C55.8192 6.18609 57.0873 9.24773 57.0873 12.4401V18.4586C57.0873 18.9907 56.876 19.5009 56.4998 19.8772C56.1235 20.2534 55.6133 20.4647 55.0812 20.4647C54.5491 20.4647 54.0388 20.2534 53.6626 19.8772C53.2864 19.5009 53.075 18.9907 53.075 18.4586V12.4401C53.075 10.3119 52.2296 8.27077 50.7247 6.76586C49.2198 5.26095 47.1787 4.41551 45.0504 4.41551H39.032C38.4999 4.41551 37.9896 4.20414 37.6134 3.82792C37.2372 3.45169 37.0258 2.94142 37.0258 2.40935ZM2.92119 36.514C3.45326 36.514 3.96353 36.7253 4.33976 37.1016C4.71598 37.4778 4.92735 37.9881 4.92735 38.5201V44.5386C4.92735 46.6669 5.77279 48.7079 7.2777 50.2129C8.78261 51.7178 10.8237 52.5632 12.952 52.5632H18.9704C19.5025 52.5632 20.0128 52.7746 20.389 53.1508C20.7652 53.527 20.9766 54.0373 20.9766 54.5694C20.9766 55.1014 20.7652 55.6117 20.389 55.9879C20.0128 56.3642 19.5025 56.5755 18.9704 56.5755H12.952C9.75957 56.5755 6.69793 55.3073 4.44057 53.05C2.18321 50.7926 0.915039 47.731 0.915039 44.5386V38.5201C0.915039 37.9881 1.1264 37.4778 1.50263 37.1016C1.87885 36.7253 2.38913 36.514 2.92119 36.514ZM55.0812 36.514C55.6133 36.514 56.1235 36.7253 56.4998 37.1016C56.876 37.4778 57.0873 37.9881 57.0873 38.5201V44.5386C57.0873 47.731 55.8192 50.7926 53.5618 53.05C51.3044 55.3073 48.2428 56.5755 45.0504 56.5755H39.032C38.4999 56.5755 37.9896 56.3642 37.6134 55.9879C37.2372 55.6117 37.0258 55.1014 37.0258 54.5694C37.0258 54.0373 37.2372 53.527 37.6134 53.1508C37.9896 52.7746 38.4999 52.5632 39.032 52.5632H45.0504C47.1787 52.5632 49.2198 51.7178 50.7247 50.2129C52.2296 48.7079 53.075 46.6669 53.075 44.5386V38.5201C53.075 37.9881 53.2864 37.4778 53.6626 37.1016C54.0388 36.7253 54.5491 36.514 55.0812 36.514ZM29.0012 32.5017C30.0653 32.5017 31.0859 32.0789 31.8383 31.3265C32.5908 30.574 33.0135 29.5535 33.0135 28.4894C33.0135 27.4252 32.5908 26.4047 31.8383 25.6522C31.0859 24.8998 30.0653 24.4771 29.0012 24.4771C27.9371 24.4771 26.9165 24.8998 26.1641 25.6522C25.4116 26.4047 24.9889 27.4252 24.9889 28.4894C24.9889 29.5535 25.4116 30.574 26.1641 31.3265C26.9165 32.0789 27.9371 32.5017 29.0012 32.5017ZM12.952 36.514V24.4771C12.952 23.4129 13.3747 22.3924 14.1271 21.6399C14.8796 20.8875 15.9001 20.4647 16.9643 20.4647H20.9766L23.7972 16.2318C24.1637 15.6824 24.6602 15.232 25.2425 14.9206C25.8249 14.6091 26.4751 14.4462 27.1355 14.4463H30.8669C31.5273 14.4462 32.1775 14.6091 32.7598 14.9206C33.3422 15.232 33.8386 15.6824 34.2052 16.2318L37.0258 20.4647H41.0381C42.1022 20.4647 43.1228 20.8875 43.8752 21.6399C44.6277 22.3924 45.0504 23.4129 45.0504 24.4771V36.514C45.0504 37.5781 44.6277 38.5987 43.8752 39.3511C43.1228 40.1036 42.1022 40.5263 41.0381 40.5263H16.9643C15.9001 40.5263 14.8796 40.1036 14.1271 39.3511C13.3747 38.5987 12.952 37.5781 12.952 36.514ZM37.0258 28.4894C37.0258 26.3611 36.1804 24.32 34.6754 22.8151C33.1705 21.3102 31.1294 20.4647 29.0012 20.4647C26.8729 20.4647 24.8318 21.3102 23.3269 22.8151C21.822 24.32 20.9766 26.3611 20.9766 28.4894C20.9766 30.6176 21.822 32.6587 23.3269 34.1636C24.8318 35.6685 26.8729 36.514 29.0012 36.514C31.1294 36.514 33.1705 35.6685 34.6754 34.1636C36.1804 32.6587 37.0258 30.6176 37.0258 28.4894Z" fill="#1A1ED6"/>
</svg>
