<svg width="24" height="24" viewBox="0 0 24 24" fill="none" xmlns="http://www.w3.org/2000/svg">
<path d="M12.3799 3.87891V10.8789H19.3799V3.87891H12.3799ZM17.8799 9.37891H13.8799V5.37891H17.8799V9.37891ZM3.87988 10.8789H10.8799V3.87891H3.87988V10.8789ZM5.37988 5.37891H9.37988V9.37891H5.37988V5.37891ZM3.87988 19.3789H10.8799V12.3789H3.87988V19.3789ZM5.37988 13.8789H9.37988V17.8789H5.37988V13.8789ZM12.3799 12.3789H14.1299V14.1289H12.3799V12.3789ZM15.8799 12.3789H17.6299V14.1289H15.8799V12.3789ZM14.1299 14.1289H15.8799V15.8789H14.1299V14.1289ZM17.6299 14.1289H19.3799V15.8789H17.6299V14.1289ZM12.3799 15.8789H14.1299V17.6289H12.3799V15.8789ZM15.8799 15.8789H17.6299V17.6289H15.8799V15.8789ZM14.1299 17.6289H15.8799V19.3789H14.1299V17.6289ZM17.6299 17.6289H19.3799V19.3789H17.6299V17.6289Z" fill="white"/>
</svg>
