<svg width="129" height="177" viewBox="0 0 129 177" fill="none" xmlns="http://www.w3.org/2000/svg">
<path d="M127.957 67.8867C127.686 67.1995 127.414 66.6499 127.278 66.1002C126.328 63.9014 125.785 61.9775 125.785 59.6413C125.65 57.1677 125.378 54.6941 124.699 51.9457C124.292 50.7089 123.749 49.3346 122.799 48.0978C122.256 47.2733 121.442 46.5862 120.627 46.0365C120.763 45.4868 120.763 45.0745 120.763 44.5249C120.763 43.5629 120.763 42.4635 120.492 41.5016C120.084 39.5776 119.134 37.6537 117.777 36.2795C117.505 35.8672 117.098 35.5924 116.691 35.3176L115.876 34.493C115.741 34.3556 115.605 34.2182 115.469 34.0807L115.062 33.6685C114.791 33.3936 114.655 33.1188 114.383 32.8439C113.976 32.2943 113.569 31.7446 113.162 31.0575C112.755 30.3703 112.483 29.6832 112.076 28.8587C111.669 28.0342 111.126 27.0722 110.447 26.3851C109.768 25.5606 108.954 24.8734 108.275 24.3238L107.189 23.6366C106.918 23.4992 106.646 23.2244 106.375 22.9495C105.832 22.5373 105.425 21.9876 105.017 21.4379C104.067 20.3385 103.389 18.8269 102.167 17.3152C101.624 16.6281 100.945 15.8036 99.9952 15.1165C99.3165 14.5668 98.5021 14.1545 97.6877 13.8797C97.4162 13.6048 97.1447 13.33 96.8733 13.0551C96.4661 12.6429 96.0588 12.2306 95.6516 11.9557C94.8372 11.2686 94.0228 10.5815 93.0726 9.89441C91.3081 8.52019 89.4077 7.28338 86.9645 6.59627L86.4215 6.45885L86.0143 6.32143C85.7428 6.32143 85.4714 6.18401 85.1999 6.18401L84.3855 6.04658L83.571 5.90916C82.4852 5.77174 81.3993 5.63432 80.3134 5.63432C79.2275 5.63432 78.1416 5.63432 77.0557 5.63432C76.5127 5.63432 75.9698 5.63432 75.4268 5.63432C75.1553 5.63432 74.7481 5.63432 74.4767 5.63432C74.4767 5.77174 74.2052 5.49689 73.798 5.22205C73.255 4.9472 72.7121 4.53494 72.0334 4.26009C70.8118 3.57298 69.7259 3.02329 68.5042 2.61102C67.8256 2.33618 67.2826 2.06133 66.6039 1.92391C65.9252 1.64907 65.3823 1.51164 64.7036 1.2368C64.0249 0.961955 63.482 0.824533 62.8033 0.68711C62.1246 0.549688 61.4459 0.412265 60.903 0.274843L59.9528 0.137421H59.6813H59.5456H59.4099H59.0026H58.0525H56.9666C56.2879 0.137421 55.6092 0.137421 54.9305 0.274843C54.2519 0.412265 53.5732 0.412265 52.8945 0.549688C52.623 0.549688 52.2158 0.68711 51.9443 0.824533C51.6729 0.961955 51.2656 0.961955 50.9942 1.09938C50.3155 1.2368 49.7725 1.51164 49.0938 1.78649C48.4152 2.06133 47.8722 2.33618 47.3293 2.74845C46.9221 3.02329 46.3791 3.29814 45.9719 3.57298C45.5647 3.43556 45.0217 3.43556 44.6145 3.29814C43.9358 3.16071 43.3929 3.02329 42.7142 3.02329C41.4926 2.88587 40.2709 2.74845 38.9136 2.61102C38.2349 2.61102 37.6919 2.61102 37.0133 2.61102C36.3346 2.61102 35.7916 2.61102 35.1129 2.61102C34.4342 2.61102 33.8913 2.74845 33.2126 2.74845C32.6697 2.74845 32.3982 2.74845 32.1267 2.74845L31.5838 2.88587C31.448 2.88587 31.448 2.88587 31.3123 2.88587H31.0408C30.7694 2.88587 30.3621 3.02329 30.0907 3.16071C29.8192 3.29814 29.412 3.43556 29.1405 3.57298C28.5976 3.84783 27.9189 4.26009 27.3759 4.67236C26.29 5.49689 25.3399 6.32143 24.5254 7.28338C23.711 8.24534 22.8966 9.34472 22.2179 10.3067C21.8107 10.8564 21.5392 11.4061 21.2678 11.9557C20.9963 12.368 20.7248 12.7803 20.5891 13.33C19.6389 13.33 18.8245 13.6048 18.0101 13.8797C17.0599 14.1545 16.1098 14.5668 15.2953 15.2539C13.5308 16.3533 12.1734 18.0023 11.359 19.9262C10.9517 20.8882 10.5445 21.8502 10.2731 22.8121C10.1373 23.3618 10.0016 23.7741 10.0016 24.1863C9.86585 24.5986 9.73012 25.0109 9.59438 25.4231C9.3229 26.2477 9.05143 27.0722 8.64422 27.7593C8.37275 28.0342 8.23701 28.309 7.8298 28.7213C7.55832 28.9961 7.15111 29.271 6.7439 29.8207C5.92948 30.6452 5.52227 31.7446 5.25079 32.7065C4.97932 33.6685 4.84358 34.6304 4.70785 35.5924C4.43637 37.5163 4.30064 39.4402 4.1649 41.3641C4.1649 42.3261 4.02916 43.2881 4.02916 44.25V45.6242C4.02916 46.0365 4.02916 46.4488 3.89342 46.861C3.62195 48.5101 2.94327 50.434 2.40032 52.2205C1.85737 54.007 1.31442 55.9309 1.04295 57.8548C0.907211 58.6794 0.771474 59.5039 0.635737 60.191C0.635737 60.4658 0.5 60.8781 0.5 61.153C0.5 62.3898 0.5 63.3517 0.5 64.3137C0.5 64.4511 0.5 64.5885 0.5 64.5885C0.5 66.375 0.907211 68.0241 1.17869 69.6731C1.5859 71.5971 2.26458 73.3836 2.80753 75.17C3.079 76.132 3.21474 76.9565 3.21474 77.6436C3.21474 78.4682 2.94327 79.2927 2.67179 80.2547C2.40032 81.2166 2.12884 82.0412 1.85737 83.0031C1.5859 83.9651 1.17869 84.7896 1.04295 85.889C0.907211 86.4387 0.907211 86.9884 1.04295 87.5381C1.17869 88.0877 1.31442 88.6374 1.5859 89.0497C1.99311 90.0117 2.53606 90.8362 3.079 91.6607C4.02916 93.1724 5.25079 94.5466 6.60817 95.646C6.47243 95.9208 6.47243 96.0582 6.33669 96.3331V96.4705C6.20095 96.8828 6.20095 97.295 6.06522 97.8447C5.92948 98.8067 5.92948 99.6312 6.20095 100.593C6.47243 101.555 6.87964 102.517 7.55832 103.204L7.96554 103.616L8.37275 104.029C8.64422 104.304 8.77996 104.578 9.05143 104.853C9.45864 105.403 9.59438 106.09 9.59438 106.64C9.59438 107.189 9.45864 107.877 9.05143 108.564C8.91569 108.839 8.77996 109.251 8.50848 109.526L7.8298 110.625C7.42259 111.45 7.01538 112.137 6.60817 113.099C6.33669 114.061 6.06522 115.16 6.20095 116.122C6.33669 117.221 6.60816 118.046 6.87964 118.87C7.15111 119.695 7.42259 120.382 7.55832 121.207C7.69406 122.031 7.96554 122.718 8.10127 123.543C8.50848 125.192 8.91569 126.841 9.32291 128.49C9.86585 130.139 10.4088 131.788 11.7662 133.437C11.9019 133.575 12.1734 133.849 12.3091 133.987L12.7163 134.399V134.537L12.9878 134.674C13.395 135.086 13.8022 135.224 14.3452 135.498C15.1596 135.911 16.1098 136.186 16.6527 136.46C17.3314 136.735 17.4671 137.01 17.7386 137.285C18.0101 137.697 18.1458 138.384 18.2815 139.071C18.2815 139.346 18.4173 139.759 18.4173 140.171V140.721V141.27C18.4173 142.095 18.4173 142.782 18.2815 143.606C18.1458 145.255 17.8743 146.905 17.8743 148.828C17.8743 150.752 18.553 152.814 19.6389 154.463C20.1819 155.287 20.7248 155.974 21.4035 156.662C21.9464 157.211 22.6251 157.898 23.1681 158.448C23.8468 158.998 24.5254 159.685 25.3399 160.234C26.1543 160.784 26.9687 161.196 27.9189 161.609C28.869 161.884 29.6835 162.158 30.4979 162.296L31.7195 162.571L32.8054 162.846C32.9411 162.846 33.2126 162.983 33.3484 162.983C33.4841 162.983 33.6198 163.12 33.6198 163.12C33.8913 163.258 34.027 163.395 34.1628 163.533C34.4342 163.807 34.7057 164.22 34.9772 164.907C35.2487 165.594 35.3844 166.419 35.7916 167.38C36.1988 168.342 36.7418 169.304 37.5562 170.129C37.9634 170.541 38.3706 170.816 38.9136 171.228L39.3208 171.366H39.4565L39.5923 171.503H39.728L39.8637 171.778L40.2709 171.915C41.2211 172.328 42.4427 172.465 43.3929 172.465C44.4788 172.465 45.2932 172.328 45.9719 172.19C46.7863 172.053 47.3293 172.053 47.8722 172.19C49.0938 172.328 50.1797 173.015 51.4014 173.839L51.9443 174.252C52.0801 174.389 52.2158 174.526 52.4873 174.664C52.8945 174.939 53.3017 175.214 53.7089 175.488C54.5233 176.038 55.4735 176.45 56.5594 176.588C57.6453 176.863 58.7312 176.863 59.8171 176.588C60.903 176.45 61.8531 176.038 62.6675 175.626C63.482 175.214 64.2964 174.801 64.9751 174.389C65.3823 174.252 65.6538 173.977 65.9252 173.839C66.1967 173.702 66.6039 173.427 66.8754 173.427C67.6898 173.015 68.9114 173.152 70.5403 173.427C71.3547 173.564 72.1691 173.702 73.3908 173.839C73.9337 173.839 74.6124 173.839 75.2911 173.564C75.9698 173.29 76.6485 172.877 77.1914 172.465C77.4629 172.19 77.5986 171.915 77.8701 171.641L78.2773 171.091L78.413 170.816L78.5488 170.679C78.6845 170.541 78.6845 170.541 78.8203 170.404C79.2275 169.991 79.6347 169.579 80.3134 169.304C81.535 168.617 83.0281 168.205 84.6569 167.518C84.9284 167.38 85.1999 167.243 85.4714 167.106C86.0143 166.968 86.4215 166.693 86.9645 166.556C87.7789 166.144 88.4576 165.869 89.4077 165.319C91.1723 164.357 92.394 162.983 93.6156 161.746C94.8372 160.372 95.7874 158.998 96.7375 157.486C97.552 156.249 98.2306 155.012 98.9093 153.638C99.3165 153.501 99.588 153.363 99.9952 153.226C100.538 152.951 101.081 152.676 101.76 152.264C102.846 151.577 103.932 150.89 105.017 150.203C107.054 148.691 109.09 146.905 110.583 144.706C110.99 144.156 111.397 143.606 111.669 143.057C112.076 142.507 112.347 141.957 112.619 141.408C112.89 140.858 113.162 140.308 113.433 139.896L114.383 138.384C115.062 137.285 115.605 136.323 116.284 135.086C116.555 134.537 116.827 133.712 117.098 133.025C117.234 132.2 117.37 131.513 117.37 130.689C117.37 129.864 117.37 129.177 117.234 128.49C117.234 128.078 117.098 127.803 117.098 127.528L116.962 126.978V126.566L116.827 126.154C116.827 126.016 116.827 125.879 116.827 125.741L116.691 125.054C116.691 124.505 116.691 123.955 116.691 123.405C116.691 122.306 116.827 121.207 116.962 120.107C117.098 119.008 117.37 117.908 117.641 116.672C118.184 114.473 118.998 112.137 119.949 110.075C120.084 109.663 120.492 108.976 120.627 108.426C120.899 107.877 121.17 107.464 121.442 106.915L123.206 103.754C124.428 101.555 125.514 99.0815 126.192 96.6079C126.6 95.3711 126.735 94.1343 127.007 92.7601C127.143 92.073 127.143 91.5233 127.278 90.8362C127.278 90.1491 127.414 89.5994 127.414 88.9123C127.686 86.4387 127.686 83.9651 127.821 81.4915C127.957 79.0179 127.957 76.5443 128.229 74.3455C128.364 73.2461 128.771 72.1468 128.636 70.3603C128.364 69.2609 128.229 68.5738 127.957 67.8867ZM22.7609 152.539C21.9464 151.439 21.5392 150.203 21.5392 148.828C21.4035 147.454 21.675 145.805 21.8107 144.156C21.8107 143.606 21.9464 143.194 21.9464 142.644C22.0822 142.919 22.2179 143.194 22.4894 143.469C22.7609 143.881 23.0323 144.294 23.4396 144.568C23.711 144.981 24.1182 145.255 24.3897 145.53C25.0684 146.08 25.7471 146.492 26.4258 146.767C27.1045 147.042 27.6474 147.179 28.0546 147.317C28.4618 147.454 28.7333 147.454 28.7333 147.454C28.7333 147.454 28.1903 146.767 27.2402 145.805C26.833 145.255 26.29 144.706 25.7471 144.156C25.4756 143.881 25.2041 143.469 25.0684 143.194C24.7969 142.919 24.5254 142.507 24.3897 142.232C24.1182 141.957 23.9825 141.545 23.711 141.133C23.4396 140.721 23.3038 140.446 23.0323 140.033C22.8966 139.621 22.6251 139.346 22.4894 139.071C22.3537 138.797 22.0822 138.384 21.9464 138.109C21.8107 137.835 21.675 137.697 21.675 137.56C21.5392 137.01 21.2678 136.323 20.8605 135.773C20.5891 135.224 20.1819 134.811 19.6389 134.399C19.096 133.987 18.6888 133.712 18.1458 133.575C17.1957 133.162 16.517 133.025 15.974 132.75C15.7025 132.613 15.4311 132.475 15.1596 132.338L14.8881 132.2H14.7524C14.6166 132.063 14.6166 132.063 14.4809 131.925C13.6665 130.964 13.1235 129.589 12.5806 128.078C12.0376 126.566 11.6304 125.054 11.359 123.405C11.2232 122.581 10.9517 121.756 10.6803 120.932C10.4088 119.695 10.0016 118.87 9.86585 118.183C9.59438 117.359 9.32291 116.672 9.32291 116.122C9.18717 115.572 9.3229 114.885 9.45864 114.335C9.73012 113.648 10.0016 112.961 10.4088 112.274L10.9517 111.175C11.2232 110.762 11.359 110.35 11.4947 109.938C11.7662 109.113 12.0376 108.014 12.0376 106.915C12.0376 105.815 11.4947 104.853 10.9517 104.029C10.6803 103.616 10.4088 103.342 10.1373 102.929L9.73012 102.38L9.32291 101.967C9.18717 101.83 9.05143 101.83 9.05143 101.693V101.555C9.05143 101.28 8.91569 101.005 8.77996 100.731C8.64422 100.456 8.64422 100.181 8.64422 99.9061C8.64422 99.6312 8.64422 99.219 8.50848 98.9441C8.50848 98.6693 8.50848 98.257 8.50848 97.9822C8.50848 97.7073 8.50848 97.295 8.64422 97.0202C8.64422 96.7454 8.77996 96.3331 8.77996 96.0583C8.91569 95.5086 9.05143 94.8214 9.18717 94.4092C9.32291 93.8595 9.45864 93.4472 9.59438 93.1724C9.73012 92.8975 9.73012 92.6227 9.73012 92.6227C9.73012 92.6227 9.59438 92.6227 9.18717 92.8975C8.91569 93.035 8.50848 93.3098 7.96554 93.7221C7.69406 93.9969 7.42259 94.2718 7.28685 94.684C6.20095 93.5846 5.2508 92.3478 4.43637 91.111C4.02916 90.4239 3.62195 89.5994 3.21474 88.9123C3.21474 88.6374 3.21474 88.5 3.21474 88.2252C3.21474 87.8129 3.21474 87.5381 3.35048 87.1258C3.35048 86.7135 3.48621 86.3013 3.62195 85.889C3.75769 85.4767 3.89342 84.927 4.02916 84.5148C4.1649 84.1025 4.30064 83.5528 4.43637 83.1405C4.57211 82.7283 4.70785 82.1786 4.84358 81.7663C4.97932 81.354 5.11506 80.8044 5.25079 80.3921C5.52227 79.5676 5.79374 78.6056 5.92948 77.9185C6.33669 76.4068 6.60817 75.4449 6.60817 75.4449C6.60817 75.4449 5.92948 75.8572 5.11506 76.8191C4.97932 76.132 4.84358 75.4449 4.70785 74.7578C4.1649 72.8339 3.62195 71.0474 3.21474 69.2609C2.80753 67.4744 2.53606 65.6879 2.53606 63.764C2.53606 62.802 2.67179 61.8401 2.67179 60.7407C2.80753 60.0536 2.94327 59.5039 3.21474 58.8168C3.48621 57.9922 3.89342 57.1677 4.30064 56.3432C4.70785 55.5186 5.2508 54.8315 5.79374 54.1444C6.87964 52.7702 8.10127 51.6708 9.18717 50.8463C10.2731 50.0217 11.359 49.4721 12.0376 49.0598C12.4449 48.9224 12.7163 48.785 12.9878 48.6475C13.2593 48.5101 13.2593 48.5101 13.2593 48.5101C13.2593 48.5101 13.1235 48.5101 12.8521 48.5101C12.5806 48.5101 12.3091 48.5101 11.9019 48.6475C11.0875 48.785 9.86585 49.0598 8.50848 49.7469C7.15111 50.434 5.79374 51.396 4.43637 52.7702C4.43637 52.7702 4.43637 52.7702 4.43637 52.6328C4.97932 50.8463 5.52227 49.0598 5.92948 46.9985C6.06522 46.4488 6.06522 45.8991 6.06522 45.3494V43.8377C6.06522 42.8758 6.06522 42.0512 6.20095 41.0893C6.33669 39.3028 6.47243 37.3789 6.7439 35.455C6.87964 35.1801 7.01538 34.3556 7.28685 33.5311C7.55832 33.1188 7.8298 32.7065 8.10127 32.2943C8.37275 31.882 8.77996 31.4697 9.18717 31.0575C9.59438 30.7826 10.0016 30.5078 10.4088 30.2329C10.816 29.8207 11.359 29.5458 11.7662 29.271C12.3091 28.9961 12.7163 28.7213 13.2593 28.4464C14.2094 28.0342 15.1596 27.6219 15.974 27.2096C16.7884 26.7974 17.4671 26.5225 18.0101 26.2477C18.553 25.9728 18.8245 25.8354 18.8245 25.8354C18.8245 25.8354 18.553 25.8354 18.0101 25.8354C17.4671 25.8354 16.6527 25.8354 15.7025 25.9728C14.7524 26.1103 13.6665 26.2477 12.5806 26.6599C12.0376 26.7974 11.4947 27.0722 11.0875 27.2096C11.2232 26.7974 11.359 26.3851 11.4947 25.8354C11.6304 25.4231 11.7662 24.8734 11.9019 24.3238L12.1734 22.9495C12.3091 22.125 12.5806 21.3005 12.9878 20.4759C13.6665 18.8269 14.7524 17.4526 16.2455 16.4907C16.2455 16.4907 16.3812 16.4907 16.3812 16.3533C16.6527 16.2158 17.0599 16.2158 17.3314 16.0784C17.7386 15.941 18.1458 15.941 18.6888 15.8036C19.096 15.6661 19.6389 15.6661 20.0461 15.6661C20.4533 15.6661 20.9963 15.5287 21.4035 15.5287C21.8107 15.5287 22.3537 15.5287 22.7609 15.5287C23.1681 15.5287 23.5753 15.5287 23.9825 15.6661C24.3897 15.6661 24.7969 15.6661 25.0684 15.8036C25.4756 15.8036 25.7471 15.941 26.0186 15.941C26.29 15.941 26.5615 16.0784 26.833 16.0784C27.2402 16.2158 27.5117 16.2158 27.5117 16.2158C27.5117 16.2158 27.3759 16.0784 26.9687 15.6661C26.833 15.5287 26.5615 15.3913 26.29 15.1165C26.0186 14.979 25.7471 14.7042 25.3399 14.5668C24.9327 14.4293 24.6612 14.1545 24.1182 14.0171C23.711 13.8797 23.1681 13.7422 22.7609 13.6048C22.4894 13.6048 22.2179 13.4674 21.8107 13.4674C21.9464 13.0551 22.2179 12.7803 22.3537 12.368C22.8966 12.368 23.1681 11.8183 23.5753 11.2686C24.254 10.3067 25.0684 9.34472 25.8828 8.38276C26.6972 7.55823 27.6474 6.7337 28.5976 6.04658C29.1405 5.77174 29.5477 5.49689 30.0907 5.22205C30.3621 5.08463 30.6336 4.9472 30.9051 4.9472C31.1766 4.80978 31.448 4.80978 31.7195 4.67236H31.991H32.1267H32.5339C32.8054 4.67236 33.0769 4.53494 33.3484 4.53494C33.8913 4.53494 34.57 4.39751 35.1129 4.39751C35.5201 4.39751 35.7916 4.39751 36.1988 4.39751C36.3346 4.39751 36.3346 4.39751 36.4703 4.53494C37.0133 4.67236 37.8277 4.9472 38.7778 5.08463C39.3208 5.22205 39.728 5.35947 40.2709 5.49689C40.8139 5.63432 41.3568 5.77174 42.0355 5.90916C42.5785 6.04658 43.2572 6.32143 43.8001 6.45885C44.3431 6.59627 45.0217 6.87112 45.5647 7.14596C46.1076 7.42081 46.6506 7.69565 47.1935 7.9705C47.7365 8.24534 48.2794 8.65761 48.6866 8.93245C49.6368 9.61957 50.3155 10.4441 50.9942 11.1312C51.5371 11.8183 51.9443 12.6429 52.2158 13.1925C52.3515 13.4674 52.4873 13.7422 52.4873 13.8797C52.4873 14.0171 52.623 14.1545 52.623 14.1545C52.623 14.1545 52.623 14.0171 52.623 13.8797C52.623 13.7422 52.623 13.4674 52.623 13.1925C52.623 12.6429 52.4873 11.6809 52.0801 10.7189C51.6729 9.75699 50.9942 8.65761 49.9083 7.69565C49.3653 7.28338 48.8224 6.7337 48.2794 6.32143C47.8722 6.04658 47.3293 5.77174 46.7863 5.49689C47.1935 5.22205 47.7365 4.9472 48.1437 4.67236C48.6866 4.39751 49.2296 4.12267 49.7725 3.98525C50.3155 3.84783 50.8584 3.57298 51.4014 3.43556C51.6729 3.29814 51.9443 3.29814 52.2158 3.29814C52.4873 3.29814 52.7587 3.16071 53.0302 3.16071C53.5732 3.02329 54.1161 3.02329 54.6591 3.02329H54.7948C55.3377 3.16071 55.745 3.43556 56.2879 3.7104C56.8309 3.98525 57.2381 4.39751 57.6453 4.80978C58.0525 5.22205 58.4597 5.77174 58.8669 6.32143C59.2741 6.87112 59.6813 7.55823 60.2243 8.24534C60.7672 8.93245 61.3102 9.48214 61.7174 10.0318C62.2603 10.5815 62.8033 11.1312 63.3462 11.5435C64.4321 12.5054 65.6538 13.33 66.6039 13.8797C67.5541 14.4293 68.5042 14.8416 69.1829 15.1165C69.8616 15.3913 70.1331 15.5287 70.1331 15.5287C70.1331 15.5287 70.2688 15.1165 69.7259 14.7042C69.3187 14.2919 68.64 13.6048 67.8256 12.7803C67.0111 11.9557 66.061 10.9938 65.2466 10.0318C64.7036 9.48214 64.2964 8.93245 63.8892 8.38276C63.482 7.83307 62.939 7.28338 62.5318 6.7337C62.1246 6.18401 61.5817 5.49689 61.1744 4.9472C60.7672 4.39751 60.2243 3.84783 59.6813 3.43556H60.2243C60.7672 3.57298 61.4459 3.7104 61.9889 3.84783C62.5318 3.98525 63.0748 4.26009 63.7534 4.39751C64.2964 4.53494 64.8393 4.80978 65.3823 5.08463C65.6538 5.22205 65.9252 5.35947 66.1967 5.49689C66.7397 5.90916 67.2826 6.32143 68.097 6.87112C68.5042 7.28338 69.0472 7.55823 69.5901 7.9705C70.1331 8.38276 70.676 8.79503 71.219 9.2073C71.7619 9.61957 72.3049 10.1693 72.9836 10.5815C73.5265 10.9938 74.2052 11.5435 74.7481 11.9557C75.2911 12.368 75.9698 12.9177 76.5127 13.33C77.0557 13.7422 77.7344 14.2919 78.2773 14.7042C79.4989 15.5287 80.5848 16.3533 81.6707 16.7655C82.2137 17.0404 82.7566 17.1778 83.1638 17.4526C83.571 17.5901 83.9783 17.7275 84.3855 17.7275C85.0641 17.8649 85.4714 17.8649 85.4714 17.8649C85.4714 17.8649 85.1999 17.5901 84.5212 17.3152C84.2497 17.1778 83.8425 16.903 83.571 16.6281C83.1638 16.3533 82.7566 16.0784 82.3494 15.6661C81.535 14.979 80.4491 14.0171 79.3632 13.1925C78.8203 12.7803 78.2773 12.2306 77.7344 11.6809C77.1914 11.1312 76.5127 10.7189 75.9698 10.1693C75.834 10.0318 75.6983 9.89441 75.5626 9.89441C75.6983 9.89441 75.834 9.89441 76.1055 9.89441C76.6485 9.89441 77.0557 9.89441 77.5986 9.89441C78.5488 9.89441 79.6347 9.89441 80.5848 10.0318C81.535 10.0318 82.4851 10.1693 83.4353 10.3067L84.114 10.4441L84.6569 10.5815C84.7927 10.5815 85.1999 10.7189 85.3356 10.7189L85.7428 10.8564H86.0143C87.6432 11.4061 89.272 12.368 90.7651 13.6048C90.9008 13.7422 91.0366 13.8797 91.1723 13.8797C90.9008 13.7422 90.7651 13.7422 90.4936 13.7422C90.0864 13.6048 89.5435 13.4674 89.1363 13.4674C88.3218 13.33 87.6432 13.33 87.1002 13.33C86.5573 13.33 86.2858 13.33 86.2858 13.33C86.2858 13.33 86.5573 13.4674 86.9645 13.7422C87.3717 14.0171 88.0504 14.2919 88.729 14.7042C89.1363 14.8416 89.4077 15.1165 89.8149 15.2539C90.2222 15.5287 90.6294 15.6662 91.0366 15.941C91.4438 16.2158 91.851 16.4907 92.3939 16.6281C92.8012 16.903 93.3441 17.1778 93.7513 17.4526C94.1585 17.7275 94.7015 18.0023 95.1087 18.2772C95.5159 18.552 96.0588 18.8269 96.4661 18.9643C97.009 19.2391 97.6877 19.514 98.2306 19.7888C98.3664 19.9262 98.6379 20.2011 98.7736 20.3385C99.7237 21.4379 100.538 22.9495 101.624 24.3238C102.031 24.736 102.303 25.1483 102.71 25.5606C104.61 28.0342 105.153 29.9581 105.289 32.0194C104.882 31.6071 104.339 31.0575 103.932 30.6452C103.389 30.2329 102.846 29.8207 102.303 29.4084C101.76 28.9961 101.081 28.7213 100.674 28.309C100.131 28.0342 99.588 27.6219 99.1808 27.2096C98.6378 26.7974 98.2306 26.3851 97.6877 25.9728C97.2805 25.5606 96.7375 25.1483 96.3303 24.736C95.9231 24.3238 95.3802 24.0489 94.973 23.7741C94.1585 23.2244 93.3441 22.8121 92.8012 22.5373C92.2582 22.2624 91.851 22.2624 91.851 22.2624C91.851 22.2624 92.1225 22.5373 92.5297 22.9495C92.9369 23.3618 93.4798 24.0489 94.1585 24.736C94.43 25.1483 94.8372 25.5606 95.2444 25.9728C95.6516 26.3851 96.0588 26.9348 96.4661 27.3471C96.8733 27.7593 97.4162 28.309 97.9592 28.7213C98.5021 29.1335 99.0451 29.5458 99.7237 29.9581C100.402 30.3703 100.945 30.6452 101.488 30.92C102.031 31.1949 102.574 31.4697 103.117 31.882C104.203 32.5691 105.017 33.1188 105.696 33.8059C105.696 36.0047 105.696 38.6157 106.646 42.4635C106.782 43.1506 107.054 43.8377 107.189 44.5249C106.646 44.1126 106.239 43.7003 105.696 43.288C104.882 42.7384 103.932 42.1887 103.117 41.639C102.303 41.2267 101.353 40.8144 100.674 40.4022C99.0451 39.7151 97.6877 39.028 96.4661 38.3408C95.2444 37.6537 94.43 36.9666 93.7513 36.4169C93.0726 35.8672 92.8012 35.455 92.8012 35.455C92.8012 35.455 92.8012 36.0047 93.2084 36.8292C93.4799 37.6537 94.1585 38.7531 95.2444 39.9899C96.3303 41.0893 97.6877 42.1887 99.1808 43.288C99.9952 43.8377 100.674 44.25 101.488 44.7997C102.303 45.3494 102.981 45.7617 103.66 46.3113C104.339 46.861 105.017 47.4107 105.696 47.9604C106.375 48.5101 107.054 49.0598 107.596 49.7469C108.818 50.9837 109.768 52.2205 110.718 53.3199L110.854 53.4573C111.261 55.2438 111.261 57.4426 110.04 61.4278C107.054 71.3222 110.175 70.91 110.175 80.2547C110.175 81.7663 110.04 83.1405 109.904 84.5148C109.633 84.7896 109.497 85.2019 109.225 85.6141C108.818 86.4387 108.547 87.4006 108.139 88.5C108.004 89.0497 107.868 89.5994 107.732 90.1491C107.596 90.6988 107.461 91.2485 107.325 91.7982C107.189 92.3478 107.054 92.8975 106.918 93.3098C106.782 93.8595 106.646 94.2718 106.375 94.684C106.103 95.0963 105.968 95.5086 105.696 95.9208C105.425 96.3331 105.289 96.6079 105.017 97.0202C104.475 97.7073 104.067 98.1196 103.66 98.3944C103.253 98.6693 102.981 98.8067 102.981 98.8067C102.981 98.8067 103.253 98.8067 103.796 98.6693C104.339 98.5319 105.017 98.257 105.832 97.7073C106.239 97.4325 106.646 97.1576 106.918 96.7454C107.054 96.6079 107.189 96.4705 107.189 96.3331C107.054 97.0202 107.054 97.7073 106.918 98.257C106.782 103.479 100.81 106.502 98.7736 109.938C98.7736 109.8 98.7736 109.526 98.6379 109.388C98.6379 108.976 98.5021 108.564 98.3664 108.151C98.0949 107.327 97.8234 106.777 97.552 106.365C97.2805 105.953 97.1447 105.815 97.1447 105.815C97.1447 105.815 97.1448 106.09 97.2805 106.502C97.2805 106.915 97.4162 107.602 97.2805 108.289C97.2805 108.701 97.2805 108.976 97.2805 109.388C97.2805 109.8 97.1447 110.213 97.1447 110.625C97.1447 111.037 97.009 111.45 96.8733 111.999C96.7375 112.412 96.7375 112.961 96.6018 113.373C96.4661 113.786 96.4661 114.335 96.3303 114.748C96.3303 115.023 96.1946 115.297 96.1946 115.572C95.5159 116.397 94.8372 116.809 94.1585 117.084C93.7513 117.359 93.2084 117.496 92.6654 117.771C92.1225 117.908 91.5795 118.183 91.1723 118.321C90.6294 118.458 90.0864 118.596 89.5435 118.733C89.0005 118.733 88.4576 118.87 87.9146 118.87H87.5074C87.3717 118.87 87.2359 118.87 87.1002 118.87C86.8287 118.87 86.5573 118.87 86.4215 118.87C86.0143 118.733 85.4714 118.733 85.0641 118.596C84.7927 118.596 84.6569 118.458 84.5212 118.458C84.3855 118.458 84.114 118.321 83.9783 118.321C83.571 118.183 83.2996 118.183 83.0281 118.046C82.4851 117.908 82.2137 117.771 82.2137 117.771C82.2137 117.771 82.3494 118.046 82.7566 118.458C82.8924 118.733 83.1638 118.87 83.4353 119.145C83.571 119.283 83.7068 119.42 83.9783 119.557C84.114 119.695 84.3855 119.832 84.5212 119.97C84.9284 120.245 85.4714 120.382 85.8786 120.657C86.15 120.794 86.4215 120.794 86.693 120.932C86.8287 120.932 86.9645 121.069 87.1002 121.069C87.2359 121.069 87.3717 121.069 87.5074 121.069C88.0504 121.207 88.729 121.207 89.4077 121.069C90.0864 120.932 90.7651 120.932 91.3081 120.794C91.9867 120.657 92.5297 120.382 93.0726 120.107C93.6156 119.832 94.1585 119.557 94.7015 119.145C94.973 119.008 95.1087 118.87 95.3802 118.596C95.3802 118.87 95.3802 119.283 95.3802 119.557C95.3802 119.832 95.3802 120.107 95.3802 120.382C93.7513 124.917 91.1723 130.689 87.5074 134.949C86.9645 135.636 86.5573 136.186 86.15 136.735C86.2858 136.323 86.2858 136.048 86.4215 135.636C86.5573 135.086 86.5573 134.399 86.693 133.987C86.9645 131.925 86.8287 130.414 86.8287 130.414C86.8287 130.414 86.2858 131.788 85.4714 133.712C85.3356 134.262 85.0642 134.674 84.9284 135.224C84.7927 135.773 84.5212 136.323 84.2497 137.01C83.9783 137.56 83.8425 138.247 83.571 138.934C83.2996 139.621 83.0281 140.171 82.8924 140.858C82.6209 141.545 82.3494 142.095 82.2137 142.782C81.9422 143.469 81.6707 144.019 81.535 144.706C80.992 145.943 80.5848 147.042 80.3134 148.004C80.1776 148.279 80.0419 148.691 79.9061 148.966C78.5488 150.34 76.6485 151.577 73.6622 152.676C71.7619 153.363 70.1331 154.188 68.9115 154.875C68.64 155.012 68.3685 155.012 68.2328 155.15C67.4183 155.425 66.7397 155.7 65.9252 155.974C65.1108 156.249 64.4321 156.524 63.6177 156.936C62.8033 157.211 62.1246 157.623 61.3102 157.898C60.4958 158.173 59.8171 158.585 59.1384 158.86C58.4597 159.135 57.781 159.547 57.1023 159.822C56.4236 160.097 55.8807 160.509 55.3377 160.784C53.166 162.021 51.6729 162.846 51.6729 162.846C51.6729 162.846 53.3017 162.571 55.745 161.884C56.2879 161.746 56.9666 161.471 57.6453 161.334C58.324 161.059 59.0026 160.922 59.8171 160.647C60.4958 160.372 61.3102 160.097 62.1246 159.822C62.8033 159.547 63.3462 159.41 64.0249 159.135C62.3961 160.784 60.903 162.158 56.9666 163.258C49.5011 165.319 41.8998 165.319 38.2349 163.258C38.0991 162.846 37.8277 162.571 37.5562 162.296C38.3706 162.296 39.0493 162.433 39.8637 162.433C40.6782 162.433 41.6283 162.296 42.4427 162.296C44.0716 162.021 45.5647 161.746 46.9221 161.196C47.6007 160.922 48.1437 160.784 48.5509 160.509C49.0938 160.234 49.5011 160.097 49.7725 159.822C50.4512 159.41 50.8584 159.135 50.8584 159.135C50.8584 159.135 50.4512 159.273 49.6368 159.41C49.2296 159.547 48.8224 159.547 48.2794 159.685C47.7365 159.822 47.1935 159.96 46.5148 159.96C45.2932 160.234 43.8001 160.234 42.1713 160.372C41.3568 160.372 40.5424 160.372 39.728 160.372C38.9136 160.372 38.0992 160.234 37.2847 160.234C36.4703 160.097 35.6559 160.097 34.8415 159.822C34.027 159.685 33.2126 159.547 32.5339 159.273C31.7195 158.998 31.0408 158.86 30.3621 158.585C29.6835 158.311 29.0048 158.173 28.4618 157.898C28.1903 157.761 27.9189 157.623 27.6474 157.623C27.3759 157.486 27.1045 157.349 26.833 157.349C26.6972 157.349 26.5615 157.211 26.4258 157.211C26.29 157.074 26.0186 156.936 25.8828 156.662C25.3399 156.112 24.7969 155.562 24.254 155.012C23.5753 153.638 23.1681 153.089 22.7609 152.539Z" fill="#333333"/>
<path d="M54.9304 89.5994C54.3875 89.1871 53.7088 89.0497 53.0301 88.9123C52.3514 88.9123 51.6727 88.9123 51.1298 89.0497C50.5868 89.1871 50.0439 89.462 49.5009 89.5994C49.0937 89.7368 48.6865 90.0116 48.415 90.1491C48.1435 90.2865 48.0078 90.4239 48.0078 90.4239C48.0078 90.4239 48.1435 90.4239 48.415 90.4239C48.6865 90.4239 49.0937 90.2865 49.5009 90.2865C49.9081 90.1491 50.4511 90.1491 50.994 90.1491C51.537 90.1491 52.0799 90.0116 52.7586 90.1491C53.3016 90.1491 53.8445 90.2865 54.3875 90.5613C54.7947 90.8362 55.3376 91.111 55.6091 91.3859C55.8806 91.6607 56.152 91.9356 56.2878 92.2104C56.4235 92.4852 56.5592 92.6227 56.5592 92.6227C56.5592 92.6227 56.5593 92.4852 56.4235 92.2104C56.2878 91.9356 56.2878 91.5233 56.0163 91.111C55.8806 90.4239 55.4734 89.8742 54.9304 89.5994Z" fill="#333333"/>
<path d="M22.4897 93.0349C23.0326 92.073 23.5756 90.9736 23.9828 89.8742C24.5257 88.7748 24.933 87.6754 25.3402 86.5761C25.4759 86.1638 25.7474 85.6141 25.8831 85.2018C25.8831 86.7135 26.1546 88.2251 26.4261 89.5994C27.2405 92.8975 28.8693 95.2337 30.091 96.6079C30.6339 97.295 31.1769 97.8447 31.5841 98.257C31.9913 98.6692 32.127 98.8067 32.127 98.8067C32.127 98.8067 31.9913 98.5318 31.7198 98.257C31.4483 97.8447 31.0411 97.295 30.4982 96.4705C29.548 94.9588 28.1906 92.4852 27.7834 89.3245C27.512 87.8129 27.512 86.0264 27.512 84.2399C27.6477 82.4534 28.0549 80.5295 28.3264 78.4681C28.4621 77.6436 28.5979 76.8191 28.5979 75.9945C28.7336 75.9945 28.7336 76.132 28.8693 76.132C29.4123 76.4068 29.9552 76.5442 30.6339 76.6817C30.9054 76.8191 31.3126 76.8191 31.5841 76.8191C31.9913 76.8191 32.2628 76.9565 32.67 76.9565C33.0772 76.9565 33.3487 76.9565 33.7559 76.9565C34.1631 76.9565 34.4345 76.9565 34.8418 76.8191C35.5204 76.6817 36.0634 76.5442 36.6063 76.4068C36.6063 76.4068 36.7421 76.4068 36.7421 76.2694C36.7421 76.5442 36.7421 76.8191 36.7421 77.0939C36.8778 80.8043 36.7421 84.7896 36.3349 88.7748C36.1991 90.6987 35.9277 92.7601 35.6562 94.684C35.5204 95.6459 35.249 96.6079 35.249 97.7073C35.249 98.257 35.3847 98.8067 35.6562 99.3563C35.9277 99.906 36.4706 100.318 36.8778 100.593C37.1493 100.731 37.4208 100.731 37.6922 100.868C40.5427 102.517 42.1716 102.517 42.1716 102.517C42.1716 102.517 36.0634 103.891 34.8418 106.365C33.6201 108.701 33.4844 112.137 34.9775 115.572C35.5204 116.809 36.0634 116.809 37.0136 115.572C38.0994 114.335 38.3709 111.724 39.0496 111.175C39.5926 110.625 41.7643 109.526 43.9361 110.213C45.9722 110.762 47.1938 110.625 48.8227 110.488C50.3158 110.35 51.8089 110.35 54.3879 111.862C54.2522 111.862 54.1164 111.999 53.9807 111.999C52.759 112.549 51.1302 112.961 49.5014 113.373C47.8725 113.648 46.1079 113.786 44.7506 113.786C43.3932 113.786 42.5788 113.648 42.5788 113.648C42.5788 113.648 43.3932 113.923 44.7506 114.061C46.1079 114.335 47.8725 114.473 49.6371 114.335C51.4017 114.335 53.1663 114.061 54.5236 113.648C55.338 113.373 56.0167 113.236 56.4239 113.099C57.9171 114.061 59.0029 114.198 59.5459 114.198C60.0888 114.198 60.3603 114.061 60.3603 114.061C59.6816 113.648 59.2744 113.099 58.8672 112.686C57.3741 109.526 55.6095 105.128 53.9807 104.166C53.302 103.754 52.4876 103.479 51.5374 103.342C52.6233 102.105 54.2521 99.7686 55.6095 96.333C55.7453 96.1956 55.7453 96.0582 55.881 95.9208C56.1525 95.3711 56.1525 95.0962 56.1525 95.0962C56.1525 95.0962 56.1525 95.0963 56.0167 95.2337C55.881 95.2337 55.7453 95.3711 55.4738 95.5085C55.0666 95.6459 54.3879 95.9208 53.7092 96.0582C52.8948 96.1956 52.0804 96.1956 50.8587 96.1956C49.7728 96.1956 48.4155 96.0582 46.7866 96.333C45.9722 96.4705 45.1578 96.7453 44.3433 97.0202C43.5289 97.4324 42.8502 97.8447 42.0358 98.257C41.3571 98.6692 40.5427 99.0815 39.864 99.3563C39.1853 99.6312 38.2352 99.7686 37.6922 99.4938C37.0136 99.2189 36.7421 98.5318 36.7421 97.7073C36.7421 96.8827 37.0135 95.9208 37.1493 94.9588C37.4208 93.0349 37.6922 90.9736 37.9637 89.0497C38.3709 85.0644 38.7781 80.9418 38.7781 77.2313C38.7781 75.3074 38.9139 73.5209 38.5067 71.597C38.2352 70.6351 37.9637 69.6731 37.4208 68.8486C37.285 68.5737 37.1493 68.5737 37.0136 68.2989C36.8778 68.0241 36.6063 67.8866 36.4706 67.7492C36.0634 67.4744 35.7919 67.1995 35.3847 66.9247C33.8916 65.9627 32.2628 65.8253 30.9054 65.8253C29.548 65.8253 28.4621 65.9627 27.6477 66.2376C27.1047 66.375 26.6975 66.375 26.2903 66.5124C26.8333 64.7259 27.7834 62.802 28.3264 60.7407C28.5979 59.6413 28.8693 58.5419 28.7336 57.3051C28.7336 56.7554 28.5979 56.3432 28.5979 55.7935C30.3624 46.4487 29.6838 39.3028 34.9775 34.6304C35.5204 34.2182 36.0634 33.8059 36.6063 33.3936C37.1493 33.2562 37.828 33.1188 38.3709 32.9814C38.6424 32.9814 39.0496 33.1188 39.3211 33.1188C40.407 33.2562 41.3571 33.1188 42.443 32.9814C44.6148 32.7065 46.7866 32.1568 49.0941 32.1568C50.18 32.1568 51.4017 32.1568 52.4876 32.4317C53.0305 32.5691 53.5735 32.7065 54.2521 32.8439C54.5236 32.9814 54.7951 32.9814 55.0666 33.1188C55.338 33.2562 55.6095 33.3936 55.881 33.3936C56.4239 33.5311 56.9669 33.9433 57.5098 34.2182C57.7813 34.3556 58.0528 34.493 58.3243 34.6304C58.5957 34.7679 58.8672 34.9053 59.0029 35.1801C59.9531 35.8672 60.7675 36.8292 61.582 37.7911C63.2108 39.8525 64.5682 42.3261 66.6042 44.6623C68.6403 46.9984 71.0835 48.7849 73.7983 50.1592L74.2055 50.2966V50.7088C74.2055 51.2585 74.0698 51.9456 74.2055 52.4953C74.2055 53.7321 74.3412 54.8315 74.6127 55.9309C74.8842 57.3051 75.4271 58.6793 76.1058 59.9161C76.3773 60.6032 76.7845 61.1529 77.056 61.7026C77.4632 62.2523 77.8704 62.802 78.1419 63.3517C79.635 65.2756 81.1281 67.0621 82.6212 68.5737C84.9287 71.1848 87.1005 73.2461 88.7294 74.8952C88.8651 75.5823 89.0008 76.2694 89.2723 76.9565C89.408 77.6436 89.6795 78.3307 89.951 79.0178V79.1553C89.5438 80.1172 89.2723 81.2166 88.8651 82.316C88.0507 84.5147 86.9648 87.1258 85.4717 89.5994C85.0645 90.2865 84.6572 90.8362 84.25 91.5233C83.8428 92.073 83.4356 92.7601 83.0284 93.3098L82.3497 94.1343L81.9425 94.5466L81.5353 94.9588L80.7209 95.7834C80.4494 96.0582 80.1779 96.3331 79.9064 96.6079C78.8205 97.7073 77.7347 98.5318 76.513 99.2189C76.2415 99.3563 75.8343 99.4938 75.5629 99.6312C75.4271 99.7686 75.2914 99.7686 75.1557 99.906L74.7484 100.043C74.477 100.181 74.2055 100.181 73.934 100.318C73.7983 100.318 73.6625 100.318 73.5268 100.318C72.5766 100.456 71.4908 100.456 70.4049 100.318C69.1832 100.318 68.0973 100.043 66.8757 99.6312C65.6541 99.3563 64.5682 98.8066 63.618 98.257C62.5321 97.7073 61.7177 97.0202 61.039 96.4705C60.3603 95.9208 59.6816 95.3711 59.4102 94.9588C59.0029 94.5466 58.8672 94.2717 58.8672 94.2717C58.8672 94.2717 59.0029 94.5466 59.2744 95.0962C59.5459 95.6459 59.9531 96.333 60.6318 97.0202C61.3105 97.7073 62.1249 98.5318 63.2108 99.3563C63.7537 99.7686 64.4324 100.043 64.9754 100.318C62.9393 99.906 61.3105 99.2189 60.0888 98.6692C58.7315 98.1195 58.0528 97.7073 58.0528 97.7073C58.0528 97.7073 58.5957 98.3944 59.6816 99.3563C60.7675 100.318 62.5321 101.693 64.8396 102.654C66.0613 103.204 67.4186 103.616 68.9118 103.891C69.5904 104.029 70.4049 104.029 71.2193 104.166C71.6265 104.166 72.0337 104.166 72.4409 104.166H73.1196C73.3911 104.166 73.5268 104.166 73.7983 104.029C74.2055 104.029 74.6127 103.891 75.0199 103.891C75.4271 103.754 75.8343 103.754 76.3773 103.616L77.056 103.479C77.3274 103.479 77.4632 103.342 77.7347 103.204C78.1419 103.067 78.5491 102.792 78.9563 102.654C80.5851 101.83 82.0782 100.731 83.4356 99.4938C83.7071 99.2189 84.1143 98.9441 84.3858 98.5318L85.2002 97.5699L85.6074 97.0202L86.0146 96.4705C86.2861 96.0582 86.5576 95.7834 86.829 95.3711C87.372 94.684 87.7792 93.8595 88.1864 93.1723C88.5936 92.4852 88.8651 91.6607 89.2723 90.9736C90.6297 88.0877 91.3083 85.0644 91.7156 82.5908C91.7156 82.316 91.8513 82.1786 91.8513 81.9037C91.987 82.1786 92.1228 82.4534 92.2585 82.7282C93.0729 84.3773 94.0231 85.7515 94.7018 86.5761C94.9733 86.9883 95.2447 87.4006 95.5162 87.538C95.6519 87.8129 95.7877 87.8129 95.7877 87.8129C95.7877 87.8129 95.7877 87.6754 95.6519 87.4006C95.5162 87.1258 95.3805 86.7135 95.2447 86.1638C94.9733 85.0644 94.566 83.6902 94.0231 81.9037C93.7516 80.8043 93.4802 79.4301 93.2087 78.0559C93.0729 77.3688 92.9372 76.5442 92.8015 75.8571C92.6657 74.7577 92.53 73.6584 92.3942 72.4216C92.2585 71.1848 92.2585 70.0854 92.1228 68.8486C91.987 67.6118 91.987 66.375 91.7156 65.0008C91.4441 63.6265 91.0369 62.3897 90.4939 61.1529C89.8153 59.9161 88.8651 58.9542 88.0507 58.2671C87.2362 57.58 86.2861 57.0303 85.6074 56.4806C84.1143 55.5186 83.0284 54.5567 82.3497 53.7321C82.0782 53.3199 81.8068 52.9076 81.671 52.6328C81.5353 52.3579 81.5353 52.2205 81.5353 52.2205C81.5353 52.2205 81.5353 52.3579 81.5353 52.6328C81.5353 52.9076 81.5353 53.3199 81.8068 54.007C82.0782 55.1064 83.0284 56.618 84.25 57.9922C85.4717 59.3665 87.1005 60.8781 87.7792 62.5272C88.1864 63.3517 88.3221 64.4511 88.4579 65.5505C88.5936 66.6498 88.5936 67.8866 88.7294 69.1234C88.7294 70.2228 88.8651 71.4596 89.0008 72.559C87.7792 70.9099 86.4218 68.986 84.793 66.9247C83.5713 65.2756 82.214 63.3517 80.8566 61.4278C80.5851 60.8781 80.3137 60.4658 79.9064 59.9161C79.635 59.3664 79.3635 58.9542 79.092 58.4045C78.6848 57.3051 78.2776 56.2057 78.0061 54.9689C77.8704 54.007 77.7347 53.1824 77.7347 52.2205C77.7347 51.8082 77.7347 51.2585 77.8704 50.8463V50.434C77.8704 50.1592 78.0061 49.8843 78.0061 49.6095C78.1419 49.0598 78.2776 48.5101 78.4133 47.9604C77.4632 47.5481 76.513 46.9984 75.5629 46.5862C73.2553 45.3494 71.2193 43.8377 69.4547 41.9138C67.6901 39.9899 66.3327 37.5163 64.4324 35.3175C63.4823 34.2182 62.3964 33.1188 61.1747 32.1568C61.039 32.0194 60.7675 31.882 60.6318 31.7446C61.1747 31.6071 61.8534 31.3323 62.2606 31.1949C63.3465 30.6452 64.2967 30.0955 64.7039 29.5458C64.9754 29.271 65.1111 29.1335 65.2468 28.9961C65.3826 28.8587 65.3826 28.7213 65.3826 28.7213C65.3826 28.7213 64.9754 28.8587 64.4324 28.9961C63.7537 29.1335 62.9393 29.271 61.8534 29.4084C60.7675 29.5458 59.5459 29.5458 58.1885 29.4084C57.5098 29.4084 56.8312 29.271 56.1525 29.271C55.4738 29.1335 54.6594 29.1335 53.9807 28.9961C53.302 28.9961 52.4876 28.8587 51.6731 28.8587C50.8587 28.8587 50.18 28.8587 49.5014 28.8587C49.0941 28.8587 48.8227 28.8587 48.4155 28.8587C49.5014 28.1716 50.4515 27.4845 51.1302 27.0722C52.0804 26.2477 52.6233 25.8354 52.6233 25.8354C52.6233 25.8354 51.9446 26.1102 50.8587 26.5225C49.7728 26.9348 48.144 27.4845 46.1079 28.0342C44.2076 28.5839 41.9001 29.1335 39.4568 29.4084C38.2352 29.5458 36.8778 29.6832 35.5204 29.9581C34.1631 30.2329 32.5342 30.6452 31.1769 31.3323C30.4982 31.7446 29.8195 32.1568 29.1408 32.8439C28.4621 33.3936 27.9192 34.2182 27.6477 35.0427C26.969 36.5543 26.6975 38.066 26.4261 39.1654C25.8831 41.3641 24.39 43.288 23.4398 45.212C22.354 47.1359 21.9467 49.0598 21.9467 50.2966C21.9467 50.9837 22.0825 51.396 22.2182 51.8082C22.354 52.0831 22.354 52.3579 22.354 52.3579C22.354 52.3579 22.354 52.2205 22.354 51.8082C22.354 51.5334 22.4897 50.9837 22.6254 50.434C22.8969 49.3346 23.7113 47.823 25.0687 46.3113C25.3402 46.0365 25.6116 45.7616 25.7474 45.4868C25.6116 45.8991 25.4759 46.1739 25.3402 46.5862C24.933 47.6856 24.5257 48.9224 24.2543 50.1592C23.9828 51.396 23.7113 52.6328 23.3041 53.5947C23.0326 54.6941 22.6254 55.5186 21.9467 56.3432C21.4038 57.1677 20.5894 57.8548 19.775 58.5419C18.9605 59.229 18.0104 59.9161 17.1959 60.6032C16.3815 61.2904 15.5671 61.84 14.7527 62.2523C13.2596 63.2143 11.9022 63.6265 10.8163 63.9014C10.2734 64.0388 9.86615 64.0388 9.59467 64.0388C9.3232 64.0388 9.18746 64.0388 9.18746 64.0388C9.18746 64.0388 9.3232 64.1762 9.59467 64.1762C9.86615 64.3137 10.2734 64.4511 10.8163 64.5885C11.9022 64.8633 13.6668 64.8633 15.5671 64.1762C16.5173 63.9014 17.4674 63.4891 18.5533 62.9394C19.5035 62.3897 20.5894 61.84 21.5395 61.1529C22.6254 60.4658 23.7113 59.6413 24.5257 58.5419L24.6615 58.4045C24.6615 58.5419 24.6615 58.5419 24.6615 58.6793C24.6615 59.0916 24.6615 59.5039 24.6615 59.9161C24.39 61.1529 23.8471 62.3897 23.1684 63.4891C22.8969 63.9014 22.6254 64.3137 22.354 64.5885C22.0825 65.0008 21.6753 65.2756 21.2681 65.6879C20.8608 66.1001 20.4536 66.5124 20.0464 67.0621C19.6392 67.6118 19.232 68.2989 18.9605 68.8486C18.4176 70.0854 18.0104 71.1848 17.7389 72.1467C17.3317 73.1087 16.9245 74.0706 16.3815 74.8952C15.0242 76.9565 13.8025 78.4682 12.7166 79.705C11.6307 80.9417 10.4091 81.7663 9.59467 82.4534C9.18746 82.7282 8.91599 83.0031 8.64452 83.1405C8.37304 83.2779 8.2373 83.4154 8.2373 83.4154C8.2373 83.4154 8.37304 83.4154 8.64452 83.4154C8.91599 83.4154 9.3232 83.2779 9.86615 83.1405C10.8163 82.8657 12.3094 82.316 13.9383 81.354C15.4314 80.3921 17.1959 79.0178 18.5533 77.0939C19.232 76.132 19.9107 75.0326 20.4536 73.9332C20.9966 72.8338 21.2681 71.7345 21.811 70.7725C21.9467 70.6351 21.9467 70.4977 22.0825 70.3602C21.811 71.3222 21.9467 72.6964 22.354 74.0706C22.8969 75.9945 23.9828 77.781 23.9828 79.4301C23.9828 80.2546 23.8471 81.2166 23.4398 82.1786C23.0326 83.1405 22.6254 84.2399 22.2182 85.3393C21.811 86.4386 21.4038 87.538 20.9966 88.6374C20.5894 89.7368 20.1822 90.8362 19.775 91.7981C18.9605 93.8595 18.2818 95.7834 17.7389 97.5699C17.1959 99.2189 16.653 100.731 16.3815 101.693C16.1101 102.654 15.9743 103.342 15.9743 103.342C15.9743 103.342 16.3815 102.929 17.0602 102.105C17.7389 101.28 18.6891 100.043 19.6392 98.5318C20.3179 96.8827 21.4038 95.0962 22.4897 93.0349ZM53.9807 108.289C50.9945 106.502 47.4653 108.289 43.9361 107.327C42.0358 106.777 41.0857 107.052 40.407 107.327C41.9001 105.815 43.1217 106.365 45.2935 106.502C47.7368 106.502 49.6371 105.128 52.759 107.327C53.0305 107.602 53.5735 107.877 53.9807 108.289ZM34.706 70.3602C35.1132 70.4977 35.3847 70.6351 35.6562 70.7725C35.9277 71.0473 36.0634 71.4596 36.1991 71.8719C36.0634 71.8719 36.0634 71.8719 35.9277 71.8719C35.3847 71.8719 34.8418 71.7345 34.2988 71.7345C34.0273 71.7345 33.7559 71.7345 33.3487 71.7345C33.0772 71.7345 32.8057 71.8719 32.3985 71.8719C32.127 71.8719 31.7198 72.0093 31.4483 72.1467C31.1769 72.2841 30.9054 72.2841 30.6339 72.4216C30.091 72.6964 29.548 72.9713 29.1408 73.2461C28.8693 73.5209 28.5979 73.7958 28.3264 73.9332C28.1906 73.2461 28.0549 72.559 27.7834 72.0093L27.3762 71.1848L27.1047 70.7725C27.2405 70.7725 27.3762 70.6351 27.512 70.6351C28.4621 70.3602 29.8195 70.0854 31.1769 69.948C32.5342 69.8105 33.7559 70.0854 34.706 70.3602ZM27.512 68.0241C28.3264 68.1615 29.4123 68.1615 30.4982 68.2989C30.6339 68.2989 30.7696 68.2989 30.9054 68.4363C29.548 68.986 28.1906 69.6731 27.3762 70.2228C27.2405 70.3602 27.1047 70.3602 26.969 70.4977L26.4261 69.8105L26.1546 69.2609C25.8831 68.8486 25.8831 68.2989 25.8831 67.8866C26.2903 67.8866 26.8333 67.8866 27.512 68.0241Z" fill="#333333"/>
<path d="M82.3496 41.9138C82.3496 41.9138 82.7568 42.3261 83.5712 43.0132C84.2499 43.7003 85.3358 44.6623 86.4217 46.0365C86.6932 46.3113 86.9647 46.7236 87.2361 46.9984C87.5076 47.4107 87.7791 47.6856 88.0506 48.0978C88.322 48.5101 88.5935 48.9224 88.865 49.3346C89.1365 49.7469 89.4079 50.1592 89.6794 50.7089C89.9509 51.1211 90.2224 51.6708 90.3581 52.0831C90.4938 52.3579 90.6296 52.6328 90.7653 52.7702L91.0368 53.4573C91.444 54.4193 91.8512 55.5186 92.1227 56.618C92.3942 57.7174 92.6656 58.6793 92.8014 59.7787C92.9371 60.8781 93.0728 61.9775 93.0728 62.9394C93.2086 65.1382 93.3443 67.1995 93.8873 68.986C94.4302 70.7725 95.1089 72.1467 95.7876 72.8338C96.059 73.2461 96.4663 73.521 96.602 73.6584C96.8735 73.7958 96.8735 73.9332 96.8735 73.9332C96.8735 73.9332 96.7377 73.7958 96.602 73.521C96.4663 73.2461 96.1948 72.9713 96.0591 72.559C95.6518 71.597 95.2446 70.3602 95.1089 68.7112C94.9732 67.0621 94.9732 65.1382 95.1089 62.9394C95.1089 61.8401 95.1089 60.7407 94.9732 59.5039C94.8374 58.2671 94.5659 57.1677 94.2945 55.9309C93.8873 54.8315 93.48 53.5947 93.0728 52.4953C92.9371 52.2205 92.8014 51.9456 92.6656 51.6708C92.5299 51.396 92.3941 51.1211 92.2584 50.8463C91.9869 50.2966 91.7155 49.8843 91.3083 49.3346C91.0368 48.9224 90.6296 48.3727 90.3581 47.9604C90.0866 47.5481 89.6794 47.1359 89.4079 46.7236C89.0007 46.3113 88.7292 46.0365 88.322 45.6242C87.9148 45.3494 87.6434 44.9371 87.2361 44.6623C85.8788 43.5629 84.6571 42.7384 83.707 42.3261C82.8926 42.1887 82.3496 41.9138 82.3496 41.9138Z" fill="#333333"/>
<path d="M91.9863 42.8758C92.122 43.288 92.3935 43.8377 92.5292 44.25C92.8007 44.7997 92.9365 45.212 93.3437 45.7616C93.6151 46.3113 93.8866 46.861 94.2938 47.4107C94.5653 47.9604 94.9725 48.5101 95.244 48.9224C95.6512 49.472 95.9227 49.8843 96.3299 50.434C96.6013 50.9837 97.0086 51.396 97.28 51.9457C97.9587 52.9076 98.5017 53.7321 98.9089 54.5567C99.1804 54.9689 99.3161 55.3812 99.5876 55.6561C99.859 55.9309 99.9948 56.2057 100.131 56.4806C100.402 56.8929 100.538 57.1677 100.538 57.1677C100.538 57.1677 100.538 56.8929 100.402 56.3432C100.402 56.0683 100.266 55.6561 100.266 55.3812C100.131 54.9689 100.131 54.5567 99.9948 54.1444C99.7233 53.1825 99.3161 52.2205 98.7731 51.1211C98.5017 50.5714 98.2302 50.0217 97.9587 49.472C97.6873 48.9224 97.28 48.3727 97.0086 47.823C96.6013 47.2733 96.3299 46.861 95.9227 46.3113C95.5155 45.7616 95.244 45.3494 94.8368 44.7997C94.5653 44.3874 94.1581 43.8377 93.8866 43.4255C93.6151 43.0132 93.3437 42.6009 93.0722 42.1887C92.5292 41.5016 92.122 40.8144 91.7148 40.4022C91.4433 39.9899 91.1719 39.7151 91.1719 39.7151C91.1719 39.7151 91.1719 39.9899 91.3076 40.5396C91.4433 41.2267 91.5791 41.9138 91.9863 42.8758Z" fill="#333333"/>
<path d="M102.574 75.3075C102.71 76.132 102.846 76.9565 103.117 77.7811C103.524 79.2927 104.067 80.6669 104.61 81.9037C105.153 83.0031 105.696 83.9651 106.103 84.5147C106.511 85.0644 106.782 85.4767 106.782 85.4767C106.782 85.4767 106.646 85.0644 106.511 84.3773C106.375 83.6902 106.103 82.7283 105.832 81.4915C105.56 80.2547 105.289 78.8804 105.017 77.3688C104.882 76.6817 104.882 75.8571 104.746 75.0326C104.61 74.2081 104.61 73.3835 104.61 72.6964C104.61 71.8719 104.475 71.0474 104.475 70.3602C104.475 69.5357 104.475 68.8486 104.475 68.0241C104.475 67.1995 104.475 66.5124 104.475 65.8253C104.475 65.1382 104.475 64.4511 104.475 63.764C104.61 61.2904 104.475 59.6413 104.475 59.6413C104.475 59.6413 103.796 61.153 103.253 63.6266C103.117 64.1762 102.981 64.8634 102.846 65.5505C102.71 66.2376 102.574 67.0621 102.438 67.7492C102.303 68.5738 102.303 69.3983 102.303 70.2228C102.303 71.0474 102.303 71.8719 102.303 72.6964C102.303 73.6584 102.438 74.4829 102.574 75.3075Z" fill="#333333"/>
<path d="M26.6972 151.989C27.1045 152.401 27.6474 153.089 28.5976 153.638C29.0048 153.913 29.5477 154.188 30.0907 154.463C30.6336 154.738 31.1766 154.875 31.8553 155.15C32.5339 155.287 33.2126 155.425 33.8913 155.425C34.57 155.425 35.2487 155.425 35.9274 155.425C36.606 155.287 37.2847 155.15 37.9634 155.012C38.6421 154.875 39.1851 154.6 39.8637 154.188C40.6782 153.776 41.3568 153.226 42.0355 152.814C42.1713 152.676 42.307 152.676 42.4427 152.539C42.8499 152.264 43.2572 151.852 43.6644 151.439C43.8001 151.165 44.0716 151.027 44.2073 150.752L44.3431 150.615L44.4788 150.477V150.615L44.6145 150.752C45.0217 151.302 45.429 151.714 45.7004 152.127C46.5148 152.951 47.3293 153.638 48.1437 154.05C48.9581 154.463 49.6368 154.875 50.044 155.012C50.587 155.15 50.8584 155.287 50.8584 155.287C50.8584 155.287 50.7227 155.012 50.3155 154.738C49.9083 154.325 49.5011 153.776 48.9581 153.226C48.4152 152.539 47.8722 151.852 47.1935 151.027C46.9221 150.615 46.6506 150.203 46.3791 149.79L46.1076 149.378L45.7004 148.691C45.429 148.141 45.1575 147.592 44.886 147.042L44.4788 146.217L43.9358 147.454C43.8001 147.866 43.5286 148.279 43.3929 148.691C43.2572 148.966 43.1214 149.241 42.9857 149.516L42.85 149.653V149.79L42.7142 149.928C42.5785 150.203 42.4427 150.34 42.307 150.615C42.0355 151.027 41.7641 151.439 41.3568 151.714C41.2211 151.852 41.2211 151.852 41.0854 151.989C40.5424 152.264 39.8637 152.539 39.1851 152.814C38.6421 153.089 38.0992 153.089 37.5562 153.363C37.0133 153.501 36.4703 153.638 35.7916 153.638C35.2487 153.776 34.57 153.776 34.027 153.776C33.4841 153.776 32.8054 153.776 32.2625 153.638C31.7195 153.501 31.1766 153.501 30.6336 153.363C30.0907 153.226 29.6835 153.089 29.1405 152.951C28.1904 152.676 27.5117 152.401 26.9687 152.127C26.6972 151.989 26.5615 151.852 26.4258 151.852C26.29 151.852 26.1543 151.714 26.1543 151.714C26.1543 151.714 26.1543 151.852 26.29 151.852C26.29 151.577 26.4258 151.714 26.6972 151.989Z" fill="#333333"/>
<path d="M35.2488 137.422C34.9773 137.148 34.7059 136.873 34.2986 136.598C34.0272 136.323 33.7557 136.048 33.4842 135.773C33.2127 135.498 32.9413 135.224 32.6698 134.811C32.3983 134.536 32.1269 134.262 31.9911 133.849C31.8554 133.712 31.7196 133.575 31.5839 133.437C31.4482 133.3 31.3124 133.162 31.3124 133.025C31.041 132.75 30.9052 132.475 30.7695 132.2C30.3623 131.651 30.0908 131.238 29.8193 130.826C29.5478 130.551 29.4121 130.276 29.4121 130.276C29.4121 130.276 29.4121 130.551 29.4121 130.964C29.4121 131.376 29.4121 131.925 29.5478 132.613C29.5478 133.025 29.6836 133.3 29.8193 133.712C29.8193 133.849 29.9551 134.124 29.9551 134.262C30.0908 134.399 30.0908 134.674 30.2265 134.811C30.3623 135.224 30.6337 135.636 30.9052 136.048C31.1767 136.46 31.4482 136.873 31.8554 137.148C32.1269 137.56 32.5341 137.835 32.9413 138.109C33.3485 138.384 33.62 138.659 34.0272 138.934C34.7059 139.346 35.3845 139.759 35.9275 140.171C36.4704 140.583 36.8776 140.858 37.2849 141.133C37.5563 141.408 37.8278 141.545 37.8278 141.545C37.8278 141.545 37.8278 141.27 37.6921 140.858C37.5563 140.446 37.2849 139.896 36.8776 139.346C36.3347 138.522 35.7918 137.972 35.2488 137.422Z" fill="#333333"/>
<path d="M25.0687 121.206L24.6615 120.794C23.5756 119.695 22.7611 118.458 22.3539 117.221C21.9467 115.984 21.6752 114.885 21.6752 114.061C21.6752 113.648 21.6752 113.373 21.6752 113.099C21.6752 112.824 21.6752 112.824 21.6752 112.824C21.6752 112.824 21.6752 112.961 21.5395 113.099C21.4038 113.236 21.4038 113.648 21.268 114.061C21.1323 114.885 20.9966 116.122 21.268 117.496C21.5395 118.87 22.2182 120.519 23.4398 122.031L23.5756 122.306L23.7113 122.443L23.5756 122.581C23.1683 122.856 22.7611 123.13 22.3539 123.405C21.5395 124.092 20.9966 124.917 20.4536 125.741C19.9107 126.566 19.6392 127.665 19.5034 128.627C19.3677 129.589 19.5034 130.551 19.7749 131.376C20.0464 132.2 20.4536 132.887 20.8608 133.575C21.6752 134.811 22.7611 135.498 23.5756 135.773C23.9828 135.911 24.2542 136.048 24.5257 136.048C24.7972 136.048 24.7972 136.048 24.7972 136.048C24.7972 136.048 24.6615 136.048 24.5257 135.911C24.39 135.773 24.1185 135.636 23.847 135.361C23.3041 134.811 22.4897 133.987 21.9467 132.887C21.6752 132.338 21.5395 131.651 21.4038 130.963C21.268 130.276 21.268 129.589 21.4038 128.902C21.5395 128.215 21.811 127.528 22.2182 126.841C22.6254 126.154 23.1683 125.604 23.7113 125.054C23.9828 124.779 24.2542 124.505 24.6615 124.367C24.6615 124.367 24.6615 124.367 24.7972 124.23L25.0687 124.092L25.7473 123.818C26.1546 123.68 26.6975 123.543 27.1047 123.405C27.3762 123.268 27.7834 123.13 28.0549 123.13C27.3762 122.718 26.8332 122.306 26.1546 121.894C25.6116 121.619 25.3401 121.344 25.0687 121.206Z" fill="#333333"/>
<path d="M29.1406 116.259C29.412 116.534 29.5478 116.946 29.8192 117.221C30.0907 117.496 30.2264 117.771 30.4979 117.908C30.9051 118.321 31.3123 118.596 31.7196 118.87C31.991 119.008 32.2625 119.145 32.2625 119.145C32.2625 119.145 31.991 118.321 31.5838 117.221C31.4481 116.946 31.3123 116.672 31.1766 116.397C31.0409 116.122 30.9051 115.71 30.7694 115.435C30.6337 115.16 30.4979 114.748 30.3622 114.473C30.2264 114.198 30.0907 113.786 29.955 113.373C29.8192 112.961 29.6835 112.686 29.5478 112.274C29.412 111.862 29.2763 111.587 29.1406 111.312C28.8691 110.625 28.5976 110.075 28.3261 109.526C27.9189 108.426 27.5117 107.602 27.5117 107.602C27.5117 107.602 27.2402 108.426 27.2402 109.663C27.2402 110.35 27.2402 111.037 27.376 111.862C27.5117 112.274 27.5117 112.686 27.6474 113.099C27.7832 113.511 27.9189 113.923 28.0547 114.335C28.1904 114.748 28.4619 115.16 28.5976 115.435C28.7333 115.572 29.0048 115.984 29.1406 116.259Z" fill="#333333"/>
<path d="M58.4596 146.905L59.5455 147.729L59.9527 146.355L60.36 145.118V144.843V144.706L60.4957 144.431C60.4957 144.293 60.6314 144.156 60.6314 144.019C60.7672 143.744 60.9029 143.332 61.0386 143.057C61.3101 142.507 61.5816 141.82 61.8531 141.27C62.396 140.171 63.0747 139.071 63.6176 138.247C64.1606 137.422 64.7035 136.598 64.975 136.186C65.3822 135.636 65.518 135.361 65.518 135.361C65.518 135.361 65.2465 135.498 64.7035 135.911C64.1606 136.323 63.4819 136.735 62.6675 137.56C61.8531 138.384 61.0386 139.346 60.2242 140.446C59.817 140.995 59.4098 141.682 59.1383 142.37C59.0026 142.644 58.8669 143.057 58.7311 143.332C58.5954 143.469 58.5954 143.744 58.5954 143.881L58.4596 144.293V144.431L58.1882 144.293C57.9167 144.156 57.5095 143.881 57.238 143.744C56.5593 143.469 56.0164 143.194 55.3377 142.919C54.7947 142.644 54.1161 142.507 53.5731 142.507C52.4872 142.232 51.5371 142.232 50.9941 142.232C50.3154 142.232 50.0439 142.232 50.0439 142.232C50.0439 142.232 50.3154 142.37 50.9941 142.644C51.5371 142.919 52.3515 143.194 53.3016 143.606C53.7088 143.881 54.2518 144.019 54.7947 144.431C55.3377 144.706 55.8806 144.981 56.4236 145.393C56.6951 145.53 56.9665 145.805 57.238 145.943L57.3737 146.08C57.5095 146.217 57.6452 146.217 57.781 146.355C57.9167 146.492 58.1882 146.63 58.4596 146.905Z" fill="#333333"/>
<path d="M72.0336 145.943C71.7621 146.08 71.3549 146.355 71.0835 146.63C70.4048 147.042 69.5904 147.592 68.6402 148.141C68.233 148.416 67.69 148.691 67.2828 148.828C66.8756 149.103 66.3327 149.378 65.7897 149.516C65.2468 149.79 64.8396 149.928 64.2966 150.203C63.7537 150.34 63.3465 150.615 62.8035 150.752C62.2606 150.89 61.8533 151.165 61.4461 151.302C61.0389 151.439 60.496 151.577 60.0888 151.714C59.6816 151.852 59.2743 151.989 59.0029 151.989C58.7314 152.127 58.3242 152.127 58.1884 152.264C57.6455 152.401 57.374 152.539 57.374 152.539C57.374 152.539 57.6455 152.676 58.1884 152.676C58.4599 152.676 58.7314 152.814 59.1386 152.814C59.5458 152.814 59.953 152.951 60.3602 152.951C60.7674 152.951 61.3104 152.951 61.8533 152.951C62.3963 152.951 62.9392 152.814 63.4822 152.676C64.0251 152.539 64.5681 152.401 65.111 152.264C65.654 152.127 66.1969 151.852 66.7399 151.577C67.2828 151.302 67.8258 151.027 68.3687 150.752C68.9117 150.477 69.3189 150.065 69.8618 149.79C70.812 149.103 71.4907 148.416 72.0336 147.729C72.3051 147.454 72.5766 147.042 72.7123 146.767C72.9838 146.492 73.1195 146.217 73.2552 145.943C73.5267 145.53 73.6625 145.255 73.6625 145.255C73.6625 145.255 73.391 145.393 72.9838 145.668C72.5766 145.668 72.3051 145.805 72.0336 145.943Z" fill="#333333"/>
<path d="M79.4989 123.543C79.3631 123.13 79.2274 122.718 79.2274 122.306C79.0916 121.894 78.9559 121.619 78.9559 121.344C78.6844 120.794 78.5487 120.519 78.5487 120.519C78.5487 120.519 78.5487 120.794 78.5487 121.344C78.5487 121.619 78.5487 121.894 78.5487 122.306C78.5487 122.718 78.5487 123.13 78.413 123.543C78.413 124.367 78.2772 125.467 78.1415 126.429C78.0057 126.978 78.0057 127.528 77.87 128.078C77.87 128.627 77.7343 129.177 77.5985 129.727C77.4628 130.276 77.4628 130.826 77.3271 131.376C77.1913 131.925 77.0556 132.475 76.9199 133.025C76.7841 133.575 76.6484 133.987 76.5126 134.537C76.3769 134.949 76.2412 135.498 76.1054 135.911C75.9697 136.323 75.834 136.735 75.6982 137.01C75.5625 137.422 75.5625 137.697 75.4267 137.972C75.291 138.522 75.1553 138.797 75.1553 138.797C75.1553 138.797 75.4267 138.659 75.6982 138.247C75.834 138.109 76.1054 137.835 76.3769 137.56C76.6484 137.285 76.9199 136.873 77.0556 136.598C77.3271 136.186 77.5985 135.773 77.7343 135.361C78.0057 134.949 78.1415 134.399 78.413 133.849C78.5487 133.3 78.8202 132.75 78.9559 132.2C79.0916 131.651 79.2274 130.964 79.3631 130.414C79.4988 129.864 79.4989 129.177 79.6346 128.627C79.7703 128.078 79.6346 127.391 79.6346 126.841C79.7703 125.467 79.6346 124.367 79.4989 123.543Z" fill="#333333"/>
<path d="M92.2585 106.09C91.8513 106.64 91.4441 107.189 91.0369 107.739C90.7654 108.014 90.6296 108.289 90.3582 108.701C90.0867 108.976 89.8152 109.251 89.6795 109.526C89.408 109.8 89.1365 110.075 88.8651 110.35C88.5936 110.625 88.3221 110.9 88.0506 111.037C87.7792 111.312 87.5077 111.45 87.2362 111.587C86.9648 111.724 86.6933 111.862 86.4218 112.137C85.8789 112.411 85.4716 112.549 85.0644 112.686C84.9287 112.686 84.793 112.824 84.6572 112.824C84.5215 112.824 84.5215 112.824 84.5215 112.824C84.5215 112.824 84.5215 112.824 84.6572 112.961C84.793 112.961 84.9287 113.099 85.0644 113.099C85.4716 113.236 86.0146 113.373 86.6933 113.236C87.1005 113.236 87.372 113.099 87.7792 112.961C88.1864 112.824 88.5936 112.686 89.0008 112.411C89.408 112.137 89.8152 111.999 90.0867 111.724C90.4939 111.45 90.7654 111.175 91.0369 110.762C91.3083 110.35 91.5798 110.075 91.8513 109.663C92.1228 109.251 92.2585 108.838 92.53 108.564C92.9372 107.739 93.0729 107.052 93.2087 106.365C93.4801 104.991 93.3444 104.166 93.3444 104.166C93.3444 104.166 92.9372 105.128 92.2585 106.09Z" fill="#333333"/>
<path d="M60.7675 121.481C60.4961 121.894 60.3603 122.443 60.0888 122.856C59.9531 123.405 59.6816 123.818 59.6816 124.367C59.6816 124.642 59.5459 124.78 59.5459 125.054C59.5459 125.329 59.5459 125.467 59.4102 125.741C59.2744 126.154 59.2744 126.566 59.2744 126.978C59.2744 127.803 59.2744 128.353 59.4102 128.902C59.5459 129.314 59.5459 129.589 59.5459 129.589C59.5459 129.589 59.6816 129.314 59.8174 128.902C59.9531 128.49 60.2246 127.94 60.496 127.116C60.6318 126.703 60.7675 126.429 60.9033 126.016C61.039 125.879 61.039 125.604 61.1747 125.467C61.3105 125.329 61.3105 125.054 61.4462 124.917C61.5819 124.505 61.8534 124.092 61.9892 123.68C62.1249 123.268 62.3964 122.856 62.6678 122.443C62.9393 122.031 63.0751 121.619 63.3465 121.207C63.618 120.794 63.7537 120.382 64.0252 119.97C64.4324 119.145 64.9754 118.321 65.1111 117.496C65.3826 116.672 65.3826 115.984 65.2468 115.572C65.2468 115.16 65.1111 114.885 65.1111 114.885C65.1111 114.885 64.9754 115.16 64.8396 115.572C64.7039 115.984 64.4324 116.534 64.0252 117.084C63.618 117.634 63.0751 118.321 62.5321 119.008C62.2606 119.42 61.8534 119.695 61.5819 120.245C61.4462 120.519 61.039 120.932 60.7675 121.481Z" fill="#333333"/>
<path d="M62.8037 105.128C62.8037 105.403 62.8037 105.678 62.9394 105.953C62.9394 106.227 62.9394 106.502 63.0752 106.777C63.0752 107.052 63.0752 107.327 63.2109 107.739C63.2109 108.014 63.2109 108.426 63.3466 108.701C63.3466 108.976 63.3466 109.388 63.3466 109.663C63.3466 109.938 63.3466 110.35 63.3466 110.625C63.3466 111.312 63.3466 111.862 63.3466 112.274C63.3466 112.824 63.3466 113.236 63.3466 113.511C63.3466 113.786 63.3466 114.061 63.3466 114.061C63.3466 114.061 63.4824 113.923 63.7539 113.648C64.0253 113.373 64.2968 112.961 64.4325 112.549C64.704 111.999 64.9755 111.45 65.1112 110.762C65.1112 110.35 65.247 110.075 65.247 109.663C65.247 109.251 65.247 108.976 65.247 108.564C65.247 108.151 65.1112 107.739 65.1112 107.464C65.1112 107.052 64.9755 106.777 64.8398 106.365C64.704 106.09 64.5683 105.678 64.4325 105.403C64.2968 105.128 64.1611 104.853 63.8896 104.578C63.6181 104.166 63.2109 103.754 62.9394 103.616C62.668 103.342 62.5322 103.342 62.5322 103.342C62.5322 103.342 62.5322 103.479 62.5322 103.891C62.668 104.166 62.668 104.578 62.8037 105.128Z" fill="#333333"/>
<path d="M72.3046 112.961C72.3046 112.549 72.4403 111.999 72.4403 111.587C72.4403 111.037 72.4403 110.625 72.4403 110.075C72.4403 109.526 72.3046 109.113 72.3046 108.701C72.1689 108.289 72.0331 107.877 71.8974 107.464C71.4902 106.777 70.9472 106.227 70.6758 105.953C70.4043 105.815 70.2685 105.815 70.1328 105.815C69.9971 105.815 69.9971 105.815 69.9971 105.815C69.9971 105.815 70.1328 106.09 70.4043 106.365C70.54 106.777 70.8115 107.327 70.8115 107.877C70.8115 108.151 70.8115 108.564 70.8115 108.976C70.8115 109.388 70.8115 109.663 70.6758 110.075C70.6758 110.488 70.54 110.9 70.4043 111.312C70.2685 111.724 70.2685 112.274 70.1328 112.686C70.1328 113.236 69.9971 113.648 69.9971 114.198C69.9971 114.748 70.1328 115.16 70.1328 115.71C70.2685 116.672 70.6758 117.496 71.083 118.183C71.4902 118.87 71.8974 119.283 72.1689 119.695C72.4403 119.97 72.7118 120.107 72.7118 120.107C72.7118 120.107 72.7118 119.832 72.5761 119.42C72.4403 119.008 72.3046 118.458 72.1689 117.771C72.0331 117.084 72.0331 116.259 71.8974 115.435C71.8974 115.023 71.8974 114.61 71.8974 114.198C72.3046 113.923 72.3046 113.511 72.3046 112.961Z" fill="#333333"/>
<path d="M50.5868 130.689C50.7226 130.276 50.8583 129.727 50.9941 129.314C51.1298 128.902 51.2655 128.352 51.537 127.94C51.6727 127.528 51.8085 126.978 52.0799 126.566C52.4872 125.604 52.7586 124.779 52.8944 123.955C53.1658 123.13 53.1658 122.443 53.1658 121.894C53.1658 121.344 53.0301 121.069 53.0301 121.069C53.0301 121.069 52.8944 121.344 52.7586 121.756C52.4872 122.168 52.2157 122.718 51.8085 123.405C51.4013 124.092 50.8583 124.78 50.4511 125.741C50.1796 126.154 49.9082 126.703 49.7724 127.116C49.5009 127.665 49.3652 128.078 49.2295 128.627C49.0937 129.177 48.958 129.727 48.8223 130.276C48.6865 130.826 48.6865 131.376 48.6865 131.925C48.6865 132.475 48.6865 133.025 48.6865 133.437C48.6865 133.849 48.8223 134.399 48.958 134.811C49.0937 135.224 49.0937 135.636 49.2295 135.911C49.3652 136.186 49.5009 136.46 49.6367 136.735C49.7724 137.148 49.9082 137.422 49.9082 137.422C49.9082 137.422 49.9082 137.148 50.0439 136.598C50.0439 136.323 50.0439 136.048 50.0439 135.773C50.0439 135.498 50.1796 135.086 50.1796 134.674C50.1796 134.262 50.3154 133.849 50.3154 133.437C50.3154 133.025 50.4511 132.613 50.5868 132.063C50.3154 131.651 50.5868 131.238 50.5868 130.689Z" fill="#333333"/>
<path d="M41.6288 118.321C41.6288 118.321 41.493 118.595 41.493 118.87C41.3573 119.283 41.2216 119.832 40.9501 120.382C40.6786 120.932 40.4071 121.619 40.1357 122.306C39.9999 122.718 39.7284 122.993 39.5927 123.405C39.457 123.818 39.1855 124.23 39.0498 124.505C38.914 124.917 38.6426 125.329 38.5068 125.741C38.3711 126.154 38.2353 126.566 38.0996 127.116C37.9639 127.528 37.9639 127.94 37.9639 128.49C37.9639 128.902 37.9639 129.314 38.0996 129.727C38.2353 130.414 38.3711 130.963 38.6426 131.376C38.7783 131.788 38.914 131.925 38.914 131.925C38.914 131.925 38.914 131.651 39.0498 131.238C39.0498 130.826 39.1855 130.276 39.3212 129.727C39.457 129.452 39.457 129.04 39.5927 128.765C39.7284 128.49 39.8642 128.078 39.9999 127.803C40.1357 127.391 40.2714 127.116 40.5429 126.703C40.6786 126.291 40.9501 126.016 41.0858 125.604C41.2216 125.192 41.493 124.779 41.6288 124.367C41.7645 123.955 41.9002 123.543 42.036 123.13C42.3075 122.306 42.3075 121.481 42.3075 120.657C42.3075 119.97 42.1717 119.42 42.036 119.008C41.7645 118.458 41.6288 118.321 41.6288 118.321Z" fill="#333333"/>
<path d="M86.6933 99.7686C86.9648 99.6312 87.2362 99.3564 87.5077 99.0815C87.7792 98.8067 88.0506 98.5318 88.3221 98.257C88.5936 97.9821 88.8651 97.5699 89.1366 97.295C89.408 96.8828 89.6795 96.6079 89.8152 96.1957C89.951 95.7834 90.2224 95.3711 90.3582 94.9589C90.4939 94.5466 90.6297 94.1343 90.7654 93.7221C91.0369 92.8975 91.0369 92.073 91.1726 91.5233C91.1726 90.8362 91.1726 90.2865 91.0369 89.8742C91.0369 89.462 90.9011 89.3245 90.9011 89.3245C90.9011 89.3245 90.7654 89.462 90.6297 89.8742C90.4939 90.1491 90.2224 90.6988 89.951 91.2485C89.6795 91.7981 89.408 92.4853 89.0008 93.1724C88.8651 93.4472 88.5936 93.8595 88.4579 94.1343C88.3221 94.5466 88.0507 94.8214 87.9149 95.2337C87.7792 95.646 87.5077 95.9208 87.372 96.1957C87.2362 96.4705 86.9648 96.8828 86.829 97.1576C86.5575 97.4325 86.4218 97.8447 86.2861 98.1196C86.1503 98.3944 85.8789 98.6693 85.7431 98.9441C85.4716 99.4938 85.0644 99.9061 84.9287 100.318C84.793 100.593 84.6572 100.868 84.6572 100.868C84.6572 100.868 84.9287 100.868 85.2002 100.593C85.7431 100.456 86.1503 100.181 86.6933 99.7686Z" fill="#333333"/>
<path d="M74.3406 30.92C73.9334 30.5078 73.3905 30.2329 72.9833 29.9581C72.0331 29.4084 71.2187 29.271 70.6757 29.1335C70.4043 29.1335 70.1328 29.1335 69.9971 29.1335C69.8613 29.1335 69.7256 29.1335 69.7256 29.1335C69.7256 29.1335 69.8613 29.1335 69.9971 29.271C70.1328 29.4084 70.2685 29.4084 70.54 29.5458C71.083 29.8207 71.6259 30.3703 72.3046 30.92C72.5761 31.1949 72.9833 31.6071 73.3905 32.0194C73.7977 32.4317 74.0692 32.844 74.4764 33.2562C74.8836 33.6685 75.2908 34.2182 75.698 34.6304C76.1052 35.0427 76.6482 35.5924 77.1911 36.0047C77.7341 36.4169 78.277 36.8292 78.82 37.2415C79.3629 37.6537 80.0416 37.9286 80.5846 38.2034C81.8062 38.7531 82.8921 39.028 83.8422 39.3028C84.7924 39.4402 85.7426 39.5776 86.2855 39.4402C86.8285 39.4402 87.2357 39.3028 87.2357 39.3028C87.2357 39.3028 86.9642 39.1654 86.4212 39.028C85.8783 38.7531 85.1996 38.4783 84.2495 38.066C83.435 37.6537 82.4849 37.104 81.399 36.5544C80.856 36.2795 80.4488 35.8672 79.9059 35.5924C79.3629 35.1801 78.9557 34.9053 78.5485 34.493C78.1413 34.0808 77.5983 33.6685 77.1911 33.2562C76.7839 32.844 76.241 32.4317 75.8338 32.0194C75.2908 31.6071 74.7479 31.1949 74.3406 30.92Z" fill="#333333"/>
<path d="M37.1487 19.2391C37.2844 19.7888 37.5559 20.2011 37.9631 20.7508L38.0988 20.8882C38.0988 21.0256 38.2346 21.0256 38.3703 21.163C38.506 21.3005 38.6418 21.5753 38.9132 21.7127L39.4562 22.2624C39.5919 22.3998 39.5919 22.2624 39.7277 22.2624L39.8634 21.9876C40.4063 21.5753 41.085 21.0256 41.628 20.4759C42.0352 20.0637 42.4424 19.7888 42.8496 19.3765C43.2568 18.9643 43.664 18.552 44.0712 18.2772C44.8857 17.5901 45.5643 16.7655 46.1073 16.2158C47.1932 14.979 47.8719 13.8797 47.8719 13.8797C47.8719 13.8797 46.786 14.2919 45.2929 15.2539C44.6142 15.6661 43.664 16.2158 42.8496 16.9029C42.4424 17.1778 42.0352 17.5901 41.4922 17.8649C41.085 18.2772 40.6778 18.552 40.1349 18.9643L39.4562 19.514L39.3204 19.6514L39.1847 19.514C38.9132 19.1017 38.6418 18.8269 38.3703 18.4146C38.0988 18.0023 37.9631 17.7275 37.6916 17.3152C37.2844 16.6281 37.1487 15.941 36.8772 15.5287C36.7414 15.2539 36.7414 15.1165 36.7414 14.979C36.7414 14.8416 36.7414 14.8416 36.7414 14.8416V14.979C36.7414 15.1165 36.6057 15.2539 36.6057 15.5287C36.47 16.0784 36.47 16.7655 36.6057 17.7275C36.7414 18.1397 36.8772 18.6894 37.1487 19.2391Z" fill="#333333"/>
<path d="M18.1454 31.4697C18.5526 31.1949 18.8241 30.92 19.2313 30.6452C19.6385 30.3703 20.0457 30.2329 20.5887 29.9581C21.1316 29.6832 21.5389 29.5458 22.0818 29.4084C22.6248 29.271 23.1677 28.9961 23.7106 28.8587C24.2536 28.7213 24.7965 28.4464 25.4752 28.309C26.0182 28.1716 26.5611 27.8967 27.1041 27.6219C28.19 27.2096 29.1401 26.7974 29.9545 26.3851C30.769 25.9728 31.4477 25.698 31.9906 25.5605C32.5336 25.4231 32.805 25.2857 32.805 25.2857C32.805 25.2857 32.5336 25.1483 31.9906 25.0109C31.4477 24.8734 30.6332 24.8734 29.6831 25.1483C28.7329 25.2857 27.7828 25.5605 26.5611 25.8354C26.0182 25.9728 25.4752 26.1102 24.9323 26.2477C24.3893 26.3851 23.7106 26.6599 23.1677 26.7974C22.6248 27.0722 21.9461 27.2096 21.4031 27.4845C20.8602 27.7593 20.3172 28.0342 19.7743 28.309C19.2313 28.5838 18.8241 28.9961 18.4169 29.4084C18.0097 29.8206 17.6025 30.2329 17.331 30.6452C16.7881 31.4697 16.3808 32.2942 16.2451 32.8439C16.1094 33.3936 16.1094 33.6685 16.1094 33.6685C16.1094 33.6685 16.2451 33.3936 16.6523 32.9814C16.9238 32.5691 17.4667 32.0194 18.1454 31.4697Z" fill="#333333"/>
<path d="M61.3104 18.0023C61.5819 18.4146 61.9891 18.9643 62.2606 19.3765C62.5321 19.9262 62.9393 20.4759 63.2108 21.0256C63.4822 21.5753 63.7537 22.2624 64.0252 22.8121C64.2967 23.3618 64.5681 24.1863 65.1111 25.0109C65.3826 25.4231 65.9255 25.8354 66.4685 25.9728C67.0114 26.1102 67.5543 26.1102 68.0973 26.1102C69.0475 25.9728 69.5904 25.5605 70.2691 25.2857C71.4907 24.736 72.7124 24.1863 73.6625 23.6366C75.6986 22.6747 76.9202 21.8501 76.9202 21.8501C76.9202 21.8501 75.4271 21.9876 73.2553 22.5373C72.1694 22.8121 70.9478 23.0869 69.5904 23.4992C68.9117 23.7741 68.233 23.9115 67.6901 24.0489C67.4186 24.0489 67.2829 24.0489 67.1471 24.0489C67.0114 24.0489 66.8757 23.9115 66.7399 23.7741C66.4685 23.3618 66.197 22.8121 65.7898 21.9876C65.5183 21.3005 65.1111 20.6133 64.7039 20.0637C64.2967 19.514 63.8894 18.9643 63.3465 18.4146C62.9393 17.8649 62.3963 17.4526 61.9891 17.1778C61.039 16.4907 60.2245 15.941 59.6816 15.6661C59.4101 15.5287 59.1387 15.3913 59.0029 15.3913C58.8672 15.3913 58.7314 15.2539 58.7314 15.2539C58.7314 15.2539 59.0029 15.5287 59.4101 16.0784C59.9531 16.4907 60.6318 17.1778 61.3104 18.0023Z" fill="#333333"/>
<path d="M59.2738 77.3688C59.8167 77.2314 60.3597 77.094 60.9026 76.9565C61.9885 76.6817 62.8029 76.2694 63.6174 75.7197C64.296 75.3075 64.839 74.8952 65.2462 74.4829C65.6534 74.2081 66.1964 73.9332 66.6036 73.6584C67.1465 73.521 67.6895 73.521 68.0967 73.3836C68.6396 73.2461 68.9111 73.1087 68.9111 73.1087C68.9111 73.1087 68.6396 73.1087 67.9609 72.9713C67.6895 72.9713 67.2823 72.9713 66.875 72.9713C66.4678 72.9713 65.9249 72.9713 65.3819 72.8339C64.839 72.9713 64.296 72.8339 63.7531 72.8339C62.6672 72.559 61.5813 72.2842 60.4954 72.1467C59.9525 72.0093 59.4095 72.0093 58.8666 72.0093C58.3236 72.0093 57.7807 72.0093 57.2377 72.0093C56.1518 72.0093 55.2017 72.1467 54.3872 72.4216C53.5728 72.559 52.8941 72.8339 52.3512 72.9713C51.8082 73.1087 51.5368 73.2461 51.5368 73.2461C51.5368 73.2461 51.5368 73.2461 51.6725 73.1087C51.8082 72.9713 51.944 72.8339 52.2154 72.6964C52.6227 72.4216 53.3013 72.0093 54.1158 71.7345C54.9302 71.3222 56.0161 71.0474 57.102 70.9099C57.6449 70.9099 58.3236 70.7725 58.8666 70.7725C59.4095 70.7725 60.0882 70.9099 60.6311 70.9099C61.8528 71.1848 62.9387 71.4596 64.0246 71.7345C65.1105 72.0093 66.0606 72.2842 66.875 72.559C67.2823 72.6964 67.6895 72.6964 68.0967 72.8339C70.2685 71.0474 71.6258 69.1235 72.1688 68.1615C74.0691 68.2989 75.6979 68.5738 76.9196 68.7112C78.5484 68.986 79.6343 69.1235 79.6343 69.1235C79.6343 69.1235 78.6842 68.8486 77.0553 68.2989C75.4265 67.8867 72.9832 67.1995 70.1327 66.7873C68.6396 66.6499 67.0108 66.5124 65.3819 66.5124C63.6174 66.5124 61.8528 66.6499 60.0882 66.6499C58.3236 66.6499 56.559 66.5124 54.523 66.375C53.5728 66.2376 52.4869 66.2376 51.401 66.375C50.3151 66.5124 49.2292 66.9247 48.2791 67.4744C47.3289 68.0241 46.3788 68.5738 45.7001 69.3983C44.8856 70.2228 44.3427 71.1848 43.9355 72.2842C43.2568 74.3455 43.3925 76.5443 43.5283 78.3308C43.664 80.1172 43.7998 81.9037 43.7998 83.5528C43.7998 85.2019 43.7998 86.8509 43.664 88.2252C43.5283 91.111 43.1211 93.5846 42.8496 95.2337C42.5781 96.8828 42.4424 97.8447 42.4424 97.8447C42.4424 97.8447 42.8496 96.8828 43.2568 95.2337C43.3925 94.8214 43.5283 94.4092 43.664 93.9969C45.7001 88.7749 49.7722 80.9418 53.0299 77.0939C53.4371 77.2314 53.8443 77.3688 54.2515 77.3688C54.7944 77.5062 55.3374 77.6436 55.8803 77.6436C56.4233 77.6436 56.9662 77.6436 57.6449 77.6436C58.1879 77.5062 58.7308 77.5062 59.2738 77.3688Z" fill="#333333"/>
<path d="M42.7138 67.8866C42.9853 67.4744 43.3925 66.9247 43.7997 66.5124C44.2069 65.9627 44.6141 65.413 45.0213 65.0008C45.4286 64.4511 45.8358 63.9014 46.243 63.3517C46.6502 62.802 46.9217 62.3897 47.3289 61.9775C47.6003 61.5652 47.8718 61.1529 48.1433 60.8781C48.279 60.6033 48.4148 60.4658 48.4148 60.4658C48.4148 60.4658 48.279 60.6033 48.0076 60.7407C47.7361 60.8781 47.3289 61.1529 46.9217 61.4278C46.5144 61.7026 45.9715 62.1149 45.4286 62.5272C45.0213 62.9394 44.4784 63.4891 43.9354 64.0388C43.5282 64.5885 43.121 65.2756 42.7138 65.8253C42.4423 66.375 42.1709 67.0621 41.8994 67.4744C41.7637 68.0241 41.6279 68.4363 41.4922 68.7112C41.4922 68.986 41.3564 69.2609 41.3564 69.2609C41.3564 69.2609 41.4922 69.1234 41.6279 68.8486C42.0351 68.7112 42.3066 68.2989 42.7138 67.8866Z" fill="#333333"/>
<path d="M38.2353 63.0769C37.9638 62.802 37.6923 62.5272 37.4209 62.2523C37.1494 62.1149 36.8779 61.9775 36.7422 61.8401C36.6064 61.7026 36.4707 61.7026 36.4707 61.7026C36.4707 61.7026 36.4707 61.8401 36.6064 61.9775C36.6064 62.1149 36.7422 62.3897 36.8779 62.6646C37.0137 62.9394 37.1494 63.2143 37.2851 63.6265C37.4209 63.9014 37.5566 64.3137 37.6923 64.7259C37.8281 65.0008 38.0995 65.413 38.2353 65.6879C38.371 65.9627 38.6425 66.375 38.7782 66.5124C38.914 66.7873 39.0497 67.0621 39.1854 67.1995C39.3212 67.337 39.3212 67.4744 39.3212 67.4744C39.3212 67.4744 39.3212 67.337 39.4569 67.1995C39.4569 67.0621 39.4569 66.7873 39.5927 66.375C39.5927 66.1002 39.5927 65.6879 39.4569 65.2756C39.3212 64.8634 39.1854 64.4511 39.0497 64.0388C38.7782 63.764 38.5068 63.3517 38.2353 63.0769Z" fill="#333333"/>
<path d="M45.9721 54.4193C47.8724 54.4193 49.637 54.4193 51.4016 54.4193C53.1662 54.4193 54.795 54.2818 56.1524 54.2818C57.5097 54.1444 58.7314 54.1444 59.5458 54.1444C60.3602 54.007 60.7674 54.007 60.7674 54.007C60.7674 54.007 60.3602 54.007 59.5458 53.8696C58.7314 53.7321 57.5097 53.5947 56.1524 53.4573C54.795 53.3199 53.1662 53.3199 51.4016 53.1825C49.637 53.1825 47.8724 53.045 45.9721 53.045C44.0718 53.045 42.3072 53.045 40.5426 53.045C38.778 53.1825 37.1492 53.4573 35.7918 53.7321C34.4345 54.1444 33.3486 54.6941 32.6699 55.1064C32.2627 55.3812 32.1269 55.5186 31.8555 55.6561C31.7197 55.7935 31.584 55.9309 31.584 55.9309C31.584 55.9309 31.7197 55.9309 31.8555 55.7935C31.9912 55.6561 32.3984 55.5186 32.6699 55.3812C33.3486 55.1064 34.5702 54.6941 35.7918 54.5567C37.1492 54.2818 38.778 54.2818 40.4069 54.2818C42.1715 54.1444 44.0718 54.2818 45.9721 54.4193Z" fill="#333333"/>
<path d="M38.5067 50.9837C39.4569 50.9837 40.407 50.9837 41.4929 50.9837C42.5788 50.9837 43.8005 50.8463 44.8864 50.8463C46.108 50.7088 47.1939 50.7088 48.2798 50.7088C49.3657 50.5714 50.4516 50.5714 51.266 50.5714C52.2162 50.434 52.8948 50.434 53.4378 50.434C53.9807 50.434 54.2522 50.2966 54.2522 50.2966C54.2522 50.2966 53.9807 50.2966 53.4378 50.1592C52.8948 50.0217 52.2162 50.0217 51.266 49.8843C50.3158 49.7469 49.3657 49.7469 48.2798 49.6095C47.1939 49.6095 45.9723 49.6095 44.7506 49.6095C43.529 49.7469 42.4431 49.7469 41.2215 49.8843C40.1356 50.0217 39.0497 50.1592 38.2352 50.2966C37.4208 50.434 36.6064 50.7088 36.0635 50.7088C35.9277 50.8463 35.5205 50.8463 35.5205 50.8463C35.5205 50.8463 35.792 50.8463 36.3349 50.8463C36.8779 50.9837 37.6923 50.9837 38.5067 50.9837Z" fill="#333333"/>
<path d="M62.5732 86.582C62.5732 88.1745 61.4229 89.4654 60.0039 89.4654C58.5849 89.4654 57.4346 88.1745 57.4346 86.582C57.4346 84.9894 58.5849 79.1673 60.0039 79.1673C61.4229 79.1673 62.5732 84.9894 62.5732 86.582Z" fill="#1A1ED6"/>
<path d="M34.9529 82.5142C34.9529 83.5095 34.2339 84.3164 33.347 84.3164C32.4602 84.3164 31.7412 83.5095 31.7412 82.5142C31.7412 81.5189 32.4602 77.88 33.347 77.88C34.2339 77.88 34.9529 81.5189 34.9529 82.5142Z" fill="#1A1ED6"/>
</svg>
