<svg width="14" height="15" viewBox="0 0 14 15" fill="current" xmlns="http://www.w3.org/2000/svg">
  <path fill-rule="evenodd" clip-rule="evenodd"
        d="M6.82586 0.333252C10.4059 0.333252 13.3179 3.24525 13.3179 6.82525C13.3179 8.51428 12.6697 10.0548 11.609 11.2109L13.6961 13.2937C13.8915 13.4891 13.8921 13.8051 13.6968 14.0004C13.5995 14.0991 13.4708 14.1477 13.3428 14.1477C13.2155 14.1477 13.0875 14.0991 12.9895 14.0017L10.8771 11.8953C9.76591 12.7851 8.35698 13.3179 6.82586 13.3179C3.24586 13.3179 0.333191 10.4053 0.333191 6.82525C0.333191 3.24525 3.24586 0.333252 6.82586 0.333252ZM6.82586 1.33325C3.79719 1.33325 1.33319 3.79659 1.33319 6.82525C1.33319 9.85392 3.79719 12.3179 6.82586 12.3179C9.85386 12.3179 12.3179 9.85392 12.3179 6.82525C12.3179 3.79659 9.85386 1.33325 6.82586 1.33325Z"/>
</svg>
