<svg width="32" height="32" viewBox="0 0 32 32" fill="current" xmlns="http://www.w3.org/2000/svg">
  <path
    d="M16.9072 2C17.9468 2 18.9573 2.39728 19.6818 3.08779C20.4049 3.78235 20.8041 4.735 20.7736 5.70117C20.7765 5.91873 20.8535 6.17007 20.9929 6.39033C21.2237 6.75518 21.5882 7.01192 22.0208 7.11732C22.4535 7.21732 22.9065 7.16326 23.2912 6.95111C25.1497 5.96332 27.5148 6.55518 28.5762 8.27132L29.4807 9.72936C29.504 9.76854 29.5243 9.80638 29.5417 9.84557C30.5029 11.536 29.8611 13.6643 28.0753 14.6359C27.8154 14.7751 27.6049 14.9696 27.4597 15.2048C27.2346 15.5683 27.1722 16.0007 27.2854 16.398C27.4016 16.8033 27.6789 17.1398 28.0695 17.3479C28.9508 17.8195 29.6085 18.6141 29.8713 19.5316C30.1341 20.4478 29.9903 21.4423 29.4778 22.2625L28.5138 23.7571C27.4524 25.4543 25.0873 26.0421 23.2477 25.0529C23.0023 24.9219 22.7192 24.8502 22.4375 24.8435H22.4288C22.0092 24.8435 21.578 25.0097 21.2644 25.3002C20.9464 25.5962 20.7722 25.9907 20.7751 26.4096C20.7649 28.3947 19.0299 30 16.9072 30H15.088C12.9551 30 11.2201 28.3866 11.2201 26.4015C11.2172 26.1569 11.1417 25.9029 11.0008 25.6826C10.7729 25.3124 10.4041 25.0475 9.9787 24.9421C9.55619 24.8367 9.09303 24.8948 8.71263 25.1002C7.80084 25.5732 6.72788 25.688 5.74639 25.4313C4.76635 25.1732 3.91989 24.5462 3.42333 23.7152L2.51589 22.2598C1.45455 20.5464 2.08613 18.3506 3.92424 17.3614C4.44548 17.0817 4.76925 16.5601 4.76925 16.0007C4.76925 15.4412 4.44548 14.9183 3.92424 14.6386C2.08467 13.644 1.45455 11.4428 2.51444 9.72936L3.49883 8.22538C4.54566 6.53086 6.91227 5.93359 8.75764 6.92003C9.00882 7.05922 9.28178 7.12948 9.5591 7.13218C10.4636 7.13218 11.2201 6.43762 11.2346 5.58361C11.2288 4.64176 11.6281 3.73775 12.3555 3.05535C13.0858 2.37431 14.0557 2 15.088 2H16.9072ZM16.9072 4.02693H15.088C14.6379 4.02693 14.2168 4.19043 13.8989 4.48501C13.5823 4.78095 13.4096 5.17417 13.4125 5.59307C13.382 7.56865 11.6469 9.15911 9.54603 9.15911C8.87234 9.15236 8.22334 8.98345 7.66 8.66995C6.86871 8.25105 5.83495 8.50914 5.37179 9.25911L4.38885 10.7631C3.93876 11.4901 4.21462 12.4508 5.01608 12.8846C6.20519 13.5251 6.94711 14.7197 6.94711 16.0007C6.94711 17.2817 6.20519 18.4749 5.01317 19.1167C4.21608 19.5464 3.94021 20.5018 4.40192 21.245L5.31807 22.7152C5.54457 23.0949 5.91481 23.3692 6.34312 23.4814C6.76998 23.5922 7.2404 23.5449 7.63242 23.3422C8.20882 23.0274 8.8796 22.8639 9.55329 22.8639C9.88578 22.8639 10.2183 22.903 10.5435 22.9841C11.525 23.2301 12.3773 23.8408 12.8825 24.6611C13.2106 25.1759 13.3921 25.7772 13.3979 26.3907C13.3979 27.2691 14.1558 27.9731 15.088 27.9731H16.9072C17.835 27.9731 18.5929 27.2731 18.5972 26.4096C18.5914 25.4556 18.9921 24.5489 19.7254 23.8665C20.4484 23.1936 21.4589 22.7895 22.4695 22.8166C23.1315 22.8314 23.7689 22.9976 24.3308 23.2949C25.1395 23.726 26.1718 23.4692 26.6393 22.726L27.6034 21.2302C27.8183 20.8856 27.8807 20.4532 27.766 20.0545C27.6528 19.6559 27.3682 19.31 26.9849 19.1059C26.0876 18.6249 25.4473 17.8492 25.1816 16.9195C24.9188 16.0074 25.0626 15.0115 25.5751 14.1913C25.909 13.6508 26.3983 13.1954 26.9849 12.8819C27.7718 12.4535 28.0477 11.4955 27.5903 10.7496C27.5715 10.7198 27.554 10.6888 27.5395 10.6563L26.6887 9.28343C26.2255 8.53347 25.1947 8.27537 24.386 8.70373C23.5119 9.18479 22.4724 9.32262 21.4735 9.07804C20.476 8.83751 19.6397 8.2497 19.1185 7.42001C18.7845 6.90111 18.603 6.29709 18.5972 5.68225C18.6103 5.22011 18.4361 4.80527 18.1195 4.50123C17.8045 4.19854 17.3617 4.02693 16.9072 4.02693ZM16.004 11.424C18.7147 11.424 20.9201 13.478 20.9201 16.0008C20.9201 18.5237 18.7147 20.5749 16.004 20.5749C13.2933 20.5749 11.0878 18.5237 11.0878 16.0008C11.0878 13.478 13.2933 11.424 16.004 11.424ZM16.004 13.4509C14.494 13.4509 13.2657 14.5955 13.2657 16.0008C13.2657 17.4061 14.494 18.548 16.004 18.548C17.514 18.548 18.7423 17.4061 18.7423 16.0008C18.7423 14.5955 17.514 13.4509 16.004 13.4509Z"/>
  <path
    d="M16.9072 2C17.9468 2 18.9573 2.39728 19.6818 3.08779C20.4049 3.78235 20.8041 4.735 20.7736 5.70117C20.7765 5.91873 20.8535 6.17007 20.9929 6.39033C21.2237 6.75518 21.5882 7.01192 22.0208 7.11732C22.4535 7.21732 22.9065 7.16326 23.2912 6.95111C25.1497 5.96332 27.5148 6.55518 28.5762 8.27132L29.4807 9.72936C29.504 9.76854 29.5243 9.80638 29.5417 9.84557C30.5029 11.536 29.8611 13.6643 28.0753 14.6359C27.8154 14.7751 27.6049 14.9696 27.4597 15.2048C27.2346 15.5683 27.1722 16.0007 27.2854 16.398C27.4016 16.8033 27.6789 17.1398 28.0695 17.3479C28.9508 17.8195 29.6085 18.6141 29.8713 19.5316C30.1341 20.4478 29.9903 21.4423 29.4778 22.2625L28.5138 23.7571C27.4524 25.4543 25.0873 26.0421 23.2477 25.0529C23.0023 24.9219 22.7192 24.8502 22.4375 24.8435H22.4288C22.0092 24.8435 21.578 25.0097 21.2644 25.3002C20.9464 25.5962 20.7722 25.9907 20.7751 26.4096C20.7649 28.3947 19.0299 30 16.9072 30H15.088C12.9551 30 11.2201 28.3866 11.2201 26.4015C11.2172 26.1569 11.1417 25.9029 11.0008 25.6826C10.7729 25.3124 10.4041 25.0475 9.9787 24.9421C9.55619 24.8367 9.09303 24.8948 8.71263 25.1002C7.80084 25.5732 6.72788 25.688 5.74639 25.4313C4.76635 25.1732 3.91989 24.5462 3.42333 23.7152L2.51589 22.2598C1.45455 20.5464 2.08613 18.3506 3.92424 17.3614C4.44548 17.0817 4.76925 16.5601 4.76925 16.0007C4.76925 15.4412 4.44548 14.9183 3.92424 14.6386C2.08467 13.644 1.45455 11.4428 2.51444 9.72936L3.49883 8.22538C4.54566 6.53086 6.91227 5.93359 8.75764 6.92003C9.00882 7.05922 9.28178 7.12948 9.5591 7.13218C10.4636 7.13218 11.2201 6.43762 11.2346 5.58361C11.2288 4.64176 11.6281 3.73775 12.3555 3.05535C13.0858 2.37431 14.0557 2 15.088 2H16.9072ZM16.9072 4.02693H15.088C14.6379 4.02693 14.2168 4.19043 13.8989 4.48501C13.5823 4.78095 13.4096 5.17417 13.4125 5.59307C13.382 7.56865 11.6469 9.15911 9.54603 9.15911C8.87234 9.15236 8.22334 8.98345 7.66 8.66995C6.86871 8.25105 5.83495 8.50914 5.37179 9.25911L4.38885 10.7631C3.93876 11.4901 4.21462 12.4508 5.01608 12.8846C6.20519 13.5251 6.94711 14.7197 6.94711 16.0007C6.94711 17.2817 6.20519 18.4749 5.01317 19.1167C4.21608 19.5464 3.94021 20.5018 4.40192 21.245L5.31807 22.7152C5.54457 23.0949 5.91481 23.3692 6.34312 23.4814C6.76998 23.5922 7.2404 23.5449 7.63242 23.3422C8.20882 23.0274 8.8796 22.8639 9.55329 22.8639C9.88578 22.8639 10.2183 22.903 10.5435 22.9841C11.525 23.2301 12.3773 23.8408 12.8825 24.6611C13.2106 25.1759 13.3921 25.7772 13.3979 26.3907C13.3979 27.2691 14.1558 27.9731 15.088 27.9731H16.9072C17.835 27.9731 18.5929 27.2731 18.5972 26.4096C18.5914 25.4556 18.9921 24.5489 19.7254 23.8665C20.4484 23.1936 21.4589 22.7895 22.4695 22.8166C23.1315 22.8314 23.7689 22.9976 24.3308 23.2949C25.1395 23.726 26.1718 23.4692 26.6393 22.726L27.6034 21.2302C27.8183 20.8856 27.8807 20.4532 27.766 20.0545C27.6528 19.6559 27.3682 19.31 26.9849 19.1059C26.0876 18.6249 25.4473 17.8492 25.1816 16.9195C24.9188 16.0074 25.0626 15.0115 25.5751 14.1913C25.909 13.6508 26.3983 13.1954 26.9849 12.8819C27.7718 12.4535 28.0477 11.4955 27.5903 10.7496C27.5715 10.7198 27.554 10.6888 27.5395 10.6563L26.6887 9.28343C26.2255 8.53347 25.1947 8.27537 24.386 8.70373C23.5119 9.18479 22.4724 9.32262 21.4735 9.07804C20.476 8.83751 19.6397 8.2497 19.1185 7.42001C18.7845 6.90111 18.603 6.29709 18.5972 5.68225C18.6103 5.22011 18.4361 4.80527 18.1195 4.50123C17.8045 4.19854 17.3617 4.02693 16.9072 4.02693ZM16.004 11.424C18.7147 11.424 20.9201 13.478 20.9201 16.0008C20.9201 18.5237 18.7147 20.5749 16.004 20.5749C13.2933 20.5749 11.0878 18.5237 11.0878 16.0008C11.0878 13.478 13.2933 11.424 16.004 11.424ZM16.004 13.4509C14.494 13.4509 13.2657 14.5955 13.2657 16.0008C13.2657 17.4061 14.494 18.548 16.004 18.548C17.514 18.548 18.7423 17.4061 18.7423 16.0008C18.7423 14.5955 17.514 13.4509 16.004 13.4509Z"/>
</svg>
