<svg width="221" height="231" viewBox="0 0 221 231" fill="none" xmlns="http://www.w3.org/2000/svg">
<path d="M153.996 147.246H186.06L202.538 55.3611L173.145 41.8242L153.996 147.246Z" fill="#FFC727"/>
<g opacity="0.4">
<path opacity="0.4" d="M153.996 147.246H186.06L202.538 55.3611L173.145 41.8242L153.996 147.246Z" fill="#0D2509"/>
</g>
<path d="M67.3442 147.246H153.995L173.145 41.8242H86.5577L67.3442 147.246Z" fill="#FFC727"/>
<path opacity="0.2" d="M67.3442 147.246H153.995L173.145 41.8242H86.5577L67.3442 147.246Z" fill="#0D2509"/>
<path d="M44.6215 199.242H144.315V147.266H44.6215V199.242Z" fill="#FFC727"/>
<path opacity="0.2" d="M44.6215 199.242H144.315V147.266H44.6215V199.242Z" fill="#0D2509"/>
<path d="M44.6215 147.48H144.315V124.813L44.6215 124.813V147.48Z" fill="#FFC727"/>
<path opacity="0.2" d="M44.6215 147.48H144.315V124.813L44.6215 124.813V147.48Z" fill="#0D2509"/>
<path d="M44.5684 199.223H58.0559L78.0328 88.373H44.5684V199.223Z" fill="#FFC727"/>
<g opacity="0.4">
<path opacity="0.4" d="M44.5684 199.223H58.0559L78.0328 88.373H44.5684V199.223Z" fill="#0D2509"/>
</g>
<path d="M17.5413 199.225H44.5801L44.5801 88.3751H17.5413L17.5413 199.225Z" fill="#FFC727"/>
<path opacity="0.2" d="M17.5413 199.225H44.5801L44.5801 88.3751H17.5413L17.5413 199.225Z" fill="#0D2509"/>
<path d="M171.325 199.225H220.503V88.3751H171.325V199.225Z" fill="#FFC727"/>
<g opacity="0.4">
<path opacity="0.4" d="M171.325 199.225H220.503V88.3751H171.325V199.225Z" fill="#0D2509"/>
</g>
<path d="M144.293 199.225H171.332V88.3751H144.293V199.225Z" fill="#FFC727"/>
<path opacity="0.2" d="M144.293 199.225H171.332V88.3751H144.293V199.225Z" fill="#0D2509"/>
<path d="M164.684 88.374L154.505 88.1824L144.326 88.0547H144.008V88.374L143.88 100.251L143.817 121.705C143.753 129.623 143.753 137.541 143.817 145.395C143.817 153.313 143.88 161.231 143.944 169.085C144.008 177.002 144.135 184.92 144.262 192.774C144.453 184.856 144.517 176.939 144.58 169.085C144.707 161.167 144.707 153.249 144.707 145.395C144.771 137.477 144.707 129.559 144.707 121.705L144.644 100.251L144.517 88.374L144.198 88.6932L154.378 88.5655L164.684 88.374Z" fill="#4B4B4B"/>
<path d="M44.5685 88.373C44.3777 96.2909 44.2504 113.787 44.1868 121.768L44.0596 145.586L44.1868 169.403L44.3141 181.28L44.5685 193.157L44.823 181.28L44.9503 169.403L45.0775 145.586L45.0139 121.768C44.8866 113.787 44.823 96.2909 44.5685 88.373Z" fill="#4B4B4B"/>
<path d="M44.5684 147.247C53.2844 147.439 62.064 147.566 70.78 147.63L96.9917 147.758L117.987 147.63L131.092 147.503L144.198 147.247L131.092 146.992L117.987 146.864L96.9917 146.736L70.78 146.864C62.064 146.928 53.348 147.056 44.5684 147.247Z" fill="#4B4B4B"/>
<path d="M44.5684 124.771C53.2844 124.962 62.064 125.09 70.78 125.154L96.9917 125.281L117.987 125.154L131.092 125.026L144.198 124.771L131.092 124.515L117.987 124.387L96.9917 124.26L70.78 124.387C62.064 124.451 53.348 124.579 44.5684 124.771Z" fill="#4B4B4B"/>
<path d="M201.774 199.223L202.474 207.46L204.001 226.424H211.127L212.717 207.46L213.353 199.223H201.774Z" fill="#C7C7C7"/>
<path d="M213.353 199.223H201.774L202.474 207.46H212.717L213.353 199.223Z" fill="#A6A6A6"/>
<path d="M152.023 199.223L152.66 207.46L154.25 226.424H161.376L162.903 207.46L163.602 199.223H152.023Z" fill="#C7C7C7"/>
<path d="M163.602 199.223H152.023L152.66 207.46H162.903L163.602 199.223Z" fill="#A6A6A6"/>
<path d="M74.6606 199.223L75.3605 207.46L76.8874 226.424H84.0129L85.5398 207.46L86.2396 199.223H74.6606Z" fill="#C7C7C7"/>
<path d="M86.2396 199.223H74.6606L75.3605 207.46H85.5398L86.2396 199.223Z" fill="#A6A6A6"/>
<path d="M24.8457 199.223L25.5455 207.46L27.0724 226.424H34.1979L35.7884 207.46L36.4247 199.223H24.8457Z" fill="#C7C7C7"/>
<path d="M24.8457 199.223L25.5455 207.46H35.7884L36.4247 199.223H24.8457Z" fill="#A6A6A6"/>
<g opacity="0.2">
<path opacity="0.2" d="M161.694 86.8418C162.394 86.8418 162.394 87.9273 161.694 87.9273C160.994 87.8634 160.994 86.8418 161.694 86.8418Z" fill="#0D2509"/>
<path opacity="0.2" d="M160.803 151.334C161.503 151.334 161.503 152.419 160.803 152.419C160.103 152.356 160.103 151.334 160.803 151.334Z" fill="#0D2509"/>
<path opacity="0.2" d="M191.531 54.659C191.531 54.5952 191.595 54.5313 191.595 54.5313C191.659 54.4036 191.914 54.4036 191.977 54.5313C191.977 54.5952 192.041 54.659 192.041 54.659C192.423 55.2976 191.277 55.2976 191.531 54.659Z" fill="#0D2509"/>
<path opacity="0.2" d="M183.134 152.61C183.134 152.546 183.197 152.482 183.197 152.482C183.261 152.355 183.516 152.355 183.58 152.482C183.58 152.546 183.643 152.61 183.643 152.61C183.962 153.249 182.815 153.249 183.134 152.61Z" fill="#0D2509"/>
<path opacity="0.2" d="M157.177 90.0332C157.686 90.0332 157.686 90.8633 157.177 90.8633C156.668 90.8633 156.668 90.0332 157.177 90.0332Z" fill="#0D2509"/>
<path opacity="0.2" d="M87.6393 167.68C88.3391 167.68 88.3391 168.765 87.6393 168.765C87.0031 168.701 87.0031 167.68 87.6393 167.68Z" fill="#0D2509"/>
<path opacity="0.2" d="M133.319 181.088C133.828 181.088 133.828 181.918 133.319 181.918C132.81 181.918 132.81 181.088 133.319 181.088Z" fill="#0D2509"/>
<path opacity="0.2" d="M190.895 130.9C191.404 130.9 191.404 131.73 190.895 131.73C190.386 131.73 190.386 130.9 190.895 130.9Z" fill="#0D2509"/>
<path opacity="0.2" d="M138.218 67.5577C138.409 67.3662 138.79 67.3662 138.981 67.5577C139.172 67.8131 139.236 68.0047 139.172 68.324C139.045 68.8987 138.09 68.8987 138.027 68.324C137.963 68.0047 138.027 67.8131 138.218 67.5577Z" fill="#0D2509"/>
<path opacity="0.2" d="M156.413 148.331C156.604 148.14 156.985 148.14 157.176 148.331C157.367 148.587 157.431 148.778 157.367 149.097C157.24 149.672 156.285 149.672 156.222 149.097C156.158 148.778 156.158 148.587 156.413 148.331Z" fill="#0D2509"/>
<path opacity="0.2" d="M207.182 182.237C207.373 182.046 207.755 182.046 207.946 182.237C208.137 182.493 208.2 182.684 208.137 183.004C208.01 183.578 207.055 183.578 206.992 183.004C206.928 182.684 206.992 182.493 207.182 182.237Z" fill="#0D2509"/>
<path opacity="0.2" d="M64.5449 58.4898C63.8451 58.4898 63.8451 57.4043 64.5449 57.4043C65.1811 57.4682 65.1811 58.4898 64.5449 58.4898Z" fill="#0D2509"/>
<path opacity="0.2" d="M57.6103 153.759C56.9105 153.759 56.9105 152.674 57.6103 152.674C58.3102 152.738 58.3102 153.759 57.6103 153.759Z" fill="#0D2509"/>
<path opacity="0.2" d="M83.6948 83.3922C82.995 83.3922 82.995 82.3066 83.6948 82.3066C84.3946 82.3705 84.3946 83.3922 83.6948 83.3922Z" fill="#0D2509"/>
<path opacity="0.2" d="M34.8345 148.78C34.8345 148.844 34.7708 148.907 34.7708 148.907C34.7071 149.035 34.4523 149.035 34.3886 148.907C34.3886 148.844 34.3249 148.78 34.3249 148.78C33.9426 148.141 35.0893 148.141 34.8345 148.78Z" fill="#0D2509"/>
<path opacity="0.2" d="M28.4724 103.827C28.4724 103.89 28.4087 103.954 28.4087 103.954C28.345 104.082 28.0902 104.082 28.0264 103.954C28.0264 103.89 27.9627 103.827 27.9627 103.827C27.6442 103.188 28.7909 103.188 28.4724 103.827Z" fill="#0D2509"/>
<path opacity="0.2" d="M30.1267 177.002C30.1267 177.066 30.063 177.13 30.063 177.13C29.9993 177.258 29.7445 177.258 29.6807 177.13C29.6807 177.066 29.617 177.002 29.617 177.002C29.2985 176.364 30.4452 176.364 30.1267 177.002Z" fill="#0D2509"/>
<path opacity="0.2" d="M99.7272 117.043C99.5363 117.235 99.1546 117.235 98.9637 117.043C98.7729 116.788 98.7093 116.596 98.7729 116.277C98.9001 115.702 99.8544 115.702 99.9181 116.277C99.9817 116.596 99.9817 116.788 99.7272 117.043Z" fill="#0D2509"/>
<path opacity="0.2" d="M23.4459 106.189C23.2551 106.381 22.8734 106.381 22.6825 106.189C22.4916 105.934 22.428 105.742 22.4916 105.423C22.6189 104.849 23.5732 104.849 23.6368 105.423C23.7004 105.742 23.7004 105.998 23.4459 106.189Z" fill="#0D2509"/>
</g>
<path d="M1.05153 201.586C2.83291 202.608 58.0556 214.229 60.4095 213.335C61.3002 213.016 63.4633 205.034 65.8173 195.328C66.3263 193.221 66.8352 191.05 67.3442 188.879C70.5888 174.576 73.7699 159.315 73.7699 159.315L36.8699 151.461L31.4622 181.217L30.2534 187.73C30.2534 187.73 7.15911 192.774 4.61428 194.051C2.13308 195.328 -0.729846 200.564 1.05153 201.586Z" fill="#F1B1A3"/>
<path d="M64.863 199.031C62.8907 207.013 61.173 213.015 60.4095 213.334C58.0556 214.228 2.83291 202.671 1.05153 201.585C-0.729846 200.564 2.13308 195.328 4.61428 194.051C6.14118 193.284 15.557 191.049 22.4917 189.453C16.3841 190.922 5.05963 195.072 28.5356 196.732C47.9399 198.201 60.7913 198.84 64.863 199.031Z" fill="#4B4B4B"/>
<path d="M50.8663 229.937C52.8385 230.512 109.143 227.575 111.242 226.106C112.006 225.531 109.843 202.863 109.27 200.692C107.298 193.285 97.7547 171.064 97.7547 171.064L60.0913 172.916L75.5511 209.121C75.5511 209.121 54.4926 219.912 52.3932 221.764C50.2937 223.616 48.8304 229.363 50.8663 229.937Z" fill="#F1B1A3"/>
<path d="M111.242 226.106C109.143 227.575 52.8386 230.512 50.8663 229.937C48.8941 229.362 50.2937 223.616 52.3932 221.764C53.4111 220.87 58.4372 218.124 63.6541 215.378C57.1648 219.018 46.9219 227.128 110.606 212.633C111.242 219.082 111.624 225.787 111.242 226.106Z" fill="#4B4B4B"/>
<path d="M138.217 118.194C127.02 130.709 89.2932 120.812 87.0665 125.792C85.0943 130.198 110.797 200.884 110.797 200.884L69.6345 205.353C69.6345 205.353 34.0705 127.261 46.7947 104.721C53.6657 92.5245 83.8855 97.3774 102.145 95.1425C107.68 94.4401 110.224 83.0742 110.224 83.0742H142.862C142.798 83.0742 151.005 103.827 138.217 118.194Z" fill="#4B4B4B"/>
<path d="M58.1826 97.6966L92.7286 124.26C104.18 124.004 129.374 128.027 138.154 118.13C151.005 103.763 142.734 83.0742 142.734 83.0742H110.097C110.097 83.0742 107.489 94.4401 102.017 95.1425C89.2931 96.7388 70.5886 94.7594 58.1826 97.6966Z" fill="#37474F"/>
<path d="M67.9803 196.159C69.1255 195.775 79.8138 194.626 82.1677 194.371C86.8756 193.86 101.699 192.455 104.435 192.455C104.499 192.455 104.499 192.583 104.435 192.583C102.081 193.094 92.6015 194.179 90.2475 194.435C85.5396 194.945 69.3164 196.478 67.9803 196.35C67.9167 196.35 67.9167 196.159 67.9803 196.159Z" fill="#37474F"/>
<path d="M82.0406 121.641C84.7126 120.3 104.753 121.003 119.131 119.598C123.839 119.151 128.547 118.129 132.11 115.064C135.355 112.255 137.39 108.424 138.536 104.465C139.935 99.548 139.744 94.3759 139.554 89.3315C139.49 88.1182 139.426 86.8412 139.363 85.628C139.363 85.5641 139.49 85.5641 139.49 85.628C140.572 94.6952 141.399 104.784 135.545 112.638C132.937 116.086 129.311 118.449 125.048 119.534C116.332 121.833 83.6947 121.258 82.5495 122.152C81.1499 123.174 102.272 187.73 102.717 188.943C102.781 189.198 102.399 189.326 102.272 189.071C100.172 184.154 79.6866 122.791 82.0406 121.641Z" fill="#37474F"/>
<path d="M45.2677 106.892C47.2399 101.975 51.6297 98.8466 58.1827 97.6973C58.3099 97.6973 58.3099 97.825 58.1827 97.8888C52.5204 99.549 48.4487 101.848 46.222 106.637C45.2041 108.872 44.6315 112.064 44.377 116.279C43.041 137.414 61.3637 185.304 61.7454 186.198C61.809 186.262 61.6818 186.326 61.6182 186.262C59.0097 181.856 37.2515 127.325 45.2677 106.892Z" fill="#37474F"/>
<path d="M30.3804 179.365L61.5545 186.006C61.5545 186.006 36.9333 112.319 48.5122 102.805C51.6933 100.187 58.6915 99.2292 66.9622 102.869C79.3682 108.232 93.6828 119.215 107.234 123.174C119.895 126.942 134.909 123.493 140.062 117.747C150.941 105.742 142.734 83.0743 142.734 83.0743L97.8818 81.4141C97.8818 81.4141 98.5816 81.9887 96.4185 83.8405C96.4185 83.8405 70.0796 77.8383 58.6279 84.8621C38.0148 97.5051 30.3804 179.365 30.3804 179.365Z" fill="#4B4B4B"/>
<path d="M123.394 85.6924C123.394 85.6286 123.521 85.6286 123.521 85.6924C123.585 87.4165 123.521 89.0767 123.903 90.7368C124.285 92.3332 124.985 93.738 126.13 94.9512C128.611 97.4415 132.11 98.2715 135.355 99.2932C135.546 99.3571 135.482 99.6763 135.291 99.6125C131.728 99.0378 127.975 98.1438 125.366 95.462C124.158 94.2488 123.331 92.6524 123.076 90.9284C122.822 89.2682 122.885 87.3526 123.394 85.6924Z" fill="#37474F"/>
<path d="M49.276 101.4C54.0475 98.3992 61.5547 100.698 65.1811 102.039C65.2447 102.039 65.2447 102.167 65.1175 102.167C61.8092 100.953 53.6022 99.1654 49.2124 102.294C39.0967 109.51 52.6479 158.868 61.5548 186.006C61.682 186.453 61.3639 186.325 61.173 185.878C59.7098 182.686 48.2581 148.333 45.2043 125.665C44.7589 122.217 42.405 105.742 49.276 101.4Z" fill="#37474F"/>
<path d="M33.9433 171C34.8976 171 42.9774 172.788 44.7588 173.171C48.3216 174.001 56.5922 176.108 58.5009 176.875C58.5645 176.875 58.5009 177.002 58.4372 177.002C56.5922 176.811 52.266 175.853 50.4847 175.47C46.9219 174.64 34.7704 171.702 33.8797 171.255C33.8161 171.192 33.8161 171 33.9433 171Z" fill="#37474F"/>
<path d="M50.8027 100.123C54.0474 98.3356 57.8646 98.0802 61.4274 98.5271C65.2446 98.9741 68.8074 100.379 72.3065 101.911C79.6229 105.232 86.5575 109.318 93.8739 112.703C101.127 116.023 108.888 118.577 116.905 118.833C123.776 119.024 132.428 117.811 136.818 111.681C143.625 102.167 139.617 85.7564 139.553 84.6709C139.553 84.6071 139.681 84.6071 139.681 84.6709C144.961 104.849 138.154 112.639 133.637 115.959C130.01 118.577 124.793 119.216 121.358 119.535C113.405 120.237 105.389 118.258 98.0728 115.321C90.502 112.319 83.4401 108.233 76.1874 104.529C69.2527 100.954 61.491 97.3139 53.5384 99.3572C52.6477 99.6126 51.757 99.9319 50.93 100.251C50.8027 100.187 50.8027 100.123 50.8027 100.123Z" fill="#37474F"/>
<path d="M115.314 45.91C106.661 61.2349 97.1819 74.6441 88.9113 76.3681C80.068 78.156 61.8725 60.5325 57.5463 54.4025C55.9558 52.1038 72.9425 42.7812 75.2328 44.6968C79.4954 48.2726 87.6388 53.8279 89.0385 53.5724C90.5018 53.317 100.617 45.3354 111.433 36.9067C117.986 31.8623 121.294 35.3104 115.314 45.91Z" fill="#F1B1A3"/>
<path d="M59.5189 57.0205C59.5189 57.0205 51.0573 45.7823 49.5941 43.0366C48.1308 40.2909 42.9139 28.2226 45.5223 26.4986C48.9579 24.2637 54.8746 38.0561 55.5744 38.6946C56.2742 39.397 69.4437 40.9295 72.5611 42.7812C75.7421 44.633 77.778 47.1871 77.778 47.1871C77.778 47.1871 68.6802 56.0627 59.5189 57.0205Z" fill="#F1B1A3"/>
<path d="M44.7588 12.7068L61.8727 0L72.9427 31.4159L55.956 42.0155L44.7588 12.7068Z" fill="#37474F"/>
<path d="M46.9219 12.5782L61.4274 1.97852L62 3.12788L70.5251 27.3283C70.5251 27.3283 68.362 29.5632 67.026 31.6065C65.69 33.6498 61.7455 40.2267 57.292 40.6098L46.9219 12.5782Z" fill="white"/>
<path d="M47.5581 14.4938C47.5581 14.4938 51.4389 12.5782 53.3476 10.471C55.3198 8.36386 57.2284 6.06513 58.7553 5.04348C60.3458 4.02182 61.9363 3.00017 61.9363 3.00017L61.4274 1.97852L46.9219 12.5782L47.5581 14.4938Z" fill="#EBEBEB"/>
<path d="M80.45 43.1016L54.2383 42.91L44.7588 12.7074L72.1157 10.6641L80.45 43.1016Z" fill="#455A64"/>
<path d="M51.6298 22.3484C50.2301 23.6255 52.266 39.525 52.3932 40.2274C52.4569 40.9298 54.3019 44.1225 54.3019 44.1225L61.0457 42.0153C61.0457 42.0153 57.9919 36.2685 57.8646 34.5444C57.7374 32.8204 55.956 18.5172 51.6298 22.3484Z" fill="#F1B1A3"/>
<path d="M51.5025 32.1816C52.1387 36.1406 52.6477 40.0356 53.2839 43.9945C51.757 40.291 51.3116 36.2044 51.5025 32.1816Z" fill="#4B4B4B"/>
<path d="M60.5368 24.7105C64.0996 23.4334 62.6363 31.4789 61.8728 34.4162C61.0458 37.6727 62.509 44.7604 62.509 44.7604L55.0654 45.0797C55.0654 45.0797 55.0654 37.4173 55.3199 34.9909C55.5744 33.203 58.5646 25.4129 60.5368 24.7105Z" fill="#F1B1A3"/>
<path d="M57.1648 29.627C56.7195 31.4787 55.8924 33.3943 55.6379 35.1822C55.5743 37.0978 55.4471 39.0773 55.129 41.0567C54.9381 39.0773 54.8745 37.1617 55.0017 35.1822C55.3198 33.2027 56.2742 31.4148 57.1648 29.627Z" fill="#4B4B4B"/>
<path d="M61.2998 44.3781C61.2998 44.3781 62.5722 38.3759 63.2084 37.482C63.8446 36.588 67.0893 30.7773 68.2345 30.7773C69.3796 30.7773 70.7793 33.523 70.0795 35.5025C69.0615 38.4398 68.3617 40.0999 68.2981 40.9939C68.2345 41.8878 71.3519 45.4636 71.3519 45.4636L61.2998 44.3781Z" fill="#F1B1A3"/>
<path d="M63.5901 36.9707C62.5086 39.3971 62.5086 42.0151 61.2998 44.3777C61.5543 41.8236 61.8724 38.8863 63.5901 36.9707Z" fill="#4B4B4B"/>
<path d="M68.2979 40.9941C69.3794 42.5266 70.6518 43.9953 71.3516 45.847C70.2065 44.8892 69.3794 43.676 68.7432 42.3989C68.5523 41.9519 68.2979 41.505 68.2979 40.9941Z" fill="#4B4B4B"/>
<path d="M79.6865 43.8677L62 61.4913C62 61.4913 79.432 80.5196 88.0208 78.6678C96.6096 76.8161 111.624 56.3191 117.223 41.8244C121.104 31.7994 115.441 33.2681 109.397 38.0571C103.353 42.8461 89.2932 52.6156 88.5934 52.4241C87.8936 52.2325 79.6865 43.8677 79.6865 43.8677Z" fill="#FFC727"/>
<path d="M110.67 54.8498C110.606 54.9136 110.606 54.9775 110.606 54.9775C108.506 55.2329 106.407 55.2329 104.244 54.7859C100.109 53.892 96.6094 51.9764 93.492 49.4222C93.5556 49.3584 93.6192 49.3584 93.6829 49.2945C96.7367 51.7848 100.236 53.7004 104.308 54.6582C106.407 55.1052 108.506 55.1052 110.67 54.8498ZM78.0322 45.5272L77.6505 45.9742C78.7956 45.7826 79.8772 45.5272 81.0224 45.2079L80.7679 44.9525C79.8136 45.1441 78.9229 45.3356 78.0322 45.5272ZM108.888 38.4395C108.761 38.5033 108.634 38.631 108.57 38.6949C110.033 39.078 111.56 39.6527 113.214 40.4189C114.55 40.9936 115.759 41.7598 116.968 42.5261C117.032 42.3984 117.032 42.3345 117.095 42.2068C114.805 40.7382 112.26 39.3973 108.888 38.4395ZM93.2375 75.9214C93.1103 75.9214 92.983 75.9853 92.8558 75.9853C88.466 77.0708 84.0125 77.3262 79.4319 75.666C78.5412 75.4106 77.7141 75.0913 76.9506 74.7082C77.396 75.0275 77.905 75.3467 78.3503 75.6021C79.75 76.113 81.2132 76.4961 82.7401 76.7515C86.112 77.39 89.4839 77.0708 92.7922 76.2407C92.9194 76.1768 93.0467 76.1768 93.1739 76.113C93.3011 76.113 93.3648 76.0491 93.492 76.0491C93.4284 76.0491 93.3011 75.9853 93.2375 75.9214ZM93.2375 75.9214C89.5475 73.1757 86.0484 70.0469 82.6129 67.365C79.4319 65.0025 75.8055 62.3206 71.6701 62.5122C69.1889 62.576 66.8986 63.2784 64.6719 64.2362C64.7355 64.3001 64.7991 64.3639 64.8627 64.4278C66.5169 63.7254 68.2346 63.2146 70.016 62.9592C74.7239 62.0652 78.8593 64.8748 82.422 67.6205C85.8575 70.3023 89.293 73.3034 92.9194 75.9853C92.983 75.9853 92.983 76.0491 93.0467 76.113C93.1103 76.113 93.1103 76.1768 93.1739 76.1768C93.3011 76.1768 93.3648 76.113 93.492 76.113C93.4284 76.0491 93.3011 75.9853 93.2375 75.9214Z" fill="white"/>
<path opacity="0.1" d="M117.223 41.8236C117.159 42.0151 117.032 42.2705 116.968 42.5259C111.179 56.9568 96.4824 76.8791 88.0209 78.667C86.3031 79.0501 84.2672 78.6031 82.0405 77.5815C90.5657 66.024 103.353 47.7619 112.96 35.5659C113.278 35.3744 113.596 35.2467 113.851 35.1189C113.978 35.0551 114.105 34.9912 114.233 34.9274C114.233 34.9274 114.296 34.9274 114.296 34.8635C114.423 34.7997 114.551 34.7358 114.678 34.672C114.805 34.6081 114.932 34.6081 115.06 34.5443C115.251 34.4804 115.441 34.4166 115.569 34.4166C115.696 34.4166 115.759 34.3527 115.887 34.3527C116.014 34.3527 116.141 34.2889 116.268 34.2889C117.032 34.225 117.604 34.3527 117.986 34.7997C118.05 34.8635 118.05 34.8635 118.113 34.9274C118.75 36.0767 118.622 38.1839 117.223 41.8236Z" fill="black"/>
<path d="M67.4717 64.7463C70.0166 62.3199 80.1322 51.9757 82.1681 49.6131C82.2953 49.4215 82.2317 49.2938 82.0408 49.4854C74.2155 56.5731 69.6984 62.1922 67.3445 64.6825C67.2809 64.6825 67.4081 64.8102 67.4717 64.7463Z" fill="#4B4B4B"/>
<path d="M97.564 84.0303L145.852 88.1808C145.852 88.1808 140.89 65.4489 133.828 47.5061C126.257 28.2863 116.014 33.3945 112.388 36.4595C108.061 40.0991 99.5998 53.6999 98.9636 56.3818C97.9457 60.7876 101.572 65.7682 101.572 65.7682L97.564 84.0303Z" fill="#FFC727"/>
<path d="M116.332 65.8323C114.36 65.7685 112.324 65.7685 110.352 66.0239C109.397 66.1516 108.379 66.2793 107.425 66.4709C106.916 66.5347 106.471 66.6624 105.962 66.7263C105.453 66.7901 104.944 66.854 104.435 66.7901C104.371 66.7901 104.371 66.854 104.435 66.854C104.944 66.9178 105.389 66.9817 105.898 67.0456C106.344 67.0456 106.853 67.0456 107.298 66.9817C108.316 66.854 109.27 66.7263 110.288 66.5986C112.324 66.3432 114.296 66.0878 116.332 66.0239C116.459 65.9601 116.459 65.8323 116.332 65.8323Z" fill="#4B4B4B"/>
<path d="M120.976 68.1949C119.386 67.8118 117.731 67.4925 116.141 67.3009C115.314 67.1732 114.487 67.1732 113.66 67.1094C113.278 67.1094 112.896 67.1094 112.451 67.1094C112.006 67.1094 111.56 67.1732 111.179 67.1732C111.115 67.1732 111.115 67.2371 111.179 67.2371C111.56 67.2371 112.006 67.3648 112.387 67.3648C112.769 67.4286 113.214 67.4286 113.596 67.4925C114.423 67.5563 115.25 67.6841 116.077 67.7479C117.731 67.8756 119.322 68.0672 120.976 68.3226C121.103 68.3864 121.103 68.2587 120.976 68.1949Z" fill="#4B4B4B"/>
<path d="M134.337 48.8473C132.364 49.0388 130.328 49.4858 128.356 49.9966C128.165 50.0605 128.038 50.0605 127.847 50.1243C124.475 51.0183 121.104 52.2953 117.795 53.317C113.405 54.6579 108.761 55.7434 104.18 54.7856C102.781 54.4664 101.445 54.0832 100.172 53.5724C100.172 53.5086 100.236 53.4447 100.236 53.4447C101.508 53.9555 102.781 54.4025 104.18 54.7218C111.942 56.1904 119.704 52.3592 127.529 50.0605C127.72 49.9966 127.847 49.9328 128.038 49.9328C130.074 49.3581 132.11 48.9111 134.209 48.6557C134.273 48.7195 134.337 48.7834 134.337 48.8473ZM135.609 52.2953C134.018 52.1038 132.428 51.7207 130.774 51.0183C129.883 50.699 129.12 50.3797 128.356 49.9966C128.229 49.9328 128.165 49.8689 128.102 49.8689C121.294 46.4847 118.304 41.4403 110.161 38.8223C110.097 38.95 109.97 39.0138 109.906 39.1415C110.924 39.5247 112.069 39.9078 113.151 40.4186C117.414 42.2703 120.722 45.5907 124.539 48.2087C125.557 48.9111 126.575 49.4858 127.656 49.9966C127.72 50.0605 127.847 50.1243 127.911 50.1243C129.883 51.0821 131.919 51.7845 134.082 52.2953C134.655 52.423 135.227 52.5507 135.736 52.6146C135.736 52.4869 135.673 52.423 135.609 52.2953ZM131.792 75.4741C131.728 75.4103 131.665 75.4103 131.665 75.3464C128.165 72.5369 124.285 70.3659 119.64 69.5358C114.996 68.7695 110.415 70.0466 106.089 71.5152C103.99 72.2176 101.89 73.0477 99.7906 73.8139L99.727 74.0693C106.344 71.5791 112.896 68.7057 119.577 69.7273C124.157 70.5574 127.975 72.7284 131.41 75.4741C131.474 75.538 131.537 75.538 131.537 75.6018C135.863 79.1138 139.49 83.6474 143.053 87.9255L143.498 87.9894C139.935 83.6474 136.182 79.0499 131.792 75.4741ZM141.462 70.8128C138.027 71.7706 134.846 73.4947 131.665 75.4103C131.601 75.4741 131.537 75.4741 131.474 75.538C125.239 79.2415 119.195 83.4558 112.197 83.6474C107.171 83.6474 102.717 81.9872 98.5182 79.5607L98.4546 79.8162C102.654 82.2426 107.107 83.8389 112.197 83.8389C116.841 83.7112 121.167 81.6679 125.175 79.433C127.275 78.2198 129.438 76.9427 131.537 75.6657C131.601 75.6018 131.665 75.6018 131.728 75.538C134.846 73.7501 138.09 72.0899 141.462 71.1321C141.526 71.0044 141.462 70.9405 141.462 70.8128Z" fill="white"/>
<path d="M128.611 38.1209C143.307 52.2963 161.884 79.8172 158.703 86.0748C155.141 93.0987 134.909 73.9426 134.973 72.7294C135.037 71.8355 127.529 55.3613 121.803 41.9521C116.141 28.6067 124.984 34.6089 128.611 38.1209Z" fill="#F1B1A3"/>
<path d="M134.846 72.7929C134.21 70.8135 124.03 48.4648 121.04 40.8024C118.114 33.14 120.595 30.6497 128.547 37.5458C136.5 44.442 153.805 64.6197 158.004 77.0711C162.075 89.0755 156.286 90.4165 147.952 85.0528C141.144 80.7107 134.846 72.7929 134.846 72.7929Z" fill="#FFC727"/>
<path d="M139.49 48.8477C135.737 48.4007 132.047 49.0392 128.357 49.9971C128.166 50.0609 128.038 50.0609 127.848 50.1248C126.957 50.3802 126.13 50.6356 125.239 50.891C125.239 50.8271 125.176 50.7633 125.176 50.6994C126.003 50.444 126.766 50.1886 127.593 49.9332C127.784 49.8693 127.911 49.8055 128.102 49.8055C131.792 48.7838 135.482 48.0814 139.236 48.4646C139.363 48.6561 139.427 48.7838 139.49 48.8477ZM142.289 52.1681C138.472 52.6789 134.655 52.5512 130.838 51.0187C129.947 50.6994 129.184 50.3802 128.42 49.9971C128.293 49.9332 128.229 49.8693 128.166 49.8693C126.512 49.0392 125.112 48.1453 123.776 47.1875C123.839 47.3791 123.967 47.5706 124.03 47.826C124.221 47.9537 124.412 48.0814 124.603 48.2092C125.621 48.9115 126.639 49.4862 127.72 49.9971C127.784 50.0609 127.911 50.1248 127.975 50.1248C129.947 51.0826 131.983 51.7849 134.146 52.2958C136.945 52.9343 139.808 52.8705 142.608 52.4235C142.417 52.3596 142.353 52.2958 142.289 52.1681ZM155.459 71.1964C152.787 70.3663 150.051 69.9832 147.252 69.9832C142.989 69.9832 139.045 71.3879 135.291 73.3674C135.355 73.4313 135.355 73.4951 135.418 73.559C140.126 71.1964 145.089 69.6 150.624 70.5578C152.469 70.8133 154.123 71.1964 155.65 71.7072C155.586 71.5157 155.523 71.3879 155.459 71.1964Z" fill="white"/>
<path d="M136.182 75.9211C135.291 73.6223 134.401 71.3236 133.51 69.0249C132.619 66.7262 131.665 64.4913 130.774 62.1926L127.911 55.3603L126.448 51.976C125.939 50.8267 125.494 49.7412 124.985 48.5918C125.43 49.7412 125.876 50.8905 126.321 52.0399L127.657 55.488L130.393 62.3203C131.347 64.619 132.301 66.8539 133.256 69.1526C134.21 71.3875 135.164 73.6862 136.182 75.9211Z" fill="#4B4B4B"/>
<path d="M127.021 53.9563C126.703 53.3817 126.384 52.807 126.003 52.2962C125.812 52.0407 125.621 51.7853 125.43 51.5299C125.239 51.2745 125.048 51.0191 124.794 50.7637C125.048 51.4022 125.367 51.913 125.748 52.4877C126.194 52.9347 126.575 53.4455 127.021 53.9563Z" fill="#4B4B4B"/>
<path d="M158.576 86.6483C154.695 90.9904 146.488 91.0542 123.394 92.6506C120.213 92.8421 111.942 70.238 115.314 69.791C119.576 69.2802 136.309 68.1947 137.517 68.2586C147.951 68.9609 161.248 83.7111 158.576 86.6483Z" fill="#F1B1A3"/>
<path d="M123.076 70.3665C123.076 70.3665 114.487 68.7702 108.825 68.0039C105.644 67.557 100.172 67.3016 97.6911 68.0678C94.0011 69.2172 79.3048 76.241 80.8953 79.8807C82.3585 83.1372 94.2556 75.4748 94.2556 75.4748C94.2556 75.4748 81.5951 82.1794 84.0763 85.7552C86.5575 89.3948 98.8363 78.9229 98.8363 78.9229C98.8363 78.9229 85.9849 86.0745 89.1659 89.3948C91.5835 91.8851 103.226 83.0095 103.226 83.0095C103.226 83.0095 92.2197 89.2671 94.5737 91.949C97.1821 94.8862 108.443 87.4154 108.443 87.4154C115.568 93.226 121.358 93.0983 125.43 92.4598C126.384 92.396 123.076 70.3665 123.076 70.3665Z" fill="#F1B1A3"/>
<path d="M98.5179 72.9199C96.991 73.6223 95.4641 74.3886 94.0008 75.2186C92.5375 76.1126 91.1379 77.0065 89.8019 78.0282C86.4936 80.4546 84.7758 82.4979 84.9031 82.4341C87.7024 79.6884 92.8557 76.5596 94.3189 75.6656C95.7186 74.7717 97.1182 73.8139 98.5179 72.9199C98.5815 72.9199 98.5815 72.9199 98.5179 72.9199Z" fill="#4B4B4B"/>
<path d="M101.699 78.0918C99.7903 79.1134 97.8816 80.0712 96.0366 81.1568C94.1917 82.2423 92.5375 83.4555 90.7561 84.6687C90.6289 84.7325 90.6925 84.7964 90.8834 84.7325C92.6648 83.5832 94.4461 82.6254 96.2911 81.5399C98.1361 80.3905 99.9175 79.1773 101.699 78.0918C101.763 78.0918 101.763 78.0918 101.699 78.0918Z" fill="#4B4B4B"/>
<path d="M105.262 82.0506C102.272 83.4554 99.5998 85.4348 96.9277 87.4143C96.8005 87.542 96.9277 87.542 97.0549 87.4781C99.7906 85.6264 101.89 84.2216 105.262 82.1783C105.389 82.1145 105.326 81.9868 105.262 82.0506Z" fill="#4B4B4B"/>
<path d="M117.986 69.0891L134.973 93.6088C134.973 93.6088 155.268 91.4378 158.831 86.6488C161.185 83.5199 148.142 68.0036 136.564 68.1951L117.986 69.0891Z" fill="#FFC727"/>
<path d="M146.87 91.6931C146.742 91.6931 146.615 91.7569 146.488 91.7569C146.297 91.5653 146.043 91.3099 145.852 91.0545C141.335 85.9462 136.945 80.0079 131.601 75.602C131.537 75.5381 131.537 75.5381 131.473 75.4743C128.038 72.6647 124.221 70.5576 119.64 69.7275C119.195 69.6636 118.749 69.5998 118.304 69.5998L118.177 69.4082C118.686 69.4721 119.131 69.5359 119.64 69.5998C124.284 70.4299 128.165 72.6009 131.664 75.4104C131.728 75.4743 131.792 75.4743 131.792 75.5381C137.136 79.8802 141.526 85.8185 146.106 90.863C146.361 91.1184 146.615 91.3738 146.87 91.6931ZM144.388 70.1744C139.871 70.813 135.736 72.984 131.664 75.3466C131.601 75.4104 131.537 75.4104 131.473 75.4743C129.31 76.7513 127.211 78.0923 125.048 79.3055L125.111 79.4332C125.175 79.4332 125.175 79.3693 125.239 79.3693C127.338 78.1561 129.501 76.8791 131.601 75.602C131.664 75.5381 131.728 75.5381 131.792 75.4743C135.927 73.1117 140.189 71.0045 144.834 70.366C144.707 70.3022 144.579 70.2383 144.388 70.1744Z" fill="white"/>
<path d="M149.669 73.5576C148.015 72.0252 143.244 68.2578 136.563 68.2578C136.5 68.2578 136.5 68.3217 136.563 68.3855C141.526 68.8963 147.888 72.2806 149.606 73.6853C149.669 73.6215 149.669 73.5576 149.669 73.5576Z" fill="#4B4B4B"/>
<path d="M140.826 90.6075C139.109 87.798 137.264 85.1161 135.355 82.4343C133.446 79.7525 131.601 77.0068 129.629 74.3888C128.548 72.9201 127.466 71.3877 126.257 69.919C126.257 69.8552 126.13 69.919 126.194 69.9829C127.911 72.7924 129.756 75.4743 131.601 78.22C133.446 80.9018 135.355 83.6475 137.264 86.3294C138.345 87.8618 139.427 89.3305 140.635 90.7991C140.763 90.7991 140.89 90.7352 140.826 90.6075Z" fill="#4B4B4B"/>
<path d="M117.986 68.8332C119.259 68.5778 120.531 68.5139 121.803 68.45C123.076 68.3862 124.348 68.3223 125.621 68.2585C128.165 68.1946 133.51 67.6838 138.09 68.2585C138.154 68.2585 137.836 68.45 137.772 68.45C135.609 68.0669 119.513 69.2163 118.241 69.1524C118.304 69.2163 118.304 69.344 118.368 69.4078C118.368 69.4717 118.304 69.5356 118.241 69.4717C118.113 69.344 117.986 69.2163 117.859 69.0247C117.795 69.0247 117.859 68.8332 117.986 68.8332Z" fill="#4B4B4B"/>
<path d="M155.649 89.2656C154.822 89.6487 153.995 89.8403 153.168 90.0957C152.341 90.2873 151.451 90.4788 150.623 90.6704C148.906 91.0535 147.188 91.3728 145.407 91.6921C141.907 92.3306 138.472 92.9053 134.973 93.6077H135.036L133.637 92.0113L134.909 93.7354V93.7992H134.973C136.754 93.6715 138.472 93.48 140.253 93.2884C142.035 93.033 143.752 92.7776 145.47 92.4583C147.188 92.139 148.969 91.7559 150.687 91.3089C151.514 91.0535 152.405 90.7981 153.232 90.5427C154.059 90.0957 154.886 89.7765 155.649 89.2656Z" fill="#4B4B4B"/>
<path d="M122.757 36.3972C122.566 37.2273 118.558 42.8464 114.677 42.6549C113.405 42.591 113.405 35.631 113.405 35.631L113.278 35.1202L111.624 27.9047L120.021 22.4133L121.23 21.7109C121.23 21.7109 121.548 23.6904 121.93 26.1807C121.93 26.3084 121.994 26.4361 121.994 26.5638C121.994 26.6915 122.057 26.8192 122.057 26.9469C122.121 27.33 122.185 27.7132 122.248 28.0963C122.312 28.4155 122.312 28.671 122.375 28.9902C122.439 29.3095 122.439 29.5649 122.503 29.8842C122.757 32.8853 122.821 36.0141 122.757 36.3972Z" fill="#F1B1A3"/>
<path d="M121.867 26.1807C119.831 31.9275 115.314 34.2901 113.214 35.1202L111.56 27.9047L119.958 22.4133L121.167 21.7109C121.167 21.7109 121.485 23.6904 121.867 26.1807Z" fill="#4B4B4B"/>
<path d="M111.178 36.7158C111.178 36.7158 107.616 46.8047 111.56 48.5287C115.441 50.2528 127.083 36.2689 127.083 36.2689C127.083 36.2689 120.594 28.9896 111.178 36.7158Z" fill="#F1B1A3"/>
<path d="M123.712 24.4567C123.903 24.8398 124.03 25.223 124.093 25.6699C124.284 27.5855 123.139 29.2457 121.803 30.4589C120.403 31.7999 118.622 32.8854 117.731 34.6094C117.35 35.3118 117.159 36.078 117.35 36.8443C117.541 37.6744 118.24 38.2491 119.004 38.6322C119.767 39.0153 120.785 39.3346 121.231 40.2285C121.549 40.9309 121.358 41.8249 121.04 42.4634C120.085 44.1874 117.922 44.7621 116.459 45.9115C114.868 47.1247 113.723 48.8487 113.151 50.7643C112.578 52.5522 112.578 54.4678 113.151 56.3196C113.405 57.2135 113.787 58.0436 114.232 58.8099C114.805 59.6399 115.505 60.4062 116.077 61.2363C116.65 62.0025 117.095 62.9603 116.841 63.982C116.65 64.7482 114.678 66.7277 111.242 67.2385C110.988 67.3024 111.051 67.6855 111.306 67.7493C111.815 67.877 112.324 67.9409 112.833 68.0048C117.032 68.4517 121.294 66.7915 124.093 63.535C125.557 61.811 126.575 59.7677 127.147 57.5328C127.402 56.3196 127.593 55.0425 128.102 53.8931C128.547 52.8715 129.247 51.9775 130.074 51.2752C131.728 49.9342 133.637 48.9126 135.036 47.3162C136.245 45.8476 137.072 44.0597 137.454 42.1441C138.281 38.1852 137.199 34.0986 134.718 30.9698C132.364 27.7771 123.584 24.2652 123.712 24.4567Z" fill="#4B4B4B"/>
<path d="M123.775 24.584C124.093 25.3503 124.284 26.1804 124.221 27.0104C124.157 27.7767 123.903 28.4791 123.457 29.1176C122.566 30.5224 121.167 31.4163 119.767 32.3741C118.495 33.2681 117.222 34.2259 116.65 35.7584C116.395 36.3969 116.332 37.0993 116.459 37.8017C116.65 38.5679 117.095 39.1426 117.731 39.5257C118.876 40.292 120.594 40.9305 120.785 42.5268C120.976 44.0593 119.449 45.2087 118.431 46.0388C115.823 48.0821 112.133 50.3808 112.26 54.1482C112.324 56.0638 113.151 58.0432 114.105 59.7034C114.805 60.9166 115.632 62.3852 115.123 63.79C115.123 63.8539 115.059 63.79 115.059 63.7262C115.568 62.2575 114.487 60.9166 113.723 59.7034C112.833 58.2986 112.133 56.7661 111.878 55.106C111.56 53.4458 112.005 51.8494 112.96 50.4447C113.914 49.0399 115.25 47.9544 116.586 46.9327C117.286 46.4219 117.986 45.9111 118.686 45.3364C119.322 44.8256 119.894 44.3147 120.276 43.6123C120.658 42.8461 120.467 42.0799 119.894 41.4413C119.322 40.8666 118.558 40.4835 117.922 40.1004C117.286 39.7173 116.777 39.2703 116.459 38.5679C116.204 38.0571 116.141 37.4186 116.204 36.8439C116.332 35.503 117.031 34.2897 117.986 33.3958C119.385 32.1187 121.103 31.3525 122.439 30.0116C123.139 29.373 123.712 28.5429 123.966 27.5851C124.221 26.5635 123.966 25.6695 123.712 24.7117C123.521 24.5202 123.712 24.4563 123.775 24.584Z" fill="#4B4B4B"/>
<path d="M136.5 31.2256C139.044 34.3545 139.362 38.7603 137.899 42.4638C137.072 44.5071 135.736 46.295 134.082 47.7637C132.555 49.1046 130.774 50.254 129.501 51.978C128.102 53.8297 128.038 56.1285 127.593 58.2995C127.211 60.0874 126.511 61.7476 125.43 63.1523C123.394 65.9619 120.213 67.8775 116.841 68.3883C116.395 68.4522 115.95 68.516 115.505 68.516C115.441 68.516 115.441 68.4522 115.505 68.4522C118.94 68.2606 122.185 66.4089 124.412 63.727C125.493 62.3861 126.32 60.9175 126.766 59.2573C127.338 57.214 127.338 55.043 128.165 53.1274C128.929 51.2756 130.519 49.9985 132.046 48.7853C133.7 47.4444 135.354 46.1673 136.5 44.3156C138.599 40.9314 139.044 36.5255 137.136 32.9497C134.973 28.9908 130.71 27.0113 126.638 25.7342C126.066 25.5427 125.557 25.415 124.984 25.2234C124.921 25.2234 124.921 25.0957 124.984 25.0957C129.183 26.1812 133.7 27.6498 136.5 31.2256Z" fill="#4B4B4B"/>
<path d="M124.093 22.0938C124.793 22.0938 125.62 22.6684 125.684 23.1154C125.747 23.5624 124.157 26.7551 123.266 26.9466C122.439 27.1382 121.803 25.6695 121.803 25.6695L124.093 22.0938Z" fill="#FFC727"/>
<path d="M101.318 16.5395C99.727 29.374 107.234 31.8005 109.97 32.1197C112.451 32.439 121.04 33.1414 123.966 20.5623C126.893 7.91928 121.422 3.13027 115.696 2.10862C109.97 1.08696 102.844 3.6411 101.318 16.5395Z" fill="#F1B1A3"/>
<path d="M102.844 15.1347C103.162 15.1347 103.417 15.0708 103.735 15.0069C104.053 14.9431 104.371 14.9431 104.626 14.6877C104.753 14.56 104.753 14.2407 104.626 14.113C104.371 13.7937 103.926 13.7299 103.48 13.7937C103.035 13.8576 102.717 13.9853 102.399 14.3684C102.144 14.6238 102.399 15.1347 102.844 15.1347Z" fill="#4B4B4B"/>
<path d="M111.751 15.3908C111.433 15.327 111.178 15.2631 110.86 15.1354C110.542 15.0715 110.224 15.0077 110.033 14.7523C109.906 14.6246 109.906 14.3053 110.033 14.1776C110.351 13.8583 110.796 13.8583 111.178 13.986C111.623 14.1137 111.942 14.3053 112.196 14.6246C112.514 14.9438 112.132 15.4547 111.751 15.3908Z" fill="#4B4B4B"/>
<path d="M109.524 18.5198C109.524 18.456 109.588 18.5837 109.588 18.5837C109.524 19.4776 109.524 20.4993 110.352 20.8824V20.9463C109.334 20.6908 109.27 19.3499 109.524 18.5198Z" fill="#4B4B4B"/>
<path d="M110.351 17.625C111.815 17.625 111.688 20.4984 110.351 20.4984C109.079 20.4984 109.143 17.625 110.351 17.625Z" fill="#4B4B4B"/>
<path d="M110.924 17.8158C111.179 18.0074 111.433 18.2628 111.688 18.3266C112.006 18.3905 112.324 18.0712 112.515 17.8158C112.515 17.8158 112.578 17.8158 112.578 17.8797C112.578 18.4543 112.324 18.9652 111.751 19.029C111.242 19.0929 110.861 18.5821 110.733 18.0074C110.733 17.8797 110.861 17.752 110.924 17.8158Z" fill="#4B4B4B"/>
<path d="M104.625 18.3265C104.625 18.2626 104.562 18.3903 104.562 18.3903C104.562 19.2843 104.434 20.3059 103.607 20.5613V20.6252C104.562 20.4975 104.753 19.1566 104.625 18.3265Z" fill="#4B4B4B"/>
<path d="M103.862 17.3694C102.462 17.2417 102.208 20.1151 103.544 20.2428C104.816 20.3705 105.071 17.4971 103.862 17.3694Z" fill="#4B4B4B"/>
<path d="M103.226 17.4967C102.971 17.6244 102.717 17.8798 102.462 17.8798C102.144 17.8798 101.953 17.5605 101.763 17.2413C101.763 17.1774 101.699 17.2413 101.699 17.2413C101.635 17.8159 101.763 18.3906 102.335 18.5183C102.781 18.646 103.162 18.1991 103.353 17.6882C103.417 17.6244 103.353 17.4328 103.226 17.4967Z" fill="#4B4B4B"/>
<path d="M109.651 25.7988C109.46 25.9904 109.27 26.3097 108.952 26.3735C108.633 26.4374 108.252 26.3097 107.997 26.1819C107.997 26.1819 107.934 26.1819 107.934 26.2458C108.188 26.5651 108.697 26.7566 109.079 26.6928C109.46 26.6289 109.651 26.2458 109.715 25.8627C109.779 25.7988 109.715 25.7988 109.651 25.7988Z" fill="#4B4B4B"/>
<path d="M106.025 22.5411C106.025 22.5411 105.834 23.882 105.834 24.5205C105.834 24.5844 105.962 24.5844 106.216 24.6482C107.298 24.8398 108.443 24.4567 109.143 23.5627C109.206 23.4989 109.079 23.435 109.079 23.4989C108.252 24.0735 107.298 24.2651 106.343 24.2651C106.28 24.0735 106.789 21.9664 106.661 21.9664C106.343 21.9025 105.643 22.1579 105.262 22.2856C105.58 19.4761 106.407 16.7943 106.725 13.9847C106.725 13.857 106.598 13.857 106.534 13.9208C105.516 16.6665 105.007 19.9231 104.626 22.7326C104.435 23.1157 105.771 22.6049 106.025 22.5411Z" fill="#4B4B4B"/>
<path d="M106.216 24.3301C106.216 24.3301 106.725 25.224 107.552 25.6072C107.87 25.7349 108.188 25.7987 108.506 25.7349C109.206 25.6072 109.333 24.9686 109.206 24.3939C109.142 23.947 108.952 23.5 108.952 23.5C108.952 23.5 107.934 24.3301 106.216 24.3301Z" fill="#4B4B4B"/>
<path d="M107.615 25.5433C107.933 25.671 108.251 25.7349 108.57 25.671C109.269 25.5433 109.397 24.9048 109.269 24.3301C108.506 24.3301 107.742 24.8409 107.615 25.5433Z" fill="#FF9BBC"/>
<path d="M123.012 20.3699C120.658 20.753 119.895 15.2616 119.895 15.2616C119.895 15.2616 109.652 13.793 108.634 5.49208C108.634 5.49208 106.98 10.8558 101.763 13.346C101.763 13.346 101.89 4.21501 109.079 2.29941C109.079 2.29941 117.922 -1.14868 123.139 5.81134C128.292 12.8352 124.602 20.1784 123.012 20.3699Z" fill="#4B4B4B"/>
<path d="M108.57 4.85352C108.443 6.13058 108.697 7.40765 109.142 8.62087C109.588 9.83408 110.224 10.9834 111.115 11.9412C111.306 12.1967 111.56 12.3882 111.815 12.6436L112.196 12.9629C112.323 13.0906 112.451 13.1545 112.578 13.2183C112.832 13.4099 113.087 13.6014 113.405 13.793C113.66 13.9207 113.978 14.1123 114.296 14.24C114.423 14.3038 114.55 14.3677 114.741 14.4315L115.186 14.6231L116.077 14.9424C116.713 15.0701 117.35 15.1978 117.922 15.3255C117.35 15.0701 116.713 14.8785 116.141 14.6869L115.314 14.3038L114.868 14.1123C114.741 14.0484 114.614 13.9207 114.487 13.8568C114.232 13.6653 113.978 13.5376 113.66 13.4099C113.405 13.2183 113.151 13.0268 112.896 12.8352L112.514 12.5798L112.196 12.2605C112.005 12.069 111.751 11.8774 111.56 11.622C110.733 10.728 110.033 9.64252 109.524 8.55701C109.27 7.98233 109.079 7.40765 108.888 6.76912C108.761 6.13058 108.633 5.49205 108.57 4.85352Z" fill="#4B4B4B"/>
<path d="M110.86 24.1378C108.506 23.627 106.98 21.2644 107.489 18.838C107.998 16.4754 110.351 14.9429 112.769 15.4538C115.123 15.9646 116.65 18.3272 116.141 20.7536C115.696 22.7969 113.914 24.1378 112.006 24.2655C111.56 24.2017 111.179 24.2017 110.86 24.1378ZM108.061 18.9657C107.616 21.009 108.888 23.0523 110.988 23.5631C113.024 24.0101 115.059 22.733 115.568 20.6259C116.014 18.5826 114.741 16.4754 112.642 16.0284C112.324 15.9646 112.006 15.9007 111.688 15.9646C109.97 16.0284 108.443 17.2417 108.061 18.9657Z" fill="#455A64"/>
<path d="M101.572 23.3069C99.7903 23.1792 98.4543 21.072 98.6451 18.6456C98.7724 17.4962 99.1541 16.4107 99.8539 15.6445C100.554 14.8144 101.444 14.4313 102.335 14.4951C103.226 14.559 104.053 15.1337 104.562 16.0276C105.071 16.9216 105.325 18.0071 105.262 19.2203C105.071 21.519 103.608 23.3069 101.89 23.3707C101.763 23.3069 101.635 23.3069 101.572 23.3069ZM100.299 16.0276C99.7267 16.73 99.3449 17.6878 99.2813 18.7094C99.0905 20.8166 100.172 22.6045 101.635 22.7322C103.099 22.8599 104.435 21.2636 104.625 19.1564C104.689 18.1348 104.498 17.1131 104.053 16.3469C103.608 15.5806 102.971 15.1337 102.271 15.1337C102.208 15.1337 102.144 15.1337 102.017 15.1337C101.381 15.0698 100.808 15.3891 100.299 16.0276Z" fill="#455A64"/>
<path d="M107.552 19.3478L107.998 18.9009C107.361 18.2623 105.898 17.3684 104.753 18.4539L105.135 18.9009C106.153 18.0069 107.552 19.284 107.552 19.3478Z" fill="#455A64"/>
<path d="M126.129 22.0942L126.702 21.8388C126.575 21.5834 125.62 19.3486 124.348 19.0293C123.139 18.71 116.204 18.8377 115.823 18.8377V19.4124C118.113 19.4124 123.266 19.3486 124.157 19.5401C124.984 19.8594 125.875 21.5196 126.129 22.0942Z" fill="#455A64"/>
<path d="M120.912 20.6263C120.912 20.6263 123.902 16.6674 125.684 17.7529C127.465 18.8384 125.175 24.5852 122.948 25.3514C120.785 26.0538 120.085 24.0744 120.085 24.0744L120.912 20.6263Z" fill="#F1B1A3"/>
<path d="M124.92 19.3496C124.984 19.3496 124.984 19.4135 124.92 19.3496C123.393 19.9881 122.566 21.3291 121.93 22.7338C122.375 22.223 123.011 21.9037 123.711 22.4784C123.775 22.4784 123.711 22.5423 123.648 22.5423C123.011 22.4146 122.566 22.4784 122.184 22.9893C121.866 23.3085 121.675 23.7555 121.421 24.1386C121.357 24.2663 121.103 24.2025 121.166 24.0109C121.166 24.0109 121.166 24.0109 121.166 23.9471C121.294 22.1592 122.884 19.4773 124.92 19.3496Z" fill="#4B4B4B"/>
</svg>
