<svg width="32" height="32" viewBox="0 0 32 32" fill="current" xmlns="http://www.w3.org/2000/svg">
<mask id="path-1-inside-1_214_1282" fill="white">
<path d="M2 12L15.4592 3.34763C15.7887 3.13587 16.2114 3.13587 16.5408 3.34763L30 12H2Z"/>
</mask>
<path d="M2 12L0.918485 10.3176L-4.80963 14H2V12ZM30 12V14H36.8096L31.0815 10.3176L30 12ZM16.5408 3.34763L15.4592 5.02999L16.5408 3.34763ZM30 10H2V14H30V10ZM3.08152 13.6824L16.5408 5.02999L14.3777 1.66527L0.918485 10.3176L3.08152 13.6824ZM15.4592 5.02999L28.9185 13.6824L31.0815 10.3176L17.6223 1.66527L15.4592 5.02999ZM16.5408 5.02999C16.2114 5.24175 15.7887 5.24175 15.4592 5.02999L17.6223 1.66527C16.6341 1.02999 15.366 1.02999 14.3777 1.66527L16.5408 5.02999Z" mask="url(#path-1-inside-1_214_1282)"/>
<path d="M6 25C6 25.5523 6.44772 26 7 26C7.55228 26 8 25.5523 8 25H6ZM8 15C8 14.4477 7.55228 14 7 14C6.44772 14 6 14.4477 6 15H8ZM8 25V15H6V25H8Z"/>
<path d="M12 25C12 25.5523 12.4477 26 13 26C13.5523 26 14 25.5523 14 25H12ZM14 15C14 14.4477 13.5523 14 13 14C12.4477 14 12 14.4477 12 15H14ZM14 25V15H12V25H14Z" />
<path d="M18 25C18 25.5523 18.4477 26 19 26C19.5523 26 20 25.5523 20 25H18ZM20 15C20 14.4477 19.5523 14 19 14C18.4477 14 18 14.4477 18 15H20ZM20 25V15H18V25H20Z" />
<path d="M24 25C24 25.5523 24.4477 26 25 26C25.5523 26 26 25.5523 26 25H24ZM26 15C26 14.4477 25.5523 14 25 14C24.4477 14 24 14.4477 24 15H26ZM26 25V15H24V25H26Z"/>
<path d="M27 30C27.5523 30 28 29.5523 28 29C28 28.4477 27.5523 28 27 28L27 30ZM5 28C4.44772 28 4 28.4477 4 29C4 29.5523 4.44772 30 5 30L5 28ZM27 28L5 28L5 30L27 30L27 28Z" />
</svg>
