<svg width="26" height="21" viewBox="0 0 26 21" fill="none" xmlns="http://www.w3.org/2000/svg">
<path d="M13 3.75C13 3.75 11.2 1.5 7 1.5C3.67639 1.5 1.85569 2.90898 1.24057 3.49699C1.07643 3.65389 1 3.87371 1 4.10078V17.6958C1 18.4812 1.92322 19.0659 2.68293 18.8665C3.65728 18.6108 5.07711 18.375 7 18.375C11.2 18.375 13 19.5 13 19.5M13 3.75V19.5M13 3.75C13 3.75 14.8 1.5 19 1.5C22.3236 1.5 24.1443 2.90898 24.7594 3.49699C24.9236 3.65389 25 3.87371 25 4.10078V17.6958C25 18.4812 24.0768 19.0659 23.3171 18.8665C22.3427 18.6108 20.9229 18.375 19 18.375C14.8 18.375 13 19.5 13 19.5" stroke="#333333" stroke-width="2" stroke-linecap="round" stroke-linejoin="round"/>
</svg>