<svg width="32" height="33" viewBox="0 0 32 33" fill="current" xmlns="http://www.w3.org/2000/svg">
<path d="M28.8216 25.0491L28.8217 25.0495C28.9297 25.4589 28.8723 25.8944 28.662 26.2618L28.8216 25.0491ZM28.8216 25.0491L27.7841 21.1866L24.6716 9.59906L23.6341 5.73674L28.8216 25.0491ZM17.4322 5.79289C17.5515 5.72582 17.6793 5.67463 17.8122 5.64075C17.8124 5.6407 17.8126 5.64064 17.8128 5.64059L21.6741 4.60342L21.6741 4.60341C21.8772 4.549 22.0891 4.53516 22.2975 4.56268C22.506 4.5902 22.707 4.65855 22.889 4.7638C23.0711 4.86906 23.2306 5.00917 23.3584 5.17611C23.4862 5.34301 23.5799 5.53345 23.6341 5.73656L17.4322 5.79289ZM17.4322 5.79289C17.3096 5.54388 17.1239 5.33042 16.8927 5.17425C16.6291 4.99613 16.3184 4.90064 16.0002 4.9H16L12 4.9L11.9999 4.9C11.6348 4.90033 11.2819 5.02645 11 5.25563C10.7181 5.02645 10.3652 4.90033 10.0001 4.9H10H6C5.57565 4.9 5.16869 5.06857 4.86863 5.36863C4.56857 5.66869 4.4 6.07565 4.4 6.5V26.5C4.4 26.9243 4.56857 27.3313 4.86863 27.6314C5.16869 27.9314 5.57565 28.1 6 28.1H10H10.0001C10.3652 28.0997 10.7181 27.9735 11 27.7444C11.2819 27.9735 11.6348 28.0997 11.9999 28.1H12H16C16.4243 28.1 16.8313 27.9314 17.1314 27.6314C17.4314 27.3313 17.6 26.9243 17.6 26.5V11.0229L17.7158 11.4629L17.7159 11.4634L20.8284 23.0509L21.8657 26.9127C21.8658 26.9128 21.8658 26.9129 21.8658 26.913C21.9549 27.2548 22.1554 27.5571 22.4356 27.772C22.7157 27.9869 23.0594 28.1023 23.4125 28.1M17.4322 5.79289L28.6618 26.2622C28.5577 26.4455 28.4179 26.6061 28.2507 26.7344C28.0834 26.8627 27.8921 26.9562 27.6881 27.0092C27.6879 27.0092 27.6878 27.0093 27.6876 27.0093L23.8262 28.0465C23.6913 28.0831 23.5521 28.101 23.4125 28.1M23.4125 28.1C23.4122 28.1 23.412 28.1 23.4117 28.1L23.4125 28L23.4132 28.1C23.413 28.1 23.4127 28.1 23.4125 28.1ZM27.6162 25.6576L27.6163 25.6577C27.644 25.6155 27.6618 25.5675 27.6685 25.5175C27.6752 25.4674 27.6705 25.4165 27.6549 25.3684L27.6532 25.3632L27.6534 25.3632L26.7791 22.0726L22.1352 23.3206L23.0214 26.5984L27.6162 25.6576ZM27.6162 25.6576L27.6131 25.6629M27.6162 25.6576L27.6131 25.6629M27.6131 25.6629C27.5606 25.7551 27.4745 25.8234 27.3728 25.8538M27.6131 25.6629L27.3728 25.8538M27.3728 25.8538L23.513 26.8905C23.4095 26.9147 23.3005 26.898 23.209 26.8439C23.1172 26.7895 23.05 26.7017 23.0215 26.5989L27.3728 25.8538ZM17.8837 6.99227L17.884 6.99251L17.8884 6.98426C17.9127 6.9383 17.9463 6.89789 17.9871 6.86561C18.0279 6.83333 18.0749 6.80989 18.1252 6.79677L18.1259 6.79658L21.9757 5.7625L22.0875 5.76251L22.0889 5.76249C22.1767 5.7613 22.2625 5.78906 22.3329 5.84147C22.4033 5.89375 22.4544 5.96766 22.4787 6.05185C22.4787 6.05206 22.4788 6.05228 22.4789 6.05249L23.3648 9.34143L18.7209 10.5654L17.8466 7.28673L17.8468 7.2867L17.8451 7.28156C17.8295 7.23353 17.8248 7.1826 17.8315 7.13253C17.8382 7.08246 17.856 7.03453 17.8837 6.99227ZM19.035 11.7331L23.6668 10.4851L26.465 20.9169L21.8332 22.1649L19.035 11.7331ZM12 6.1H16C16.1061 6.1 16.2078 6.14214 16.2828 6.21716C16.3579 6.29217 16.4 6.39391 16.4 6.5V21.9H11.6V6.5C11.6 6.39391 11.6421 6.29217 11.7172 6.21716C11.7922 6.14214 11.8939 6.1 12 6.1ZM6 6.1H10C10.1061 6.1 10.2078 6.14214 10.2828 6.21716C10.3579 6.29217 10.4 6.39391 10.4 6.5V9.9H5.6V6.5C5.6 6.39391 5.64214 6.29217 5.71716 6.21716C5.79217 6.14214 5.89391 6.1 6 6.1ZM10 26.9H6C5.89391 26.9 5.79217 26.8579 5.71716 26.7828C5.64214 26.7078 5.6 26.6061 5.6 26.5V11.1H10.4V26.5C10.4 26.6061 10.3579 26.7078 10.2828 26.7828C10.2078 26.8579 10.1061 26.9 10 26.9ZM16 26.9H12C11.8939 26.9 11.7922 26.8579 11.7172 26.7828C11.6421 26.7078 11.6 26.6061 11.6 26.5V23.1H16.4V26.5C16.4 26.6061 16.3579 26.7078 16.2828 26.7828C16.2078 26.8579 16.1061 26.9 16 26.9Z" fill="current" stroke="black" stroke-width="0.2"/>
</svg>
