<svg width="32" height="32" viewBox="0 0 32 32" fill="current" xmlns="http://www.w3.org/2000/svg">
<path d="M31 24.5H27V20.5H25V24.5H21V26.5H25V30.5H27V26.5H31V24.5Z" fill="current"/>
<path d="M25 5.5H22V4.5C21.9984 3.97005 21.7872 3.46227 21.4125 3.08753C21.0377 2.7128 20.5299 2.50158 20 2.5H12C11.4701 2.50158 10.9623 2.7128 10.5875 3.08753C10.2128 3.46227 10.0016 3.97005 10 4.5V5.5H7C6.47005 5.50158 5.96227 5.7128 5.58753 6.08753C5.2128 6.46227 5.00158 6.97005 5 7.5V28.5C5.00158 29.0299 5.2128 29.5377 5.58753 29.9125C5.96227 30.2872 6.47005 30.4984 7 30.5H17V28.5H7V7.5H10V10.5H22V7.5H25V16.5H27V7.5C26.9984 6.97005 26.7872 6.46227 26.4125 6.08753C26.0377 5.7128 25.5299 5.50158 25 5.5ZM20 8.5H12V4.5H20V8.5Z" fill="current"/>
</svg>
