<svg width="26" height="26" viewBox="0 0 28 26" fill="none" xmlns="http://www.w3.org/2000/svg">
<path d="M26 8.64386C26 7.75749 25.2724 7.03886 24.375 7.03886H20.6726C21.3904 6.33948 22.7784 4.52979 22.7784 3.40064C22.7784 2.01031 21.97 0.5 19.7007 0.5C16.7148 0.5 14.2204 4.53305 13.0483 6.29333C11.8755 4.53345 9.30475 0.500401 6.31922 0.500401C4.04991 0.500401 3.24147 2.01071 3.24147 3.40104C3.24147 4.52976 4.6421 6.33988 5.37457 7.03926H1.625C0.727594 7.03926 0 7.7579 0 8.64426V11.8092C0 12.7145 0.733903 13.4484 1.63922 13.4484V23.895C1.63922 24.7814 2.36679 25.5 3.26422 25.5H22.7561C23.6535 25.5 24.3811 24.7814 24.3811 23.895V13.448C25.2752 13.448 26 12.7232 26 11.8291L26 8.64386ZM19.7007 2.1054C20.7053 2.1054 21.1534 2.52233 21.1534 3.40107C21.1534 5.18382 19.1388 7.03845 17.2441 7.03845H14.4934C15.6479 5.34478 17.68 2.1054 19.7007 2.1054ZM6.31919 2.10543C8.34029 2.10543 10.4491 5.3448 11.6037 7.03808H8.85214C6.95739 7.03808 4.86642 5.15855 4.86642 3.37579C4.86642 2.49745 5.31451 2.10543 6.31919 2.10543ZM24.375 11.843H19.0937H13.8125V8.64386H24.375V11.843ZM1.62497 8.64386H12.1875V11.843H1.62497V8.64386ZM3.26419 13.448H12.1875V23.8946H3.26419V13.448ZM22.7565 23.8946H13.8125V13.448H18.2845H22.7565V23.8946Z" fill="#333333"/>
</svg>
