<svg width="32" height="33" viewBox="0 0 32 33" fill="none" xmlns="http://www.w3.org/2000/svg">
<path d="M22 10.0855C21.9998 11.0307 21.6429 11.9376 21.007 12.6085C19.5431 14.1543 18.1226 15.7661 16.6031 17.2554C16.4335 17.4173 16.211 17.5048 15.9816 17.4998C15.7521 17.4948 15.5333 17.3978 15.3702 17.2287L10.9933 12.61C10.357 11.9388 10 11.0313 10 10.0855C10 9.13963 10.357 8.23215 10.9933 7.56089C11.3107 7.22593 11.6884 6.96008 12.1044 6.77867C12.5204 6.59725 12.9666 6.50385 13.4172 6.50385C13.8678 6.50385 14.314 6.59725 14.73 6.77867C15.1461 6.96008 15.5237 7.22593 15.8411 7.56089L16.0001 7.72899L16.1591 7.56089C16.6357 7.0564 17.2448 6.71183 17.9089 6.57106C18.573 6.43028 19.2621 6.49967 19.8884 6.77039C20.5148 7.04111 21.05 7.50092 21.426 8.09127C21.8021 8.68162 22.0019 9.37581 22 10.0855V10.0855Z" stroke="#333333" stroke-width="2" stroke-linejoin="round"/>
<path d="M24 29.5L29.736 24.2855C29.9048 24.1322 29.9998 23.9242 30 23.7073V16.5455C30 16.003 29.7629 15.4827 29.341 15.0991C28.919 14.7155 28.3467 14.5 27.75 14.5V14.5C27.1533 14.5 26.581 14.7155 26.159 15.0991C25.7371 15.4827 25.5 16.003 25.5 16.5455V22.6818" stroke="#333333" stroke-width="2" stroke-linecap="round" stroke-linejoin="round"/>
<path d="M25.7995 22.8755C25.8632 22.8141 25.9136 22.7412 25.948 22.6609C25.9824 22.5806 26.0001 22.4946 26 22.4077C25.9998 22.2851 25.9643 22.1649 25.8975 22.0607C25.8307 21.9564 25.7352 21.8721 25.6216 21.8173L24.9962 21.5159C24.4664 21.26 23.8666 21.1716 23.2819 21.2631C22.6971 21.3546 22.157 21.6215 21.7379 22.0259L20.4744 23.2464C19.9448 23.7577 19.6472 24.4513 19.6471 25.1745V29.5M7.64706 29.5L2.24847 24.2855C2.08957 24.1322 2.0002 23.9242 2 23.7073V16.5455C2 16.003 2.22311 15.4827 2.62024 15.0991C3.01738 14.7155 3.55601 14.5 4.11765 14.5C4.67928 14.5 5.21791 14.7155 5.61505 15.0991C6.01219 15.4827 6.23529 16.003 6.23529 16.5455V22.6818" stroke="#333333" stroke-width="2" stroke-linecap="round" stroke-linejoin="round"/>
<path d="M6.948 23.452L6.18933 23.0933C6.12929 23.0339 6.08166 22.9634 6.04918 22.8858C6.01669 22.8081 5.99998 22.725 6 22.641C6 22.3996 6.13867 22.1794 6.35733 22.0699L6.948 21.7785C7.44841 21.531 8.01485 21.4454 8.56713 21.534C9.1194 21.6225 9.62954 21.8806 10.0253 22.2717L11.2187 23.452C11.7188 23.9465 11.9998 24.6173 12 25.3168V29.5" stroke="#333333" stroke-width="2" stroke-linecap="round" stroke-linejoin="round"/>
</svg>

