<svg width="32" height="32" viewBox="0 0 32 32" fill="none" xmlns="http://www.w3.org/2000/svg">
<path d="M22 9.58547C21.9998 10.5307 21.6429 11.4376 21.007 12.1085C19.5431 13.6543 18.1226 15.2661 16.6031 16.7554C16.4335 16.9173 16.211 17.0048 15.9816 16.9998C15.7521 16.9948 15.5333 16.8978 15.3702 16.7287L10.9933 12.11C10.357 11.4388 10 10.5313 10 9.58547C10 8.63963 10.357 7.73215 10.9933 7.06089C11.3107 6.72593 11.6884 6.46008 12.1044 6.27867C12.5204 6.09725 12.9666 6.00385 13.4172 6.00385C13.8678 6.00385 14.314 6.09725 14.73 6.27867C15.1461 6.46008 15.5237 6.72593 15.8411 7.06089L16.0001 7.22899L16.1591 7.06089C16.6357 6.5564 17.2448 6.21183 17.9089 6.07106C18.573 5.93028 19.2621 5.99967 19.8884 6.27039C20.5148 6.54111 21.05 7.00092 21.426 7.59127C21.8021 8.18162 22.0019 8.87581 22 9.58547V9.58547Z" stroke="white" stroke-width="2" stroke-linejoin="round"/>
<path d="M24 29L29.736 23.7855C29.9048 23.6322 29.9998 23.4242 30 23.2073V16.0455C30 15.503 29.7629 14.9827 29.341 14.5991C28.919 14.2155 28.3467 14 27.75 14V14C27.1533 14 26.581 14.2155 26.159 14.5991C25.7371 14.9827 25.5 15.503 25.5 16.0455V22.1818" stroke="white" stroke-width="2" stroke-linecap="round" stroke-linejoin="round"/>
<path d="M25.7995 22.3755C25.8632 22.3141 25.9136 22.2412 25.948 22.1609C25.9824 22.0806 26.0001 21.9946 26 21.9077C25.9998 21.7851 25.9643 21.6649 25.8975 21.5607C25.8307 21.4564 25.7352 21.3721 25.6216 21.3173L24.9962 21.0159C24.4664 20.76 23.8666 20.6716 23.2819 20.7631C22.6971 20.8546 22.157 21.1215 21.7379 21.5259L20.4744 22.7464C19.9448 23.2577 19.6472 23.9513 19.6471 24.6745V29M7.64706 29L2.24847 23.7855C2.08957 23.6322 2.0002 23.4242 2 23.2073V16.0455C2 15.503 2.22311 14.9827 2.62024 14.5991C3.01738 14.2155 3.55601 14 4.11765 14C4.67928 14 5.21791 14.2155 5.61505 14.5991C6.01219 14.9827 6.23529 15.503 6.23529 16.0455V22.1818" stroke="white" stroke-width="2" stroke-linecap="round" stroke-linejoin="round"/>
<path d="M6.948 22.952L6.18933 22.5933C6.12929 22.5339 6.08166 22.4634 6.04918 22.3858C6.01669 22.3081 5.99998 22.225 6 22.141C6 21.8996 6.13867 21.6794 6.35733 21.5699L6.948 21.2785C7.44841 21.031 8.01485 20.9454 8.56713 21.034C9.1194 21.1225 9.62954 21.3806 10.0253 21.7717L11.2187 22.952C11.7188 23.4465 11.9998 24.1173 12 24.8168V29" stroke="white" stroke-width="2" stroke-linecap="round" stroke-linejoin="round"/>
</svg>
