<svg width="32" height="32" viewBox="0 0 32 32" fill="current" xmlns="http://www.w3.org/2000/svg">
<path d="M29 11.1439C29 10.2575 28.2724 9.53886 27.375 9.53886H23.6726C24.3904 8.83948 25.7784 7.02979 25.7784 5.90064C25.7784 4.51031 24.97 3 22.7007 3C19.7148 3 17.2204 7.03305 16.0483 8.79333C14.8755 7.03345 12.3048 3.0004 9.31922 3.0004C7.04991 3.0004 6.24147 4.51071 6.24147 5.90104C6.24147 7.02976 7.6421 8.83988 8.37457 9.53926H4.625C3.72759 9.53926 3 10.2579 3 11.1443V14.3092C3 15.2145 3.7339 15.9484 4.63922 15.9484V26.395C4.63922 27.2814 5.36679 28 6.26422 28H25.7561C26.6535 28 27.3811 27.2814 27.3811 26.395V15.948C28.2752 15.948 29 15.2232 29 14.3291L29 11.1439ZM22.7007 4.6054C23.7053 4.6054 24.1534 5.02233 24.1534 5.90107C24.1534 7.68382 22.1388 9.53845 20.2441 9.53845H17.4934C18.6479 7.84478 20.68 4.6054 22.7007 4.6054ZM9.31919 4.60543C11.3403 4.60543 13.4491 7.8448 14.6037 9.53808H11.8521C9.95739 9.53808 7.86642 7.65855 7.86642 5.87579C7.86642 4.99745 8.31451 4.60543 9.31919 4.60543ZM27.375 14.343H22.0937H16.8125V11.1439H27.375V14.343ZM4.62497 11.1439H15.1875V14.343H4.62497V11.1439ZM6.26419 15.948H15.1875V26.3946H6.26419V15.948ZM25.7565 26.3946H16.8125V15.948H21.2845H25.7565V26.3946Z"/>
</svg>
