<svg width="32" height="32" viewBox="0 0 32 32" fill="current" xmlns="http://www.w3.org/2000/svg">
<path d="M3.33335 25.5H16.16C16.9295 25.5004 17.6899 25.3341 18.3889 25.0126C19.0879 24.691 19.709 24.2219 20.2094 23.6373L27.012 15.7013C27.1545 15.5354 27.2539 15.3371 27.3016 15.1237C27.3494 14.9103 27.3439 14.6884 27.2856 14.4777C27.2274 14.2669 27.1183 14.0737 26.9678 13.9151C26.8173 13.7564 26.6301 13.6372 26.4227 13.568L23.7987 12.6933C23.1645 12.4872 22.4893 12.4405 21.8327 12.5575C21.1762 12.6745 20.5587 12.9515 20.0347 13.364L15.788 16.76L14.9654 15.1133C14.5246 14.2257 13.8442 13.4792 13.001 12.9584C12.1578 12.4377 11.1857 12.1634 10.1947 12.1667H3.33335C1.86269 12.1667 0.666687 13.3627 0.666687 14.8333V22.8333C0.666687 24.304 1.86269 25.5 3.33335 25.5ZM3.33335 14.8333H10.1947C11.212 14.8333 12.1254 15.3973 12.58 16.3067L13.176 17.5H7.33335V20.1667H15.352C15.5572 20.164 15.7589 20.1138 15.9414 20.02L15.9454 20.0187L15.9507 20.016H15.9547L15.9574 20.0147H15.9627L15.964 20.0133C15.976 20.0173 15.968 20.012 15.968 20.012C15.9814 20.012 15.9707 20.0107 15.9707 20.0107H15.972L15.9747 20.0093L15.9787 20.008L15.9814 20.0067L15.984 20.0053L15.988 20.004L15.9907 20.0027C15.9947 20.0027 15.9934 20.0013 15.9934 20.0013L15.9974 19.9987L16 19.9973L16.0027 19.996L16.0067 19.9947L16.0094 19.9933H16.0107L16.0134 19.992L16.0174 19.9907L16.02 19.9893C16.032 19.988 16.024 19.988 16.024 19.988L16.0267 19.9867C16.0781 19.9557 16.1271 19.9209 16.1734 19.8827L21.7014 15.46C22.0507 15.1827 22.532 15.096 22.9547 15.2373L23.6974 15.4853L18.1867 21.916C17.9332 22.2038 17.6214 22.4345 17.272 22.5926C16.9226 22.7508 16.5436 22.8328 16.16 22.8333H3.33335V14.8333ZM19.3334 0.166669H19.3107C19.0934 0.169336 17.9694 0.218669 16.6667 1.10667C15.3987 0.242669 14.3014 0.173336 14.0427 0.168002L14.0027 0.166669H13.9974C12.9294 0.166669 11.924 0.584002 11.172 1.33734C10.4174 2.09334 10 3.09734 10 4.16667C10 5.236 10.4174 6.24 11.148 6.972L15.7 11.7533C15.8253 11.8833 15.9755 11.9867 16.1416 12.0573C16.3078 12.1279 16.4864 12.1642 16.667 12.1641C16.8475 12.164 17.0261 12.1274 17.1922 12.0566C17.3582 11.9858 17.5083 11.8822 17.6334 11.752L22.1614 6.99467C22.9174 6.24 23.3334 5.236 23.3334 4.16667C23.3334 3.09734 22.916 2.09334 22.1627 1.33867C21.7925 0.966063 21.352 0.670614 20.8668 0.469436C20.3816 0.268258 19.8613 0.165349 19.336 0.166669H19.3334ZM20.6667 4.16667C20.6667 4.52267 20.528 4.85734 20.252 5.13334L16.6667 8.9L13.0574 5.10933C12.8054 4.85734 12.6667 4.52267 12.6667 4.16667C12.6667 3.81067 12.8054 3.476 13.0587 3.22267C13.2998 2.97741 13.6281 2.83746 13.972 2.83334C14.0054 2.83467 14.6414 2.876 15.3947 3.48C15.5027 3.56667 15.612 3.66533 15.724 3.776L16.6667 4.71867L17.6094 3.776C17.7214 3.66533 17.8307 3.56667 17.9387 3.48C18.644 2.91334 19.24 2.84267 19.3414 2.83467C19.5151 2.83464 19.6872 2.86902 19.8476 2.93585C20.0081 3.00267 20.1537 3.10061 20.276 3.224C20.528 3.476 20.6667 3.81067 20.6667 4.16667Z"/>
</svg>
