<svg width="32" height="33" viewBox="0 0 32 33" fill="current" xmlns="http://www.w3.org/2000/svg">
<mask id="path-1-inside-1_4671_3787" fill="white">
<path d="M3 16.7258C3 15.2839 3.6224 13.9123 4.70748 12.9629L14.1002 4.7442C15.2313 3.75451 16.9202 3.75451 18.0513 4.7442L27.444 12.9629C28.5291 13.9123 29.1515 15.2839 29.1515 16.7258V26.9844C29.1515 28.6412 27.8084 29.9844 26.1515 29.9844H6C4.34315 29.9844 3 28.6412 3 26.9844V16.7258Z"/>
</mask>
<path d="M18.0513 4.7442L16.7343 6.24935L18.0513 4.7442ZM27.444 12.9629L26.127 14.468L27.444 12.9629ZM27.1515 16.7258V26.9844H31.1515V16.7258H27.1515ZM26.1515 27.9844H6V31.9844H26.1515V27.9844ZM5 26.9844V16.7258H1V26.9844H5ZM6.02449 14.468L15.4173 6.24935L12.7832 3.23905L3.39047 11.4577L6.02449 14.468ZM16.7343 6.24935L26.127 14.468L28.761 11.4577L19.3683 3.23905L16.7343 6.24935ZM15.4173 6.24935C15.7943 5.91946 16.3572 5.91946 16.7343 6.24935L19.3683 3.23905C17.4832 1.58956 14.6684 1.58956 12.7832 3.23905L15.4173 6.24935ZM6 27.9844C5.44772 27.9844 5 27.5367 5 26.9844H1C1 29.7458 3.23858 31.9844 6 31.9844V27.9844ZM27.1515 26.9844C27.1515 27.5367 26.7038 27.9844 26.1515 27.9844V31.9844C28.9129 31.9844 31.1515 29.7458 31.1515 26.9844H27.1515ZM31.1515 16.7258C31.1515 14.7072 30.2802 12.7869 28.761 11.4577L26.127 14.468C26.7781 15.0377 27.1515 15.8607 27.1515 16.7258H31.1515ZM5 16.7258C5 15.8607 5.37344 15.0377 6.02449 14.468L3.39047 11.4577C1.87136 12.7869 1 14.7072 1 16.7258H5Z" fill="#333333" mask="url(#path-1-inside-1_4671_3787)"/>
<mask id="path-3-inside-2_4671_3787" fill="white">
<path d="M10.7056 21.4401C12.429 16.3861 19.577 16.3861 21.3004 21.4401V29.9844H10.7056V21.4401Z"/>
</mask>
<path d="M21.3004 29.9844V31.9844H23.3004V29.9844H21.3004ZM10.7056 29.9844H8.70557V31.9844H10.7056V29.9844ZM19.3004 21.4401V29.9844H23.3004V21.4401H19.3004ZM21.3004 27.9844H10.7056V31.9844H21.3004V27.9844ZM12.7056 29.9844V21.4401H8.70557V29.9844H12.7056ZM12.5985 22.0856C13.7061 18.8376 18.2999 18.8376 19.4075 22.0856L23.1934 20.7946C20.8541 13.9346 11.1519 13.9346 8.8126 20.7946L12.5985 22.0856Z" fill="#333333" mask="url(#path-3-inside-2_4671_3787)"/>
</svg>