<svg width="32" height="33" viewBox="0 0 32 33" fill="none" xmlns="http://www.w3.org/2000/svg">
<mask id="path-1-inside-1_4671_3795" fill="white">
<path d="M2 12.5L15.4592 3.84763C15.7887 3.63587 16.2114 3.63587 16.5408 3.84763L30 12.5H2Z"/>
</mask>
<path d="M2 12.5L0.918485 10.8176L-4.80963 14.5H2V12.5ZM30 12.5V14.5H36.8096L31.0815 10.8176L30 12.5ZM16.5408 3.84763L15.4592 5.52999L16.5408 3.84763ZM30 10.5H2V14.5H30V10.5ZM3.08152 14.1824L16.5408 5.52999L14.3777 2.16527L0.918485 10.8176L3.08152 14.1824ZM15.4592 5.52999L28.9185 14.1824L31.0815 10.8176L17.6223 2.16527L15.4592 5.52999ZM16.5408 5.52999C16.2114 5.74175 15.7887 5.74175 15.4592 5.52999L17.6223 2.16527C16.6341 1.52999 15.366 1.52999 14.3777 2.16527L16.5408 5.52999Z" fill="#333333" mask="url(#path-1-inside-1_4671_3795)"/>
<path d="M6 25.5C6 26.0523 6.44772 26.5 7 26.5C7.55228 26.5 8 26.0523 8 25.5H6ZM8 15.5C8 14.9477 7.55228 14.5 7 14.5C6.44772 14.5 6 14.9477 6 15.5H8ZM8 25.5V15.5H6V25.5H8Z" fill="#333333"/>
<path d="M12 25.5C12 26.0523 12.4477 26.5 13 26.5C13.5523 26.5 14 26.0523 14 25.5H12ZM14 15.5C14 14.9477 13.5523 14.5 13 14.5C12.4477 14.5 12 14.9477 12 15.5H14ZM14 25.5V15.5H12V25.5H14Z" fill="#333333"/>
<path d="M18 25.5C18 26.0523 18.4477 26.5 19 26.5C19.5523 26.5 20 26.0523 20 25.5H18ZM20 15.5C20 14.9477 19.5523 14.5 19 14.5C18.4477 14.5 18 14.9477 18 15.5H20ZM20 25.5V15.5H18V25.5H20Z" fill="#333333"/>
<path d="M24 25.5C24 26.0523 24.4477 26.5 25 26.5C25.5523 26.5 26 26.0523 26 25.5H24ZM26 15.5C26 14.9477 25.5523 14.5 25 14.5C24.4477 14.5 24 14.9477 24 15.5H26ZM26 25.5V15.5H24V25.5H26Z" fill="#333333"/>
<path d="M27 30.5C27.5523 30.5 28 30.0523 28 29.5C28 28.9477 27.5523 28.5 27 28.5L27 30.5ZM5 28.5C4.44772 28.5 4 28.9477 4 29.5C4 30.0523 4.44772 30.5 5 30.5L5 28.5ZM27 28.5L5 28.5L5 30.5L27 30.5L27 28.5Z" fill="#333333"/>
</svg>
