<svg width="32" height="33" viewBox="0 0 32 33" fill="none" xmlns="http://www.w3.org/2000/svg">
<path d="M4.9598 17.304H19.0466C19.4962 17.304 19.8596 16.94 19.8596 16.4915C19.8596 16.043 19.4962 15.679 19.0466 15.679H5.01062L7.95172 12.7397C8.2692 12.4225 8.2692 11.9082 7.95172 11.5909C7.63423 11.2736 7.11959 11.2736 6.80211 11.5909L2 16.5167L6.80211 21.4424C6.96105 21.6013 7.16878 21.6805 7.37691 21.6805C7.58505 21.6805 7.79277 21.6013 7.95172 21.4424C8.2692 21.1252 8.2692 20.6108 7.95172 20.2936L4.9598 17.304ZM26.3736 3.5H12.5522C11.6538 3.5 10.9261 4.22759 10.9261 5.125V12.4375H12.5627V6.11584C12.5627 5.57309 13.0034 5.13272 13.5465 5.13272H25.3536C25.8971 5.13272 26.3373 5.57309 26.3373 6.11584L26.3629 26.8927C26.3629 27.4354 25.9227 27.8758 25.3792 27.8758H13.5469C13.0038 27.8758 12.5632 27.4354 12.5632 26.8927V20.5357L10.9266 20.5377V27.875C10.9266 28.7724 11.6542 29.5 12.5526 29.5H26.3736C27.2719 29.5 28 28.7724 28 27.875V5.125C27.9996 4.22759 27.2715 3.5 26.3736 3.5Z"/>
</svg>
