<svg width="26" height="27" viewBox="0 0 29 27" fill="none" xmlns="http://www.w3.org/2000/svg">
<path d="M2.9598 14.304H17.0466C17.4962 14.304 17.8596 13.94 17.8596 13.4915C17.8596 13.043 17.4962 12.679 17.0466 12.679H3.01062L5.95172 9.73975C6.2692 9.42247 6.2692 8.90816 5.95172 8.59088C5.63423 8.27359 5.11959 8.27359 4.80211 8.59088L0 13.5167L4.80211 18.4424C4.96105 18.6013 5.16878 18.6805 5.37691 18.6805C5.58505 18.6805 5.79277 18.6013 5.95172 18.4424C6.2692 18.1252 6.2692 17.6108 5.95172 17.2936L2.9598 14.304ZM24.3736 0.5H10.5522C9.65378 0.5 8.92613 1.22759 8.92613 2.125V9.4375H10.5627V3.11584C10.5627 2.57309 11.0034 2.13272 11.5465 2.13272H23.3536C23.8971 2.13272 24.3373 2.57309 24.3373 3.11584L24.3629 23.8927C24.3629 24.4354 23.9227 24.8758 23.3792 24.8758H11.5469C11.0038 24.8758 10.5632 24.4354 10.5632 23.8927V17.5357L8.92656 17.5377V24.875C8.92656 25.7724 9.65422 26.5 10.5526 26.5H24.3736C25.2719 26.5 26 25.7724 26 24.875V2.125C25.9996 1.22759 25.2715 0.5 24.3736 0.5Z" fill="black"/>
</svg>