<svg width="32" height="32" viewBox="0 0 32 32" fill="current" xmlns="http://www.w3.org/2000/svg">
<path d="M13.5625 14.3125C14.9579 13.5252 16.0532 12.298 16.6773 10.8224C17.3014 9.34681 17.4192 7.70607 17.0122 6.15649C16.6052 4.6069 15.6964 3.23577 14.4278 2.2573C13.1591 1.27884 11.6021 0.748146 10 0.748146C8.39786 0.748146 6.84085 1.27884 5.57221 2.2573C4.30358 3.23577 3.39478 4.6069 2.98781 6.15649C2.58083 7.70607 2.6986 9.34681 3.32271 10.8224C3.94682 12.298 5.04212 13.5252 6.43749 14.3125C3.99014 15.0841 1.86433 16.6389 0.387494 18.7375C0.329692 18.8178 0.288352 18.9088 0.265856 19.0051C0.24336 19.1015 0.240154 19.2013 0.25642 19.2989C0.272687 19.3965 0.308106 19.4899 0.360637 19.5738C0.413167 19.6576 0.48177 19.7303 0.562494 19.7875C0.692402 19.8738 0.844097 19.9214 0.999994 19.925C1.11943 19.9245 1.23708 19.896 1.34347 19.8417C1.44986 19.7874 1.54201 19.7089 1.61249 19.6125C2.55716 18.2655 3.81217 17.1658 5.27149 16.4061C6.73081 15.6464 8.35154 15.2492 9.99675 15.248C11.642 15.2467 13.2633 15.6416 14.7237 16.399C16.1842 17.1565 17.4408 18.2544 18.3875 19.6C18.4438 19.6817 18.5157 19.7514 18.5991 19.8051C18.6825 19.8589 18.7757 19.8955 18.8734 19.9129C18.971 19.9304 19.0712 19.9283 19.168 19.9067C19.2648 19.8852 19.3564 19.8447 19.4375 19.7875C19.5978 19.6699 19.7059 19.4942 19.7385 19.2981C19.7712 19.1019 19.726 18.9008 19.6125 18.7375C18.1303 16.6442 16.0065 15.0908 13.5625 14.3125ZM4.24999 8C4.24999 6.86276 4.58723 5.75106 5.21904 4.80547C5.85086 3.85989 6.74889 3.1229 7.79956 2.68769C8.85024 2.25249 10.0064 2.13862 11.1218 2.36049C12.2372 2.58235 13.2617 3.12999 14.0659 3.93414C14.87 4.73829 15.4176 5.76284 15.6395 6.87823C15.8614 7.99362 15.7475 9.14976 15.3123 10.2004C14.8771 11.2511 14.1401 12.1491 13.1945 12.781C12.2489 13.4128 11.1372 13.75 10 13.75C8.475 13.75 7.01246 13.1442 5.93413 12.0659C4.8558 10.9875 4.24999 9.525 4.24999 8ZM29.625 19.7875C29.4951 19.8738 29.3434 19.9214 29.1875 19.925C29.0666 19.9252 28.9475 19.8956 28.8407 19.839C28.7339 19.7823 28.6426 19.7002 28.575 19.6C27.6284 18.2553 26.3722 17.158 24.9124 16.4009C23.4525 15.6438 21.832 15.2491 20.1875 15.25C19.9886 15.25 19.7978 15.171 19.6572 15.0303C19.5165 14.8897 19.4375 14.6989 19.4375 14.5C19.4375 14.3011 19.5165 14.1103 19.6572 13.9697C19.7978 13.829 19.9886 13.75 20.1875 13.75C21.7125 13.75 23.175 13.1442 24.2534 12.0659C25.3317 10.9875 25.9375 9.525 25.9375 8C25.9375 6.47501 25.3317 5.01247 24.2534 3.93414C23.175 2.8558 21.7125 2.25 20.1875 2.25C19.6596 2.25222 19.1343 2.32366 18.625 2.4625C18.5273 2.50085 18.4226 2.51826 18.3177 2.5136C18.2129 2.50895 18.1102 2.48233 18.0162 2.43547C17.9223 2.38862 17.8392 2.32257 17.7724 2.24159C17.7057 2.16062 17.6566 2.06652 17.6285 1.9654C17.6003 1.86427 17.5937 1.75836 17.6091 1.65453C17.6245 1.55069 17.6615 1.45123 17.7177 1.36259C17.7739 1.27395 17.8481 1.1981 17.9355 1.13995C18.0229 1.0818 18.1215 1.04264 18.225 1.025C18.8627 0.840065 19.5236 0.747457 20.1875 0.750002C21.7901 0.747964 23.3482 1.27698 24.6183 2.25436C25.8883 3.23174 26.7988 4.60239 27.2073 6.15206C27.6157 7.70173 27.4993 9.34307 26.876 10.8195C26.2528 12.296 25.1579 13.5243 23.7625 14.3125C26.2044 15.0882 28.325 16.6425 29.8 18.7375C29.9135 18.9008 29.9587 19.1019 29.926 19.2981C29.8934 19.4942 29.7853 19.6699 29.625 19.7875Z"/>
</svg>
