<svg width="28" height="28" viewBox="0 0 30 28" fill="none" xmlns="http://www.w3.org/2000/svg">
<path fill-rule="evenodd" clip-rule="evenodd" d="M13.9999 1C14.2326 1 14.4641 1.00615 14.6941 1.01829C15.4488 1.05812 16.0697 1.594 16.3065 2.31168L16.5316 2.99356C16.7393 3.62264 17.2503 4.09539 17.8652 4.34178C17.998 4.39501 18.1295 4.45092 18.2596 4.50945C18.8651 4.78195 19.5618 4.82186 20.1599 4.53347L20.8052 4.22233C21.4856 3.89423 22.302 3.96804 22.855 4.48264C23.139 4.74694 23.4112 5.02384 23.6705 5.31243C24.1757 5.87451 24.235 6.6925 23.8946 7.36721L23.5724 8.00587C23.2733 8.59877 23.3008 9.29621 23.5628 9.90642C23.6189 10.0371 23.6724 10.1692 23.7232 10.3026C23.9594 10.923 24.4242 11.4434 25.0512 11.6618L25.7242 11.8963C26.4388 12.1452 26.9649 12.776 26.9917 13.5322C27.0055 13.9193 27.0021 14.3068 26.9815 14.6936C26.9415 15.4485 26.4054 16.0696 25.6875 16.3065L25.0049 16.5319C24.3765 16.7393 23.9039 17.2495 23.6577 17.8638C23.6042 17.9973 23.5479 18.1296 23.4889 18.2607C23.2167 18.8653 23.1774 19.5611 23.4654 20.1583L23.777 20.8045C24.1052 21.4853 24.0312 22.3021 23.5162 22.8552C23.2522 23.1389 22.9757 23.4106 22.6876 23.6696C22.1253 24.1752 21.3068 24.2348 20.6317 23.8942L19.9941 23.5726C19.401 23.2734 18.7034 23.301 18.0929 23.563C17.962 23.6192 17.83 23.6726 17.6968 23.7233C17.0765 23.9593 16.5564 24.4241 16.338 25.0508L16.1034 25.7242C15.8545 26.4388 15.2237 26.9649 14.4675 26.9917C14.0804 27.0055 13.6929 27.0021 13.3061 26.9815C12.5512 26.9415 11.9302 26.4054 11.6932 25.6875L11.4679 25.0049C11.2604 24.3765 10.7503 23.9039 10.136 23.6576C10.0025 23.6041 9.87018 23.5478 9.73908 23.4888C9.13446 23.2167 8.4387 23.1774 7.84146 23.4654L7.19533 23.7769C6.51457 24.1052 5.69772 24.0311 5.14456 23.5162C4.86096 23.2521 4.58923 22.9756 4.33018 22.6875C3.82468 22.1252 3.76502 21.3067 4.10559 20.6317L4.42803 19.9925C4.7268 19.4003 4.69984 18.7036 4.43826 18.094C4.38156 17.9619 4.32763 17.8286 4.27649 17.6942C4.04092 17.0752 3.57685 16.5564 2.95148 16.3381L2.27474 16.1019C1.56063 15.8527 1.03507 15.2221 1.00825 14.4662C0.994533 14.0795 0.997922 13.6924 1.01841 13.3061C1.05844 12.5511 1.5945 11.93 2.31241 11.693L2.99382 11.4681C3.62289 11.2604 4.09564 10.7494 4.34202 10.1345C4.39526 10.0016 4.45117 9.87013 4.50971 9.74005C4.7822 9.13458 4.82211 8.43784 4.53373 7.83977L4.22287 7.19508C3.89462 6.51433 3.9687 5.6975 4.48365 5.14434C4.74767 4.86073 5.02416 4.589 5.3123 4.32995C5.8746 3.82443 6.69308 3.76477 7.36817 4.10535L8.00575 4.42701C8.59882 4.72622 9.29651 4.69861 9.90693 4.43662C10.0381 4.38034 10.1704 4.32681 10.3037 4.27606C10.9237 4.04019 11.4436 3.57588 11.6622 2.94965L11.8978 2.27461C12.1471 1.56042 12.7778 1.03481 13.5337 1.00815C13.689 1.00267 13.8445 0.999953 13.9999 1Z" stroke="black" stroke-width="2" stroke-linecap="round" stroke-linejoin="round"/>
<path d="M14 19C16.7614 19 19 16.7614 19 14C19 11.2386 16.7614 9 14 9C11.2386 9 9 11.2386 9 14C9 16.7614 11.2386 19 14 19Z" stroke="black" stroke-width="2" stroke-linecap="round" stroke-linejoin="round"/>
</svg>
